<svg width="25" height="24" viewBox="0 0 25 24" fill="none" xmlns="http://www.w3.org/2000/svg">
<g clip-path="url(#clip0_2_3366)">
<mask id="mask0_2_3366" style="mask-type:luminance" maskUnits="userSpaceOnUse" x="1" y="0" width="24" height="24">
<path d="M24.0291 0.414062H1.27734V23.1658H24.0291V0.414062Z" fill="white"/>
</mask>
<g mask="url(#mask0_2_3366)">
<mask id="mask1_2_3366" style="mask-type:luminance" maskUnits="userSpaceOnUse" x="1" y="0" width="24" height="24">
<path d="M24.0291 0.414062H1.27734V23.1658H24.0291V0.414062Z" fill="white"/>
</mask>
<g mask="url(#mask1_2_3366)">
<path d="M5.41501 7.65425C7.12849 7.65425 8.51753 6.2652 8.51753 4.55173C8.51753 2.83826 7.12849 1.44922 5.41501 1.44922C3.70154 1.44922 2.3125 2.83826 2.3125 4.55173C2.3125 6.2652 3.70154 7.65425 5.41501 7.65425Z" stroke="white" stroke-width="2.06834" stroke-linecap="round" stroke-linejoin="round"/>
<path d="M19.8935 22.1308C21.607 22.1308 22.996 20.7418 22.996 19.0283C22.996 17.3148 21.607 15.9258 19.8935 15.9258C18.1801 15.9258 16.791 17.3148 16.791 19.0283C16.791 20.7418 18.1801 22.1308 19.8935 22.1308Z" stroke="white" stroke-width="2.06834" stroke-linecap="round" stroke-linejoin="round"/>
<path d="M12.1367 4.55078H22.9955" stroke="white" stroke-width="2.06834" stroke-linecap="round" stroke-linejoin="round"/>
<path d="M19.8926 1.44922L22.9951 4.55173L19.8926 7.65425" stroke="white" stroke-width="2.06834" stroke-linecap="round" stroke-linejoin="round"/>
<path d="M12.6542 19.0312H2.3125" stroke="white" stroke-width="2.06834" stroke-linecap="round" stroke-linejoin="round"/>
<path d="M5.41501 15.9258L2.3125 19.0283L5.41501 22.1308" stroke="white" stroke-width="2.06834" stroke-linecap="round" stroke-linejoin="round"/>
</g>
</g>
</g>
<defs>
<clipPath id="clip0_2_3366">
<rect width="24" height="24" fill="white" transform="translate(0.5)"/>
</clipPath>
</defs>
</svg>
