<?xml version="1.0" encoding="utf-8"?>
<!-- Generator: Adobe Illustrator 28.3.0, SVG Export Plug-In . SVG Version: 6.00 Build 0)  -->
<svg version="1.1" id="OneChoice_Raleway" xmlns="http://www.w3.org/2000/svg" xmlns:xlink="http://www.w3.org/1999/xlink" x="0px"
	 y="0px" viewBox="0 0 513.1 150.2" style="enable-background:new 0 0 513.1 150.2;" xml:space="preserve">
<style type="text/css">
	.st0{fill:#FFFFFF;}
</style>
<g>
	<g>
		<g>
			<path class="st0" d="M92.1,53.4c0-14.8,10.3-24.2,23.3-24.2s23.3,9.3,23.3,24.2v24.9c0,3.2-2.6,5.8-5.7,5.8
				c-3.2,0-5.7-2.6-5.7-5.8V53c0-8.6-5.3-13.2-11.9-13.2s-11.9,4.6-11.9,13.2v25.3c0,3.2-2.5,5.8-5.7,5.8S92,81.5,92,78.3L92.1,53.4
				L92.1,53.4z"/>
			<path class="st0" d="M144.6,56.7c0-15.3,11.7-27.5,27.5-27.5c8.1,0,14.4,3.2,17.9,6.4c1.2,1.1,2.1,2.7,2.1,4.4
				c0,1.5-0.4,2.7-1.7,4.2l-16,19c-1.1,1.3-2.4,1.9-3.9,1.9c-3.1,0-5.4-2.2-5.4-5.2c0-1.2,0.3-2.5,1.2-3.4l12.6-14.7
				c-1.8-1.2-4.6-1.9-6.9-1.9c-8.9,0-16,7.5-16,16.9c0,9.3,6.9,16.9,16,16.9c4.9,0,8.5-2.1,11-4.7c1.7-1.3,2.8-2.6,5-2.6
				c3.2,0,5.6,2.3,5.6,5.5c0,1.1-0.6,2.6-1.7,3.7c-3.9,4.8-11.1,8.6-19.9,8.6C156.4,84.2,144.6,72.1,144.6,56.7z"/>
			<path class="st0" d="M197.5,46.8c0-20.8,16.2-37.3,36.6-37.3c12,0,22.4,5.7,28.8,14.1c0.5,0.6,0.8,1.4,0.8,2
				c0,1.6-1.2,2.7-2.8,2.7c-0.7,0-1.6-0.4-2.2-1.1c-5.5-7.5-14.3-12.6-24.7-12.6c-17.3,0-31,14.2-31,32.3c0,18,13.7,32.2,31,32.2
				c10.4,0,19.2-5.1,24.7-12.6c0.6-0.7,1.5-1.1,2.2-1.1c1.6,0,2.8,1.1,2.8,2.7c0,0.6-0.3,1.3-0.8,2c-6.4,8.5-16.8,14.2-28.8,14.2
				C213.7,84.2,197.5,67.7,197.5,46.8z"/>
			<path class="st0" d="M272.1,12.4c0-1.4,1-2.6,2.6-2.6c1.5,0,2.6,1.1,2.6,2.6v26.4c3.3-5.9,9.6-9.5,17.5-9.5
				c12.1,0,21.7,8.5,21.7,23.8v28.2c0,1.4-1.1,2.7-2.6,2.7c-1.5,0-2.6-1.2-2.6-2.7V52.9c0-12.5-7.5-18.9-17-18.9
				c-9.3,0-17,6.2-17,18.9v28.3c0,1.4-1.1,2.7-2.6,2.7c-1.6,0-2.6-1.2-2.6-2.7V12.4z"/>
			<path class="st0" d="M323.6,56.7c0-15.3,11.9-27.5,27.2-27.5s27.1,12.1,27.1,27.5c0,15.4-11.8,27.5-27.1,27.5
				S323.6,72.1,323.6,56.7z M372.7,56.7c0-12.7-9.6-22.7-21.9-22.7s-22,10.1-22,22.7c0,12.6,9.8,22.7,22,22.7S372.7,69.3,372.7,56.7
				z"/>
			<path class="st0" d="M384.1,18.2c0-2.1,1.6-3.6,3.6-3.6c2,0,3.6,1.6,3.6,3.6c0,2-1.7,3.6-3.6,3.6
				C385.7,21.9,384.1,20.2,384.1,18.2z M385.2,32.1c0-1.5,1-2.6,2.6-2.6c1.5,0,2.6,1.1,2.6,2.6v49.1c0,1.4-1.1,2.7-2.6,2.7
				c-1.6,0-2.6-1.2-2.6-2.7V32.1z"/>
			<path class="st0" d="M397.5,56.7c0-15.3,11.9-27.5,27.2-27.5c8.6,0,15.8,3.7,20.5,9.3c0.4,0.5,0.8,1.3,0.8,2
				c0,1.3-1.1,2.4-2.6,2.4c-0.9,0-1.5-0.5-2.2-1.1c-3.9-4.7-9.6-7.8-16.6-7.8c-12.2,0-22,10-22,22.7c0,12.7,9.8,22.7,22,22.7
				c6.9,0,12.7-3.1,16.6-7.9c0.6-0.6,1.2-1.1,2.2-1.1c1.5,0,2.6,1,2.6,2.5c0,0.5-0.4,1.3-0.8,1.9c-4.8,5.6-11.9,9.4-20.5,9.4
				C409.4,84.2,397.5,72.1,397.5,56.7z"/>
			<path class="st0" d="M450.2,56.7c0-15.3,11.9-27.5,27.2-27.5c7,0,13.4,2.6,18,6.9c0.5,0.5,0.9,1.2,0.9,2.1c0,0.6-0.2,1.2-0.9,2.1
				l-21.1,25.1c-0.5,0.6-1.1,0.9-1.9,0.9c-1.5,0-2.5-1-2.5-2.4c0-0.5,0.2-1.1,0.6-1.7l19.9-23.5c-3.7-3.3-8.6-4.8-13.2-4.8
				c-12.2,0-22,10-22,22.7c0,12.7,9.8,22.7,22,22.7c7,0,12.7-3.1,16.6-7.9c0.7-0.6,1.4-1.1,2.2-1.1c1.5,0,2.6,1,2.6,2.5
				c0,0.5-0.4,1.3-0.8,1.9c-4.8,5.6-11.9,9.4-20.5,9.4C462.1,84.2,450.2,72.1,450.2,56.7z"/>
		</g>
		<path class="st0" d="M87.3,46.8C87.3,26,70.9,9.5,50.1,9.5c-6.2,0-12,1.5-17.1,4.1c-0.6,0.9-1.2,1.9-1.8,2.9
			c-2.1,3.8-3.6,7.9-4.6,12.1c-0.5,2.1-0.9,4.2-1.1,6.4c-0.2,2.1-0.3,4.3-0.2,6.4c0,1.2,0.1,2.3,0.3,3.5c1-13.4,11.4-23.6,24.5-23.6
			c13.8,0,24.7,11.3,24.7,25.6c0,14.2-10.9,25.5-24.7,25.5c-1.5,0-2.9-0.2-4.2-0.4c3.5,2.2,7.3,4.2,10.9,6.6
			c1.8,1.2,3.5,2.4,5.1,3.8C76.8,77.4,87.3,63.6,87.3,46.8z"/>
		<path class="st0" d="M43.1,75.1c-4.1-2.2-8-4.9-11.5-8l-1.3-1.2l-1.2-1.3l-1.2-1.3c-0.4-0.4-0.8-0.9-1.2-1.4
			c-1.5-2-2.8-4.1-3.8-6.4c-1.9-4.5-2.7-9.4-2.6-14.2s0.9-9.5,2.4-13.9c1.3-3.8,3-7.5,5.3-10.8c0.4-0.5,0.7-1.1,1.1-1.6
			c1.2-1.6,3.7-4.4,5.6-6.1C22.6,15.1,13.9,25.3,9.5,36.4c1.7,0.8,3.3,1.4,4.4,1.8c0.7,0.2,1.2,0.4,1.4,0.4c-0.5,0.2-1,0.3-1.6,0.4
			c-1.6,0.2-3.4-0.2-4.9-0.6c-0.6,1.7-1.1,3.3-1.4,5C9.6,43.8,11.6,44,13,44c1,0,1.7,0,1.9,0c-0.5,0.5-1.2,0.8-1.9,1.1
			c-1.9,0.7-4.3,0.8-6.1,0.8c-0.3,1.8-0.5,3.5-0.5,5.3c2.6,0.2,5.1,0.2,6.8,0.1c1.5-0.1,2.6-0.2,2.8-0.3c-0.6,0.7-1.6,1.3-2.6,1.8
			c-2.2,1-5.1,1.4-7.1,1.6C6.4,56.2,6.6,58,7,59.8c3,0,5.8-0.3,8-0.6c2.4-0.3,4.1-0.7,4.5-0.8c-0.8,1.2-2.2,2.1-3.8,2.8
			c-2.6,1.2-5.7,2-7.7,2.3c0.6,1.7,1.3,3.3,2.1,4.9c3.1-0.4,6-1,8.5-1.6c3.7-0.9,6.3-1.9,6.8-2.1c-1,1.8-2.9,3.3-5.1,4.6
			c-2.6,1.5-5.6,2.6-7.6,3.2c1.4,1.9,2.9,3.6,4.6,5.1c3-0.7,5.9-1.6,8.3-2.5c4.3-1.6,7.3-3,7.8-3.3c-0.8,2.1-2.7,4-4.9,5.6
			c-2,1.5-4.2,2.7-6.1,3.7c3.9,2.2,8.3,3.3,12.6,3c2.4-0.2,4.5-0.5,6.4-1c5.1-1.2,8.2-3.1,9.9-4.2C48.5,77.7,45.8,76.5,43.1,75.1z"
			/>
	</g>
	<g>
		<path class="st0" d="M148,137.2v-15.2h1.9v15.2H148z"/>
		<path class="st0" d="M161.9,125.7v11.6H160v-15.2h1.5l9.4,11.8v-11.8h1.9v15.1h-1.6L161.9,125.7z"/>
		<path class="st0" d="M191.7,125.3c-0.2-0.2-0.4-0.4-0.7-0.6c-0.3-0.2-0.6-0.3-1-0.5c-0.4-0.2-0.7-0.3-1.2-0.4
			c-0.4-0.1-0.9-0.1-1.3-0.1c-1.2,0-2.1,0.2-2.6,0.7s-0.8,1.1-0.8,1.8c0,0.4,0.1,0.8,0.2,1s0.4,0.5,0.7,0.7c0.3,0.2,0.8,0.4,1.2,0.5
			s1.1,0.3,1.8,0.4c0.8,0.2,1.5,0.4,2.1,0.6c0.6,0.2,1.2,0.5,1.6,0.8c0.4,0.3,0.8,0.7,1,1.2s0.4,1.1,0.4,1.7c0,0.7-0.1,1.4-0.4,1.9
			s-0.7,1-1.2,1.3c-0.5,0.4-1.1,0.6-1.7,0.8s-1.4,0.2-2.2,0.2c-1.2,0-2.3-0.2-3.3-0.5c-1.1-0.4-2-0.9-2.9-1.6l0.9-1.6
			c0.2,0.2,0.5,0.5,0.9,0.7c0.4,0.2,0.8,0.5,1.2,0.6c0.5,0.2,1,0.4,1.5,0.5c0.5,0.1,1.1,0.2,1.7,0.2c1.1,0,1.9-0.2,2.5-0.6
			c0.6-0.4,0.9-1,0.9-1.7c0-0.4-0.1-0.8-0.3-1.1s-0.5-0.5-0.8-0.8c-0.4-0.2-0.8-0.4-1.4-0.6c-0.6-0.2-1.2-0.3-1.9-0.5
			c-0.8-0.2-1.4-0.4-2-0.6s-1.1-0.5-1.5-0.8s-0.7-0.7-0.9-1.1c-0.2-0.4-0.3-0.9-0.3-1.5c0-0.7,0.1-1.4,0.4-1.9s0.6-1,1.1-1.4
			s1.1-0.7,1.7-0.9c0.7-0.2,1.4-0.3,2.2-0.3c1,0,1.9,0.2,2.8,0.5s1.6,0.7,2.2,1.3L191.7,125.3z"/>
		<path class="st0" d="M208.5,135.6c0.9,0,1.6-0.2,2.2-0.5s1.1-0.8,1.4-1.3c0.4-0.6,0.6-1.2,0.7-1.9c0.1-0.7,0.2-1.4,0.2-2.1v-7.7
			h1.9v7.7c0,1-0.1,2-0.4,2.9c-0.2,0.9-0.6,1.7-1.1,2.4s-1.2,1.2-2,1.7s-1.8,0.6-3,0.6c-1.2,0-2.2-0.2-3.1-0.6c-0.8-0.4-1.5-1-2-1.7
			c-0.5-0.7-0.9-1.5-1.1-2.4s-0.3-1.9-0.3-2.8v-7.7h1.9v7.7c0,0.8,0.1,1.5,0.2,2.2c0.1,0.7,0.4,1.3,0.8,1.9s0.8,1,1.4,1.3
			C206.9,135.5,207.6,135.6,208.5,135.6z"/>
		<path class="st0" d="M224.8,137.2v-15.2h6.5c0.7,0,1.3,0.1,1.9,0.4c0.6,0.3,1.1,0.7,1.4,1.1c0.4,0.5,0.7,1,0.9,1.6
			c0.2,0.6,0.3,1.2,0.3,1.8c0,0.5-0.1,1-0.2,1.5c-0.1,0.5-0.4,0.9-0.6,1.3s-0.6,0.7-1,1s-0.8,0.5-1.3,0.6l3.7,5.8h-2.2l-3.5-5.4h-4
			v5.4L224.8,137.2L224.8,137.2z M226.7,130.1h4.6c0.4,0,0.8-0.1,1.1-0.3s0.6-0.4,0.8-0.7c0.2-0.3,0.4-0.6,0.5-1
			c0.1-0.4,0.2-0.8,0.2-1.2c0-0.4-0.1-0.8-0.2-1.2s-0.4-0.7-0.6-1s-0.5-0.5-0.9-0.7c-0.3-0.2-0.7-0.2-1.1-0.2h-4.5L226.7,130.1
			L226.7,130.1z"/>
		<path class="st0" d="M249.9,122.1h1.6l6.2,15.2h-2.1l-1.8-4.4h-6.4l-1.8,4.4h-2.1L249.9,122.1z M253.4,131.3l-2.7-7l-2.8,7H253.4z
			"/>
		<path class="st0" d="M268.1,125.7v11.6h-1.9v-15.2h1.5l9.4,11.8v-11.8h1.9v15.1h-1.6L268.1,125.7z"/>
		<path class="st0" d="M288,129.6c0-0.9,0.2-1.8,0.5-2.7s0.8-1.7,1.4-2.4s1.4-1.3,2.3-1.7c0.9-0.4,1.9-0.7,3.1-0.7
			c1.4,0,2.5,0.3,3.5,0.9c1,0.6,1.7,1.4,2.2,2.4l-1.5,1c-0.2-0.5-0.5-0.9-0.8-1.2s-0.7-0.6-1-0.8s-0.8-0.3-1.2-0.4
			c-0.4-0.1-0.8-0.1-1.2-0.1c-0.8,0-1.6,0.2-2.2,0.5s-1.2,0.8-1.6,1.4s-0.8,1.2-1,1.9c-0.2,0.7-0.3,1.4-0.3,2.1
			c0,0.8,0.1,1.6,0.4,2.3c0.3,0.7,0.6,1.4,1.1,1.9s1,1,1.7,1.3c0.6,0.3,1.3,0.5,2.1,0.5c0.4,0,0.8-0.1,1.2-0.1
			c0.4-0.1,0.8-0.3,1.2-0.5c0.4-0.2,0.7-0.5,1.1-0.8c0.3-0.3,0.6-0.7,0.8-1.2l1.6,0.9c-0.2,0.6-0.6,1.1-1,1.5s-0.9,0.8-1.5,1.1
			c-0.5,0.3-1.1,0.5-1.7,0.7c-0.6,0.2-1.2,0.2-1.8,0.2c-1,0-2-0.2-2.9-0.7s-1.6-1.1-2.2-1.8c-0.6-0.7-1.1-1.6-1.5-2.5
			C288.2,131.5,288,130.5,288,129.6z"/>
		<path class="st0" d="M320.3,135.5v1.7H310v-15.2h10.1v1.7h-8.2v4.9h7.1v1.6h-7.1v5.2L320.3,135.5L320.3,135.5z"/>
		<path class="st0" d="M341.2,137.2v-15.2h10v1.7h-8.1v5.1h6.8v1.6h-6.8v6.8L341.2,137.2L341.2,137.2z"/>
		<path class="st0" d="M365.9,137.4c-1.1,0-2-0.2-2.9-0.6s-1.6-1-2.3-1.7s-1.1-1.5-1.5-2.5c-0.3-0.9-0.5-1.9-0.5-2.8
			c0-1,0.2-2,0.5-2.9c0.4-0.9,0.9-1.8,1.5-2.5s1.4-1.3,2.3-1.7s1.8-0.6,2.9-0.6c1.1,0,2,0.2,2.9,0.7s1.6,1,2.2,1.8
			c0.6,0.7,1.1,1.6,1.5,2.5s0.5,1.9,0.5,2.8c0,1-0.2,2-0.5,2.9c-0.4,0.9-0.9,1.7-1.5,2.4c-0.6,0.7-1.4,1.3-2.3,1.7
			C367.9,137.1,367,137.4,365.9,137.4z M360.7,129.7c0,0.8,0.1,1.5,0.4,2.2s0.6,1.4,1.1,1.9c0.5,0.6,1,1,1.6,1.3
			c0.6,0.3,1.4,0.5,2.1,0.5c0.8,0,1.5-0.2,2.2-0.5c0.6-0.4,1.2-0.8,1.6-1.4c0.5-0.6,0.8-1.2,1-1.9s0.4-1.4,0.4-2.2
			c0-0.8-0.1-1.5-0.4-2.2c-0.2-0.7-0.6-1.3-1.1-1.9c-0.5-0.6-1-1-1.6-1.3c-0.6-0.3-1.3-0.5-2.1-0.5c-0.8,0-1.5,0.2-2.2,0.5
			c-0.6,0.3-1.2,0.8-1.6,1.3c-0.5,0.6-0.8,1.2-1,1.9C360.9,128.2,360.7,128.9,360.7,129.7z"/>
		<path class="st0" d="M382.2,137.2v-15.2h6.5c0.7,0,1.3,0.1,1.9,0.4s1,0.7,1.5,1.1c0.4,0.5,0.7,1,1,1.6c0.2,0.6,0.3,1.2,0.3,1.8
			c0,0.5-0.1,1-0.2,1.5c-0.1,0.5-0.4,0.9-0.6,1.3c-0.3,0.4-0.6,0.7-1,1s-0.8,0.5-1.3,0.6l3.7,5.8h-2.2l-3.5-5.4h-4v5.4L382.2,137.2
			L382.2,137.2z M384.1,130.1h4.6c0.4,0,0.8-0.1,1.1-0.3c0.3-0.2,0.6-0.4,0.8-0.7c0.2-0.3,0.4-0.6,0.5-1c0.1-0.4,0.2-0.8,0.2-1.2
			c0-0.4-0.1-0.8-0.2-1.2s-0.4-0.7-0.6-1s-0.5-0.5-0.9-0.7c-0.3-0.2-0.7-0.2-1.1-0.2h-4.5L384.1,130.1L384.1,130.1z"/>
		<path class="st0" d="M414.4,137.2v-15.2h1.9v8.4l7.8-8.4h2.1l-6.1,6.7l6.4,8.5h-2.1l-5.5-7.4l-2.6,2.7v4.6L414.4,137.2
			L414.4,137.2z"/>
		<path class="st0" d="M434.8,137.2v-15.2h1.9v15.2H434.8z"/>
		<path class="st0" d="M452.3,122.2h1.8l2,5.3l2-5.3h1.8l-2.6,6.6l2.6,6.3l5.1-12.9h2.1l-6.4,15.2h-1.7l-3-7.2l-3,7.2h-1.7
			l-6.3-15.2h2.1l5.1,13l2.6-6.3L452.3,122.2z"/>
		<path class="st0" d="M475.6,137.2v-15.2h1.9v15.2H475.6z"/>
		<path class="st0" d="M496.5,125.3c-0.2-0.2-0.4-0.4-0.7-0.6s-0.6-0.3-1-0.5s-0.7-0.3-1.2-0.4s-0.9-0.1-1.3-0.1
			c-1.2,0-2,0.2-2.6,0.7s-0.8,1.1-0.8,1.8c0,0.4,0.1,0.8,0.2,1s0.4,0.5,0.7,0.7c0.3,0.2,0.8,0.4,1.2,0.5s1.1,0.3,1.8,0.4
			c0.8,0.2,1.5,0.4,2.1,0.6c0.6,0.2,1.2,0.5,1.6,0.8s0.8,0.7,1,1.2s0.4,1.1,0.4,1.7c0,0.7-0.1,1.4-0.4,1.9c-0.3,0.5-0.7,1-1.2,1.3
			c-0.5,0.4-1.1,0.6-1.7,0.8c-0.7,0.2-1.4,0.2-2.2,0.2c-1.2,0-2.3-0.2-3.3-0.5c-1-0.4-2-0.9-2.9-1.6l0.9-1.6
			c0.2,0.2,0.5,0.5,0.9,0.7c0.4,0.2,0.8,0.5,1.2,0.6c0.5,0.2,1,0.4,1.5,0.5s1.1,0.2,1.7,0.2c1.1,0,1.9-0.2,2.5-0.6
			c0.6-0.4,0.9-1,0.9-1.7c0-0.4-0.1-0.8-0.3-1.1c-0.2-0.3-0.5-0.5-0.8-0.8c-0.4-0.2-0.8-0.4-1.4-0.6c-0.5-0.2-1.2-0.3-1.9-0.5
			c-0.8-0.2-1.5-0.4-2-0.6s-1.1-0.5-1.5-0.8c-0.4-0.3-0.7-0.7-0.9-1.1c-0.2-0.4-0.3-0.9-0.3-1.5c0-0.7,0.1-1.4,0.4-1.9
			c0.3-0.6,0.6-1,1.1-1.4c0.5-0.4,1.1-0.7,1.7-0.9c0.7-0.2,1.4-0.3,2.2-0.3c1,0,2,0.2,2.8,0.5s1.6,0.7,2.2,1.3L496.5,125.3z"/>
	</g>
	<path class="st0" d="M119.4,95.8c0,0,0.3,0.2,1,0.5c0.7,0.3,1.7,0.9,3,1.4c2.7,1.1,6.7,2.4,12,3.6s11.8,2.1,19.2,2.8
		c7.5,0.7,16,1.1,25.2,1.4c18.5,0.6,40.1,0.1,63.3-0.6c23.2-0.7,47.9-1.8,72.6-2.9c24.7-0.9,49.5-1.8,72.7-2.3
		c23.2-0.5,44.9-0.2,63.5,0.7s34,3,44.6,5.4c5.3,1.2,9.4,2.5,12.1,3.6c1.4,0.5,2.4,1,3,1.3c0.7,0.3,1,0.5,1,0.5s-0.4-0.1-1.1-0.4
		c-0.7-0.3-1.7-0.7-3.1-1.1c-2.7-1-6.9-2-12.2-3c-5.3-1-11.8-1.8-19.3-2.5c-7.5-0.6-16-1-25.2-1.3c-18.5-0.5-40.1,0-63.3,0.7
		c-23.2,0.7-47.9,1.8-72.6,2.9c-24.7,0.9-49.5,1.8-72.7,2.3c-11.6,0.3-22.9,0.3-33.5,0.1c-10.6-0.1-20.7-0.4-30-0.9
		c-18.6-1-34-3.1-44.6-5.8c-5.3-1.3-9.3-2.9-11.9-4.2c-1.3-0.6-2.3-1.2-2.9-1.6C119.7,96,119.4,95.8,119.4,95.8z"/>
</g>
<g>
	<path class="st0" d="M489,23.5c-1,0-2-0.2-2.9-0.5s-1.6-0.9-2.3-1.5s-1.1-1.4-1.5-2.2c-0.4-0.9-0.5-1.8-0.5-2.8
		c0-1,0.2-1.9,0.5-2.8c0.4-0.9,0.9-1.6,1.5-2.2s1.4-1.1,2.3-1.5c0.9-0.4,1.9-0.5,2.9-0.5s2,0.2,2.9,0.5s1.7,0.9,2.3,1.5
		c0.6,0.6,1.2,1.4,1.5,2.2c0.4,0.9,0.5,1.8,0.5,2.8c0,1-0.2,2-0.5,2.8c-0.4,0.9-0.9,1.6-1.5,2.2s-1.4,1.1-2.3,1.5
		S490.1,23.5,489,23.5z M489,22.7c0.9,0,1.7-0.1,2.5-0.5c0.8-0.3,1.5-0.7,2-1.3s1-1.2,1.4-2c0.3-0.8,0.5-1.6,0.5-2.5
		c0-0.9-0.2-1.7-0.5-2.4s-0.8-1.4-1.3-2c-0.6-0.6-1.2-1-2-1.3c-0.8-0.3-1.6-0.5-2.5-0.5c-0.9,0-1.8,0.2-2.5,0.5s-1.4,0.8-2,1.3
		s-1,1.2-1.3,1.9s-0.5,1.6-0.5,2.4c0,0.9,0.2,1.7,0.5,2.5s0.8,1.4,1.3,2s1.2,1,2,1.3S488.1,22.7,489,22.7z M485.9,12.2h3.8
		c0.4,0,0.8,0.1,1.1,0.2s0.6,0.4,0.9,0.6s0.4,0.6,0.5,0.9c0.1,0.3,0.2,0.7,0.2,1c0,0.6-0.2,1.1-0.5,1.6s-0.7,0.8-1.2,1l2.1,3.3H491
		l-1.9-3h-1.6v3h-1.5L485.9,12.2L485.9,12.2z M489.6,16.5c0.4,0,0.7-0.1,0.9-0.4s0.3-0.6,0.3-1.1c0-0.4-0.1-0.8-0.4-1.1
		s-0.6-0.4-0.9-0.4h-2.1v2.9C487.5,16.5,489.6,16.5,489.6,16.5z"/>
</g>
</svg>
