<?xml version="1.0" encoding="utf-8"?>
<!-- Generator: Adobe Illustrator 28.3.0, SVG Export Plug-In . SVG Version: 6.00 Build 0)  -->
<svg version="1.1" id="layer" xmlns="http://www.w3.org/2000/svg" xmlns:xlink="http://www.w3.org/1999/xlink" x="0px" y="0px"
	 viewBox="0 0 618 117" style="enable-background:new 0 0 618 117;" xml:space="preserve">
<style type="text/css">
	.st0{fill:#FFFFFF;}
</style>
<path class="st0" d="M500,104.6h2.4c12.4,0,18.1-10.7,17.7-19.9l-0.4-52c0-14.3-13.2-20.3-16.9-20.3H500V10h31.3l57.4,73.5l-0.4-48
	c-0.4-19.5-10-23-16.9-23h-2.8v-2.4h39.7v2.4h-2c-8.4,0-15.7,7.9-15.2,21.8l0.8,73.5h-6l-63-81v56.4c0,15.1,9.2,21.4,18.1,21.4h2.4
	v2.4H500V104.6L500,104.6z M436.5,29.9l-15.7,40.5H451L436.5,29.9z M443.4,7.7h2.4l32.1,87c2.4,6.8,4.8,9.9,12.4,9.9h4.4v2.4H445
	v-2.4h8.4c5.2,0,8-1.6,8-5.2c0-1.2-0.4-2-0.8-3.6l-8-22.6h-32.1c-4.8,12.3-6.4,15.5-6.4,20.3c0,6.4,4.4,11.1,11.6,11.1h2.4v2.4
	h-35.3v-2.4c8.8,0,15.2-7.5,20.1-20.6L443.4,7.7L443.4,7.7z M318.1,76.4c7.2,19.1,21.7,29.8,35.3,29.8c12,0,18.5-8.3,18.5-17.9
	c0-4-1.2-9.1-5.2-13.1c-10.8-10.3-29.3-7.9-41.3-20.3c-4.8-4.8-8-11.5-8-20.2c0-14.3,10-26.2,24.9-26.2c10.8,0,18.5,6,22.9,6
	c3.2,0,6.8-2,8.4-5.6h1.6l1.6,27.4h-1.2c-2-3.2-5.2-9.1-10.8-14.7c-6.8-6.8-14.4-10.7-22.1-10.7c-6.4,0-16.5,3.2-16.5,15.5
	c0,4,1.6,8.3,4.8,11.5c10.8,10.7,31.3,8.3,45.4,21.8c4.4,4.4,7.2,11.1,7.2,19.1c0,18.7-11.6,29.4-28.9,29.4
	c-11.2,0-17.7-5.6-24.5-5.6c-6,0-9.2,3.6-11.6,5.6h-1.2V75.6h0.8L318.1,76.4L318.1,76.4z M221,76.4c7.2,19.1,21.7,29.8,35.3,29.8
	c12,0,18.5-8.3,18.5-17.9c0-4-1.2-9.1-5.2-13.1c-10.8-10.7-28.9-8.3-41.3-20.3c-4.8-4.8-8-11.5-8-20.2c0-14.3,10-26.2,24.9-26.2
	c10.8,0,18.5,6,22.9,6c3.2,0,6.8-2,8.4-5.6h1.6l1.6,27.4h-1.2c-2-3.2-5.2-9.1-10.8-14.7c-6.8-6.8-14.4-10.7-22.1-10.7
	c-6.4,0-16.5,3.2-16.5,15.5c0,4,1.6,8.3,4.8,11.5c10.8,10.7,31.3,8.3,45.4,21.8c4.4,4.4,7.2,11.1,7.2,19.1
	c0,18.7-11.6,29.4-28.9,29.4c-11.2,0-17.7-5.6-24.5-5.6c-6,0-9.2,3.6-11.6,5.6h-1.2V75.6h0.8L221,76.4L221,76.4z M148.8,29.9
	l-15.7,40.5h30.1L148.8,29.9L148.8,29.9z M155.6,8.5h2l32.1,86.2c2.4,6.8,4.8,9.9,12.4,9.9h4.4v2.4h-49.8v-2.4h8.4
	c5.2,0,8-1.6,8-5.2c0-1.2-0.4-2-0.8-3.6l-8-22.6h-32.1c-4.8,12.3-6.4,15.5-6.4,20.3c0,6.4,4.4,11.1,11.6,11.1h2.4v2.4h-35.3v-2.4
	c8.8,0,15.3-7.5,20.1-20.6L155.6,8.5z M89.4,111.3l-0.4-4.8c-3.2-2.4-4.8-5.2-8.8-5.2c-9.2,0-14.8,7.9-27.7,7.9
	c-27.3,0-44.1-17.9-44.1-46.1c0-33.4,21.3-54.8,44.9-54.8c10,0,18.9,4.4,26.5,11.1c2.8-2.4,5.2-7.5,6.8-10.7h2L91,47h-2
	c-5.6-21.4-19.7-35.7-35.3-35.7c-26.1,0-26.9,31.8-26.9,48c0,12.7,0,47.6,28.9,47.6c8.8,0,18.9-4,18.9-15.9l-1.2-11.5
	c0-9.9-4.8-13.9-15.7-13.9h-2v-2.4h47.8v2.4c-10.4,0-14,4-14,13.9C89.4,79.6,89.4,111.3,89.4,111.3z"/>
</svg>
