<?xml version="1.0" encoding="utf-8"?>
<!-- Generator: Adobe Illustrator 28.3.0, SVG Export Plug-In . SVG Version: 6.00 Build 0)  -->
<svg version="1.1"
	 id="Layer_1" xmlns:inkscape="http://www.inkscape.org/namespaces/inkscape" xmlns:sodipodi="http://sodipodi.sourceforge.net/DTD/sodipodi-0.dtd" xmlns:svg="http://www.w3.org/2000/svg"
	 xmlns="http://www.w3.org/2000/svg" xmlns:xlink="http://www.w3.org/1999/xlink" x="0px" y="0px" viewBox="0 0 236.5 39.1"
	 style="enable-background:new 0 0 236.5 39.1;" xml:space="preserve">
<style type="text/css">
	.st0{fill:#FFFFFF;}
</style>
<sodipodi:namedview  bordercolor="#666666" borderopacity="1.0" id="namedview35" inkscape:current-layer="Layer_1" inkscape:cx="118.35492" inkscape:cy="19.620896" inkscape:pagecheckerboard="0" inkscape:pageopacity="0.0" inkscape:pageshadow="2" inkscape:window-height="847" inkscape:window-maximized="0" inkscape:window-width="1296" inkscape:window-x="0" inkscape:window-y="25" inkscape:zoom="4.7653277" pagecolor="#ffffff" showgrid="false">
	</sodipodi:namedview>
<path id="path6" class="st0" d="M0,19.7C0,9,8.7,0.3,19.4,0.3S38.8,9,38.8,19.7s-8.7,19.4-19.4,19.4c0,0,0,0,0,0
	C8.7,39.1,0,30.4,0,19.7C0,19.7,0,19.7,0,19.7z M22.1,30.8c4.7,0,8.4-3.8,8.4-8.4c0-4.7-3.8-8.4-8.4-8.4c-4.7,0-8.4,3.8-8.4,8.4
	c0,0,0,0,0,0C13.7,27.1,17.4,30.8,22.1,30.8C22.1,30.8,22.1,30.8,22.1,30.8z"/>
<path id="path8" class="st0" d="M60,10.8c2-0.1,4,0.7,5.4,2.2c1.5,1.6,2.2,3.8,2.1,6v12.2h-5.1V19.6c0.1-1.1-0.3-2.2-1.1-3
	c-0.8-0.7-1.8-1.1-2.9-1.1c-1.2-0.1-2.3,0.4-3.2,1.2c-0.9,1-1.3,2.3-1.2,3.7v10.7h-5.1V0.3l0,0c2.8,0,5.1,2.3,5.1,5.1v8.1
	C55.2,11.6,57.2,10.7,60,10.8"/>
<path id="path10" class="st0" d="M152.5,10.8c2-0.1,4,0.7,5.4,2.2c1.5,1.6,2.2,3.8,2.1,6v12.2h-5.1V19.6c0.1-1.1-0.3-2.2-1.1-3
	c-0.8-0.7-1.8-1.1-2.9-1.1c-1.2,0-2.3,0.4-3.2,1.2c-0.9,1-1.3,2.3-1.2,3.7v10.7h-5.1V0.3l0,0c2.8,0,5.1,2.3,5.1,5.1c0,0,0,0,0,0v8.1
	C147.8,11.6,149.7,10.7,152.5,10.8"/>
<path id="path12" class="st0" d="M75.3,19.4h10.1c-0.2-1.2-0.8-2.3-1.8-3c-0.9-0.7-2-1-3.1-1c-1.2,0-2.4,0.3-3.4,1
	C76.2,17.2,75.6,18.2,75.3,19.4 M75.4,23.4c0.7,2.5,2.6,3.7,5.6,3.7c1.7,0.1,3.4-0.6,4.4-2l4.1,2.4c-1.9,2.8-5.2,4.4-8.6,4.2
	c-2.9,0.1-5.8-1-7.9-3c-2-2-3.1-4.7-3-7.5c-0.1-2.8,1-5.5,2.9-7.5c2-2,4.7-3.1,7.5-3c2.7-0.1,5.3,1,7.2,3c1.9,2,2.9,4.7,2.8,7.5
	c0,0.7-0.1,1.4-0.2,2.1L75.4,23.4z"/>
<path id="path14" class="st0" d="M99.8,25.2c1,1,2.5,1.6,3.9,1.6c1.5,0,2.9-0.5,3.9-1.6c1.1-1.1,1.6-2.5,1.6-4c0-1.5-0.5-2.9-1.6-4
	c-1-1.1-2.5-1.6-3.9-1.6c-1.5,0-2.9,0.5-3.9,1.6c-1,1.1-1.6,2.5-1.5,4C98.2,22.7,98.8,24.1,99.8,25.2 M109.3,11.3h5.1v19.9h-5.1
	v-2.3c-1.6,1.9-4,3-6.5,2.9c-2.6,0-5.1-1.1-6.8-3c-1.9-2-2.9-4.7-2.8-7.4c-0.1-2.8,1-5.4,2.8-7.4c1.7-1.9,4.2-3,6.8-3
	c2.5-0.1,4.9,0.9,6.5,2.9V11.3z"/>
<path id="path16" class="st0" d="M117.3,31.1V5.4c0-2.8,2.3-5.1,5.1-5.1l0,0v30.8H117.3z"/>
<path id="path18" class="st0" d="M176.6,11.3h5.5l-7.2,19.9c-0.7,2.4-2.2,4.5-4.1,6.2c-1.8,1.3-4.1,1.9-6.4,1.7v-4.8
	c1.2,0.1,2.3-0.2,3.3-0.9c0.9-0.8,1.6-1.8,1.9-2.9l-8.1-19.2h5.6l5.2,13.3L176.6,11.3z"/>
<path id="path20" class="st0" d="M138.5,16.2v-4.9H134V6.5h-5.1v4.8h-3.4v4.9h3.5v8.3c0,2.7,0.7,4.6,2.2,5.7s3.9,1.4,7.4,1v-4.7
	c-0.8,0-1.6,0-2.5,0c-0.6,0-1.1-0.2-1.5-0.5c-0.4-0.4-0.6-1-0.5-1.5v-8.2H138.5z"/>
<path id="path22" class="st0" d="M215.2,5.2c-2.8-0.2-4.2,0.9-4.2,3.4v2.8h4.2v4.9H211v14.9h-5.1V16.2h-2.9v-4.9h2.9V8.5
	c0-2.8,0.8-4.9,2.3-6.4c1.6-1.5,3.9-2.1,7-1.9L215.2,5.2z"/>
<path id="path24" class="st0" d="M221.3,19.4h10.1c-0.2-1.2-0.8-2.3-1.8-3c-0.9-0.7-2-1-3.1-1c-1.2-0.1-2.4,0.3-3.4,1
	C222.1,17.1,221.5,18.2,221.3,19.4 M221.4,23.4c0.7,2.5,2.5,3.7,5.6,3.7c1.7,0.1,3.4-0.6,4.4-2l4.1,2.4c-1.9,2.8-5.2,4.4-8.6,4.2
	c-2.9,0.1-5.8-1-7.9-3c-2-2-3.1-4.7-3-7.5c-0.1-2.8,1-5.5,2.9-7.5c2-2,4.7-3.1,7.5-3c2.7-0.1,5.3,1,7.2,3c1.9,2,2.9,4.7,2.8,7.5
	c0,0.7-0.1,1.4-0.2,2.1L221.4,23.4z"/>
<path id="path26" class="st0" d="M200.5,2.8c0-0.2-0.2-0.4-0.4-0.4c0,0-0.1,0-0.1,0l-2.2,0.9c-1.7,0.7-2.8,2-2.8,3.3v2.1
	c0,0.2,0.2,0.4,0.4,0.4c0,0,0.1,0,0.1,0l2.2-0.9c1.7-0.7,2.8-2,2.8-3.4L200.5,2.8z"/>
<rect id="rect28" x="195" y="11.3" class="st0" width="5.1" height="19.8"/>
<path id="path30" class="st0" d="M185.9,31.1V0c2.8,0,5.1,2.3,5.1,5.1c0,0,0,0,0,0v26L185.9,31.1z"/>
<path id="path32" class="st0" d="M11,30.8c-5.4-5.4-5.4-14.1,0-19.5s14.1-5.4,19.5,0s5.4,14.1,0,19.5c0,0,0,0,0,0
	C25.1,36.2,16.4,36.2,11,30.8z M22.1,30.8c4.7,0,8.4-3.8,8.4-8.4c0-4.7-3.8-8.4-8.4-8.4c-4.7,0-8.4,3.8-8.4,8.4c0,0,0,0,0,0
	C13.6,27,17.4,30.8,22.1,30.8C22.1,30.8,22.1,30.8,22.1,30.8L22.1,30.8z"/>
</svg>
