<?xml version="1.0" encoding="utf-8"?>
<!-- Generator: Adobe Illustrator 28.3.0, SVG Export Plug-In . SVG Version: 6.00 Build 0)  -->
<svg version="1.1" id="svg4020" xmlns:svg="http://www.w3.org/2000/svg"
	 xmlns="http://www.w3.org/2000/svg" xmlns:xlink="http://www.w3.org/1999/xlink" x="0px" y="0px" viewBox="0 0 602.4 207.2"
	 style="enable-background:new 0 0 602.4 207.2;" xml:space="preserve">
<style type="text/css">
	.st0{fill-rule:evenodd;clip-rule:evenodd;fill:#FFFFFF;}
</style>
<g id="layer1">
	<g id="g4031" transform="translate(-48.81891,-428.7559)">
		<path id="_46875728" class="st0" d="M124.4,567.3l-12.7-33.8c-4.7-12.5-7.5-14-14.2-14l0,47.8h-31V446.5h41.6
			c35.5,0,47,14.4,47,34.5c0,20.8-10.9,31.4-25.1,33.8c4.2,1.2,9.2,6.8,12.1,13c4,8.1,14.2,30.5,18.2,39.5H124.4z M97.6,472v24.6
			h8.8c10.6,0,14.2-5,14.2-13.2c0-8.7-4.7-11.4-14.4-11.4H97.6z M173.1,567.3V446.5h68V472h-36.9v20.3h30.2v24.6h-30.2v24.6h41.4
			v25.8H173.1z M370.8,567.3h-33.1l-6.2-35c-2.6-14.6-5.4-30.3-5.9-38h-0.2c-0.4,6.1-3,22.2-5.9,38l-6.4,35h-33.8l-29.3-120.8h32.8
			l6.8,32.6c5.7,27.2,6.8,39,6.9,43.5h0.2c0.7-9.7,2.8-24.8,6.1-42.7l6.2-33.5h34.5l7.8,40.4c1.7,9.2,4.2,20.8,4.8,35.5h0.2
			c0.7-10.7,4.3-34.2,6.8-45.9l6.1-30h33.1L370.8,567.3L370.8,567.3z M410.8,567.3V446.5h68V472h-36.9v20.3H472v24.6h-30.2v24.6
			h41.4v25.8H410.8z M474.7,595.2c-1.6-1.5-3.5-2.2-5.7-2.2c-1.7,0-3.4,0.6-4.6,1.6c-3.3,2.6-5,10.2-5,13.8c0,3.8,1.9,5.4,5.2,5.4
			c1.3,0,2.4-0.2,3.4-0.7l1.4-6.6h-4.3v-4.8h11.3l-3,14c-3.3,1.7-6.7,2.4-10.1,2.4c-6.8,0-10.3-4-10.3-10c0-6.6,3-12.9,6.8-16
			c3.4-2.8,6.2-3.7,10.1-3.7c3.5,0,6.4,1.1,8.5,3.3L474.7,595.2z M509.2,588.7c4.4,0,6.9,2.5,6.9,6.3c0,5.7-3.9,9.4-8.3,10.1
			c0.5,0.3,1,1,1.3,1.5c1.4,2.4,4.3,11,4.3,11h-6.9L505,613c-1.8-5.3-2.6-6.8-3.6-7.2c-0.3-0.1-0.5-0.2-0.7-0.2l-2.6,12.1h-5.9
			l6.2-29H509.2z M501.7,601.2h1.8c2.5,0,3.6-0.3,4.6-1c1.1-0.9,1.9-2.7,1.9-4c0-2-1.3-2.8-3.7-2.8h-2.9L501.7,601.2z M556.6,598.8
			c0,7.3-3.7,15.2-9.6,18c-1.9,0.9-4.1,1.4-6.5,1.4c-7.2,0-9.9-4.3-9.9-10.4c0-8.2,4-14.1,7.7-16.8c1.7-1.2,4.1-2.6,8.5-2.6
			C553.2,588.4,556.6,592.3,556.6,598.8 M540.7,595.4c-2.3,3-3.8,9.4-3.8,13.3c0,3.7,1.6,5,4.5,5c1.7,0,3.4-0.5,4.7-2.2
			c2.5-3.1,4-10,4-14c0-2.8-1.2-4.7-4.3-4.7C543.8,592.9,541.8,593.9,540.7,595.4z M581.9,588.7l-4.1,19.1c-0.4,1.7-0.4,2.9-0.2,3.5
			c0.4,1.3,1.6,2,3.5,2c2.7,0,4.5-1.5,5.1-3.5c0.2-0.6,0.3-0.9,0.6-2.5l4-18.6h5.9l-4.2,19.5c-0.8,3.7-1.5,5.7-3.7,7.4
			c-1.1,0.8-3.3,2.6-8.7,2.6c-5.6,0-8.9-2.5-8.9-6.2c0-1,0.1-2.1,0.3-3.1l4.3-20.2H581.9z M623,588.7c3.9,0,6.1,0.4,7.5,1.3
			c1.8,1.1,2.9,3.1,2.9,5.3c0,5-2.4,8.7-6.7,10.7c-1.5,0.7-3.9,1-6.2,1h-3.1l-2.2,10.7h-6l6.2-29H623z M618.5,602.3h2.9
			c2.2,0,3.5-0.5,4.3-1.4c0.9-1,1.5-2.7,1.5-4.4c0-1.9-1-3-3.2-3h-3.6L618.5,602.3z"/>
		<polygon id="_46959624" class="st0" points="557.5,567.3 507.1,567.3 507.1,516.9 557.5,516.9 		"/>
		<polygon id="_92033232" class="st0" points="633,567.3 582.6,567.3 582.6,516.9 633,516.9 		"/>
	</g>
</g>
</svg>
