<?xml version="1.0" encoding="utf-8"?>
<!-- Generator: Adobe Illustrator 28.3.0, SVG Export Plug-In . SVG Version: 6.00 Build 0)  -->
<svg version="1.1"
	 id="svg32" xmlns:inkscape="http://www.inkscape.org/namespaces/inkscape" xmlns:sodipodi="http://sodipodi.sourceforge.net/DTD/sodipodi-0.dtd" xmlns:svg="http://www.w3.org/2000/svg"
	 xmlns="http://www.w3.org/2000/svg" xmlns:xlink="http://www.w3.org/1999/xlink" x="0px" y="0px" viewBox="0 0 1042 153.5"
	 style="enable-background:new 0 0 1042 153.5;" xml:space="preserve">
<style type="text/css">
	.st0{fill:#FFFFFF;}
	.st1{clip-path:url(#SVGID_00000078725123873210449170000009531444914433415042_);}
</style>
<sodipodi:namedview  bordercolor="#666666" borderopacity="1.0" id="namedview34" inkscape:current-layer="svg32" inkscape:cx="695.28305" inkscape:cy="101.70364" inkscape:document-units="pt" inkscape:pagecheckerboard="0" inkscape:pageopacity="0.0" inkscape:pageshadow="2" inkscape:window-height="847" inkscape:window-maximized="0" inkscape:window-width="1296" inkscape:window-x="0" inkscape:window-y="25" inkscape:zoom="0.81118042" pagecolor="#ffffff" showgrid="false">
	</sodipodi:namedview>
<g id="surface1">
	<path id="path7" class="st0" d="M312.4,28.8H342v35.4h13.8l37.3-35.4h40.2l-52.2,47.1l58.3,49.2h-41.8l-42.6-37h-13v37h-29.5V28.8"
		/>
	<path id="path9" class="st0" d="M482.6,76.1h48.8c8,0,10.9-3.2,10.9-10.1v-3.2c0-8.5-4.3-10.1-13.6-10.1h-46.2V76.1z M453.1,28.8
		h89.2c22.8,0,28.9,11.3,28.9,28.6v6.1c0,12.9-2.9,20.5-16.5,23.7v0.3c8.8,1.6,16.1,5.5,16.1,21.3v16.4h-29.5v-11.6
		c0-10.1-2.9-13.4-12.1-13.4h-46.4v25h-29.5V28.8"/>
	<path id="path11" class="st0" d="M637,87.3h37.8l-19.2-36.2L637,87.3z M636.5,28.8h38.5l53,96.4H695l-9.2-17H626l-8.6,17h-33
		L636.5,28.8"/>
	<path id="path13" class="st0" d="M741.1,28.8h45.4l33.4,62l33.4-62h45.4v96.4h-28.7V55.9h-0.3l-38.7,69.2h-22.1l-38.7-69.2h-0.3
		v69.2h-28.7V28.8"/>
	<path id="path15" class="st0" d="M956.2,76.9h45.9c6.9,0,9.6-4.5,9.6-10.2V63c0-6.5-3.2-10.2-12.1-10.2h-43.4V76.9z M926.6,28.8
		h80.5c28.1,0,34.9,14.1,34.9,33V70c0,14.4-6.3,30.9-27.1,30.9h-58.7v24.2h-29.5V28.8"/>
	<path id="path17" class="st0" d="M227.4,28.6h-93.5L83.2,70.2h84.4L227.4,28.6"/>
	<path id="path19" class="st0" d="M227.5,124.9H134L83.3,83.3h84.4L227.5,124.9"/>
	<path id="path21" class="st0" d="M0,70.2h82.1V28.6H0V70.2"/>
	<path id="path23" class="st0" d="M0,124.9h82.1V83.3H0V124.9"/>
	<path id="path25" class="st0" d="M0,15.5h230.2V0H0V15.5"/>
	<g>
		<defs>
			<rect id="SVGID_1_" y="137" width="231" height="16.5"/>
		</defs>
		<use xlink:href="#SVGID_1_"  style="overflow:visible;fill:#FFFFFF;"/>
		<clipPath id="SVGID_00000021816022285122512720000000510362059501659538_">
			<use xlink:href="#SVGID_1_"  style="overflow:visible;"/>
		</clipPath>
		<g id="g29" style="clip-path:url(#SVGID_00000021816022285122512720000000510362059501659538_);">
			<path id="path27" class="st0" d="M0,153.5h230.2v-15.5H0V153.5"/>
		</g>
	</g>
</g>
</svg>
