<?xml version="1.0" encoding="UTF-8"?>
<svg id="simple_CMYK" data-name="simple CMYK" xmlns="http://www.w3.org/2000/svg" xmlns:svg="http://www.w3.org/2000/svg" xmlns:sodipodi="http://sodipodi.sourceforge.net/DTD/sodipodi-0.dtd" xmlns:inkscape="http://www.inkscape.org/namespaces/inkscape" version="1.1" viewBox="0 0 244.7 51">
  <defs>
    <style>
      .cls-1 {
        fill: #fff;
        stroke-width: 0px;
      }
    </style>
  </defs>
  <sodipodi:namedview id="namedview158" bordercolor="#666666" borderopacity="1.0" inkscape:current-layer="simple_CMYK" inkscape:cx="47.611122" inkscape:cy="23.465481" inkscape:pagecheckerboard="0" inkscape:pageopacity="0.0" inkscape:pageshadow="2" inkscape:window-height="847" inkscape:window-maximized="0" inkscape:window-width="1296" inkscape:window-x="0" inkscape:window-y="25" inkscape:zoom="1.4702447" pagecolor="#ffffff" showgrid="false"/>
  <g id="landscape_simple_CMYK" data-name="landscape simple CMYK">
    <g id="g154">
      <g id="g148">
        <g id="g136">
          <path class="cls-1" d="M25.5,0C11.4,0,0,11.4,0,25.5s11.4,25.5,25.5,25.5,25.5-11.4,25.5-25.5S39.6,0,25.5,0ZM25.5,50.4C11.8,50.4.6,39.3.6,25.5S11.7.6,25.5.6s24.9,11.2,24.9,24.9-11.1,24.9-24.9,24.9Z"/>
          <path class="cls-1" d="M25.5,2.4C12.7,2.4,2.4,12.7,2.4,25.5s10.3,23.1,23.1,23.1,23.1-10.3,23.1-23.1S38.3,2.4,25.5,2.4ZM25.5,46.6c-11.6,0-21.1-9.4-21.1-21.1S13.8,4.4,25.5,4.4s21.1,9.5,21.1,21.1-9.4,21.1-21.1,21.1Z"/>
        </g>
        <path class="cls-1" d="M41.5,35.6c-1.6-1.5-3.6-2.5-5.7-2.8-.3,0-.6.2-.6.5v.8c0,.2-.2.5-.4.5h-.5c-.6,0-.7-.7-.6-1.2,1.3-4.6,1.6-7.4,1.6-9.4s0-4.3-1-7.2c-.9-2.7-1.8-5.4-6.3-9.5-.3-.3-.6-.4-1-.4h-1.3c-1.9,0-3.7.3-5.4.8-.6.2-.5.6-.2.9,1.7,1.5,4,3.7,5.6,6.4-1,.1-1.8-.5-2.4-1.1-2.1-2-4.4-3.5-6.1-4.5-.3-.2-.6-.2-.9,0-2,1.1-3.3,2.2-4.8,4-.3.3,0,.5.2.7,1.7.9,4.3,2.6,6.8,4.8-.5.4-1.3.3-2.4-.3-2.2-1.2-4.3-1.8-5.9-2.2-.3-.1-.7,0-.9.3-1,1.8-1.7,3.9-2.1,6.1-.1.4.2.8.6.9,3.7.7,10.4,2.4,11.5,10.1,0,.7-.5,1.3-1.3.9-1.1-.5-2.2-1.1-3.4-1.6,0-.1-.3-.1-.4-.1h-5.3c-.8,0-1.1.7-.6,1.3,1.3,1.5,2.4,3.1,3.4,4.7,0,.1.2.2.4.2h2.3c.2,0,.3,0,.4,0,.7-.4,1.5-.9,2.2-1.3,0,0,.3,0,.4,0h17.4c.2,0,.4.2.4.4v.9c0,.3.3.5.6.5,2.2-.3,4.1-1.3,5.7-2.8.3-.4.3-.8,0-1ZM28.9,32.4c-1.3,0-2.4-1.1-2.4-2.4s1.1-2.4,2.4-2.4c1.3,0,2.4,1.1,2.4,2.4s-1.1,2.4-2.4,2.4Z"/>
      </g>
      <g id="g152">
        <path id="path150" class="cls-1" d="M68.5,38.3c3.8.2,9.9.3,13.4.3,15.5,0,17.3,0,17.3-8.4s-1.9-7.2-10.1-7.4l-9.5-.3c-4.4,0-4.4-.6-4.4-2.6s.5-2,11-2,8.3,0,11.6.2c.3,0,.5-.2.5-.5v-4.3c0-.4-.2-.5-.5-.6-3.3-.2-8.7-.4-12.5-.4-15.2,0-17.6.3-17.6,8.1s1.5,7.6,11.2,7.9l8.7.3c4.1,0,4.2.6,4.2,2.2s-.2,2.2-9.8,2.2-9.1-.2-13.4-.3c-.4,0-.5,0-.5.5v4.5c0,.4,0,.5.4.6M232,28.9h-11.3l5.2-10.3h.9l5.2,10.3ZM198.9,25.3v.4c0,6.6-.5,6.8-9,6.8h-7v-14h7c8.5,0,9,.3,9,6.8M162.1,25.3v.4c0,7.2-.3,7.3-8.6,7.3s-8.6,0-8.6-7.3v-.4c0-7.2.3-7.3,8.6-7.3s8.6.2,8.6,7.3M244.6,37.6l-12.2-24.5c-.1-.3-.3-.4-.6-.4h-10.8c-.3,0-.5,0-.6.4l-12.2,24.5c-.2.4,0,.6.4.6h7.1c.3,0,.5,0,.6-.4l1.8-3.6h16.7l1.8,3.6c.1.3.3.4.6.4h7.1c.4,0,.5-.2.3-.6M189.9,12.7h-14.1c-.4,0-.5.2-.5.5v24.5c0,.4.2.5.5.5h14.1c15.1,0,17.1-.7,17.1-12.7v-.2c0-11.8-2-12.6-17.1-12.6M135.1,37.6l-14.1-13.8,13.2-10.5c.4-.3.2-.6-.2-.6h-8.6c-.2,0-.4,0-.6.2l-13.5,10.8v-10.4c0-.4-.2-.5-.5-.5h-6.6c-.4,0-.5.2-.5.5v24.4c0,.4.2.5.5.5h6.6c.4,0,.5-.2.5-.5v-6.2l4-3.2,9.7,9.6c.2.2.4.3.7.3h9.3c.3,0,.5-.3.1-.6M136.6,25.3v.4c0,12.4,2,13.1,16.9,13.1s16.9-.7,16.9-13.2v-.3c0-12.4-2-13.1-16.9-13.1s-16.9.7-16.9,13.1M76.9,6.8l3.2,3.7c.2.2.4.3.6.3h6.8c.3,0,.5,0,.6-.3l3.2-3.7c.3-.3.2-.6-.3-.6h-4.6c-.3,0-.5,0-.6.3l-1.4,2h-.7l-1.4-2c-.2-.2-.4-.3-.7-.3h-4.5c-.4,0-.5.3-.2.6"/>
      </g>
    </g>
  </g>
</svg>