<?xml version="1.0" encoding="utf-8"?>
<!-- Generator: Adobe Illustrator 28.3.0, SVG Export Plug-In . SVG Version: 6.00 Build 0)  -->
<svg version="1.1" id="Layer_1" xmlns="http://www.w3.org/2000/svg" xmlns:xlink="http://www.w3.org/1999/xlink" x="0px" y="0px"
	 viewBox="0 0 135.2 38.2" style="enable-background:new 0 0 135.2 38.2;" xml:space="preserve">
<style type="text/css">
	.st0{fill:#FFFFFF;}
</style>
<path class="st0" d="M134.9,23.5l-8.1-8.5v2.8c0,6.6-5.4,12-12,12c-0.9,0-1.8-0.1-2.7-0.3l7.9,8.3c1.1,0.3,2.1,0.4,3.2,0.4
	c6.6,0,12-5.4,12-12C135.2,25.2,135.1,24.3,134.9,23.5z M120.5,23.3v-2.8c0-6.6,5.4-12,12-12c0.9,0,1.8,0.1,2.7,0.3l-7.9-8.3
	c-1.1-0.3-2.1-0.4-3.2-0.4c-6.6,0-12,5.4-12,12c0,0.9,0.1,1.8,0.3,2.7L120.5,23.3z M4.8,18.9c-1.6-0.7-2.2-1.2-2.2-2
	s0.6-1.6,1.9-1.6c0.9,0,1.8,0.3,2.5,0.9l0.7-1.9c-1-0.6-2.1-0.9-3.2-0.9c-2.6,0-4.1,1.8-4.1,3.6c0,1.5,0.8,2.6,3.1,3.5
	c2,0.8,2.4,1.4,2.4,2.2S5.3,24.4,4,24.5c-1.2,0-2.3-0.4-3.3-1.1L0,25.3c1.2,0.8,2.6,1.2,4,1.2l0,0c0.1,0,0.2,0,0.3,0
	c2.1,0,3.8-1.7,3.8-3.9C8,21,7.3,20,4.8,18.9z M16.3,13.4c-0.1,0-0.2,0-0.3,0c-3.5,0.1-6.2,3-6.1,6.5c0,0.1,0,0.2,0,0.4
	c0.1,3.4,2.9,6.2,6.3,6.1c0.1,0,0.2,0,0.3,0c3.5-0.1,6.2-3,6.1-6.5c0-0.1,0-0.3,0-0.4C22.6,16.1,19.8,13.4,16.3,13.4z M16.3,24.6
	c-2.4,0-4.1-2-4.1-4.6s1.7-4.6,4.1-4.6s4.1,2,4.1,4.6C20.3,22.6,18.7,24.6,16.3,24.6z M28.9,21.8l-4-8.2h-2.3L29,26.3l0,0l6.4-12.7
	h-2.3L28.9,21.8z M36.8,26.3h8v-2H39v-3.5h5.3v-1.9H39v-3.3h5.8v-2h-8V26.3z M56.9,17.5c0-2.2-1.6-4.1-5.2-4.1
	c-1.2,0-2.3,0.1-3.5,0.2v12.6h2.2v-4.6c0.4,0,1,0,1.4,0c0.2,0,0.4,0,0.7,0l2.8,4.5h2.5L54.5,21C56,20.6,57,19.1,56.9,17.5z M51.9,20
	c-0.5,0-1,0-1.4-0.1v-4.4c0.5-0.1,1.1-0.1,1.6-0.1l0,0c1.7,0,2.6,0.9,2.6,2.2C54.7,19,53.7,20,51.9,20z M60.6,26.3h8v-2h-5.8v-3.5
	H68v-1.9h-5.3v-3.3h5.8v-2h-8L60.6,26.3L60.6,26.3z M72.4,26.3h2.2V13.6h-2.2V26.3z M83.9,21.5h2.9V24c-0.8,0.4-1.7,0.6-2.5,0.6
	c-0.1,0-0.1,0-0.2,0c-2.4-0.1-4.4-2.2-4.3-4.6c0-0.2,0-0.3,0-0.5c0.1-2.4,2.1-4.2,4.5-4.1c1.2,0,2.4,0.4,3.4,1l1-1.7
	c-1.3-0.9-2.9-1.3-4.5-1.3c-0.1,0-0.1,0-0.2,0c-3.6,0-6.5,2.9-6.5,6.5c0,0.1,0,0.2,0,0.2c0.1,3.6,3.1,6.4,6.7,6.3
	c1.7,0,3.3-0.4,4.7-1.4v-5.5h-5V21.5z M100,21.3l-7.8-7.6v12.6h2.2v-7.7l7.8,7.7V13.6H100V21.3z"/>
</svg>
