<?xml version="1.0" encoding="UTF-8"?>
<svg id="Layer_1" data-name="Layer 1" xmlns="http://www.w3.org/2000/svg" version="1.1" viewBox="0 0 112.8 111.9">
  <defs>
    <style>
      .cls-1 {
        fill: #fff;
        stroke-width: 0px;
      }
    </style>
  </defs>
  <g id="Group_7737" data-name="Group 7737">
    <g id="Flag_of_Europe" data-name="Flag of Europe">
      <g id="Group_7736" data-name="Group 7736">
        <g id="Group_7668" data-name="Group 7668">
          <g id="c">
            <path id="t" class="cls-1" d="M56.4,5.3l-2.2,6.9,3.5,1.1-1.2-8Z"/>
            <path id="Path_6223" data-name="Path 6223" class="cls-1" d="M56.4,5.3l2.2,6.9-3.5,1.1,1.2-8Z"/>
          </g>
          <g id="a">
            <g id="Group_7663" data-name="Group 7663">
              <path id="t-2" class="cls-1" d="M63.3,10.3h-7.3v3.6l7.3-3.6Z"/>
              <path id="Path_6224" data-name="Path 6224" class="cls-1" d="M63.3,10.3l-5.9,4.3-2.1-2.9,8-1.3Z"/>
            </g>
            <g id="Group_7664" data-name="Group 7664">
              <path id="t-3" class="cls-1" d="M60.7,18.4l-2.2-6.9-3.5,1.1,5.7,5.8Z"/>
              <path id="Path_6225" data-name="Path 6225" class="cls-1" d="M60.7,18.4l-5.9-4.3,2.1-2.9,3.7,7.2Z"/>
            </g>
          </g>
          <g id="Group_7667" data-name="Group 7667">
            <g id="Group_7665" data-name="Group 7665">
              <path id="t-4" class="cls-1" d="M49.5,10.3h7.3v3.6l-7.3-3.6Z"/>
              <path id="Path_6226" data-name="Path 6226" class="cls-1" d="M49.5,10.3l5.9,4.3,2.1-2.9-8-1.3Z"/>
            </g>
            <g id="Group_7666" data-name="Group 7666">
              <path id="t-5" class="cls-1" d="M52.1,18.4l2.2-6.9,3.5,1.1-5.7,5.8Z"/>
              <path id="Path_6227" data-name="Path 6227" class="cls-1" d="M52.1,18.4l5.9-4.3-2.1-2.9-3.7,7.2Z"/>
            </g>
          </g>
        </g>
        <g id="Group_7674" data-name="Group 7674">
          <g id="c-2">
            <path id="t-6" class="cls-1" d="M56.4,92.5l-2.2,6.9,3.5,1.1-1.2-8Z"/>
            <path id="Path_6228" data-name="Path 6228" class="cls-1" d="M56.4,92.5l2.2,6.9-3.5,1.1,1.2-8Z"/>
          </g>
          <g id="a-2">
            <g id="Group_7669" data-name="Group 7669">
              <path id="t-7" class="cls-1" d="M63.3,97.5h-7.3v3.6l7.3-3.6Z"/>
              <path id="Path_6229" data-name="Path 6229" class="cls-1" d="M63.3,97.5l-5.9,4.3-2.1-2.9,8-1.3Z"/>
            </g>
            <g id="Group_7670" data-name="Group 7670">
              <path id="t-8" class="cls-1" d="M60.7,105.6l-2.2-6.9-3.5,1.1,5.7,5.8Z"/>
              <path id="Path_6230" data-name="Path 6230" class="cls-1" d="M60.7,105.6l-5.9-4.3,2.1-2.9,3.7,7.2Z"/>
            </g>
          </g>
          <g id="Group_7673" data-name="Group 7673">
            <g id="Group_7671" data-name="Group 7671">
              <path id="t-9" class="cls-1" d="M49.5,97.5h7.3v3.6l-7.3-3.6Z"/>
              <path id="Path_6231" data-name="Path 6231" class="cls-1" d="M49.5,97.5l5.9,4.3,2.1-2.9-8-1.3Z"/>
            </g>
            <g id="Group_7672" data-name="Group 7672">
              <path id="t-10" class="cls-1" d="M52.1,105.6l2.2-6.9,3.5,1.1-5.7,5.8Z"/>
              <path id="Path_6232" data-name="Path 6232" class="cls-1" d="M52.1,105.6l5.9-4.3-2.1-2.9-3.7,7.2Z"/>
            </g>
          </g>
        </g>
        <g id="l">
          <g id="Group_7680" data-name="Group 7680">
            <g id="c-3">
              <path id="t-11" class="cls-1" d="M12.8,48.9l-2.2,6.9,3.5,1.1-1.2-8Z"/>
              <path id="Path_6233" data-name="Path 6233" class="cls-1" d="M12.8,48.9l2.2,6.9-3.5,1.1,1.2-8Z"/>
            </g>
            <g id="a-3">
              <g id="Group_7675" data-name="Group 7675">
                <path id="t-12" class="cls-1" d="M19.7,53.9h-7.3v3.6l7.3-3.6Z"/>
                <path id="Path_6234" data-name="Path 6234" class="cls-1" d="M19.7,53.9l-5.9,4.3-2.1-2.9,8-1.3Z"/>
              </g>
              <g id="Group_7676" data-name="Group 7676">
                <path id="t-13" class="cls-1" d="M17.1,62l-2.2-6.9-3.5,1.1,5.7,5.8Z"/>
                <path id="Path_6235" data-name="Path 6235" class="cls-1" d="M17.1,62l-5.9-4.3,2.1-2.9,3.7,7.2Z"/>
              </g>
            </g>
            <g id="Group_7679" data-name="Group 7679">
              <g id="Group_7677" data-name="Group 7677">
                <path id="t-14" class="cls-1" d="M5.9,53.9h7.3v3.6l-7.3-3.6Z"/>
                <path id="Path_6236" data-name="Path 6236" class="cls-1" d="M5.9,53.9l5.9,4.3,2.1-2.9-8-1.3Z"/>
              </g>
              <g id="Group_7678" data-name="Group 7678">
                <path id="t-15" class="cls-1" d="M8.5,62l2.2-6.9,3.5,1.1-5.7,5.8Z"/>
                <path id="Path_6237" data-name="Path 6237" class="cls-1" d="M8.5,62l5.9-4.3-2.1-2.9-3.7,7.2Z"/>
              </g>
            </g>
          </g>
          <g id="Group_7686" data-name="Group 7686">
            <g id="c-4">
              <path id="t-16" class="cls-1" d="M30.3,24.2l5.9-4.3-2.1-2.9-3.7,7.2Z"/>
              <path id="Path_6238" data-name="Path 6238" class="cls-1" d="M30.3,24.2l2.2-6.9,3.5,1.1-5.7,5.8Z"/>
            </g>
            <g id="a-4">
              <g id="Group_7681" data-name="Group 7681">
                <path id="t-17" class="cls-1" d="M27.7,16.1l5.9,4.3,2.1-2.9-8-1.3Z"/>
                <path id="Path_6239" data-name="Path 6239" class="cls-1" d="M27.7,16.1h7.3s0,3.6,0,3.6l-7.3-3.6Z"/>
              </g>
              <g id="Group_7682" data-name="Group 7682">
                <path id="t-18" class="cls-1" d="M34.6,11.1l-2.2,6.9,3.5,1.1-1.2-8Z"/>
                <path id="Path_6240" data-name="Path 6240" class="cls-1" d="M34.6,11.1l2.2,6.9-3.5,1.1,1.2-8Z"/>
              </g>
            </g>
            <g id="Group_7685" data-name="Group 7685">
              <g id="Group_7683" data-name="Group 7683">
                <path id="t-19" class="cls-1" d="M38.9,24.2l-5.9-4.3,2.1-2.9,3.7,7.2Z"/>
                <path id="Path_6241" data-name="Path 6241" class="cls-1" d="M38.9,24.2l-2.2-6.9-3.5,1.1,5.7,5.8Z"/>
              </g>
              <g id="Group_7684" data-name="Group 7684">
                <path id="t-20" class="cls-1" d="M41.5,16.1l-5.9,4.3-2.1-2.9,8-1.3Z"/>
                <path id="Path_6242" data-name="Path 6242" class="cls-1" d="M41.5,16.1h-7.3s0,3.6,0,3.6l7.3-3.6Z"/>
              </g>
            </g>
          </g>
          <g id="Group_7692" data-name="Group 7692">
            <g id="c-5">
              <path id="t-21" class="cls-1" d="M22.9,40.2l-2.2-6.9-3.5,1.1,5.7,5.8Z"/>
              <path id="Path_6243" data-name="Path 6243" class="cls-1" d="M22.9,40.2l-5.9-4.3,2.1-2.9,3.7,7.2Z"/>
            </g>
            <g id="a-5">
              <g id="Group_7687" data-name="Group 7687">
                <path id="t-22" class="cls-1" d="M14.3,40.2l5.9-4.3-2.1-2.9-3.7,7.2Z"/>
                <path id="Path_6244" data-name="Path 6244" class="cls-1" d="M14.3,40.2l2.2-6.9,3.5,1.1-5.7,5.8Z"/>
              </g>
              <g id="Group_7688" data-name="Group 7688">
                <path id="t-23" class="cls-1" d="M11.7,32.1l5.9,4.3,2.1-2.9-8-1.3Z"/>
                <path id="Path_6245" data-name="Path 6245" class="cls-1" d="M11.7,32.1h7.3s0,3.6,0,3.6l-7.3-3.6Z"/>
              </g>
            </g>
            <g id="Group_7691" data-name="Group 7691">
              <g id="Group_7689" data-name="Group 7689">
                <path id="t-24" class="cls-1" d="M25.5,32.1l-5.9,4.3-2.1-2.9,8-1.3Z"/>
                <path id="Path_6246" data-name="Path 6246" class="cls-1" d="M25.5,32.1h-7.3s0,3.6,0,3.6l7.3-3.6Z"/>
              </g>
              <g id="Group_7690" data-name="Group 7690">
                <path id="t-25" class="cls-1" d="M18.6,27.1l2.2,6.9-3.5,1.1,1.2-8Z"/>
                <path id="Path_6247" data-name="Path 6247" class="cls-1" d="M18.6,27.1l-2.2,6.9,3.5,1.1-1.2-8Z"/>
              </g>
            </g>
          </g>
          <g id="Group_7698" data-name="Group 7698">
            <g id="c-6">
              <path id="t-26" class="cls-1" d="M25.5,75.7h-7.3v3.6l7.3-3.6Z"/>
              <path id="Path_6248" data-name="Path 6248" class="cls-1" d="M25.5,75.7l-5.9,4.3-2.1-2.9,8-1.3Z"/>
            </g>
            <g id="a-6">
              <g id="Group_7693" data-name="Group 7693">
                <path id="t-27" class="cls-1" d="M22.9,83.8l-2.2-6.9-3.5,1.1,5.7,5.8Z"/>
                <path id="Path_6249" data-name="Path 6249" class="cls-1" d="M22.9,83.8l-5.9-4.3,2.1-2.9,3.7,7.2Z"/>
              </g>
              <g id="Group_7694" data-name="Group 7694">
                <path id="t-28" class="cls-1" d="M14.3,83.8l5.9-4.3-2.1-2.9-3.7,7.2Z"/>
                <path id="Path_6250" data-name="Path 6250" class="cls-1" d="M14.3,83.8l2.2-6.9,3.5,1.1-5.7,5.8Z"/>
              </g>
            </g>
            <g id="Group_7697" data-name="Group 7697">
              <g id="Group_7695" data-name="Group 7695">
                <path id="t-29" class="cls-1" d="M18.6,70.7l2.2,6.9-3.5,1.1,1.2-8Z"/>
                <path id="Path_6251" data-name="Path 6251" class="cls-1" d="M18.6,70.7l-2.2,6.9,3.5,1.1-1.2-8Z"/>
              </g>
              <g id="Group_7696" data-name="Group 7696">
                <path id="t-30" class="cls-1" d="M11.7,75.7h7.3s0,3.6,0,3.6l-7.3-3.6Z"/>
                <path id="Path_6252" data-name="Path 6252" class="cls-1" d="M11.7,75.7l5.9,4.3,2.1-2.9-8-1.3Z"/>
              </g>
            </g>
          </g>
          <g id="Group_7704" data-name="Group 7704">
            <g id="c-7">
              <path id="t-31" class="cls-1" d="M41.5,91.7h-7.3v3.6l7.3-3.6Z"/>
              <path id="Path_6253" data-name="Path 6253" class="cls-1" d="M41.5,91.7l-5.9,4.3-2.1-2.9,8-1.3Z"/>
            </g>
            <g id="a-7">
              <g id="Group_7699" data-name="Group 7699">
                <path id="t-32" class="cls-1" d="M38.9,99.8l-2.2-6.9-3.5,1.1,5.7,5.8Z"/>
                <path id="Path_6254" data-name="Path 6254" class="cls-1" d="M38.9,99.8l-5.9-4.3,2.1-2.9,3.7,7.2Z"/>
              </g>
              <g id="Group_7700" data-name="Group 7700">
                <path id="t-33" class="cls-1" d="M30.3,99.8l5.9-4.3-2.1-2.9-3.7,7.2Z"/>
                <path id="Path_6255" data-name="Path 6255" class="cls-1" d="M30.3,99.8l2.2-6.9,3.5,1.1-5.7,5.8Z"/>
              </g>
            </g>
            <g id="Group_7703" data-name="Group 7703">
              <g id="Group_7701" data-name="Group 7701">
                <path id="t-34" class="cls-1" d="M34.6,86.6l2.2,6.9-3.5,1.1,1.2-8Z"/>
                <path id="Path_6256" data-name="Path 6256" class="cls-1" d="M34.6,86.6l-2.2,6.9,3.5,1.1-1.2-8Z"/>
              </g>
              <g id="Group_7702" data-name="Group 7702">
                <path id="t-35" class="cls-1" d="M27.7,91.7h7.3s0,3.6,0,3.6l-7.3-3.6Z"/>
                <path id="Path_6257" data-name="Path 6257" class="cls-1" d="M27.7,91.7l5.9,4.3,2.1-2.9-8-1.3Z"/>
              </g>
            </g>
          </g>
        </g>
        <g id="Group_7735" data-name="Group 7735">
          <g id="Group_7710" data-name="Group 7710">
            <g id="c-8">
              <path id="t-36" class="cls-1" d="M100,48.9l2.2,6.9-3.5,1.1,1.2-8Z"/>
              <path id="Path_6258" data-name="Path 6258" class="cls-1" d="M100,48.9l-2.2,6.9,3.5,1.1-1.2-8Z"/>
            </g>
            <g id="a-8">
              <g id="Group_7705" data-name="Group 7705">
                <path id="t-37" class="cls-1" d="M93.1,53.9h7.3v3.6l-7.3-3.6Z"/>
                <path id="Path_6259" data-name="Path 6259" class="cls-1" d="M93.1,53.9l5.9,4.3,2.1-2.9-8-1.3Z"/>
              </g>
              <g id="Group_7706" data-name="Group 7706">
                <path id="t-38" class="cls-1" d="M95.7,62l2.2-6.9,3.5,1.1-5.7,5.8Z"/>
                <path id="Path_6260" data-name="Path 6260" class="cls-1" d="M95.7,62l5.9-4.3-2.1-2.9-3.7,7.2Z"/>
              </g>
            </g>
            <g id="Group_7709" data-name="Group 7709">
              <g id="Group_7707" data-name="Group 7707">
                <path id="t-39" class="cls-1" d="M106.9,53.9h-7.3v3.6l7.3-3.6Z"/>
                <path id="Path_6261" data-name="Path 6261" class="cls-1" d="M106.9,53.9l-5.9,4.3-2.1-2.9,8-1.3Z"/>
              </g>
              <g id="Group_7708" data-name="Group 7708">
                <path id="t-40" class="cls-1" d="M104.3,62l-2.2-6.9-3.5,1.1,5.7,5.8Z"/>
                <path id="Path_6262" data-name="Path 6262" class="cls-1" d="M104.3,62l-5.9-4.3,2.1-2.9,3.7,7.2Z"/>
              </g>
            </g>
          </g>
          <g id="Group_7716" data-name="Group 7716">
            <g id="c-9">
              <path id="t-41" class="cls-1" d="M82.5,24.2l-5.9-4.3,2.1-2.9,3.7,7.2Z"/>
              <path id="Path_6263" data-name="Path 6263" class="cls-1" d="M82.5,24.2l-2.2-6.9-3.5,1.1,5.7,5.8Z"/>
            </g>
            <g id="a-9">
              <g id="Group_7711" data-name="Group 7711">
                <path id="t-42" class="cls-1" d="M85.1,16.1l-5.9,4.3-2.1-2.9,8-1.3Z"/>
                <path id="Path_6264" data-name="Path 6264" class="cls-1" d="M85.1,16.1h-7.3s0,3.6,0,3.6l7.3-3.6Z"/>
              </g>
              <g id="Group_7712" data-name="Group 7712">
                <path id="t-43" class="cls-1" d="M78.2,11.1l2.2,6.9-3.5,1.1,1.2-8Z"/>
                <path id="Path_6265" data-name="Path 6265" class="cls-1" d="M78.2,11.1l-2.2,6.9,3.5,1.1-1.2-8Z"/>
              </g>
            </g>
            <g id="Group_7715" data-name="Group 7715">
              <g id="Group_7713" data-name="Group 7713">
                <path id="t-44" class="cls-1" d="M73.9,24.2l5.9-4.3-2.1-2.9-3.7,7.2Z"/>
                <path id="Path_6266" data-name="Path 6266" class="cls-1" d="M73.9,24.2l2.2-6.9,3.5,1.1-5.7,5.8Z"/>
              </g>
              <g id="Group_7714" data-name="Group 7714">
                <path id="t-45" class="cls-1" d="M71.3,16.1l5.9,4.3,2.1-2.9-8-1.3Z"/>
                <path id="Path_6267" data-name="Path 6267" class="cls-1" d="M71.3,16.1h7.3s0,3.6,0,3.6l-7.3-3.6Z"/>
              </g>
            </g>
          </g>
          <g id="Group_7722" data-name="Group 7722">
            <g id="c-10">
              <path id="t-46" class="cls-1" d="M89.9,40.2l2.2-6.9,3.5,1.1-5.7,5.8Z"/>
              <path id="Path_6268" data-name="Path 6268" class="cls-1" d="M89.9,40.2l5.9-4.3-2.1-2.9-3.7,7.2Z"/>
            </g>
            <g id="a-10">
              <g id="Group_7717" data-name="Group 7717">
                <path id="t-47" class="cls-1" d="M98.4,40.2l-5.9-4.3,2.1-2.9,3.7,7.2Z"/>
                <path id="Path_6269" data-name="Path 6269" class="cls-1" d="M98.4,40.2l-2.2-6.9-3.5,1.1,5.7,5.8Z"/>
              </g>
              <g id="Group_7718" data-name="Group 7718">
                <path id="t-48" class="cls-1" d="M101.1,32.1l-5.9,4.3-2.1-2.9,8-1.3Z"/>
                <path id="Path_6270" data-name="Path 6270" class="cls-1" d="M101.1,32.1h-7.3s0,3.6,0,3.6l7.3-3.6Z"/>
              </g>
            </g>
            <g id="Group_7721" data-name="Group 7721">
              <g id="Group_7719" data-name="Group 7719">
                <path id="t-49" class="cls-1" d="M87.3,32.1l5.9,4.3,2.1-2.9-8-1.3Z"/>
                <path id="Path_6271" data-name="Path 6271" class="cls-1" d="M87.3,32.1h7.3s0,3.6,0,3.6l-7.3-3.6Z"/>
              </g>
              <g id="Group_7720" data-name="Group 7720">
                <path id="t-50" class="cls-1" d="M94.2,27.1l-2.2,6.9,3.5,1.1-1.2-8Z"/>
                <path id="Path_6272" data-name="Path 6272" class="cls-1" d="M94.2,27.1l2.2,6.9-3.5,1.1,1.2-8Z"/>
              </g>
            </g>
          </g>
          <g id="Group_7728" data-name="Group 7728">
            <g id="c-11">
              <path id="t-51" class="cls-1" d="M87.3,75.7h7.3v3.6l-7.3-3.6Z"/>
              <path id="Path_6273" data-name="Path 6273" class="cls-1" d="M87.3,75.7l5.9,4.3,2.1-2.9-8-1.3Z"/>
            </g>
            <g id="a-11">
              <g id="Group_7723" data-name="Group 7723">
                <path id="t-52" class="cls-1" d="M89.9,83.8l2.2-6.9,3.5,1.1-5.7,5.8Z"/>
                <path id="Path_6274" data-name="Path 6274" class="cls-1" d="M89.9,83.8l5.9-4.3-2.1-2.9-3.7,7.2Z"/>
              </g>
              <g id="Group_7724" data-name="Group 7724">
                <path id="t-53" class="cls-1" d="M98.4,83.8l-5.9-4.3,2.1-2.9,3.7,7.2Z"/>
                <path id="Path_6275" data-name="Path 6275" class="cls-1" d="M98.4,83.8l-2.2-6.9-3.5,1.1,5.7,5.8Z"/>
              </g>
            </g>
            <g id="Group_7727" data-name="Group 7727">
              <g id="Group_7725" data-name="Group 7725">
                <path id="t-54" class="cls-1" d="M94.2,70.7l-2.2,6.9,3.5,1.1-1.2-8Z"/>
                <path id="Path_6276" data-name="Path 6276" class="cls-1" d="M94.2,70.7l2.2,6.9-3.5,1.1,1.2-8Z"/>
              </g>
              <g id="Group_7726" data-name="Group 7726">
                <path id="t-55" class="cls-1" d="M101.1,75.7h-7.3s0,3.6,0,3.6l7.3-3.6Z"/>
                <path id="Path_6277" data-name="Path 6277" class="cls-1" d="M101.1,75.7l-5.9,4.3-2.1-2.9,8-1.3Z"/>
              </g>
            </g>
          </g>
          <g id="Group_7734" data-name="Group 7734">
            <g id="c-12">
              <path id="t-56" class="cls-1" d="M71.3,91.7h7.3v3.6l-7.3-3.6Z"/>
              <path id="Path_6278" data-name="Path 6278" class="cls-1" d="M71.3,91.7l5.9,4.3,2.1-2.9-8-1.3Z"/>
            </g>
            <g id="a-12">
              <g id="Group_7729" data-name="Group 7729">
                <path id="t-57" class="cls-1" d="M73.9,99.8l2.2-6.9,3.5,1.1-5.7,5.8Z"/>
                <path id="Path_6279" data-name="Path 6279" class="cls-1" d="M73.9,99.8l5.9-4.3-2.1-2.9-3.7,7.2Z"/>
              </g>
              <g id="Group_7730" data-name="Group 7730">
                <path id="t-58" class="cls-1" d="M82.5,99.8l-5.9-4.3,2.1-2.9,3.7,7.2Z"/>
                <path id="Path_6280" data-name="Path 6280" class="cls-1" d="M82.5,99.8l-2.2-6.9-3.5,1.1,5.7,5.8Z"/>
              </g>
            </g>
            <g id="Group_7733" data-name="Group 7733">
              <g id="Group_7731" data-name="Group 7731">
                <path id="t-59" class="cls-1" d="M78.2,86.6l-2.2,6.9,3.5,1.1-1.2-8Z"/>
                <path id="Path_6281" data-name="Path 6281" class="cls-1" d="M78.2,86.6l2.2,6.9-3.5,1.1,1.2-8Z"/>
              </g>
              <g id="Group_7732" data-name="Group 7732">
                <path id="t-60" class="cls-1" d="M85.1,91.7h-7.3s0,3.6,0,3.6l7.3-3.6Z"/>
                <path id="Path_6282" data-name="Path 6282" class="cls-1" d="M85.1,91.7l-5.9,4.3-2.1-2.9,8-1.3Z"/>
              </g>
            </g>
          </g>
        </g>
      </g>
    </g>
    <path id="Path_6283" data-name="Path 6283" class="cls-1" d="M33,63.7c1.7.2,3.3-.6,4.3-2l.2,1.8h2.6v-7.8h-6.5v2.5h3.3v.2c0,1.6-1.3,2.4-2.9,2.4-2.4,0-3.6-1.5-3.6-4.6s1.2-4.5,3.4-4.5c1.3-.1,2.6.8,2.8,2.1l3.5-1.4c-1.1-2.6-3-3.7-6.3-3.7s-7.3,2.8-7.3,7.5,2.7,7.5,6.6,7.5ZM49.1,49h-6.2v14.5h6.2c4.6,0,7-2.6,7-7.3s-2.5-7.3-7-7.3ZM48.7,60.6h-2v-8.8h2c2.5,0,3.5,1.5,3.5,4.4s-1.1,4.4-3.5,4.4ZM65.4,49h-6.7v14.5h3.8v-4.8h2.9c3.5,0,5.6-1.8,5.6-4.8,0-3.1-2.1-4.8-5.6-4.8ZM64.8,55.8h-2.3v-4h2.3c1.6,0,2.4.7,2.4,2s-.8,2-2.4,2h0ZM80.3,49h-6.9v14.5h3.7v-5.3h2.3l3.1,5.3h4.2l-3.8-5.8c1.8-.5,3.1-2.3,2.9-4.2,0-2.7-2-4.5-5.5-4.5ZM79.8,55.5h-2.7v-3.7h2.7c1.5,0,2.2.6,2.2,1.8,0,1.3-.7,1.8-2.2,1.8h0Z"/>
  </g>
</svg>