<?xml version="1.0" encoding="UTF-8"?>
<svg id="mach-alliance_svg__Layer_2" xmlns="http://www.w3.org/2000/svg" version="1.1" viewBox="0 0 387.1 176.2">
  <!-- Generator: Adobe Illustrator 29.0.0, SVG Export Plug-In . SVG Version: 2.1.0 Build 186)  -->
  <defs>
    <style>
      .st0 {
        fill: #fff;
      }
    </style>
  </defs>
  <rect class="st0" x="155.5" y="148.1" width="7.9" height="27.2"/>
  <path class="st0" d="M197.5,148.1l-14.1,27.2h8.3l2.6-5.2h14.9l2.6,5.2h8.4l-14.1-27.2h-8.7.1ZM197.1,164.5l4.7-9.6,4.7,9.6h-9.4Z"/>
  <path class="st0" d="M19.2,148.1l-14.1,27.2h8.3l2.6-5.2h14.9l2.6,5.2h8.4l-14.1-27.2h-8.7,0ZM18.8,164.5l4.7-9.6,4.7,9.6h-9.4Z"/>
  <polygon class="st0" points="70 148.1 62 148.1 62 175.3 88.2 175.3 88.2 168.9 70 168.9 70 148.1"/>
  <polygon class="st0" points="116.7 148.1 108.8 148.1 108.8 175.3 135 175.3 135 168.9 116.7 168.9 116.7 148.1"/>
  <path class="st0" d="M244.9,25.2c-16.8,0-30.5,13-31.6,29.5v4.4c1.1,16.5,14.8,29.5,31.6,29.5s15.2-2.8,21-7.9h0l13,7.5V25.6l-13.1,7.6c-5.6-4.9-12.9-7.9-20.9-7.9h0ZM270.4,44.8l3.2-1.9v36l-8.5-4.9-2.8,2.5c-4.8,4.3-11,6.6-17.5,6.6s-11.6-2.1-16-5.6c-2.9-3.9-4.7-8.6-5-13.8v-3.6c.9-13.8,12.5-24.6,26.3-24.6s12.6,2.3,17.5,6.6l2.8,2.5v.2Z"/>
  <path class="st0" d="M147.9,68.5h30.7l-15.3-26.6-15.4,26.6ZM167.4,59.6l2.1,3.6h-4.2l2.1-3.6h0Z"/>
  <path class="st0" d="M387.1,7.3l-5.3-5.3h-28.7v61.3h-45.6V7.3l-5.3-5.3h-28.6v7.9c-7.6-4.7-16.3-7.4-25.6-8h-6.7c-11.6.7-22.4,5-31.4,12.4-9.5,7.9-16,18.5-18.7,30.3l-22.8-39.4L163.2,0l-36.6,63.4V7.1l-5.3-5.3h-26.4l-33.1,57.4L31.7,7.1l-5.3-5.3H0v109.9l5.3,5.3h28.6v-49.8l26.8,46.4,5.3,5.3,26.8-46.4v39.3l5.3,5.3h36.3l11.5-19.9h43.3l8.4,14.6,5.3,5.3h30.3l-2-3.5c6.1,2.3,12.6,3.5,19.1,3.5s16.2-1.9,23.5-5.3h0l5.3,5.4h28.6v-19.8h45.7v14.6l5.3,5.3h28.7V7.3h-.3ZM376.6,106.5h-18.2v-19.8h-61.4v19.8h-18.1v-13.5c-8.9,8.4-20.8,13.5-34,13.5s-22.7-4-31.6-11.3c-.9-.7-1.7-1.5-2.6-2.3l7.9,13.7h-18.1l-11.5-19.9h-51.6l-11.5,19.9h-28V38.5l-28.2,48.9-9.1,15.7-9.1-15.7-28.2-48.9v68H5.3V7.1h18.1l37.3,64.5L97.9,7.1h18.1v85l3.2-5.6,10.5-18.1,24.4-42.3,9.1-15.7,9.1,15.7,24.2,41.9c-.9-3.6-1.3-7.4-1.3-11.3,0-15.5,7.1-29.2,18.1-38.4,7.8-6.4,17.6-10.5,28.4-11.2h6.4c11.9.8,22.7,5.7,30.8,13.4V7.3h18.1v61.3h61.4V7.3h18.2v99.2Z"/>
  <path class="st0" d="M319.9,165.6c-1.9,2.9-4.7,4.2-8.3,4.2-5.6,0-9.3-2.8-9.3-8s3.7-8,9.3-8,6.4,1.3,8.2,4.1l6.8-3.5c-2.4-3.9-7.9-7.1-14.9-7.1-10.6,0-17.5,5.3-17.5,14.5s6.9,14.5,17.2,14.5,12.8-3.1,15.3-7.1l-6.8-3.5h0Z"/>
  <polygon class="st0" points="264.8 164.7 248.7 148.1 240.3 148.1 240.3 175.3 248 175.3 248 157.4 265.5 175.3 272.5 175.3 272.5 148.1 264.8 148.1 264.8 164.7"/>
  <polygon class="st0" points="355.4 164.4 372.5 164.4 372.5 158.6 355.4 158.6 355.4 154.2 376.2 154.2 376.2 148.1 347.6 148.1 347.6 175.3 376.6 175.3 376.6 169.2 355.4 169.2 355.4 164.4"/>
</svg>