<?xml version="1.0" encoding="utf-8"?>
<!-- Generator: Adobe Illustrator 28.3.0, SVG Export Plug-In . SVG Version: 6.00 Build 0)  -->
<svg version="1.1" id="Layer_1" xmlns="http://www.w3.org/2000/svg" xmlns:xlink="http://www.w3.org/1999/xlink" x="0px" y="0px"
	 viewBox="0 0 240 72" style="enable-background:new 0 0 240 72;" xml:space="preserve">
<style type="text/css">
	.st0{fill-rule:evenodd;clip-rule:evenodd;fill:#FFFFFF;}
</style>
<g>
	<path class="st0" d="M64,5.5H14.9C6.7,5.5,0,12.2,0,20.5V53c0,8.3,6.7,15,14.9,15H64c8.3,0,15-6.7,15-15V20.5
		C79,12.2,72.3,5.5,64,5.5z M77,52.7C77,59.5,71.4,65,64.6,65H15.4C8.6,65,3,59.5,3,52.7V20.3C3,13.5,8.6,8,15.4,8h49.3
		C71.4,8,77,13.5,77,20.3V52.7z"/>
	<path class="st0" d="M39.5,39.4c-3.2,0-5.3-1.5-5.3-1.5V20.3c0-1.5,1.7-2.5,3.2-2.6c1.6-0.2,8.9-1.3,8.9,10.2
		C46.3,38.2,41.3,39.4,39.5,39.4z M15.7,38.3c-2.1,0-3-0.9-3-0.9V26.8c0-0.9,0.6-1.5,1.6-1.6s5.8-0.9,5.8,6.2
		C20.1,38,17.2,38.3,15.7,38.3z M64.7,26.5c3-0.9,6,0,8.3,2v-6.4c-7.7-1.2-11.8-0.4-14.8,1.5c-2.5,1.6-3.6,3.8-3.6,3.8
		s-0.1,0.1-0.1,0.3C54.1,11.6,44.2,13,32.5,13h-6.6v13.9c-2-5.8-8-5.1-14.4-5.1H6v29.4h8.9c-1.5-0.5-2.2-1.8-2.2-3.7v-8.1l2.6,2.6
		c1.1,0.3,2.1,0.2,2.1,0.2c2.5-0.1,6.9-1.1,8.5-6.1V60h10.6c-1.5-0.5-2.2-1.8-2.2-3.6v-16l4,4c1.3,0.5,2.2,0.5,3.3,0.5
		c3.1-0.2,8.4-1.5,11.1-7.1c0.2,5.3,1.9,10.5,7.3,12.6c2.3,1,5,1.2,7.8,1c1.8-0.1,3.6-0.2,5.3-0.5V36.5H65c1.5,0.5,2.2,1.7,2.2,3.6
		v6.6c-1.8,0.6-4.3,0-5.7-1.8c-1.8-2.3-2.1-8.7-1.3-13.1C60.5,29.6,62.4,27.2,64.7,26.5z M128.9,41.1l4.1-11.7h0.1l4,11.7H128.9
		L128.9,41.1z M135.1,22H131c-0.3,0-0.5,0.2-0.6,0.4L120,51.5c-0.1,0.3,0,0.5,0.3,0.5h4.3c0.3,0,0.5-0.1,0.6-0.5l2-5.8h11.4l2,5.8
		c0.1,0.3,0.3,0.5,0.6,0.5h4.4c0.3,0,0.4-0.2,0.3-0.5l-10.3-29.1C135.6,22.2,135.4,22,135.1,22z M152.6,22h-4.2
		c-0.3,0-0.4,0.2-0.4,0.4v29.1c0,0.3,0.2,0.5,0.4,0.5h4.2c0.3,0,0.4-0.2,0.4-0.5V22.4C153,22.2,152.8,22,152.6,22 M111.6,35.9h-6
		c-0.2,0-0.3-0.1-0.3-0.3v-8.7c0-0.2,0.1-0.3,0.3-0.3h6c3.2,0,5.1,1.9,5.1,4.6C116.7,34.1,114.8,35.9,111.6,35.9z M111.9,22h-11.5
		c-0.3,0-0.4,0.2-0.4,0.4v29.1c0,0.3,0.2,0.5,0.4,0.5h4.4c0.3,0,0.4-0.2,0.4-0.5V40.9c0-0.2,0.1-0.3,0.3-0.3h6.3
		c5.9,0,10.1-3.8,10.1-9.4C122,25.7,117.9,22,111.9,22z M221.8,34l-1.6-0.2c-4.1-0.6-5.6-2-5.6-4c0-2.4,1.7-4,4.8-4
		c2.6,0,4.9,0.8,7.3,2.4c0.2,0.1,0.5,0.1,0.6-0.1l2.2-3.3c0.2-0.3,0.1-0.4-0.1-0.6c-2.4-1.8-6.1-3-9.9-3c-6.3,0-10.4,3.6-10.4,9.1
		c0,5,3.3,7.8,9.2,8.6l1.6,0.2c4.2,0.6,5.6,2,5.6,4.1c0,2.5-2.1,4.3-5.8,4.3c-3.4,0-6.4-1.6-8.3-3.2c-0.2-0.2-0.4-0.2-0.6,0
		l-2.8,3.2c-0.2,0.2-0.1,0.5,0.1,0.7c2.4,2.2,6.8,4,11.3,4c7.6,0,11.5-4,11.5-9.3C231,37.5,227.8,34.8,221.8,34 M182.5,22h-3.9
		c-0.3,0-0.5,0.2-0.5,0.4v20.7H178l-12.6-20.7c-0.2-0.3-0.4-0.4-0.8-0.4h-4.2c-0.3,0-0.4,0.2-0.4,0.4v29.1c0,0.3,0.2,0.5,0.4,0.5h4
		c0.3,0,0.5-0.2,0.5-0.5V30.9h0.2l12.6,20.6c0.2,0.3,0.4,0.5,0.8,0.5h4.1c0.3,0,0.5-0.2,0.5-0.5V22.4C183,22.2,182.8,22,182.5,22
		 M207.6,22h-21.1c-0.3,0-0.4,0.2-0.4,0.4v3.8c0,0.3,0.2,0.5,0.4,0.5h7.7c0.2,0,0.3,0.1,0.3,0.3v24.6c0,0.3,0.2,0.5,0.4,0.5h4.2
		c0.3,0,0.4-0.2,0.4-0.5V26.9c0-0.2,0.1-0.3,0.3-0.3h7.7c0.3,0,0.4-0.2,0.4-0.4v-3.8C208,22.2,207.8,22,207.6,22 M237.9,23h-0.4
		c0,0-0.1,0-0.1,0.1l-0.9,2.4l0,0l-0.9-2.4c0-0.1-0.1-0.1-0.1-0.1h-0.4c-0.1,0-0.1,0-0.1,0.1v3.8c0,0.1,0,0.1,0.1,0.1h0.5
		c0.1,0,0.1,0,0.1-0.1v-2.1l0,0l0.6,1.5c0,0.1,0,0.1,0.1,0.1h0.4c0,0,0.1,0,0.1-0.1l0.6-1.5l0,0v2.1c0,0.1,0,0.1,0.1,0.1h0.5
		c0.1,0,0.1,0,0.1-0.1v-3.8C238,23,238,23,237.9,23 M231.1,23c-0.1,0-0.1,0-0.1,0.1v0.5c0,0.1,0,0.1,0.1,0.1h1c0,0,0.1,0,0.1,0.1
		v3.1c0,0.1,0,0.1,0.1,0.1h0.6c0.1,0,0.1,0,0.1-0.1v-3.1c0,0,0-0.1,0.1-0.1h0.9c0.1,0,0.1,0,0.1-0.1v-0.5c0-0.1,0-0.1-0.1-0.1H231.1
		"/>
</g>
</svg>
