<?xml version="1.0" encoding="utf-8"?>
<!-- Generator: Adobe Illustrator 28.3.0, SVG Export Plug-In . SVG Version: 6.00 Build 0)  -->
<svg version="1.1" id="Layer_1" xmlns="http://www.w3.org/2000/svg" xmlns:xlink="http://www.w3.org/1999/xlink" x="0px" y="0px"
	 viewBox="0 0 202 60" style="enable-background:new 0 0 202 60;" xml:space="preserve">
<style type="text/css">
	.st0{fill-rule:evenodd;clip-rule:evenodd;fill:#FFFFFF;}
	.st1{fill:#FFFFFF;}
	.st2{filter:url(#Adobe_OpacityMaskFilter);}
	.st3{mask:url(#b_00000045590729810298921170000010168190091375166636_);fill-rule:evenodd;clip-rule:evenodd;fill:#FFFFFF;}
	.st4{filter:url(#Adobe_OpacityMaskFilter_00000009584380230915834060000000814989951572959911_);}
	.st5{mask:url(#d_00000096059578565371515660000001790773303162939570_);fill-rule:evenodd;clip-rule:evenodd;fill:#FFFFFF;}
</style>
<g>
	<path class="st0" d="M24.8,22.3c0-0.9-0.3-1.7-1-2.1c-0.4-0.2-1.3-0.3-2-0.3l-5.1,0v10.4h5.6c1.3,0,2.3,0.3,2.4,1.4h0.1
		C24.8,31.7,24.8,22.3,24.8,22.3z"/>
	<path class="st1" d="M24.8,22.3c0-0.9-0.3-1.7-1-2.1c-0.4-0.2-1.3-0.3-2-0.3l-5.1,0v10.4h5.6c1.3,0,2.3,0.3,2.4,1.4h0.1
		C24.8,31.7,24.8,22.3,24.8,22.3z"/>
	<path class="st0" d="M24.8,22.3c0-0.9,0.3-1.7,1-2.1c0.4-0.2,1.4-0.3,2.1-0.3l5.2,0v10.4h-5.6c-1.3,0-2.5,0.3-2.6,1.4h-0.1
		L24.8,22.3z"/>
	<path class="st1" d="M24.8,22.3c0-0.9,0.3-1.7,1-2.1c0.4-0.2,1.4-0.3,2.1-0.3l5.2,0v10.4h-5.6c-1.3,0-2.5,0.3-2.6,1.4h-0.1
		L24.8,22.3z"/>
	<path class="st0" d="M34.2,20.7v11h-7.9l-0.1,0.2c-0.1,0.3-0.4,0.7-1.3,0.7c-0.9,0-1.1-0.3-1.3-0.7l-0.1-0.2h-7.9v-11h-0.7V21
		l-0.7-0.2c-0.1-0.3-0.5-0.6-0.8-0.5C13.1,20.4,13,20.7,13,21c0,0.4,0.3,0.7,0.7,0.7c0.2,0,0.3-0.1,0.4-0.2l0.9,0.3v0.9l-0.7-0.1
		c-0.1-0.3-0.5-0.5-0.9-0.3c-0.3,0.1-0.5,0.5-0.3,0.9c0.1,0.2,0.3,0.4,0.6,0.4c0.2,0,0.4-0.1,0.5-0.2l0.8,0.1v0.9l-0.7,0
		c-0.2-0.3-0.6-0.4-0.9-0.2s-0.4,0.6-0.2,0.9s0.6,0.4,0.9,0.2c0.1,0,0.1-0.1,0.2-0.2l0.7,0v1l-0.7,0c-0.2-0.3-0.6-0.4-0.9-0.2
		s-0.4,0.6-0.2,0.9c0.1,0.2,0.3,0.3,0.5,0.3c0.2,0,0.4-0.1,0.6-0.3l0.7,0v0.9l-0.8,0.1c-0.2-0.3-0.7-0.3-0.9,0
		C13.1,27.8,13,28,13,28.2c0,0.4,0.3,0.7,0.7,0.7c0.3,0,0.5-0.2,0.6-0.4l0.7-0.1v0.9l-0.9,0.3c-0.1-0.1-0.3-0.2-0.4-0.2
		c-0.4,0-0.7,0.3-0.7,0.7c0,0.4,0.3,0.7,0.7,0.7c0,0,0,0,0,0c0.3,0,0.5-0.2,0.6-0.5l0.7-0.2v0.9l-1,0.4c-0.3-0.2-0.7-0.1-0.9,0.2
		c-0.2,0.3-0.1,0.7,0.2,0.9s0.7,0.1,0.9-0.2c0-0.1,0.1-0.2,0.1-0.2l0.7-0.3v0.8h8.2c0.3,0.6,0.9,0.9,1.8,0.9s1.5-0.3,1.8-0.9h8.2
		V20.7H34.2L34.2,20.7z M19.5,17c-1.7,0-3,0.3-3,0.6c0,0.3,1.3,0.6,3,0.6s3-0.3,3-0.6C22.5,17.3,21.2,17,19.5,17 M23.6,13.4
		l-1.7,1.2l0,0.1l0.4,0.2c0.1,0,0.1,0.1,0,0.1L21.3,16l-0.1,0l-0.8-1.1c-0.1-0.1,0-0.1,0.1-0.2l0.5-0.1v-0.1l-1.3-1.9h-0.2l-1.3,1.9
		v0.1l0.5,0.1c0.1,0,0.1,0.1,0.1,0.2L17.9,16l-0.1,0l-1-0.9c0,0,0-0.1,0-0.1l0.4-0.2l0-0.1l-1.8-1.2l-0.1,0.1l1.1,3.2
		c0.5-0.2,1.8-0.4,3.2-0.4c1.4,0,2.7,0.2,3.2,0.4l1.1-3.2C23.8,13.5,23.7,13.4,23.6,13.4z M24.9,38.7c-1.7,0-3,0.3-3,0.6
		c0,0.3,1.3,0.6,3,0.6c1.7,0,3-0.3,3-0.6C27.9,39,26.6,38.7,24.9,38.7 M29,35.1l-1.7,1.2l0,0.1l0.4,0.2c0.1,0,0.1,0.1,0,0.1
		l-1.1,0.9l-0.1,0l-0.8-1.1c-0.1-0.1,0-0.1,0.1-0.2l0.5-0.1v-0.1L25,34.3h-0.2l-1.3,1.9v0.1l0.5,0.1c0.1,0,0.1,0.1,0.1,0.2l-0.8,1.1
		l-0.1,0l-1-0.9c0,0,0-0.1,0-0.1l0.4-0.2l0-0.1l-1.8-1.2l-0.1,0.1l1.1,3.2c0.5-0.2,1.8-0.4,3.2-0.4c1.4,0,2.7,0.2,3.2,0.4l1.1-3.2
		C29.2,35.2,29,35.1,29,35.1z M30.3,17c-1.7,0-3,0.3-3,0.6c0,0.3,1.3,0.6,3,0.6c1.7,0,3-0.3,3-0.6C33.3,17.3,31.9,17,30.3,17
		 M34.4,13.4l-1.7,1.2l0,0.1l0.4,0.2c0.1,0,0.1,0.1,0,0.1L32,16l-0.1,0l-0.8-1.1c-0.1-0.1,0-0.1,0.1-0.2l0.5-0.1v-0.1l-1.3-1.9h-0.2
		l-1.3,1.9v0.1l0.5,0.1c0.1,0,0.1,0.1,0.1,0.2L28.6,16l-0.1,0l-1-0.9c0,0,0-0.1,0-0.1l0.4-0.2l0-0.1l-1.8-1.2L26,13.5l1.1,3.2
		c0.5-0.2,1.8-0.4,3.2-0.4c1.4,0,2.7,0.2,3.2,0.4l1.1-3.2L34.4,13.4L34.4,13.4z"/>
	<path class="st0" d="M18,22.7c0,0.2,0,0.2,0.2,0.2c0.2,0,0.4-0.2,0.4-0.6c0-0.5-0.2-0.6-0.4-0.6c0,0-0.1,0-0.1,0c0,0,0,0.1,0,0.1
		C18,21.8,18,22.7,18,22.7z M18.2,21.5c0.3,0,0.5,0.1,0.7,0.2C19,21.9,19,22,19,22.2c0,0.6-0.4,0.8-1,0.8h-0.6v-0.1
		c0.2,0,0.2,0,0.2-0.3v-0.8c0-0.2,0-0.3-0.2-0.3v-0.1L18.2,21.5L18.2,21.5z M19.6,22.2c0,0.4,0.2,0.7,0.4,0.7c0.2,0,0.3-0.2,0.3-0.6
		c0-0.5-0.2-0.7-0.4-0.7C19.8,21.6,19.6,21.8,19.6,22.2 M20.8,22.3c0,0.5-0.3,0.8-0.8,0.8c-0.5,0-0.8-0.3-0.8-0.8
		c0-0.4,0.2-0.8,0.8-0.8C20.4,21.5,20.8,21.8,20.8,22.3 M22.8,21.5L22.8,21.5c-0.2,0.1-0.2,0.1-0.2,0.4l0,0.8c0,0.3,0,0.3,0.2,0.3
		V23h-0.7v-0.1c0.2,0,0.2,0,0.2-0.3l0-0.8h0L21.8,23h-0.1l-0.4-1.1h0l0,0.5c0,0.2,0,0.3,0,0.4c0,0.1,0.1,0.1,0.2,0.1V23h-0.6v-0.1
		c0.1,0,0.2,0,0.2-0.1c0-0.1,0-0.2,0-0.4l0-0.5c0-0.3,0-0.3-0.2-0.3v-0.1h0.5l0.4,0.9l0.3-0.9C22.2,21.5,22.8,21.5,22.8,21.5z
		 M23.5,22.7c0,0.2,0,0.3,0.2,0.3V23H23v-0.1c0.2,0,0.2,0,0.2-0.3v-0.8c0-0.2,0-0.3-0.2-0.3v-0.1h0.7v0.1c-0.2,0-0.2,0-0.2,0.3V22.7
		z M19.8,25.8h-0.2l-0.8-1.1h0v0.4c0,0.2,0,0.4,0,0.4c0,0.1,0.1,0.1,0.2,0.1v0.1h-0.6v-0.1c0.1,0,0.2,0,0.2-0.1c0-0.1,0-0.2,0-0.4
		v-0.4c0-0.2,0-0.2,0-0.3c0,0-0.1-0.1-0.2-0.1v-0.1h0.5l0.8,1h0v-0.3c0-0.2,0-0.4,0-0.4c0-0.1-0.1-0.1-0.2-0.1v-0.1H20v0.1
		c-0.1,0-0.2,0-0.2,0.1c0,0.1,0,0.2,0,0.4C19.8,24.9,19.8,25.8,19.8,25.8z M20.8,25.8l-0.5-1.2c-0.1-0.2-0.1-0.2-0.2-0.2v-0.1h0.7
		v0.1l-0.1,0c-0.1,0-0.1,0-0.1,0.1c0,0.1,0.2,0.6,0.3,0.8c0.1-0.2,0.2-0.6,0.3-0.7c0-0.1,0-0.2-0.1-0.2l-0.1,0v-0.1h0.6v0.1
		c-0.1,0-0.2,0-0.3,0.2c0,0-0.3,0.7-0.5,1.2H20.8z M21.8,25.3c0,0.1,0.2,0.4,0.4,0.4c0.1,0,0.2-0.1,0.2-0.2c0-0.1-0.1-0.2-0.2-0.3
		l0,0c-0.2-0.1-0.4-0.2-0.4-0.5c0-0.3,0.2-0.5,0.5-0.5c0.1,0,0.1,0,0.2,0c0,0,0.1,0,0.1,0c0,0.1,0,0.2,0,0.4l-0.1,0
		c0-0.2-0.1-0.3-0.3-0.3c-0.1,0-0.2,0.1-0.2,0.2c0,0,0,0,0,0c0,0.1,0.1,0.2,0.2,0.2l0,0c0.2,0.1,0.4,0.2,0.4,0.5
		c0,0.3-0.2,0.5-0.6,0.5c-0.1,0-0.2,0-0.2,0c0,0-0.1,0-0.1-0.1c0-0.1,0-0.2-0.1-0.4C21.7,25.3,21.8,25.3,21.8,25.3z M18.8,28.2
		c0,0.2,0,0.3,0.2,0.3v0.1h-0.7v-0.1c0.2,0,0.2,0,0.2-0.3v-0.8c0-0.2,0-0.3-0.2-0.3V27H19v0.1c-0.2,0-0.2,0-0.2,0.3V28.2z M19.9,27
		L19.9,27c-0.2,0.1-0.2,0.1-0.2,0.4v0.8c0,0.1,0,0.2,0,0.2c0,0,0.1,0,0.2,0c0.1,0,0.2,0,0.2-0.1c0.1-0.1,0.1-0.1,0.1-0.2l0.1,0
		c0,0.1,0,0.3-0.1,0.4h-1.1v-0.1c0.2,0,0.2,0,0.2-0.3v-0.8c0-0.2,0-0.3-0.2-0.3V27C19.2,27,19.9,27,19.9,27z M21.2,27L21.2,27
		C21,27.1,21,27.2,21,27.4v0.8c0,0.1,0,0.2,0,0.2c0,0,0.1,0,0.2,0c0.1,0,0.2,0,0.2-0.1c0.1-0.1,0.1-0.1,0.1-0.2l0.1,0
		c0,0.1-0.1,0.3-0.1,0.4h-1.1v-0.1c0.2,0,0.2,0,0.2-0.3v-0.8c0-0.2,0-0.3-0.2-0.3V27H21.2z M22.1,28.5l-0.5-1.2
		c-0.1-0.2-0.1-0.2-0.2-0.2V27h0.7v0.1l-0.1,0c-0.1,0-0.1,0-0.1,0.1c0,0.1,0.2,0.6,0.3,0.8c0.1-0.2,0.2-0.6,0.3-0.7
		c0-0.1,0-0.2-0.1-0.2l-0.1,0V27H23v0.1c-0.1,0-0.2,0-0.3,0.2c0,0-0.3,0.7-0.5,1.2C22.3,28.5,22.1,28.5,22.1,28.5z M28,21.5L28,21.5
		c-0.2,0.1-0.2,0.1-0.2,0.4l0,0.8c0,0.3,0,0.3,0.2,0.3V23h-0.7v-0.1c0.2,0,0.2,0,0.2-0.3l0-0.8h0L27,23h-0.1l-0.4-1.1h0l0,0.5
		c0,0.2,0,0.3,0,0.4c0,0.1,0.1,0.1,0.2,0.1V23h-0.6v-0.1c0.1,0,0.2,0,0.2-0.1c0-0.1,0-0.2,0-0.4l0-0.5c0-0.3,0-0.3-0.2-0.3v-0.1h0.5
		l0.4,0.9l0.4-0.9C27.4,21.5,28,21.5,28,21.5z M28.7,22.7c0,0.2,0,0.3,0.2,0.3V23h-0.7v-0.1c0.2,0,0.2,0,0.2-0.3v-0.8
		c0-0.2,0-0.3-0.2-0.3v-0.1h0.7v0.1c-0.2,0-0.2,0-0.2,0.3V22.7z M30.4,23h-0.2L29.4,22h0v0.4c0,0.2,0,0.4,0,0.4
		c0,0.1,0.1,0.1,0.2,0.1V23h-0.6v-0.1c0.1,0,0.2,0,0.2-0.1c0-0.1,0-0.2,0-0.4V22c0-0.2,0-0.2-0.1-0.3c0,0-0.1-0.1-0.2-0.1v-0.1h0.5
		l0.8,0.9h0v-0.3c0-0.2,0-0.4,0-0.4c0-0.1-0.1-0.1-0.2-0.1v-0.1h0.6v0.1c-0.1,0-0.2,0-0.2,0.1c0,0.1,0,0.2,0,0.4L30.4,23L30.4,23z
		 M31.1,22.4h0.3L31.2,22h0C31.2,22,31.1,22.4,31.1,22.4z M31.4,22.9L31.4,22.9c0.2,0,0.2,0,0.1-0.1l-0.1-0.2h-0.4L31,22.8
		c0,0.1,0,0.1,0.1,0.1l0.1,0V23h-0.5v-0.1c0.1,0,0.1,0,0.2-0.2l0.5-1.2l0.2,0l0.2,0.4c0.1,0.3,0.2,0.5,0.3,0.8
		c0.1,0.2,0.1,0.2,0.2,0.2V23L31.4,22.9L31.4,22.9L31.4,22.9z M28,25.4c0,0.2,0,0.3,0.2,0.3v0.1h-0.8v-0.1c0.2,0,0.2,0,0.2-0.3v-1h0
		c-0.1,0-0.2,0-0.2,0.1c0,0.1-0.1,0.1-0.1,0.2h-0.1c0-0.2,0-0.4,0-0.5h0.1c0,0.1,0.1,0.1,0.1,0.1h0.9c0.1,0,0.1,0,0.1-0.1h0.1
		c0,0.1,0,0.3,0,0.5l-0.1,0c0-0.1-0.1-0.2-0.1-0.2c0,0-0.1-0.1-0.2-0.1H28C28,24.4,28,25.4,28,25.4z M29.2,25.4c0,0.2,0,0.3,0.2,0.3
		v0.1h-0.7v-0.1c0.2,0,0.2,0,0.2-0.3v-0.8c0-0.2,0-0.3-0.2-0.3v-0.1h0.7v0.1c-0.2,0-0.2,0-0.2,0.3V25.4z M30,25
		c0,0.4,0.2,0.7,0.4,0.7c0.2,0,0.3-0.2,0.3-0.6c0-0.5-0.2-0.7-0.4-0.7C30.1,24.4,30,24.6,30,25 M31.1,25c0,0.5-0.3,0.8-0.8,0.8
		c-0.4,0-0.7-0.3-0.8-0.7c0,0,0,0,0-0.1c0-0.4,0.2-0.8,0.8-0.8C30.7,24.3,31.1,24.6,31.1,25 M28.6,27L28.6,27
		c-0.2,0.1-0.2,0.1-0.2,0.4l0,0.8c0,0.3,0,0.3,0.2,0.3v0.1h-0.7v-0.1c0.2,0,0.2,0,0.2-0.3l0-0.8h0l-0.4,1.1h-0.1l-0.4-1.1h0l0,0.5
		c0,0.1,0,0.3,0,0.4c0,0.1,0.1,0.1,0.2,0.1v0.1h-0.6v-0.1c0.1,0,0.2,0,0.2-0.1c0-0.1,0-0.2,0-0.4l0-0.5c0-0.3,0-0.3-0.2-0.3V27h0.5
		l0.4,0.9l0.4-0.9C28.1,27,28.6,27,28.6,27z M29,27.4c0-0.2,0-0.3-0.2-0.3V27h1.1c0,0,0,0.2,0,0.4l-0.1,0c0-0.1,0-0.2-0.1-0.2
		c0,0-0.1-0.1-0.2-0.1h0c-0.1,0-0.1,0-0.1,0.1v0.4h0.1c0.2,0,0.2,0,0.2-0.2h0.1V28h-0.1c0-0.2,0-0.2-0.2-0.2h-0.1v0.4
		c0,0.1,0,0.2,0,0.2c0,0,0.1,0,0.2,0c0.1,0,0.2,0,0.2-0.1c0.1-0.1,0.1-0.2,0.1-0.2l0.1,0c0,0.1-0.1,0.3-0.1,0.4h-1.2v-0.1
		c0.2,0,0.2,0,0.2-0.3C29,28.2,29,27.4,29,27.4z M30.6,27.9h0.3l-0.1-0.4h0L30.6,27.9L30.6,27.9z M30.8,28.4L30.8,28.4
		c0.2,0,0.2,0,0.1-0.1l-0.1-0.2h-0.4l-0.1,0.2c0,0.1,0,0.1,0.1,0.1l0.1,0v0.1h-0.5v-0.1c0.1,0,0.2,0,0.2-0.2l0.5-1.2l0.2,0l0.2,0.4
		c0.1,0.3,0.2,0.5,0.3,0.8c0.1,0.2,0.1,0.2,0.2,0.2v0.1L30.8,28.4C30.8,28.5,30.8,28.4,30.8,28.4z M22.8,46.9c0,0.3-0.3,0.6-0.6,0.6
		c-0.3,0-0.6-0.3-0.6-0.6l0,0c0-0.3,0.3-0.6,0.6-0.6C22.6,46.3,22.8,46.6,22.8,46.9 M28.9,47.9c0,0.3-0.3,0.6-0.6,0.6
		c-0.3,0-0.6-0.3-0.6-0.6l0,0c0-0.3,0.3-0.6,0.6-0.6C28.6,47.3,28.9,47.6,28.9,47.9 M25.5,4.7c0,0.3-0.2,0.6-0.6,0.6
		c-0.3,0-0.6-0.2-0.6-0.6c0,0,0,0,0,0c0-0.3,0.3-0.6,0.6-0.6C25.2,4.1,25.5,4.4,25.5,4.7 M39.7,10.3c0,0.3-0.3,0.6-0.6,0.6
		s-0.6-0.3-0.6-0.6c0,0,0,0,0,0c0-0.3,0.3-0.6,0.6-0.6C39.5,9.7,39.7,10,39.7,10.3L39.7,10.3 M9.7,36c0.2,0.3,0.3,0.7,0.3,1.1
		c0,0.4-0.1,0.8-0.9,1.3L7,39.8l-0.4-0.6l2.2-1.6c0.4-0.3,0.5-0.5,0.5-0.8c0-0.2-0.1-0.4-0.2-0.6C9,36,8.7,35.9,8.5,35.9
		c-0.2,0-0.5,0.2-0.9,0.5l-2,1.4l-0.4-0.6l1.9-1.3c0.5-0.4,1-0.6,1.4-0.6C9,35.2,9.5,35.6,9.7,36 M2.8,31.8l4.1-1.4l0.2,0.6
		l-2.3,2.9l3-1.2L8,33.2l-4.1,1.6l-0.2-0.6l2.4-2.9l-3,1.1L2.8,31.8z M2.2,28.5l4.3-0.6l0.1,0.7l-4.3,0.6L2.2,28.5z M2.1,23.3l0-0.7
		l4.3,1.7l0,0.7l-4.4,1.3l0-0.7l3.6-1L2.1,23.3z M5.2,14.9c0.3-0.5,0.4-0.6,0.7-0.6c0.1,0,0.2,0,0.4,0.1c0.2,0.1,0.3,0.2,0.3,0.4
		c0,0.1,0,0.1,0,0.2c0,0.3-0.1,0.5-0.3,0.8l-0.1,0.2L5,15.2L5.2,14.9L5.2,14.9z M6,13.6c-0.6,0-0.9,0.4-1.3,1.1l-0.5,0.9L8,17.6
		L8.4,17l-1.6-0.9L6.9,16c0.3-0.5,0.4-0.6,1-0.5l1.2,0.1l0.4-0.6l-1.4-0.1c-0.3,0-0.5,0-0.7,0c-0.1,0-0.1,0.1-0.2,0.1
		c0-0.1,0-0.2,0-0.2c0-0.1,0-0.2-0.1-0.4c-0.1-0.3-0.3-0.5-0.5-0.6C6.4,13.6,6.2,13.6,6,13.6z M10.8,7.4L11.3,7l2.6,3.5l-0.6,0.4
		L10.8,7.4z M13.1,5.7L16,4.3l0.3,0.5l-1.1,0.6l1.7,3.3L16.2,9l-1.7-3.3l-1.1,0.6L13.1,5.7z M20.2,2.9l0.7-0.2l-0.6,2.9l0.5,1.7
		l-0.7,0.2l-0.5-1.6l-2.1-2.2l0.7-0.2L19.8,5L20.2,2.9z M33.4,8.9l2.2-3.7l2.1,1.2l-0.3,0.5L35.9,6l-0.6,1l1.4,0.8l-0.3,0.5L35,7.5
		l-1,1.7L33.4,8.9z M44.6,18.6l1.6-1.9l0.2,0.8l-1.2,1.3l1.8,0.4l0.2,0.7l-2.4-0.6l-1.7,2l-0.2-0.7l1.3-1.5l-1.9-0.4L42,17.9
		L44.6,18.6z M43.4,22.8l4.3-0.4l0.2,2.4l-0.6,0l-0.1-1.7L46,23.3l0.1,1.6l-0.6,0l-0.1-1.6l-2,0.2L43.4,22.8z M45.6,30
		c-0.8,0-1.8-0.5-1.8-1.3c0-0.3,0.1-0.7,0.5-1c0.3-0.2,0.6-0.3,1-0.3c0.4,0,1.2,0.1,1.6,0.7c0.1,0.2,0.2,0.4,0.2,0.7
		c0,0.3-0.1,0.7-0.5,1C46.3,29.9,46,30,45.6,30 M45.3,26.7c-0.5,0-1,0.1-1.3,0.4c-0.7,0.5-0.8,1.2-0.8,1.6c0,1.5,1.4,2.1,2.4,2.1
		c0.5,0,1-0.1,1.3-0.4c0.7-0.5,0.8-1.3,0.8-1.6C47.7,27.5,46.5,26.7,45.3,26.7 M42.1,15.8c-0.4,0-0.7-0.2-1-0.5
		c-0.1-0.2-0.2-0.4-0.2-0.6c0-0.5,0.3-1,0.9-1.4c0.4-0.2,0.7-0.4,1.1-0.4c0.4,0,0.8,0.2,1,0.5c0.1,0.2,0.2,0.4,0.2,0.7
		c0,0.5-0.3,1-0.9,1.3C42.8,15.7,42.4,15.8,42.1,15.8 M42.7,12.2c-0.4,0-0.9,0.1-1.4,0.4c-0.8,0.5-1.1,1.3-1.1,1.8
		c0,0.4,0.1,0.7,0.3,1c0.3,0.6,1,0.9,1.6,0.9c0.4,0,0.9-0.2,1.4-0.4c0.5-0.3,1.1-1,1.1-1.8c0-0.4-0.1-0.7-0.3-1
		C44,12.6,43.4,12.2,42.7,12.2 M30.7,7.2c-0.3,0-0.8-0.2-1-0.6c-0.1-0.2-0.2-0.5-0.2-0.8c0-0.8,0.5-1.9,1.5-1.9
		c0.5,0,1.2,0.4,1.2,1.4C32.1,5.9,31.7,7.2,30.7,7.2 M30.9,3.3c-0.9,0-1.7,0.6-2,1.7c-0.1,0.2-0.1,0.5-0.1,0.7
		c0,0.4,0.1,0.8,0.2,1.1c0.4,0.7,1.1,1,1.7,1c0.3,0,0.6-0.1,0.9-0.2c0.7-0.4,1.2-1.3,1.2-2.2c0-0.4-0.1-0.8-0.2-1.1
		C32.2,3.7,31.6,3.3,30.9,3.3 M6.8,19.1l0.6,0.2l-0.7,2.4l-4.2-1.2L3.2,18l0.6,0.2l-0.5,1.7l1.2,0.3l0.4-1.6l0.6,0.2L5,20.4l1.3,0.4
		L6.8,19.1z M7.9,10c0.6-0.7,1.2-0.6,1.2-0.6l0.1,0.6c0,0-0.5,0-0.8,0.4c-0.2,0.2-0.2,0.4-0.2,0.5c0,0.1,0.1,0.3,0.2,0.4
		c0.3,0.3,0.8,0,1.1-0.2c0.2-0.1,0.6-0.2,1-0.2c0.3,0,0.5,0.1,0.8,0.3c0.3,0.3,0.4,0.6,0.4,0.9c0,0.4-0.1,0.7-0.4,1
		c-0.6,0.6-1.3,0.7-1.3,0.7l-0.1-0.6c0.4-0.1,0.8-0.3,1-0.5c0.1-0.1,0.2-0.3,0.2-0.6c0-0.2-0.1-0.3-0.2-0.4
		c-0.1-0.1-0.2-0.1-0.4-0.1c-0.3,0-0.6,0.2-0.9,0.3c-0.5,0.2-1.1,0.4-1.6-0.1c-0.2-0.2-0.4-0.5-0.4-0.8C7.5,10.6,7.6,10.3,7.9,10
		 M44.8,34.9c-0.2,0-0.5-0.1-0.7-0.4c0-0.1,0-0.2,0-0.2c0-0.2,0.1-0.5,0.2-0.7l0.1-0.2l1.3,0.6l-0.1,0.3
		C45.3,34.8,45.1,34.9,44.8,34.9z M42.2,32.3l1.6,0.7l-0.1,0.2c-0.2,0.5-0.3,0.6-1,0.6h-1.2l-0.3,0.7l1.4,0c0.3,0,0.5,0,0.7-0.1
		c0.1,0,0.1-0.1,0.2-0.1c0,0,0,0.1,0,0.1c0,0.2,0,0.3,0.1,0.5c0.2,0.5,0.7,0.7,1.1,0.7c0.7,0,1-0.4,1.3-1.2l0.4-0.9l-4-1.8
		L42.2,32.3L42.2,32.3z M41.5,39.7c-0.3,0-0.7-0.1-1-0.4c-0.3-0.3-0.7-0.7-0.7-1.2c0-0.4,0.2-0.7,0.5-1.1l0.3-0.4l2.5,2l-0.2,0.2
		C42.4,39.4,42.1,39.7,41.5,39.7z M39.9,36.5c-0.5,0.6-0.8,1.1-0.8,1.7c0,0.6,0.3,1.2,0.9,1.7c0.4,0.3,0.9,0.5,1.4,0.5
		c0.6,0,1.1-0.2,1.8-1.1l0.7-0.9l-3.4-2.7L39.9,36.5L39.9,36.5z"/>
	<g transform="translate(0 .113)">
		<defs>
			<filter id="Adobe_OpacityMaskFilter" filterUnits="userSpaceOnUse" x="0" y="0.5" width="49.8" height="59.5">
				<feColorMatrix  type="matrix" values="1 0 0 0 0  0 1 0 0 0  0 0 1 0 0  0 0 0 1 0"/>
			</filter>
		</defs>
		
			<mask maskUnits="userSpaceOnUse" x="0" y="0.5" width="49.8" height="59.5" id="b_00000045590729810298921170000010168190091375166636_">
			<g class="st2">
				<path id="a_00000120557307583343741220000011458905648762507400_" class="st0" d="M0,0.5h49.8V60H0V0.5z"/>
			</g>
		</mask>
		<path class="st3" d="M39.5,44.6c-4,1.4-7.8,1.3-11,0.6c0.1-1.4,0.7-3,1.6-3.3c7.1-2.2,12.3-8.8,12.3-16.6C42.3,15.8,34.5,8,24.9,8
			C15.3,8,7.5,15.8,7.5,25.3c0,5.3,2.5,10.4,6.7,13.7c-1,0.4-1.8,1.1-2.5,2c-0.3-0.2-0.6-0.4-0.9-0.7l-0.2,0.2
			c0.2,0.2,0.5,0.5,0.8,0.9c-0.5,0.9-0.8,1.9-0.8,3c0,0.2,0,0.3,0,0.5c-6.3-4.5-10-11.8-10-19.5C0.7,12,11.6,1.2,24.9,1.2
			c13.3,0,24.2,10.8,24.2,24.2C49.1,33,45.6,40,39.5,44.6 M25.5,50.3c-3.3,0-7.5-1.1-10.4-2.8c-0.9-0.5-1.9-1.5-1.9-3.1
			c0-0.4,0.1-0.9,0.2-1.2c1.1,0.9,2.2,1.7,2.9,2.1c0.2,0.1,0.3,0.1,0.4,0.1c0.4,0,0.8-0.4,0.8-0.8c0,0,0,0,0,0
			c0-0.3-0.2-0.6-0.5-0.8c-0.6-0.3-1.8-0.8-3.2-1.5c0.6-0.8,1.6-1.3,2.7-1.3c0.5,0,1,0.1,1.4,0.3l0.9,0.5c2.9,1.8,10.4,6.3,19.4,3.8
			C34.9,48.8,30.7,50.3,25.5,50.3 M28.3,52.4c-0.9,0-1.7,0.7-1.7,1.6c0,1,0.8,1.6,1.7,1.6c0.1,0,0.3,0,0.4-0.1
			c-0.2,1.4-1.8,2.9-3.9,3.6c-2.1-0.7-3.7-2.2-3.9-3.6c0.1,0,0.3,0.1,0.4,0.1c1,0,1.7-0.7,1.7-1.6c0-0.9-0.7-1.6-1.6-1.6
			c0.3-0.5,0.5-1.1,0.7-1.6c1.1,0.2,2.2,0.3,3.3,0.3c0.9,0,1.7,0,2.5-0.1C28.1,51.4,28.3,51.9,28.3,52.4
			C28.4,52.4,28.4,52.4,28.3,52.4 M16.5,39.2c1.7,0,3.3,0.9,4.3,2.3c-0.8-0.2-1.6-0.5-2.4-0.8l0,0l0,0c-0.6-0.3-1.2-0.4-1.8-0.4
			c-1.4,0-2.6,0.7-3.3,1.7c-0.3-0.2-0.6-0.4-0.9-0.5C13.3,40.1,14.8,39.2,16.5,39.2 M23.3,42.7c-0.2,0.1-0.4,0.3-0.5,0.6
			c-0.6-0.3-1.4-0.7-1.9-1C21.6,42.4,22.6,42.6,23.3,42.7 M28.6,42.3c-0.5,0.7-0.8,1.7-0.9,2.7c-1.5-0.4-2.9-0.9-4.3-1.5
			c0.2-0.5,0.9-0.8,1.4-0.8C26.2,42.7,27.4,42.6,28.6,42.3 M24.9,42c-1.1,0-2.1-0.1-3.1-0.3c-1-2-3-3.2-5.2-3.2
			c-0.5,0-1.1,0.1-1.6,0.2c-4.2-3.2-6.7-8.1-6.8-13.4c0-9.2,7.5-16.7,16.7-16.7c9.2,0,16.7,7.5,16.7,16.7C41.6,34.6,34.1,42,24.9,42
			 M16.5,49.5c-2.8,0-5.1-2.3-5.1-5.1c0-0.9,0.2-1.7,0.6-2.5c0.3,0.2,0.5,0.5,0.8,0.7c-0.3,0.5-0.4,1.1-0.4,1.7
			c0,1.5,0.8,2.8,2.2,3.7c0.8,0.5,1.8,0.9,2.8,1.3C17.2,49.5,16.9,49.5,16.5,49.5 M49.8,25.4c0-13.7-11.2-24.9-24.9-24.9
			C11.2,0.5,0,11.6,0,25.4c0,8.2,4.1,15.9,10.9,20.5c0.7,2.6,3,4.3,5.7,4.3c0.7,0,1.4-0.1,2.1-0.4c0.9,0.3,1.9,0.5,2.8,0.7
			c-0.3,0.8-0.6,1.5-1,2.1l0,0l0,0l0.5,0.5c0.1-0.1,0.3-0.1,0.4-0.1c0.5,0,0.9,0.4,0.9,0.9s-0.4,0.9-0.9,0.9c-0.4,0-0.8-0.3-1-0.6
			c0,0-0.1,0.4-0.1,1c0,1.8,1.9,3.8,4.6,4.7c2.7-0.8,4.7-2.9,4.7-4.7c0-0.6-0.1-1-0.1-1c-0.2,0.2-0.5,0.6-1.1,0.6
			c-0.5,0-0.9-0.4-0.9-0.9s0.4-0.9,0.9-0.9c0.2,0,0.3,0,0.5,0.1l0.5-0.5c0,0,0,0,0,0c-0.3-0.6-0.5-1.3-0.6-1.9
			c4.5-0.6,8.3-2.5,11.3-5.7l0,0C46.2,40.4,49.8,33.2,49.8,25.4"/>
	</g>
	<path class="st0" d="M77.3,39.8c0-6.1-2.9-10.3-7.9-10.3c-5.4,0-7.9,5.1-7.9,10.3c0,6,2.9,10.3,7.9,10.3C74.8,50,77.3,45,77.3,39.8
		 M81,39.7c0,6.7-5.1,11.5-11.6,11.5c-6.5,0-11.6-4.9-11.6-11.2c0-6.7,5.1-11.5,11.6-11.5C76,28.4,81,33.3,81,39.7 M147.9,39.8
		c0-6.1-2.9-10.3-7.9-10.3c-5.4,0-7.9,5.1-7.9,10.3c0,6,2.9,10.3,7.9,10.3C145.3,50,147.9,45,147.9,39.8 M151.5,39.7
		c0,6.7-5.1,11.5-11.6,11.5c-6.5,0-11.6-4.9-11.6-11.2c0-6.7,5.1-11.5,11.6-11.5C146.5,28.4,151.5,33.3,151.5,39.7 M165.5,43.4
		c-1.3-1.8-1.8-2.5-3.4-2.5h-1.7v7.5c0,0.6,0.2,0.9,0.9,1l2.5,0.5v0.8H154V50l2.3-0.6c0.7-0.2,0.9-0.4,0.9-1V31.2
		c0-0.6-0.2-0.9-0.9-1l-2.3-0.6v-0.8h9.6c2,0,3.4,0.2,4.6,0.6c2.4,0.9,3.7,3.2,3.7,5.3c0,2.7-2,5-5.4,5.7v0.1c0.7,0.3,1,0.7,3.4,3.9
		l3,4c0.4,0.6,1,1,1.7,1.1l2.2,0.5v0.8h-5.3c-0.6,0-0.9-0.2-1.5-0.9L165.5,43.4L165.5,43.4z M160.4,39.9h2.8c4.2,0,5.1-2.6,5.1-5.1
		c0-1.9-0.9-3.7-2.8-4.5c-1-0.4-2-0.4-3.4-0.4h-1.7V39.9L160.4,39.9z M122.4,36.3h0.9v7.3h-0.9l-0.6-2.2c-0.2-0.8-0.7-1.1-1.4-1.1
		h-5.3v8.1c0,0.6,0.2,0.9,0.9,1l2.5,0.5v0.8h-9.8V50l2.3-0.5c0.7-0.2,0.9-0.4,0.9-1V31.2c0-0.6-0.2-0.9-0.9-1l-2.3-0.6v-0.8h16.6
		v5.5h-0.9l-1-3.3c-0.2-0.9-0.6-1.2-1.3-1.2h-6.9v9.5h5.3c0.7,0,1.2-0.3,1.4-1.1C121.9,38.2,122.4,36.3,122.4,36.3z"/>
	<g transform="translate(178.2 28.625)">
		<defs>
			
				<filter id="Adobe_OpacityMaskFilter_00000021084952334405175200000008200546098915919289_" filterUnits="userSpaceOnUse" x="0.4" y="0.1" width="22.9" height="22">
				<feColorMatrix  type="matrix" values="1 0 0 0 0  0 1 0 0 0  0 0 1 0 0  0 0 0 1 0"/>
			</filter>
		</defs>
		
			<mask maskUnits="userSpaceOnUse" x="0.4" y="0.1" width="22.9" height="22" id="d_00000096059578565371515660000001790773303162939570_">
			<g style="filter:url(#Adobe_OpacityMaskFilter_00000021084952334405175200000008200546098915919289_);">
				<path id="c_00000026147546805344880560000005155464874560859049_" class="st0" d="M0.4,0.1h22.9v22H0.4V0.1z"/>
			</g>
		</mask>
		<path class="st5" d="M6.8,1.2v18.9c0,0.8,0.2,1,1,1h2.7c2.6,0,4.5-0.4,5.8-1.4c2.3-1.6,3.3-4.6,3.3-8.4c0-3.7-1-7.4-4.1-9.2
			c-1.3-0.7-2.9-1-5.5-1L6.8,1.2L6.8,1.2z M0.4,22.1v-0.8l2.3-0.5c0.7-0.2,0.9-0.4,0.9-1V2.5c0-0.6-0.2-0.9-0.9-1L0.4,0.9V0.1h10.3
			c2.8,0,4.8,0.4,6.5,1.1c4.2,1.9,6.1,6,6.1,10c0,3.9-1.5,7.6-5.2,9.5c-1.7,0.9-4.1,1.3-7.2,1.3L0.4,22.1L0.4,22.1z"/>
	</g>
	<path class="st0" d="M89.6,50v0.8h-7.8V50l2-0.5c0.7-0.2,1.2-0.4,1.7-1l6.7-8.4l-6.7-8.9c-0.4-0.6-1-0.9-1.7-1.1L82,29.6v-0.8h9.7
		v0.8L89.6,30c-0.7,0.1-0.6,0.4-0.2,0.9l5,7.1h0.1l5.1-7.1c0.4-0.5,0.5-0.7-0.2-0.9l-2-0.5v-0.8h7.8v0.8l-2,0.5
		c-0.7,0.2-1.2,0.4-1.7,1l-6.4,8l7.1,9.3c0.4,0.6,1,0.9,1.7,1.1l1.8,0.5v0.8h-9.7V50l2.1-0.4c0.7-0.1,0.6-0.4,0.2-0.9L93,41.1h-0.1
		l-5.4,7.5c-0.4,0.5-0.5,0.7,0.2,0.9C87.6,49.5,89.6,50,89.6,50z"/>
	<path class="st0" d="M66.4,18.4c-0.6,0.6-1.5,1-2.8,1c-1.1,0-2.1-0.3-2.8-1c-1-0.9-0.9-2.2-0.9-3.5V8.8h1.2v6.6
		c0,0.8,0,1.6,0.6,2.3c0.4,0.4,1.1,0.7,1.9,0.7c0.8,0,1.4-0.3,1.8-0.7c0.7-0.7,0.7-1.5,0.7-3.4V8.8h1.2V14
		C67.4,16,67.5,17.4,66.4,18.4 M77.5,19.2l-5-8.5l0,8.5h-1.1V8.8h1.3l5,8.6l0-8.6h1.1v10.4H77.5z M83.2,19.2h1.3V8.8h-1.3V19.2z
		 M92.2,19.2h-1.4L87.2,8.8h1.3l3,9.2l3.1-9.2h1.2L92.2,19.2z M98.7,19.2V8.8h5.7v1h-4.4v3.4h4.2v1h-4.2v3.9h4.6v1.1H98.7z
		 M113.6,19.2l-1.2-2.7c-0.7-1.7-1.1-1.8-2.6-1.8h-0.7v4.5h-1.2V8.8h2.2c1.4,0,2.4,0,3.3,0.8c0.5,0.5,0.8,1.2,0.8,2.1
		c0,0.7-0.2,1.3-0.6,1.8c-0.4,0.4-1,0.7-1.7,0.8c0.4,0,0.7,0.2,0.9,0.4c0.3,0.3,0.5,0.7,0.8,1.4l1.4,3.1H113.6z M112.4,10.4
		c-0.6-0.6-1.4-0.6-2.2-0.6h-1.2v3.9h0.4c1.1,0,2.2,0.1,2.9-0.7c0.4-0.4,0.5-0.9,0.5-1.4C112.9,11.1,112.7,10.6,112.4,10.4z
		 M127.1,19.2h1.3V8.8h-1.3L127.1,19.2z M135.5,9.8v9.4h-1.3V9.8h-3.1v-1h7.4v1H135.5z M144.6,15.1v4.1h-1.2v-4.1L140,8.8h1.4
		l2.6,4.9l2.5-4.9l1.4,0L144.6,15.1z M159.6,19.4c-2.7,0-4.7-2.2-4.7-5.4c0-3.2,2-5.5,4.8-5.5c2.7,0,4.7,2.2,4.7,5.4
		C164.3,17.2,162.4,19.4,159.6,19.4 M159.6,9.7c-2,0-3.4,1.7-3.4,4.3c0,2.6,1.5,4.4,3.4,4.4c2.2,0,3.4-1.9,3.4-4.4
		C163,11.4,161.6,9.7,159.6,9.7 M169,9.8v3.4h4v1h-4v4.9h-1.2V8.8h5.5v1H169z M117.4,11.3c0-1.6,1.3-2.7,3.2-2.7
		c1.9,0,2.8,1,2.9,1.1l-0.6,0.7c-0.2-0.2-1.1-0.8-2.2-0.8c-1.3,0-2.1,0.7-2.1,1.6c0,0.5,0.2,0.8,0.5,1.1c0.4,0.3,0.9,0.6,1.4,0.8
		c0.7,0.3,1.7,0.7,2.3,1.3c0.4,0.5,0.8,1.1,0.8,1.9c0,1.7-1.2,3.1-3.4,3.1c-1.8,0-3-1-3.1-1.1l0.6-0.8c0.3,0.2,1.5,0.9,2.5,0.9
		c1.6,0,2.2-0.9,2.2-1.9c0-0.5-0.2-0.9-0.5-1.2c-0.5-0.5-1.2-0.8-1.9-1.1c-0.7-0.3-1.4-0.7-1.9-1.2
		C117.7,12.7,117.4,12.2,117.4,11.3"/>
</g>
</svg>
