<?xml version="1.0" encoding="utf-8"?>
<!-- Generator: Adobe Illustrator 28.3.0, SVG Export Plug-In . SVG Version: 6.00 Build 0)  -->
<svg version="1.1"
	 id="svg244" xmlns:inkscape="http://www.inkscape.org/namespaces/inkscape" xmlns:sodipodi="http://sodipodi.sourceforge.net/DTD/sodipodi-0.dtd" xmlns:svg="http://www.w3.org/2000/svg"
	 xmlns="http://www.w3.org/2000/svg" xmlns:xlink="http://www.w3.org/1999/xlink" x="0px" y="0px" viewBox="0 0 186 48"
	 style="enable-background:new 0 0 186 48;" xml:space="preserve">
<style type="text/css">
	.st0{fill-rule:evenodd;clip-rule:evenodd;fill:#FFFFFF;}
</style>
<sodipodi:namedview  bordercolor="#666666" borderopacity="1.0" id="namedview246" inkscape:current-layer="svg244" inkscape:cx="70.243277" inkscape:cy="70.020988" inkscape:pagecheckerboard="0" inkscape:pageopacity="0.0" inkscape:pageshadow="2" inkscape:window-height="847" inkscape:window-maximized="0" inkscape:window-width="1296" inkscape:window-x="0" inkscape:window-y="25" inkscape:zoom="2.2493256" pagecolor="#ffffff" showgrid="false">
	</sodipodi:namedview>
<g id="g242" transform="translate(0,-12)">
	<path id="path240" class="st0" d="M54.2,12c5.5,0,10.7,3.1,14.1,7.2C72.1,23.9,74,30,74,36c0,5.8-1.8,11.6-5.3,16.2
		C65.2,56.7,59.8,60,54,60c-5.5,0-10.8-3-14.2-7.2C35.9,48.1,34,42,34,36c0-5.8,1.7-11.6,5.3-16.2C42.9,15.2,48.2,12,54.2,12z
		 M54,12.7c-9.2,0-11.6,16.6-11.6,23.3c0,6.7,2.4,23.3,11.6,23.3c9.2,0,11.6-16.7,11.6-23.3C65.6,29.3,63.2,12.7,54,12.7z M0,13
		h16.5v0.5h-4.1l12.3,33.7l10.4-33.7h-4.1V13H40v0.5h-3.9L21.4,60L4.3,13.5H0V13 M110.3,12.3v16.1h-0.4c-0.7-3.2-1.7-6.3-3.4-9.1
		c-2-3.3-5.3-6.9-9.6-6.9c-9.8,0-10.7,17.3-10.7,23.9c0,5.9,0.5,12,2.6,17.5c1.5,3.9,3.7,5.8,7.8,5.8c3.2,0,6.7-1.6,8.4-4.4
		c0.4-0.7,0.5-1.5,0.5-2.4V40.4h-4.3v-0.5H117v0.5h-3.7V59H113c-0.9-1.5-2.4-2.5-4.2-2.5c-1.3,0-2.7,0.5-3.8,1.1l-1.1,0.6
		c-2.4,1-4.7,1.8-7.3,1.8C84.5,60,78,47.2,78,36.6c0-7.7,3-16,9.3-20.9c2.8-2.2,6.3-3.8,10-3.8c1.4,0,2.8,0.4,4.2,1l1,0.4
		c1.1,0.4,2.3,0.8,3.5,0.8c1.5,0,2.8-1,4-1.8H110.3 M115,13h16.4v0.5h-4.4v35.3c0,5.5,5.8,8.9,10.8,8.9c5.4,0,10-3.7,10-9.2V13.5
		h-5.2V13h42.4v16.4h-0.3c-0.5-4.3-1.3-8.8-4.3-12.1c-3-3.4-7.2-3.7-11.5-3.7h-4.6v21c0.9,0.1,1.9,0.2,2.9,0.2
		c5.8,0,7.3-3.9,7.5-8.8h0.4v18.5h-0.4c-0.7-4.4-2.7-9.1-7.9-9.1c-0.8,0-1.6,0-2.5,0.1v22.5h6.9c3.6,0,7.1-1.5,9.6-4
		c2.2-2.1,3.7-4.8,4.2-7.8c0.3-1.6,0.4-3.3,0.5-5h0.4v17.2h-33.2v-0.5h3.9V13.5h-8.2v35.1c0,7.3-7,10.5-13.5,10.5
		c-7.4,0-15.5-3.5-15.5-11.9V13.5H115V13"/>
</g>
</svg>
