<svg width="260" height="60" viewBox="0 0 260 60" fill="none" xmlns="http://www.w3.org/2000/svg">
<path d="M40.3669 21.4019V4.21313H23.1794V21.4019H5.98313V38.5969H23.1794V55.7869H40.3669V38.5969H57.5619V21.4019H40.3669Z" fill="white"/>
<path d="M74.737 24.3347H78.272C79.6208 24.3347 80.8745 24.6772 80.8745 26.3134C80.8745 27.7634 79.8833 28.366 78.562 28.366H74.737V24.3347ZM70.9533 38.5959H79.2858C82.3895 38.5959 85.357 37.0972 85.357 33.6085C85.357 31.4685 84.2958 29.8509 82.197 29.2522C83.6933 28.5272 84.5345 27.3459 84.5345 25.6622C84.5345 22.4584 82.317 21.3997 79.047 21.3997H70.9533V38.5959ZM74.737 30.931H78.8495C80.467 30.931 81.5758 31.6322 81.5758 33.3872C81.5758 35.1697 80.2758 35.6572 78.7758 35.6572H74.737V30.931Z" fill="white"/>
<path d="M86.9465 26.1411H90.199V28.4523H90.2465C90.869 26.8923 92.559 25.8086 94.2165 25.8086C94.459 25.8086 94.7503 25.8586 94.9715 25.9324V29.1049C94.6528 29.0411 94.144 28.9911 93.7428 28.9911C91.2378 28.9911 90.3628 30.7961 90.3628 32.9824V38.5948H86.9465V26.1411Z" fill="white"/>
<path d="M99.956 24.2179H96.531V21.4004H99.956V24.2179ZM96.531 26.1417H99.956V38.5954H96.531V26.1417Z" fill="white"/>
<path d="M107.224 26.1412H109.727V28.4362H107.224V34.5925C107.224 35.7462 107.504 36.04 108.659 36.04C109.026 36.04 109.371 36.0137 109.727 35.9413V38.6201C109.149 38.7138 108.406 38.7375 107.725 38.7375C105.635 38.7375 103.796 38.2525 103.796 35.7713V28.4363H101.725V26.1413H103.796V22.4138H107.224V26.1412Z" fill="white"/>
<path d="M115.604 24.2179H112.177V21.4004H115.604V24.2179ZM112.177 26.1417H115.604V38.5954H112.177V26.1417Z" fill="white"/>
<path d="M120.352 34.5441C120.377 36.0404 121.628 36.6429 122.978 36.6429C123.965 36.6429 125.22 36.2591 125.22 35.0579C125.22 34.0154 123.793 33.6591 121.335 33.1304C119.358 32.6904 117.38 32.0016 117.38 29.8016C117.38 26.6278 120.131 25.8091 122.81 25.8091C125.51 25.8091 128.018 26.7203 128.287 29.7778H125.046C124.95 28.4528 123.94 28.0953 122.712 28.0953C121.928 28.0953 120.795 28.2428 120.795 29.2516C120.795 30.4778 122.735 30.6504 124.68 31.1041C126.665 31.5591 128.631 32.2828 128.631 34.5928C128.631 37.8716 125.78 38.9291 122.955 38.9291C120.056 38.9291 117.231 37.8479 117.085 34.5441H120.352Z" fill="white"/>
<path d="M130.035 21.3999H133.452V27.8749H133.526C134.387 26.4849 135.886 25.8087 137.164 25.8087C140.797 25.8087 141.706 27.8512 141.706 30.9312V38.595H138.289V31.5587C138.289 29.5187 137.675 28.5012 136.106 28.5012C134.239 28.5012 133.452 29.5412 133.452 32.0699V38.595H130.035L130.035 21.3999Z" fill="white"/>
<path d="M145.455 38.5954H149.239V31.8779H153.022C154.914 31.8779 155.615 32.6704 155.874 34.4779C156.069 35.8429 156.02 37.5079 156.486 38.5954H160.269C159.582 37.6266 159.609 35.6091 159.534 34.5204C159.416 32.7854 158.894 30.9816 157.031 30.5016V30.4517C158.945 29.6792 159.757 28.1691 159.757 26.1416C159.757 23.5466 157.812 21.4004 154.719 21.4004H145.455V38.5954ZM149.239 24.3341H153.367C155.061 24.3341 155.971 25.0604 155.971 26.7204C155.971 28.4529 155.061 29.1766 153.367 29.1766H149.239V24.3341Z" fill="white"/>
<path d="M173.198 33.2031C173.442 29.3719 171.392 25.8081 167.157 25.8081C163.37 25.8081 160.795 28.6493 160.795 32.3818C160.795 36.2356 163.224 38.9294 167.157 38.9294C169.972 38.9294 172.019 37.6756 172.978 34.7406H169.972C169.755 35.5119 168.647 36.3494 167.279 36.3494C165.37 36.3494 164.312 35.3669 164.214 33.2031H173.198ZM164.214 31.0306C164.264 30.0718 164.893 28.3893 167.057 28.3893C168.719 28.3893 169.463 29.2993 169.78 31.0306H164.214Z" fill="white"/>
<path d="M183.864 38.5954H187.112V21.4004H183.694V27.6653H183.647H183.672C182.879 26.4366 181.43 25.8091 179.962 25.8091C176.299 25.8091 174.449 28.9179 174.449 32.2579C174.449 35.7004 176.277 38.9291 180.035 38.9291C181.627 38.9291 183.024 38.3504 183.814 36.9991H183.864V38.5954ZM183.814 32.3329C183.814 34.3816 183.143 36.3491 180.879 36.3491C178.758 36.3491 177.864 34.3091 177.864 32.3578C177.864 30.3053 178.635 28.3891 180.879 28.3891C183.095 28.3891 183.814 30.3054 183.814 32.3329Z" fill="white"/>
<path d="M201.917 27.1862C201.677 25.4662 200.036 24.1736 198.166 24.1736C194.77 24.1736 193.49 27.0623 193.49 30.0711C193.49 32.9336 194.77 35.8199 198.166 35.8199C200.474 35.8199 201.774 34.2361 202.064 31.9749H205.726C205.338 36.2586 202.374 39.0024 198.166 39.0024C192.84 39.0024 189.707 35.0349 189.707 30.0711C189.707 24.9611 192.84 20.9937 198.166 20.9937C201.944 20.9937 205.122 23.2074 205.582 27.1862H201.917Z" fill="white"/>
<path d="M207.34 26.1411H210.593V28.4523H210.64C211.261 26.8923 212.948 25.8086 214.611 25.8086C214.852 25.8086 215.143 25.8586 215.361 25.9324V29.1049C215.045 29.0411 214.537 28.9911 214.132 28.9911C211.626 28.9911 210.758 30.7961 210.758 32.9824V38.5948H207.34L207.34 26.1411Z" fill="white"/>
<path d="M215.771 32.3821C215.771 36.3271 218.301 38.9296 222.203 38.9296C226.126 38.9296 228.656 36.3271 228.656 32.3821C228.656 28.4146 226.126 25.8083 222.203 25.8083C218.301 25.8083 215.771 28.4146 215.771 32.3821ZM219.191 32.3821C219.191 30.3784 219.891 28.3896 222.203 28.3896C224.533 28.3896 225.232 30.3784 225.232 32.3821C225.232 34.3584 224.533 36.3484 222.203 36.3484C219.891 36.3484 219.191 34.3584 219.191 32.3821Z" fill="white"/>
<path d="M233.043 34.5441C233.068 36.0404 234.319 36.6429 235.665 36.6429C236.651 36.6429 237.905 36.2591 237.905 35.0579C237.905 34.0154 236.482 33.6591 234.03 33.1304C232.057 32.6904 230.079 32.0016 230.079 29.8016C230.079 26.6278 232.824 25.8091 235.493 25.8091C238.217 25.8091 240.723 26.7203 240.986 29.7778H237.734C237.638 28.4528 236.624 28.0953 235.396 28.0953C234.633 28.0953 233.502 28.2428 233.502 29.2516C233.502 30.4778 235.42 30.6504 237.374 31.1041C239.373 31.5591 241.325 32.2828 241.325 34.5928C241.325 37.8716 238.48 38.9291 235.64 38.9291C232.751 38.9291 229.935 37.8479 229.79 34.5441H233.043Z" fill="white"/>
<path d="M245.733 34.5441C245.758 36.0404 247.011 36.6429 248.353 36.6429C249.344 36.6429 250.594 36.2591 250.594 35.0579C250.594 34.0154 249.173 33.6591 246.722 33.1304C244.747 32.6904 242.771 32.0016 242.771 29.8016C242.771 26.6278 245.518 25.8091 248.184 25.8091C250.909 25.8091 253.412 26.7203 253.681 29.7778H250.428C250.331 28.4528 249.319 28.0953 248.092 28.0953C247.322 28.0953 246.193 28.2428 246.193 29.2516C246.193 30.4778 248.113 30.6504 250.067 31.1041C252.066 31.5591 254.017 32.2828 254.017 34.5928C254.017 37.8716 251.173 38.9291 248.328 38.9291C245.447 38.9291 242.626 37.8479 242.481 34.5441H245.733Z" fill="white"/>
</svg>
