<?xml version="1.0" encoding="utf-8"?>
<!-- Generator: Adobe Illustrator 28.3.0, SVG Export Plug-In . SVG Version: 6.00 Build 0)  -->
<svg version="1.1"
	 id="svg25" xmlns:inkscape="http://www.inkscape.org/namespaces/inkscape" xmlns:sodipodi="http://sodipodi.sourceforge.net/DTD/sodipodi-0.dtd" xmlns:svg="http://www.w3.org/2000/svg"
	 xmlns="http://www.w3.org/2000/svg" xmlns:xlink="http://www.w3.org/1999/xlink" x="0px" y="0px" viewBox="0 0 480.2 229.5"
	 style="enable-background:new 0 0 480.2 229.5;" xml:space="preserve">
<style type="text/css">
	.st0{fill:#FFFFFF;}
</style>
<sodipodi:namedview  bordercolor="#666666" borderopacity="1.0" id="namedview27" inkscape:current-layer="svg25" inkscape:cx="324.92201" inkscape:cy="158.56639" inkscape:document-units="pt" inkscape:pagecheckerboard="0" inkscape:pageopacity="0.0" inkscape:pageshadow="2" inkscape:window-height="847" inkscape:window-maximized="0" inkscape:window-width="1296" inkscape:window-x="0" inkscape:window-y="25" inkscape:zoom="0.89867719" pagecolor="#ffffff" showgrid="false">
	</sodipodi:namedview>
<g id="surface1" transform="translate(-17.199219,-141.92187)">
	<path id="path2" class="st0" d="M120.8,226.7c4.3-0.5,16.7-6.6,23-9.8c0.3-0.2,0.6,0.3,0.3,0.6c-4.6,3.4-13.1,9.9-19,15.5
		c-2.2,2.2-2.2,5.8,0.2,7.8c4.4,3.8,10.9,8.5,14.6,11.1c0.3,0.2,0.1,0.7-0.3,0.6c-4.2-1.9-11.8-5.1-17.8-7.3c-3-1-6.3,0.7-7,3.9
		l-5.7,25.9c-0.1,0.4-0.6,0.3-0.6-0.1c-0.1-4.7-0.3-14.5-1-21.6c-0.3-3.8-4.5-6-7.8-4.2c-7.8,4.1-16.2,9.8-21.3,13.4
		c-0.3,0.2-0.7-0.2-0.4-0.5c4.3-4,10.1-9.7,14.1-14.5c0.9-1.1,2.9-2.8,3.4-4.1c-3.2-1.8-5.3-4.1-5.8-4.6c-1.2-1.4-2.5-2.6-3.7-3.8
		c-55.6-7.4-68.7,31.3-68.7,31.3c27.8,11,43.1,7,44.5,6.7c0,0-12.9,20.2-10.5,55.5c48.6-8.2,57.8-41.9,57.8-41.9
		c11.2,25.8,46.2,22.7,46.2,22.7s9.6-30.6-4-50.2c35.7,6.2,58-35.4,58-35.4s-21.4-16.2-49.6-14.7c4.2-5.9,19.4-31,5.7-67.4
		c-57.3,17-55.5,58.9-54.6,66.6c-9.6-16.2-7.9-32.6-18.9-40.6c-7.9-6.2-21.8-3.2-33,6.8c-11.4,10.2-15.8,24.2-10.1,32.6
		c0.1,0.1,0.2,0.2,0.3,0.3l0.1,0.1c0.2,0.3,0.6,0.6,1,0.9c1.1,0.9,2.7,1.6,4.3,2.1c2.2,0.6,4.6,1,7,0.9c4.8,0,9.7-1.1,14.2-3.2
		c4.5-2.1,8.5-5.1,11.9-8.7c3.4-3.7,6.1-8.1,8.2-12.7c0.2-0.4,0.6-0.6,1-0.6c0.1,0,0.2,0,0.2,0.1c0.5,0.2,0.7,0.7,0.6,1.2
		c-1.6,5-4,9.9-7.4,14.2c-3.4,4.2-7.7,7.8-12.6,10.4s-10.3,4.2-15.9,4.5h-1.3c10.4,5.4,21.1,6.4,33,19.6c3.4,3.8,13.3,11.1,23,2.7
		C122.2,233.8,120.8,226.7,120.8,226.7"/>
	<path id="path4" class="st0" d="M276.5,221.1c-0.4,0.4-1,0.9-1.8,1.4c-0.9,0.6-2,1.1-3.4,1.7c-1.4,0.6-3.2,1-5.2,1.4
		s-4.3,0.6-7,0.6c-5,0-9.4-0.8-13.1-2.4c-3.7-1.6-6.7-3.9-9.1-6.8c-2.4-2.9-4.2-6.3-5.3-10.3s-1.7-8.3-1.7-13
		c0-4.7,0.6-9.1,1.8-13.2c1.2-4,3-7.5,5.5-10.5c2.5-3,5.5-5.2,9.1-6.9c3.7-1.7,7.9-2.5,12.9-2.5c2.4,0,4.6,0.2,6.6,0.6
		c2,0.4,3.7,1,5.1,1.5c1.4,0.6,2.7,1.2,3.7,1.8c1,0.6,1.7,1.2,2.2,1.7c0.6,0.5,1,1.1,1.4,1.8c0.4,0.7,0.6,1.4,0.6,2.2
		c0,1.3-0.5,2.5-1.4,3.8s-2,2.4-3.1,3.4c-0.7-0.7-1.6-1.5-2.6-2.3c-1-0.8-2-1.4-3.1-2.1c-1.1-0.6-2.5-1.1-3.9-1.5
		c-1.4-0.4-3.1-0.6-5-0.6c-3.2,0-5.8,0.6-8,1.9c-2.2,1.3-3.9,3-5.2,5s-2.2,4.4-2.8,7s-0.9,5.4-0.9,8.1c0,3,0.3,5.8,0.9,8.4
		c0.6,2.7,1.5,5,2.9,7.1c1.4,2.1,3.2,3.7,5.4,5c2.2,1.3,5,1.8,8.3,1.8c1.8,0,3.4-0.2,4.8-0.6c1.4-0.4,2.8-1,3.9-1.6
		c1.1-0.6,2.1-1.3,3-2c0.9-0.7,1.5-1.3,2.1-1.8c0.4,0.4,0.8,1,1.3,1.6s1,1.3,1.4,2c0.4,0.7,0.8,1.4,1.1,2.1c0.3,0.7,0.5,1.3,0.5,1.8
		c0,0.8-0.2,1.5-0.5,2.1C277.6,219.8,277.1,220.4,276.5,221.1 M342.3,224.6h-12.9v-44.3l1.1-0.2c0.4-0.1,0.8-0.1,1.3-0.2
		c0.5,0,1.1-0.1,1.8-0.1c2,0,3.8,0.3,5.2,1c1.4,0.7,2.4,2,2.8,3.8c1-1.4,2.7-2.8,4.9-4c2.2-1.2,5.1-1.8,8.9-1.8
		c4.4,0,7.7,0.9,9.8,2.6c2.2,1.8,3.5,4.1,4.2,7c0.3,1.4,0.5,3,0.6,4.7c0.1,1.7,0.2,3.4,0.2,5v26.4h-12.7v-25.8
		c0-1.4-0.1-2.6-0.2-3.8c-0.1-1.2-0.3-2.2-0.7-3c-0.4-0.9-1-1.5-2-2c-0.9-0.5-2.2-0.7-3.8-0.7c-2.3,0-4.3,0.5-5.9,1.4
		c-1.7,1-2.5,2.2-2.5,3.6L342.3,224.6L342.3,224.6z M398.7,216.6c1.4,0,2.6-0.2,3.8-0.5c1.1-0.3,2.2-0.7,3-1.2s1.6-1,2.2-1.5
		c0.6-0.6,1.1-1,1.4-1.4c0.4,0.4,0.7,0.9,1.1,1.4s0.7,1.2,1,1.8s0.6,1.3,0.7,1.9c0.2,0.6,0.2,1.2,0.2,1.7c0,0.6-0.2,1.2-0.4,1.8
		c-0.2,0.6-0.8,1.2-1.6,1.8c-1.2,0.9-2.9,1.7-5,2.4c-2.2,0.7-5,1.1-8.3,1.1c-2.2,0-4.7-0.3-7.3-1c-2.6-0.6-5-1.8-7.3-3.5
		c-2.2-1.8-4.2-4.2-5.6-7.3c-1.5-3.1-2.2-7.1-2.2-12.2c0-4.7,0.8-8.6,2.3-11.6s3.5-5.4,5.8-7.1c2.3-1.8,4.8-3,7.4-3.6
		c2.6-0.6,5-1,7-1c2.6,0,5,0.3,7.2,0.9s3.9,1.3,5.4,2.2c1.2,0.7,2,1.4,2.5,2.2c0.5,0.7,0.7,1.5,0.7,2.4s-0.2,1.9-0.9,3.2
		c-0.6,1.3-1.3,2.5-2.2,3.5c-1-1-2.5-2.2-4.4-3.2c-1.9-1-4.1-1.6-6.5-1.6c-4.2,0-7,1.3-8.8,3.8c-1.8,2.6-2.6,5.8-2.6,9.7
		c0,2,0.2,3.8,0.6,5.6c0.4,1.8,1,3.3,1.9,4.6c0.9,1.3,2.1,2.3,3.5,3.1C394.8,216.2,396.6,216.6,398.7,216.6 M439.4,216.7
		c1.6,0,3-0.2,4.2-0.5c1.2-0.3,2.2-0.8,3.2-1.3c1-0.5,1.8-1,2.4-1.6c0.7-0.6,1.3-1.1,1.8-1.7c0.7,1,1.5,2.2,2.3,3.6
		c0.8,1.4,1.2,2.6,1.2,3.6c0,1.4-0.8,2.6-2.3,3.8c-1.3,1-3.2,1.8-5.6,2.6c-2.4,0.7-5.2,1-8.5,1c-3,0-5.8-0.4-8.6-1.1
		c-2.9-0.7-5.4-2.1-7.6-3.9s-4-4.4-5.4-7.5s-2.1-7.1-2.1-11.9c0-3.9,0.6-7.3,1.8-10.2c1.2-2.9,2.9-5.2,4.9-7s4.3-3.3,6.9-4.1
		c2.6-0.9,5.2-1.3,7.8-1.3c3.5,0,6.5,0.6,8.9,1.7c2.5,1.1,4.4,2.6,5.9,4.4s2.6,3.9,3.4,6.3c0.7,2.4,1,4.9,1,7.5v1.3
		c0,0.5,0,1-0.1,1.6c0,0.6-0.1,1.1-0.1,1.7s-0.1,1-0.2,1.3h-27.5c0.2,3.4,1.3,6.3,3.2,8.6C432.3,215.5,435.3,216.7,439.4,216.7
		 M443.5,197.7c0-3-0.6-5.4-1.8-7.3c-1.1-1.8-3.2-2.8-6.2-2.8c-2.6,0-4.7,0.9-6.2,2.6c-1.5,1.8-2.2,4.2-2.2,7.4H443.5z M471.5,184.7
		c0.4-0.6,0.9-1.2,1.5-1.8c0.6-0.7,1.4-1.3,2.3-1.8c0.9-0.6,1.8-1,3-1.4c1.1-0.4,2.2-0.6,3.5-0.6c0.7,0,1.5,0.1,2.4,0.2
		c0.9,0.2,1.6,0.3,2.3,0.7c0.7,0.3,1.3,0.8,1.8,1.4c0.4,0.6,0.6,1.4,0.6,2.2c0,1.3-0.3,2.9-1,4.7c-0.7,1.8-1.4,3.4-2.1,4.6
		c-1-0.9-2.2-1.5-3.2-2c-1-0.5-2.3-0.7-3.8-0.7c-1.9,0-3.5,0.6-4.9,1.7c-1.3,1.1-2,2.5-2,4v28.9h-12.7v-44.3l1.1-0.2
		c0.4-0.1,0.8-0.1,1.3-0.2c0.5,0,1.1-0.1,1.8-0.1c2,0,3.8,0.4,5.2,1.2C470.2,181.9,471.2,183.1,471.5,184.7 M276.5,299.4
		c-0.4,0.4-1,0.9-1.8,1.4c-0.9,0.6-2,1.1-3.4,1.7c-1.4,0.6-3.2,1-5.2,1.4s-4.3,0.6-7,0.6c-5,0-9.4-0.8-13.1-2.4
		c-3.7-1.6-6.7-3.9-9.1-6.8c-2.4-2.9-4.2-6.3-5.3-10.3s-1.7-8.3-1.7-13c0-4.7,0.6-9.1,1.8-13.2c1.2-4,3-7.5,5.5-10.5
		c2.5-3,5.5-5.2,9.1-6.9c3.7-1.7,7.9-2.5,12.9-2.5c2.4,0,4.6,0.2,6.6,0.6s3.7,1,5.1,1.5c1.4,0.6,2.7,1.2,3.7,1.8s1.7,1.2,2.2,1.7
		c0.6,0.5,1,1.1,1.4,1.8c0.4,0.7,0.6,1.4,0.6,2.2c0,1.3-0.5,2.5-1.4,3.8s-2,2.4-3.1,3.4c-0.7-0.7-1.6-1.5-2.6-2.3
		c-1-0.8-2-1.4-3.1-2.1c-1.1-0.6-2.5-1.1-3.9-1.5c-1.4-0.4-3.1-0.6-5-0.6c-3.2,0-5.8,0.6-8,1.9c-2.2,1.3-3.9,3-5.2,5
		c-1.3,2.1-2.2,4.4-2.8,7s-0.9,5.4-0.9,8.1c0,3,0.3,5.8,0.9,8.4c0.6,2.7,1.5,5,2.9,7.1c1.4,2.1,3.2,3.7,5.4,5c2.2,1.3,5,1.8,8.3,1.8
		c1.8,0,3.4-0.2,4.8-0.6c1.4-0.4,2.8-1,3.9-1.6c1.1-0.6,2.1-1.3,3-2c0.9-0.7,1.5-1.3,2.1-1.8c0.4,0.4,0.8,1,1.3,1.6s1,1.3,1.4,2
		c0.4,0.7,0.8,1.4,1.1,2.1c0.3,0.7,0.5,1.3,0.5,1.8c0,0.8-0.2,1.5-0.5,2.1C277.6,298.2,277.1,298.8,276.5,299.4 M324.7,280.6
		c0,3.1-0.4,6.2-1.2,9c-0.8,2.9-2.1,5.4-3.8,7.6c-1.8,2.2-4.1,3.9-6.9,5.3c-2.8,1.3-6.2,2-10.2,2s-7.4-0.6-10.2-1.9
		c-2.8-1.3-5-3-6.8-5.1c-1.8-2.2-3-4.6-3.8-7.5c-0.8-2.8-1.2-5.8-1.2-9c0-3.2,0.5-6.2,1.4-9c1-2.9,2.3-5.4,4.2-7.5s4.2-3.8,7-5.1
		c2.8-1.3,6.1-1.8,9.8-1.8c3.9,0,7.3,0.6,10.1,1.8c2.8,1.3,5,3,6.7,5c1.8,2.2,3,4.6,3.8,7.4C324.3,274.6,324.7,277.5,324.7,280.6
		 M311.8,280.7c0-1.7-0.1-3.4-0.4-5c-0.2-1.7-0.7-3.1-1.4-4.3c-0.7-1.3-1.6-2.2-2.8-3s-2.7-1.2-4.5-1.2c-1.8,0-3.4,0.4-4.6,1.2
		s-2.2,1.8-2.9,3.1c-0.7,1.3-1.2,2.7-1.5,4.3c-0.3,1.6-0.5,3.3-0.5,5s0.2,3.4,0.4,5c0.2,1.7,0.7,3.2,1.4,4.6
		c0.7,1.4,1.6,2.4,2.9,3.2c1.2,0.8,2.7,1.2,4.6,1.2s3.4-0.4,4.6-1.2s2.2-1.9,2.9-3.2c0.7-1.4,1.1-2.9,1.4-4.6
		C311.8,284.2,311.8,282.5,311.8,280.7 M370.1,303h-8.6c-1.5,0-2.6-0.4-3-1.3c-0.4-0.9-0.6-2.1-0.6-3.7c-1,1.4-2.7,2.8-4.9,4
		c-2.2,1.2-5.1,1.8-8.9,1.8c-4.4,0-7.8-0.9-9.8-2.6c-2.2-1.8-3.5-4.1-4.2-7c-0.3-1.4-0.5-3-0.6-4.7c-0.1-1.7-0.2-3.4-0.2-5v-25.9
		c0.1-0.1,0.6-0.2,1.5-0.2c0.9-0.1,1.8-0.2,2.8-0.2s2,0.1,3,0.2c1,0.2,1.9,0.6,2.7,1c0.8,0.6,1.4,1.3,2,2.2c0.5,1,0.7,2.2,0.7,3.8
		V284c0,1.4,0.1,2.7,0.2,3.9c0.1,1.1,0.3,2.2,0.7,3c0.4,0.8,1,1.5,2,2c0.9,0.5,2.2,0.7,3.8,0.7c2.3,0,4.3-0.5,5.9-1.4
		c1.7-1,2.5-2.2,2.5-3.6v-29.9c0.1-0.1,0.6-0.2,1.5-0.2c0.9-0.1,1.8-0.2,2.8-0.2s2,0.1,3,0.3c1,0.2,1.9,0.6,2.7,1.2
		c0.8,0.6,1.4,1.4,2,2.4c0.5,1,0.7,2.3,0.7,3.9L370.1,303L370.1,303z M389.8,303H377v-44.3l1.1-0.2c0.4-0.1,0.8-0.1,1.3-0.2
		c0.5,0,1.1-0.1,1.8-0.1c2,0,3.8,0.3,5.2,1c1.4,0.7,2.4,2,2.8,3.8c1-1.4,2.7-2.8,4.9-4c2.2-1.2,5.1-1.8,8.9-1.8
		c4.4,0,7.7,0.9,9.8,2.6c2.2,1.8,3.5,4.1,4.2,7c0.3,1.4,0.5,3,0.6,4.7c0.1,1.7,0.2,3.4,0.2,5V303H405v-25.8c0-1.4-0.1-2.6-0.2-3.8
		c-0.1-1.2-0.3-2.2-0.7-3c-0.4-0.8-1-1.5-2-2c-0.9-0.5-2.2-0.7-3.8-0.7c-2.3,0-4.3,0.5-5.9,1.4c-1.7,1-2.5,2.2-2.5,3.6V303H389.8z
		 M446.3,295c1.4,0,2.6-0.2,3.8-0.5c1.1-0.3,2.2-0.7,3-1.2c0.9-0.5,1.6-1,2.2-1.5c0.6-0.6,1.1-1,1.4-1.4c0.4,0.4,0.7,0.9,1.1,1.4
		s0.7,1.2,1,1.8s0.6,1.3,0.7,1.9c0.2,0.6,0.2,1.2,0.2,1.7c0,0.6-0.2,1.2-0.4,1.8c-0.2,0.6-0.8,1.2-1.6,1.8c-1.2,0.9-2.9,1.7-5,2.4
		s-5,1.1-8.3,1.1c-2.2,0-4.7-0.3-7.3-1c-2.6-0.6-5-1.8-7.3-3.5c-2.2-1.8-4.2-4.2-5.6-7.3c-1.5-3.1-2.2-7.1-2.2-12.2
		c0-4.7,0.8-8.6,2.3-11.6c1.6-3,3.5-5.4,5.8-7.1c2.3-1.8,4.8-3,7.4-3.6c2.6-0.6,4.9-1,7-1c2.6,0,5,0.3,7.2,0.9s3.9,1.3,5.4,2.2
		c1.2,0.7,2,1.4,2.5,2.2c0.5,0.7,0.7,1.5,0.7,2.4c0,0.9-0.3,1.9-0.9,3.2c-0.6,1.3-1.3,2.5-2.2,3.5c-1-1-2.5-2.2-4.4-3.2
		c-1.9-1-4.1-1.6-6.5-1.6c-4.2,0-7,1.3-8.8,3.8c-1.8,2.6-2.6,5.8-2.6,9.7c0,2,0.2,3.8,0.6,5.6c0.4,1.8,1,3.3,1.9,4.6
		c0.9,1.3,2.1,2.3,3.5,3.1C442.4,294.6,444.2,295,446.3,295 M477.7,243.7c0,2-0.6,3.6-2,4.9c-1.4,1.3-3,1.8-4.8,1.8
		c-1.9,0-3.5-0.6-4.9-1.8c-1.3-1.3-2-2.9-2-4.9s0.6-3.6,2-4.9c1.3-1.3,3-1.9,4.9-1.9c1.8,0,3.5,0.6,4.8,1.9
		C477,240,477.7,241.7,477.7,243.7 M477.6,303.5c-0.2,0.2-0.8,0.2-1.7,0.2c-0.9,0.1-1.8,0.1-2.8,0.1c-2.4,0-4.4-0.5-5.9-1.5
		s-2.3-3.1-2.3-6.2v-37.5c0.1-0.1,0.6-0.2,1.5-0.2c0.9-0.1,1.8-0.2,2.8-0.2s2,0.1,3,0.3c1,0.2,1.9,0.6,2.7,1c0.8,0.6,1.4,1.3,2,2.2
		c0.5,1,0.7,2.2,0.7,3.8V303.5z M497.2,303.5c-0.3,0.2-0.9,0.2-1.8,0.2c-0.9,0.1-1.8,0.1-2.9,0.1c-1,0-2.1-0.1-3-0.3
		c-1-0.2-1.8-0.6-2.6-1.2c-0.7-0.6-1.4-1.4-1.8-2.4c-0.4-1-0.6-2.3-0.6-3.8v-59.2c0.2-0.1,0.6-0.2,1.5-0.2c0.9-0.1,1.8-0.2,2.8-0.2
		c1,0,2,0.1,3,0.2c1,0.2,1.9,0.6,2.7,1c0.8,0.6,1.4,1.3,2,2.2c0.5,1,0.7,2.2,0.7,3.8v59.8L497.2,303.5z M322.8,213.8v-33.4l-1.4-0.2
		c-0.4-0.1-1-0.1-1.4-0.2c-0.6,0-1-0.1-1.7-0.1c-1.8,0-3.4,0.4-4.8,1.1c-1.4,0.7-2.3,1.8-2.7,3.3c-0.2-0.4-0.6-0.9-1.1-1.4
		c-0.6-0.6-1.4-1.2-2.3-1.8c-1-0.6-2.2-1-3.4-1.5c-1.4-0.4-2.9-0.6-4.6-0.6c-2.2,0-4.5,0.4-6.7,1.2c-2.2,0.8-4.2,2.1-6.1,4
		c-1.8,1.8-3.3,4.3-4.4,7.4c-1.1,3.1-1.7,7-1.7,11.6c0,4.2,0.5,7.7,1.4,10.6s2.3,5.2,4,7c1.7,1.8,3.6,3,5.8,3.8
		c2.2,0.8,4.6,1.2,7,1.2c2.7,0,5-0.4,7-1.3c1.9-0.9,3.5-2,4.8-3.4c0.3,1.6,1.2,2.8,2.6,3.5c1.4,0.7,3.3,1.1,5.5,1.1
		c2.1,0,4-0.4,5.8-1.2c-0.5-1-0.9-2.5-1.3-4.3C323,218.5,322.8,216.3,322.8,213.8 M310.1,212.8c0,1.2-0.6,2.2-1.8,3
		c-1.2,0.8-2.9,1.2-4.9,1.2c-3.5,0-6.1-1.3-7.5-3.8c-1.4-2.6-2.2-6-2.2-10.3c0-4.5,0.8-8,2.3-10.4c1.5-2.5,4-3.7,7.2-3.7
		c1.6,0,3,0.3,4.2,1c1.2,0.6,2.1,1.2,2.6,1.8L310.1,212.8L310.1,212.8z"/>
	<path id="path6" class="st0" d="M244.7,333.4c0.3-0.2,0.7-0.2,1.3-0.4c0.6-0.1,1-0.2,1.5-0.2c1.7,0,2.7,0.8,3.3,2.3l13,35.4h-5.1
		l-3.8-10.1h-15.1l-3.7,10.1h-5L244.7,333.4z M253.5,356.5l-6.3-17.9l-6.3,17.9H253.5z"/>
	<path id="path8" class="st0" d="M266.6,343.9c0.3,0,0.6-0.1,1-0.1c2.5,0,3.8,1.3,3.8,3.8v13c0,1.7,0.1,2.9,0.3,3.7
		c0.2,0.8,0.6,1.4,1.2,1.8c0.5,0.4,1.1,0.6,1.7,0.8c0.6,0.2,1.4,0.2,2.4,0.2c1.2,0,2.4-0.2,3.4-0.6c1-0.4,1.8-1,2.5-1.6s1-1.2,1-1.8
		v-19.3c0.3,0,0.6-0.1,1-0.1c2.5,0,3.8,1.3,3.8,3.8v22.9h-4.8v-2.5c-1.9,2.2-4.7,3.3-8.4,3.3c-1.5,0-2.8-0.2-3.9-0.6
		c-1.1-0.4-2.1-1-2.8-1.7c-0.7-0.8-1.3-1.8-1.6-3s-0.6-3-0.6-5.4L266.6,343.9L266.6,343.9z"/>
	<path id="path10" class="st0" d="M309.8,350.4c-0.7-0.9-1.7-1.6-3-2.1c-1.2-0.6-2.5-0.8-3.8-0.8c-1.5,0-2.7,0.3-3.7,0.9
		c-0.9,0.6-1.4,1.4-1.4,2.5c0,0.6,0.2,1.1,0.5,1.6s0.9,0.9,1.6,1.2c0.7,0.3,1.9,0.7,3.4,1.1c2.2,0.5,3.8,1.1,5,1.8
		c1.2,0.7,2.1,1.6,2.7,2.6c0.6,1,0.9,2.3,0.9,3.8c0,2.5-1,4.6-2.9,6c-1.9,1.5-4.4,2.2-7.4,2.2c-2.5,0-4.6-0.3-6.2-1
		c-1.7-0.6-2.6-1.4-2.6-2.4c0-0.4,0.1-0.8,0.2-1.3c0.2-0.5,0.6-1.1,1.1-2.1c1,0.9,2.2,1.6,3.5,2.1s2.6,0.7,3.9,0.7c1.7,0,3-0.3,4-1
		c1-0.7,1.4-1.7,1.4-3c0-1.1-0.4-2.1-1.2-2.8c-0.8-0.7-2.3-1.3-4.6-1.8c-3-0.6-5-1.6-6.4-2.8c-1.3-1.3-1.9-2.9-1.9-5
		c0-2.3,0.9-4.1,2.7-5.4c1.8-1.4,4.1-2.1,6.9-2.1c1.4,0,2.6,0.2,3.8,0.4c1.2,0.2,2.2,0.6,3,1.1c1.3,0.7,1.9,1.4,1.9,2.2
		c0,0.8-0.3,1.8-1,3L309.8,350.4z"/>
	<path id="path12" class="st0" d="M319.3,336.2c0.3,0,0.6-0.1,1-0.1c2.5,0,3.8,1.3,3.8,3.8v4.3h8.4v4h-8.4v14.5c0,3,1.2,4.6,3.7,4.6
		c0.6,0,1.3-0.2,1.8-0.4c0.6-0.2,1.2-0.6,1.7-1c0.5-0.4,0.9-0.7,1-1c1.1,1.4,1.6,2.4,1.6,3.1c0,0.6-0.3,1-1,1.6
		c-0.7,0.6-1.6,1-2.6,1.3c-1,0.3-2.2,0.5-3.4,0.5c-3.8,0-6.1-1.4-7.1-4.2c-0.4-1-0.6-2.6-0.6-4.8v-14.2h-5.1v-4h5.1L319.3,336.2
		L319.3,336.2z"/>
	<path id="path14" class="st0" d="M337.5,344.1c0.4,0,0.7-0.1,1-0.1c1,0,1.8,0.2,2.5,0.7s1,1.2,1.1,2.1c0.6-1,1.5-1.8,2.6-2.3
		c1.1-0.6,2.2-0.9,3.4-0.9s2.2,0.2,3,0.6c0.7,0.4,1.1,1,1.1,1.8c0,0.5-0.2,1-0.4,1.8c-0.2,0.7-0.6,1.3-1,1.8c-0.6-0.5-1-0.8-1.7-1
		c-0.6-0.2-1.3-0.3-2.1-0.3c-1.3,0-2.4,0.4-3.4,1.1c-1,0.8-1.4,1.6-1.4,2.6v18.6h-4.8V344.1z"/>
	<path id="path16" class="st0" d="M364.9,371.4c-3.6,0-6.4-1.2-8.3-3.5c-2-2.3-3-5.7-3-10.1c0-3,0.5-5.7,1.4-7.8
		c1-2.1,2.2-3.7,4-4.8c1.8-1.1,3.8-1.7,6-1.7c1.4,0,2.8,0.2,4.1,0.8c1.3,0.6,2.3,1.3,3,2.1c0.2-0.8,0.6-1.4,1.2-1.8
		c0.6-0.4,1.3-0.6,2.1-0.6h0.6c0.2,0,0.5,0.1,0.8,0.1v21.4c0,1.2,0.2,2,0.6,2.4c0.4,0.4,1.1,0.6,2.2,0.6v2c-0.8,0.2-1.8,0.4-3.1,0.4
		c-2.3,0-3.7-0.9-4.1-2.6C370,370.4,367.5,371.4,364.9,371.4 M372,350.5c-0.6-0.8-1.5-1.5-2.6-2c-1-0.6-2.2-0.8-3.4-0.8
		c-2.5,0-4.3,0.8-5.5,2.4c-1.2,1.6-1.8,4.1-1.8,7.4c0,6.6,2.5,9.9,7.4,9.9c1,0,2-0.2,3-0.6c0.9-0.4,1.7-0.8,2.2-1.4
		c0.6-0.6,0.8-1.1,0.8-1.6V350.5z"/>
	<path id="path18" class="st0" d="M383.4,330.8c0.3,0,0.6-0.1,1-0.1c2.5,0,3.8,1.3,3.8,3.8v30.7c0,1,0.1,1.8,0.2,2.2
		c0.2,0.4,0.4,0.6,0.8,0.8c0.4,0.2,1,0.2,1.7,0.2v2c-0.8,0.2-1.8,0.4-3.1,0.4c-1,0-1.8-0.2-2.5-0.5s-1.1-0.9-1.4-1.6
		c-0.3-0.7-0.5-1.9-0.5-3.7V330.8z"/>
	<path id="path20" class="st0" d="M393.9,335.5c0-1,0.3-1.7,0.9-2.3c0.6-0.6,1.3-0.9,2.2-0.9c0.9,0,1.6,0.3,2.2,0.9
		c0.6,0.6,0.9,1.4,0.9,2.3c0,0.9-0.3,1.6-0.9,2.2c-0.6,0.6-1.3,0.9-2.2,0.9c-0.9,0-1.6-0.3-2.2-0.9
		C394.2,337.1,393.9,336.4,393.9,335.5 M394.8,343.9c0.3,0,0.6-0.1,1-0.1c2.5,0,3.8,1.3,3.8,3.8v17.8c0,1.2,0.2,2,0.6,2.4
		c0.4,0.4,1.1,0.6,2.2,0.6v2c-0.8,0.2-1.8,0.4-3.1,0.4c-1,0-1.8-0.2-2.5-0.5s-1.1-0.9-1.4-1.6c-0.3-0.7-0.5-1.9-0.5-3.7V343.9z"/>
	<path id="path22" class="st0" d="M416.1,371.4c-3.6,0-6.4-1.2-8.3-3.5c-2-2.3-3-5.7-3-10.1c0-3,0.5-5.7,1.4-7.8
		c1-2.1,2.2-3.7,4-4.8c1.8-1.1,3.8-1.7,6-1.7c1.4,0,2.8,0.2,4.1,0.8c1.3,0.6,2.3,1.3,3,2.1c0.2-0.8,0.6-1.4,1.2-1.8
		c0.6-0.4,1.3-0.6,2.1-0.6h0.6c0.2,0,0.5,0.1,0.8,0.1v21.4c0,1.2,0.2,2,0.6,2.4c0.4,0.4,1.1,0.6,2.2,0.6v2c-0.8,0.2-1.8,0.4-3.1,0.4
		c-2.3,0-3.7-0.9-4.1-2.6C421.2,370.4,418.7,371.4,416.1,371.4 M423.2,350.5c-0.6-0.8-1.5-1.5-2.6-2c-1-0.6-2.2-0.8-3.4-0.8
		c-2.5,0-4.3,0.8-5.5,2.4c-1.2,1.6-1.8,4.1-1.8,7.4c0,6.6,2.5,9.9,7.4,9.9c1,0,2-0.2,3-0.6c0.9-0.4,1.7-0.8,2.2-1.4
		c0.6-0.6,0.8-1.1,0.8-1.6V350.5z"/>
</g>
</svg>
