<?xml version="1.0" encoding="UTF-8"?>
<svg id="svg1" xmlns="http://www.w3.org/2000/svg" xmlns:xlink="http://www.w3.org/1999/xlink" xmlns:svg="http://www.w3.org/2000/svg" xmlns:rdf="http://www.w3.org/1999/02/22-rdf-syntax-ns#" xmlns:dc="http://purl.org/dc/elements/1.1/" xmlns:cc="http://creativecommons.org/ns#" version="1.1" viewBox="0 0 1784.4 370.7">
  <!-- Generator: Adobe Illustrator 29.2.1, SVG Export Plug-In . SVG Version: 2.1.0 Build 116)  -->
  <defs>
    <style>
      .st0 {
        fill: #fff;
      }
    </style>
  </defs>
  <g id="Page-1">
    <g id="dkmslogo">
      <g>
        <path class="st0" d="M649.4,360.6l-133.4-206.1L642,10.2h0c.4-.5.6-1.2.6-1.8,0-1.8-1.4-3.2-3.2-3.2h0s-82,0-82,0c-2.7,0-5,1.1-6.8,2.9l-122,144.6V11.8c0-.1-.1-.2-.1-.4,0-3.5-2.8-6.3-6.3-6.3h-66.5c-3.5,0-6.3,2.8-6.3,6.3s0,0,0,0v347.6s0,0,0,0c0,3.5,2.8,6.3,6.3,6.3h66.6c3.5,0,6.3-2.8,6.3-6.3s0,0,0,0v-110.9l34.8-37.6,93.7,152.8s0,0,0,0c1.2,1.2,2.8,2,4.6,2h85.1c1.8,0,3.2-1.5,3.2-3.2h0c0-.7-.2-1.2-.6-1.7Z"/>
        <path class="st0" d="M124.9,5.1H6.4C2.9,5.1,0,7.9,0,11.5v347.8h0c0,3.5,2.8,6.3,6.3,6.3s0,0,0,0h118.4c113.1,0,191.3-78.8,191.3-180.2h0v-1C316.2,82.8,238,5.1,124.9,5.1ZM233.4,186.4c0,63.8-43.7,107.6-108.5,107.6h-45.6V76.7h45.6c64.8,0,108.5,44.8,108.5,108.6v1Z"/>
        <path class="st0" d="M1783.3,179.5l-73.9-164.3c-2.9-6.9-7.2-9.7-15.1-9.9h-305.6c-6.7,0-12.1,5.3-12.1,12v336c0,6.7,5.4,12.1,12.1,12.1h305c7.9,0,12.1-2.5,15.3-9.2l74.3-165c.8-1.8,1.1-3.8,1.1-5.9s-.4-4-1.1-5.8ZM1636.2,248.1c.6.8,1.1,1.7,1.4,2.6.5,1.2.7,2.5.7,3.9,0,5.9-4.8,10.7-10.7,10.7h-26.1c-2,0-3.9-.4-5.6-1-2.8-1-5.2-2.8-7.1-5-.3-.4-3-3.8-7.4-9.3-4.8-6-11.5-14.6-19.3-24.5-1.1-1.4-2.2-2.8-3.3-4.2-16.5,20.8-29.2,37-30,37.9-3,3.7-7.6,6-12.7,6h-26.1c-5.9,0-10.7-4.8-10.7-10.7s.6-3.9,1.5-5.5c.2-.3.4-.7.7-1,.4-.5,4.6-5.9,11.2-14.2,1.9-2.4,4-5,6.2-7.9,8.9-11.2,20.2-25.6,31.8-40.3-17.3-21.9-34-43-42.8-54.2-3.8-4.8-6.1-7.8-6.4-8.2-1.4-1.8-2.2-4.1-2.2-6.5,0-3.8,1.9-7.1,4.9-9,1.7-1.1,3.7-1.7,5.8-1.7h26.2c3,0,5.9.9,8.3,2.3,1.7,1,3.1,2.2,4.4,3.7.8,1,13.5,17.1,30,37.9,2.4-3,4.7-5.9,6.9-8.7,7.1-9.1,13.2-16.7,17.4-22,3.4-4.3,5.5-6.9,5.8-7.3,3-3.7,7.6-6,12.7-6h26.1c2.1,0,4.1.6,5.7,1.7,3,1.9,4.9,5.2,4.9,9s-.3,2.9-.8,4.2c0,0,0,0,0,.1,0,0,0,.2-.1.2,0,.2-.2.4-.3.5-.3.5-.6,1-.9,1.4-.1.2-.6.8-1.4,1.8-5.5,7.1-26.2,33.2-47.8,60.6l49.2,62.4Z"/>
        <path class="st0" d="M1018,5.1h-74.3c-3.4,0-6.3,1.8-8,4.4h0s-86,145-86,145L763.7,9.4c-1.7-2.5-4.6-4.3-7.9-4.3h-75.3c-3.5,0-6.3,2.8-6.3,6.3s0,.1,0,.2v347.6c0,3.5,2.8,6.3,6.3,6.3h65.1c3.4,0,6.2-2.8,6.3-6.2v-227.6l94.4,148.1c1.5,1.5,3.8,1.5,5.3,0l95.4-149.7v229c0,3.5,2.8,6.3,6.3,6.3h65.1c3.5,0,6.3-2.8,6.3-6.3h0s0,0,0,0V11.5s0,0,0,0c0-3.5-2.8-6.3-6.3-6.3Z"/>
        <path class="st0" d="M1222.8,149.8c-62.2-15.9-77.6-23.7-77.6-47.4v-1c0-17.5,15.9-31.4,46.3-31.4s52.4,9.8,79.3,26.4h0c2.8,1.9,6.8,1.2,8.8-1.6,0,0,0,0,.1-.1l34.7-49.6c1.9-2.6,1.4-6.2-1-8.3C1279.4,13.2,1239.1,0,1192.5,0c-73.5,0-126,43.2-126,108.6v1c0,71.6,46.8,91.7,119.3,110.2,60.1,15.5,72.5,25.7,72.5,45.8v1.1c0,21.1-19.6,34-52,34s-71.3-15.3-102-39.5h0c-2.7-2.1-6.7-1.7-8.9,1l-34.7,49.7c-2,2.5-1.7,5.9.3,8.2,41.7,33.7,92.9,50.7,143.9,50.7,77.7,0,132.2-40.2,132.2-111.7v-1c0-62.8-41.1-89.1-114.2-108.1Z"/>
      </g>
    </g>
  </g>
</svg>