<?xml version="1.0" encoding="utf-8"?>
<!-- Generator: Adobe Illustrator 28.3.0, SVG Export Plug-In . SVG Version: 6.00 Build 0)  -->
<svg version="1.1"
	 id="svg240" xmlns:inkscape="http://www.inkscape.org/namespaces/inkscape" xmlns:sodipodi="http://sodipodi.sourceforge.net/DTD/sodipodi-0.dtd" xmlns:svg="http://www.w3.org/2000/svg"
	 xmlns="http://www.w3.org/2000/svg" xmlns:xlink="http://www.w3.org/1999/xlink" x="0px" y="0px" viewBox="0 0 480.2 185.6"
	 style="enable-background:new 0 0 480.2 185.6;" xml:space="preserve">
<style type="text/css">
	.st0{fill:#FFFFFF;}
</style>
<sodipodi:namedview  bordercolor="#666666" borderopacity="1.0" id="namedview242" inkscape:current-layer="svg240" inkscape:cx="326.03476" inkscape:cy="129.63498" inkscape:document-units="pt" inkscape:pagecheckerboard="0" inkscape:pageopacity="0.0" inkscape:pageshadow="2" inkscape:window-height="847" inkscape:window-maximized="0" inkscape:window-width="1296" inkscape:window-x="0" inkscape:window-y="25" inkscape:zoom="0.89867719" pagecolor="#ffffff" showgrid="false">
	</sodipodi:namedview>
<g id="surface1" transform="translate(-16.800781,-163.60156)">
	<path id="path235" class="st0" d="M495.8,231.8v-1.5l-20.2,3.4c-21.7,3.6-29.4,8-29.4,17c0,8,6.7,12.9,17.6,12.9
		C479.5,263.8,495.8,253.4,495.8,231.8z M417.5,252.2c0-21.7,16-34.9,49.4-40l29-4.6v-1.8c0-10.9-8.2-16.6-22.2-16.6
		c-15.5,0-25.6,7.2-29,20.9l-23-16.5c8-16.6,21.9-26.1,41.6-28.6c-4.2-0.8-8.2-1.3-12.4-1.3c-34.1,0-61.8,27.6-61.8,61.7
		c0,33.6,26.6,60.6,59.9,61.4C429.9,283.7,417.5,270.7,417.5,252.2z"/>
	<path id="path237" class="st0" d="M17.4,285V166.6h28.2v16.6c9.8-12.2,24.3-19.1,40.8-19.1c27.4,0,43.1,18.1,43.1,46.5V285H101v-69
		c0-17-8.6-26.6-23.3-26.6c-19.6,0-32.6,17.5-32.6,44.2V285H17.4z M199.8,287.5c-35.1,0-59.4-24.8-59.4-61.7
		c-0.2-36.4,23.8-61.7,58.9-61.7c26.3,0,45.8,13.9,54,37.4l-26.3,10.9c-3.1-15-12.6-23.2-27.1-23.2c-18.9,0-31,14.2-31,36.6
		c0,22.5,12.2,36.6,31.3,36.6c14.2,0,23.8-8,26.9-23.2l26.1,10.9C244.2,274.3,225.5,287.5,199.8,287.5z M319.4,287.5
		c-35.7,0-59.4-24.8-59.4-61.4c0-37,23.8-61.7,59.4-61.7s59.4,24.8,59.4,61.7C379,262.7,355,287.5,319.4,287.5z M319.4,262.5
		c18.1,0,30.5-15,30.5-36.6c0-21.9-12.6-36.6-30.5-36.6c-18.1,0-30.5,15-30.5,36.6S301.3,262.5,319.4,262.5z M16.8,339.7v-21.9H22
		v3.1c1.8-2.3,4.4-3.6,7.5-3.6c5.2,0,8,3.4,8,8.6v13.7h-5.2v-12.6c0-3.1-1.5-4.9-4.4-4.9c-3.6,0-5.9,3.4-5.9,8.2v9.5L16.8,339.7
		L16.8,339.7z M61,339.7h-5.2c-0.2-0.8-0.2-1.5-0.2-2.9c-1.8,2.3-4.2,3.4-7,3.4c-4.4,0-7.5-2.6-7.5-6.5c0-4.2,3.1-6.5,9-7.5l5.4-0.8
		v-0.2c0-2.1-1.5-3.1-4.2-3.1c-2.9,0-4.6,1.3-5.4,3.8l-4.2-3.1c1.8-3.6,5.2-5.4,9.8-5.4c5.7,0,9,2.6,9,7.5v10.3
		C60.5,336.8,60.7,338.4,61,339.7z M49.6,335.8c2.9,0,5.9-1.8,5.9-5.9v-0.2l-3.8,0.5c-4.2,0.8-5.4,1.5-5.4,3.1
		C46.2,334.8,47.5,335.8,49.6,335.8z M72.9,340.2c-3.8,0-6.2-2.6-6.2-6.7v-11.4h-3.4v-4.4h3.4v-2.6l5.2-4.2v6.5H76v4.4h-4.2v10.9
		c0,1.5,0.5,2.3,1.8,2.3c0.8,0,1.8-0.5,2.3-1l1,4.4C76,339.7,74.7,340.2,72.9,340.2z M80.1,315.4v-5.2h5.2v5.2H80.1z M80.1,339.7
		v-21.9h5.2v21.9H80.1z M100,340.2c-6.5,0-10.9-4.6-10.9-11.4c0-6.7,4.4-11.4,10.9-11.4s11.1,4.6,11.1,11.4
		C111.1,335.5,106.7,340.2,100,340.2z M100,335.5c3.4,0,5.7-2.8,5.7-6.7c0-4.2-2.3-6.7-5.7-6.7s-5.7,2.6-5.7,6.7
		C94.3,332.7,96.6,335.5,100,335.5z M114.7,339.7v-21.9h5.2v3.1c1.8-2.3,4.4-3.6,7.5-3.6c5.2,0,8,3.4,8,8.6v13.7h-5.2v-12.6
		c0-3.1-1.5-4.9-4.4-4.9c-3.6,0-5.9,3.4-5.9,8.2v9.5L114.7,339.7L114.7,339.7z M158.9,339.7h-5.2c-0.2-0.8-0.2-1.5-0.2-2.9
		c-1.8,2.3-4.2,3.4-7,3.4c-4.4,0-7.5-2.6-7.5-6.5c0-4.2,3.1-6.5,9-7.5l5.4-0.8v-0.2c0-2.1-1.5-3.1-4.2-3.1c-2.9,0-4.6,1.3-5.4,3.8
		l-4.2-3.1c1.8-3.6,5.2-5.4,9.8-5.4c5.7,0,9,2.6,9,7.5v10.3C158.4,336.8,158.6,338.4,158.9,339.7z M147.5,335.8
		c2.9,0,5.9-1.8,5.9-5.9v-0.2l-3.8,0.5c-4.2,0.8-5.4,1.5-5.4,3.1C144.2,334.8,145.4,335.8,147.5,335.8z M163.5,339.7v-28.4h5.2v28.4
		H163.5z M192.2,340.2c-6.5,0-11.1-4.6-11.1-11.4c0-6.7,4.4-11.4,10.9-11.4c4.9,0,8.6,2.6,10.1,7l-4.9,1.8c-0.5-2.8-2.3-4.4-4.9-4.4
		c-3.4,0-5.7,2.6-5.7,6.7s2.3,6.7,5.7,6.7c2.6,0,4.4-1.5,4.9-4.4l4.9,2.1C200.5,337.8,196.9,340.2,192.2,340.2z M215.5,340.2
		c-6.5,0-10.9-4.6-10.9-11.4c0-6.7,4.4-11.4,10.9-11.4s11.1,4.6,11.1,11.4C226.6,335.5,222.2,340.2,215.5,340.2z M215.5,335.5
		c3.4,0,5.7-2.8,5.7-6.7c0-4.2-2.3-6.7-5.7-6.7s-5.7,2.9-5.7,6.7C210.1,332.7,212.4,335.5,215.5,335.5z M245.7,339.7v-3.1
		c-1.8,2.3-4.4,3.6-7.5,3.6c-4.9,0-8-3.4-8-7.8v-14.5h5.2v12.9c0,3.1,1.5,4.9,4.4,4.9c3.8,0,5.9-3.4,5.9-8v-9.5h5.2v21.9h-5.2
		L245.7,339.7z M255.5,339.7v-21.9h5.2v3.1c1.8-2.3,4.4-3.6,7.5-3.6c5.2,0,8,3.4,8,8.6v13.7H271v-12.6c0-3.1-1.5-4.9-4.4-4.9
		c-3.6,0-5.9,3.4-5.9,8.2v9.5L255.5,339.7L255.5,339.7z M290.9,340.2c-6.5,0-11.1-4.6-11.1-11.4c0-6.7,4.4-11.4,10.9-11.4
		c4.9,0,8.6,2.6,10.1,7l-4.9,1.8c-0.5-2.8-2.3-4.4-4.9-4.4c-3.4,0-5.7,2.6-5.7,6.7s2.3,6.7,5.7,6.7c2.6,0,4.4-1.5,4.9-4.4l4.9,2.1
		C299.2,337.8,295.6,340.2,290.9,340.2z M304.3,315.4v-5.2h5.2v5.2H304.3z M304.3,339.7v-21.9h5.2v21.9H304.3z M314.4,339.7v-28.4
		h5.2v28.4H314.4z M343.1,340.2c-6.5,0-10.9-4.6-10.9-11.4c0-6.7,4.4-11.4,10.9-11.4s11.1,4.6,11.1,11.4
		C353.9,335.5,349.5,340.2,343.1,340.2z M343.1,335.5c3.4,0,5.7-2.8,5.7-6.7c0-4.2-2.3-6.7-5.7-6.7s-5.7,2.9-5.7,6.7
		C337.4,332.7,339.8,335.5,343.1,335.5z M357.6,339.7v-21.9h5.2v3.1c1.8-2.3,4.4-3.6,7.5-3.6c5.2,0,8,3.4,8,8.6v13.7h-5.2v-12.6
		c0-3.1-1.5-4.9-4.4-4.9c-3.6,0-5.9,3.4-5.9,8.2v9.5L357.6,339.7L357.6,339.7z M410.6,339.7h-5.2c-0.2-0.8-0.2-1.5-0.2-2.9
		c-1.8,2.3-4.2,3.4-7,3.4c-4.4,0-7.5-2.6-7.5-6.5c0-4.2,3.1-6.5,9-7.5l5.4-0.8v-0.2c0-2.1-1.5-3.1-4.2-3.1c-2.9,0-4.6,1.3-5.4,3.8
		l-4.2-3.1c1.8-3.6,5.2-5.4,9.8-5.4c5.7,0,9,2.6,9,7.5v10.3C410,336.8,410.2,338.4,410.6,339.7z M399.2,335.8c2.9,0,5.9-1.8,5.9-5.9
		v-0.2l-3.8,0.5c-4.2,0.8-5.4,1.5-5.4,3.1C395.8,334.8,397.1,335.8,399.2,335.8z M424.7,349.2c-4.9,0-8.8-2.1-10.6-6.2l4.4-3.1
		c0.5,2.9,2.9,4.6,6.2,4.6c3.8,0,6.2-2.9,6.2-6.5v-1.8c-1.5,2.1-4.2,3.4-6.7,3.4c-5.7,0-9.8-4.6-9.8-11.1c0-7.2,4.9-11.1,9.8-11.1
		c2.6,0,5.2,1,6.7,3.1v-2.6h5.2v19.7C435.8,345.1,431.7,349.2,424.7,349.2z M425,335c3.4,0,5.7-2.6,5.7-6.5c0-3.8-2.3-6.5-5.7-6.5
		s-5.7,2.6-5.7,6.5C419.3,332.5,421.6,335,425,335z M440.5,315.4v-5.2h5.2v5.2H440.5z M440.5,339.7v-21.9h5.2v21.9H440.5z
		 M450.6,339.7v-21.9h5.2v3.1c1.8-2.3,4.4-3.6,7.5-3.6c5.2,0,8,3.4,8,8.6v13.7h-5.2v-12.6c0-3.1-1.5-4.9-4.4-4.9
		c-3.6,0-5.9,3.4-5.9,8.2v9.5L450.6,339.7L450.6,339.7z M485.4,349.2c-4.9,0-8.8-2.1-10.6-6.2l4.4-3.1c0.5,2.9,2.9,4.6,6.2,4.6
		c3.8,0,6.2-2.9,6.2-6.5v-1.8c-1.5,2.1-4.2,3.4-6.7,3.4c-5.7,0-9.8-4.6-9.8-11.1c0-7.2,4.9-11.1,9.8-11.1c2.6,0,5.2,1,6.7,3.1v-2.6
		h5.2v19.7C496.8,345.1,492.7,349.2,485.4,349.2z M485.7,335c3.4,0,5.7-2.6,5.7-6.5c0-3.8-2.3-6.5-5.7-6.5s-5.7,2.6-5.7,6.5
		C480.3,332.5,482.6,335,485.7,335z"/>
</g>
</svg>
