<svg xmlns="http://www.w3.org/2000/svg" width="74.883" height="76.988" viewBox="0 0 74.883 76.988">
  <g id="Layer_2" data-name="Layer 2" transform="translate(0.001 0.001)">
    <g id="Layer_1" data-name="Layer 1" transform="translate(-0.001 -0.001)">
      <path id="Path_2725" data-name="Path 2725" d="M52.766,54.849C55.6,59.764,58.4,64.622,61.2,69.475A38.431,38.431,0,0,1,4.926,19.68,38.173,38.173,0,0,1,46.148.856c-.33.716-7.627,15.856-7.627,15.856s-.577.038-.9.044a20.576,20.576,0,0,0-9.159,2.477A21.785,21.785,0,0,0,16.895,36.053a21.236,21.236,0,0,0,1.44,10.558,21.581,21.581,0,0,0,4.992,7.448,21.323,21.323,0,0,0,12.025,5.93A20.882,20.882,0,0,0,47.951,58a25.624,25.624,0,0,0,4.232-2.7C52.371,55.18,52.539,55.025,52.766,54.849Z" transform="translate(0.001 0.001)" fill="#fff"/>
      <path id="Path_2726" data-name="Path 2726" d="M471.337,34.988c-.719-.707-1.385-1.36-2.049-2.017-.4-.392-.777-.8-1.182-1.181-.145-.138-.316-.326-.316-.326s.138-.293.2-.413a9.029,9.029,0,0,1,3.434-3.6,9.543,9.543,0,0,1,5.34-1.475,9.991,9.991,0,0,1,6.553,2.268,6.273,6.273,0,0,1,2.241,4.521,7.312,7.312,0,0,1-3.562,7.023c-1.474.96-3.064,1.7-4.657,2.581a9.519,9.519,0,0,0-2.49,1.79,3.1,3.1,0,0,0-.793,1.712l11.42-.015V50.94H467.846v-.492a14.443,14.443,0,0,1,1.369-7.121,11.765,11.765,0,0,1,4.654-4.781c1.514-.9,3.108-1.674,4.625-2.574a2.876,2.876,0,0,0,1.592-2.549,2.329,2.329,0,0,0-1.79-2.194,5.556,5.556,0,0,0-6.323,2.671C471.781,34.233,471.585,34.562,471.337,34.988Z" transform="translate(-418.542 -23.237)" fill="#fff"/>
      <path id="Path_2727" data-name="Path 2727" d="M385.343,328.409l-9.623-16.619H356.676l-9.686,16.791h19.184l9.467,16.54Z" transform="translate(-310.459 -278.965)" fill="#fff"/>
    </g>
  </g>
</svg>
