<?xml version="1.0" encoding="UTF-8"?><svg id="Layer_2" xmlns="http://www.w3.org/2000/svg" xmlns:xlink="http://www.w3.org/1999/xlink" viewBox="0 0 24 21.5"><defs><style>.cls-1,.cls-2{fill:none;}.cls-3{clip-path:url(#clippath);}.cls-4{clip-path:url(#clippath-1);}.cls-2{stroke:#6956cc;stroke-linecap:round;stroke-linejoin:round;stroke-width:2px;}</style><clipPath id="clippath"><rect class="cls-1" y="0" width="24" height="21.5"/></clipPath><clipPath id="clippath-1"><rect class="cls-1" width="24" height="21.5"/></clipPath></defs><g id="Layer_1-2"><g id="Headphones"><g class="cls-3"><g class="cls-4"><path class="cls-2" d="M4,12v-2.82c-.05-4.47,3.53-8.13,8-8.18,4.47,.05,8.05,3.71,8,8.18v2.82"/><path class="cls-2" d="M7,19.5c0,.55-.45,1-1,1h-.64c-2.31,.1-4.26-1.69-4.36-4,.11-2.31,2.06-4.1,4.36-4h.64c.55,0,1,.45,1,1v6Z"/><path class="cls-2" d="M17,19.5c0,.55,.45,1,1,1h.64c2.31,.1,4.26-1.69,4.36-4-.1-2.31-2.06-4.1-4.36-4h-.64c-.55,0-1,.45-1,1v6Z"/></g></g></g></g></svg>