<?xml version="1.0" encoding="UTF-8"?><svg id="Layer_2" xmlns="http://www.w3.org/2000/svg" xmlns:xlink="http://www.w3.org/1999/xlink" viewBox="0 0 24 20.56"><defs><style>.cls-1,.cls-2{fill:none;}.cls-3{clip-path:url(#clippath);}.cls-4{clip-path:url(#clippath-1);}.cls-2{stroke:#6956cc;stroke-linecap:round;stroke-linejoin:round;stroke-width:2px;}</style><clipPath id="clippath"><rect class="cls-1" x="0" y="0" width="24" height="20.56"/></clipPath><clipPath id="clippath-1"><rect class="cls-1" x="0" y="0" width="24" height="20.56"/></clipPath></defs><g id="Layer_1-2"><g id="Heart__Love"><g class="cls-3"><g class="cls-4"><path class="cls-2" d="M22.51,4.78c-.63-1.48-1.81-2.66-3.29-3.29-.76-.32-1.58-.49-2.41-.49-.84,0-1.66,.21-2.41,.59-.75,.39-1.42,.92-1.97,1.56-.15,.18-.3,.36-.44,.56-.14-.19-.28-.38-.44-.56-.55-.64-1.21-1.17-1.96-1.56-.75-.39-1.57-.59-2.41-.59-3.42,0-6.19,2.77-6.19,6.18,0,1.64,.65,3.22,1.81,4.38,.56,.56,8.45,7.68,9.19,8,.74-.32,8.63-7.44,9.19-8,.56-.56,1.01-1.23,1.33-1.96,.65-1.54,.65-3.28,0-4.82h0Z"/></g></g></g></g></svg>