<?xml version="1.0" encoding="UTF-8"?>
<svg width="212" height="50" version="1.1" viewBox="0 0 212 50" xml:space="preserve" xmlns="http://www.w3.org/2000/svg" xmlns:cc="http://creativecommons.org/ns#" xmlns:dc="http://purl.org/dc/elements/1.1/" xmlns:rdf="http://www.w3.org/1999/02/22-rdf-syntax-ns#"><metadata><rdf:RDF><cc:Work rdf:about=""><dc:format>image/svg+xml</dc:format><dc:type rdf:resource="http://purl.org/dc/dcmitype/StillImage"/></cc:Work></rdf:RDF></metadata><g transform="matrix(1.3333 0 0 -1.3333 0 124.75)"><g transform="matrix(.043279 0 0 .040083 .00010435 56.057)" fill="#fff"><path d="m1477.5 564.12c-3.55 33.672-26.51 50.274-70.71 50.274-33.57 0-67.74-13.848-67.74-42.918 0-35.961 41.22-40.125 77.75-47.051 64.82-12.91 160.27-27.195 160.27-94.09 0-82.578-91.92-111.19-183.24-111.19-97.21 0-166.16 29.531-163.2 113.5h93.1c-3.53-36.895 23.56-61.817 71.27-61.817 36.56 0 84.84 8.75 84.84 44.278 0 39.215-60.68 41.98-97.21 49.379-59.49 11.507-140.8 32.75-140.8 91.777 0 76.125 89.55 109.79 176.74 109.79 82.48 0 146.72-35.047 146.72-101.93h-87.79"/><path d="m1730.8 326.07v333.06h-91.31v-333.06h91.31"/><path d="m1969.4 525.36c38.29 0 59.51 12.457 59.51 39.207 0 26.747-21.22 39.207-59.51 39.207h-71.29v-78.414zm0-143.93c43.01 0 72.47 5.996 72.47 44.277 0 38.301-29.46 44.277-72.47 44.277h-71.29v-88.554zm-162.62-55.352v333.07h159.67c76.02 3.684 153.78-21.238 153.78-86.269 0-36.434-32.41-61.82-74.83-72.895v-0.918c53.59-8.765 93.68-37.832 93.68-86.742 0-65.957-106.05-89.941-171.46-86.25h-160.84"/><path d="m2193.9 659.15h285.17v-55.375h-193.84v-77.949h181.48v-55.359h-181.48v-89.039h200.33v-55.352h-291.66v333.07"/><path d="m2560.3 326.07v333.07h91.34v-277.72h184.41v-55.352h-275.75"/><path d="m3127.1 551.19c0.57 35.058-26.53 63.203-81.3 63.203-64.81 0-81.31-75.196-81.31-121.78 0-46.617 16.5-121.79 81.31-121.79 54.77 0 81.87 28.125 81.3 63.184h97.21c-4.12-83.477-80.72-114.86-178.51-114.86-123.15 0-178.53 76.132-178.53 173.47 0 97.328 55.38 173.43 178.53 173.43 97.79 0 174.39-31.359 178.51-114.86h-97.21"/><path d="m3362.2 492.61c0-57.222 17.11-121.79 107.24-121.79 90.15 0 107.24 64.571 107.24 121.79 0 57.188-17.09 121.78-107.24 121.78-90.13 0-107.24-64.59-107.24-121.78zm-97.2 0c0 98.25 63.63 173.43 204.44 173.43 140.83 0 204.44-75.184 204.44-173.43 0-98.277-63.61-173.47-204.44-173.47-140.81 0-204.44 75.195-204.44 173.47"/><path d="m636.75 11.289c-3.887-3.3204-7.871-6.4844-11.992-9.5313-16.407 1.3867-32.785 3.457-49.063 6.1524 20.41 0 40.781 1.1719 61.055 3.3789"/><path d="m710.82 10.977c-5.566-3.6719-11.281-7.168-17.089-10.449-15.411-0.66406-30.899-0.68359-46.348-0.15625 21.328 2.3633 42.5 5.8984 63.437 10.606"/><path d="m775.43 19.004c-6.641-4.1992-13.438-8.2226-20.344-12.051-13.848-2.2461-27.82-3.9648-41.785-5.1562 21.016 4.5703 41.738 10.332 62.129 17.207"/><path d="m831.7 33.047c-7.148-4.8633-14.492-9.4922-21.925-13.906-12-3.3593-24.082-6.289-36.278-8.8086 19.793 6.5235 39.219 14.082 58.203 22.715"/><path d="m655.29 28.73c-4.844-4.9805-9.805-9.7852-14.973-14.375-18.25 1.3086-36.453 3.4179-54.5 6.3281 23.301 1.2695 46.493 3.9844 69.473 8.0469"/><path d="m736.37 29.629c-6.687-5.3516-13.574-10.469-20.594-15.332-16.816-1.0938-33.691-1.4453-50.566-1.0742 24.043 4.0234 47.773 9.5117 71.16 16.406"/><path d="m804.96 39.727c-7.715-5.8789-15.625-11.543-23.723-16.953-14.675-2.7929-29.5-5.039-44.402-6.6601 23.164 6.5234 45.879 14.434 68.125 23.613"/><path d="m862.57 55.977c-8.047-6.5039-16.261-12.734-24.687-18.691-12.317-3.9063-24.805-7.3633-37.403-10.352 21.25 8.4961 41.981 18.164 62.09 29.043"/><path d="m877.48 49.98c-7.266-5.3516-14.649-10.547-22.18-15.508-10.137-3.9649-20.379-7.5782-30.75-10.938 18.086 7.9101 35.742 16.699 52.93 26.445"/><path d="m915.6 68.613c-7.012-5.7813-14.172-11.348-21.465-16.719-8.418-4.2382-16.973-8.2226-25.606-11.953 16.153 8.7891 31.836 18.32 47.071 28.672"/><path d="m945.97 86.934c-6.621-5.9766-13.391-11.797-20.293-17.5-6.973-4.2383-14.063-8.3203-21.27-12.168 14.317 9.2383 28.145 19.141 41.563 29.668"/><path d="m971.11 105c-6.113-6.0937-12.402-12.07-18.82-17.871-5.762-4.1406-11.609-8.125-17.527-11.973 12.539 9.4531 24.648 19.394 36.347 29.844"/><path d="m907.82 74.57c-7.878-6.8945-15.964-13.535-24.187-19.941-10.117-4.4336-20.391-8.4961-30.781-12.266 18.925 9.7265 37.234 20.469 54.968 32.207"/><path d="m944.31 94.238c-7.415-7.0899-15.02-14.024-22.844-20.703-8.153-4.5704-16.453-8.8672-24.864-12.91 16.477 10.391 32.356 21.641 47.708 33.613"/><path d="m972.52 113.07c-6.856-7.207-13.848-14.218-21.067-21.054-6.629-4.3945-13.301-8.6719-20.125-12.773 14.278 10.606 27.977 21.895 41.192 33.828"/><path d="m995.34 131.11c-6.191-7.168-12.598-14.16-19.168-20.976-5.332-4.199-10.742-8.262-16.23-12.207 12.285 10.527 24.082 21.562 35.398 33.183"/><path d="m941.09 106.8c-8.36-8.8282-16.985-17.363-25.86-25.566-9.882-4.7657-19.921-9.1992-30.078-13.262 19.375 11.855 38.036 24.805 55.938 38.828"/><path d="m974.86 126.58c-7.636-8.75-15.527-17.285-23.691-25.527-7.676-4.7269-15.547-9.2386-23.477-13.477 16.407 12.168 32.149 25.156 47.168 39.004"/><path d="m1000.1 144.9c-6.864-8.574-13.982-16.933-21.345-25.078-6.035-4.453-12.199-8.769-18.457-12.929 13.887 12.011 27.168 24.687 39.802 38.007"/><path d="m1020.1 162.09c-6.15-8.281-12.52-16.387-19.12-24.356-4.724-4.121-9.568-8.105-14.521-12.031 11.758 11.621 22.971 23.731 33.641 36.387"/><path d="m1004.9 164.73c-7.54-10.489-15.47-20.762-23.732-30.743-7.011-4.648-14.152-9.043-21.457-13.281 15.872 13.848 30.938 28.516 45.189 44.024"/><path d="m1026.7 181.37c-6.66-9.98-13.65-19.746-20.92-29.277-5.33-4.277-10.793-8.399-16.379-12.402 13.139 13.281 25.569 27.187 37.299 41.679"/><path d="m1043.4 196.68c-5.83-9.434-11.95-18.653-18.38-27.715-4.1-3.867-8.26-7.617-12.54-11.27 10.88 12.5 21.22 25.508 30.92 38.985"/><path d="m1055.5 230.39c-5.99-11.563-12.43-22.95-19.25-34.082-4.39-3.711-8.88-7.266-13.5-10.723 11.66 14.394 22.64 29.316 32.75 44.805"/><path d="m1068.4 242.11c-5.21-10.683-10.76-21.152-16.66-31.464-3.24-3.301-6.6-6.465-10.04-9.59 9.54 13.281 18.42 26.953 26.7 41.054"/><path d="m1077.1 277.64c-5.15-12.774-10.74-25.332-16.79-37.735-3.52-2.832-7.17-5.527-10.88-8.105 9.98 14.805 19.26 30.058 27.67 45.84"/><path d="m1087 285.06c-4.45-11.563-9.26-22.969-14.42-34.239-2.55-2.5-5.17-4.941-7.89-7.265 8.05 13.496 15.49 27.324 22.31 41.504"/><path d="m1094.8 329.65c-3.92-13.652-8.35-27.128-13.26-40.449-2.77-1.64-5.58-3.144-8.45-4.551 7.99 14.649 15.25 29.649 21.71 45"/><path d="m1102.2 331.78c-3.4-12.226-7.21-24.336-11.44-36.308-1.9-1.485-3.87-2.871-5.87-4.219 6.36 13.242 12.14 26.758 17.31 40.527"/><path d="m207.99 262.77c3.067-8.437 6.348-16.796 9.836-25.058-4.492 7.109-8.769 14.316-12.89 21.66l3.054 3.398"/><path d="m230.84 227.81c3.469-8.243 7.14-16.407 11.047-24.454-5.911 7.715-11.614 15.606-17.071 23.672 2.02 0.157 4.043 0.41 6.024 0.782"/><path d="m260.91 190.39c3.711-7.793 7.598-15.469 11.719-23.028-7.668 8.125-15.051 16.543-22.149 25.176 3.418-0.898 6.914-1.582 10.43-2.148"/><path d="m301.34 150.04c3.613-7.012 7.383-13.926 11.355-20.723-9.707 8.301-19.148 16.954-28.25 25.918 5.528-1.972 11.192-3.711 16.895-5.195"/><path d="m196.51 299.12c2.707-9.824 5.703-19.531 8.976-29.199-4.062 7.168-7.988 14.394-11.652 21.738 0.813 2.5 1.719 4.961 2.676 7.461"/><path d="m217.4 264.12c3.223-9.844 6.739-19.59 10.555-29.238-5.574 7.93-10.945 15.996-16.023 24.277l5.468 4.961"/><path d="m246.13 225.66c3.594-9.609 7.488-19.121 11.66-28.496-7.5 8.594-14.707 17.441-21.621 26.484 3.34 0.528 6.668 1.231 9.961 2.012"/><path d="m286.5 182.89c3.633-8.965 7.547-17.871 11.758-26.621-9.903 8.984-19.492 18.32-28.703 28.007 5.636-0.761 11.281-1.191 16.945-1.386"/><path d="m186.74 342.03c2.082-11.289 4.543-22.558 7.336-33.691-3.594 6.933-6.973 13.965-10.168 21.094 0.781 4.238 1.75 8.418 2.832 12.597"/><path d="m205.25 308.4c2.676-11.699 5.723-23.359 9.18-34.843-5.117 7.89-10.012 15.937-14.621 24.14 1.711 3.633 3.515 7.207 5.441 10.703"/><path d="m351.93 110.41c2.968-6.035 6.133-11.953 9.492-17.754-11.895 7.9687-23.535 16.387-34.817 25.274 8.313-2.93 16.77-5.41 25.325-7.52"/><path d="m414.92 72.871c1.777-4.8633 3.66-9.707 5.742-14.453-14.074 7.0508-27.832 14.609-41.269 22.754 11.699-3.3399 23.574-6.0938 35.527-8.3008"/><path d="m486.13 42.461c0-3.8867 0.117-7.7539 0.281-11.602-15.691 5.4883-31.152 11.602-46.336 18.398 15.235-3.0859 30.586-5.293 46.055-6.7969"/><path d="m564.33 21.055c-1.973-3.3203-4.055-6.6016-6.164-9.8242-16.543 3.3984-32.938 7.5586-49.109 12.305 18.379-1.836 36.816-2.5977 55.273-2.4805"/><path d="m339.24 139.59c3.078-8.047 6.446-15.957 10.071-23.75-12.598 8.808-24.836 18.144-36.661 27.949 8.789-1.875 17.657-3.262 26.59-4.199"/><path d="m407.44 97.539c1.777-6.7774 3.738-13.535 5.937-20.176-15.312 7.9492-30.285 16.465-44.844 25.684 12.852-2.578 25.86-4.3556 38.907-5.5079"/><path d="m486.52 63.027c-0.235-5.625-0.372-11.27-0.391-16.875-17.441 6.1719-34.582 13.106-51.399 20.801 17.188-2.2851 34.485-3.5547 51.79-3.9258"/><path d="m574.41 39.004c-2.629-4.9805-5.371-9.9219-8.183-14.746-18.497 3.711-36.797 8.2617-54.864 13.672 21.035-0.8984 42.051-0.4883 63.047 1.0742"/><path d="m1115 488.09c0.31-13.418 0.17-26.84-0.5-40.254-1.69 3.023-3.51 5.934-5.37 8.844 2.4 10.383 4.39 20.851 5.87 31.41"/><path d="m1120.9 473.87c0.06-12.129-0.25-24.277-0.98-36.371-1.09 2.266-2.24 4.512-3.41 6.719 1.82 9.828 3.28 19.715 4.39 29.652"/><path d="m1111.3 537.14c1.5-12.473 2.6-25.016 3.25-37.571-1.9 4.258-3.94 8.477-6.06 12.637 1.29 8.273 2.22 16.598 2.81 24.934"/><path d="m1118.4 518.74c1.12-11.441 1.84-22.929 2.21-34.425-1.23 3.355-2.5 6.687-3.87 9.988 0.84 8.121 1.41 16.273 1.66 24.437"/><path d="m1103.9 580.91c2.41-11.359 4.46-22.762 6.12-34.25-2.25 5.219-4.63 10.387-7.12 15.453 0.57 6.266 0.91 12.535 1 18.797"/><path d="m1112.8 559.51c1.88-10.59 3.48-21.242 4.74-31.977-1.5 4.238-3.08 8.43-4.76 12.582 0.23 6.453 0.23 12.938 0.02 19.395"/><path d="m1091.9 626.03c3.13-9.894 5.96-19.922 8.5-29.992-2.8 5.922-5.71 11.758-8.75 17.547 0.23 4.133 0.35 8.285 0.25 12.445"/><path d="m1102.9 602.44c2.58-9.48 4.93-19.039 7.02-28.656-1.96 4.945-4 9.848-6.15 14.688-0.12 4.668-0.42 9.324-0.87 13.968"/><path d="m1040 718.69c4.39-8.589 8.55-17.324 12.45-26.168-6.13 8.239-12.5 16.25-19.13 24.082l6.68 2.086"/><path d="m1062.9 687.22c3.94-8.75 7.67-17.61 11.14-26.567-4.45 7.2-9.09 14.274-13.9 21.227 1.02 1.727 1.94 3.5 2.76 5.34"/><path d="m1079.7 659.84c3.49-8.699 6.73-17.477 9.76-26.367-3.26 6.238-6.62 12.351-10.16 18.441 0.28 2.621 0.37 5.274 0.4 7.926"/><path d="m1092.5 635.34c3-8.485 5.81-17.059 8.33-25.715-2.36 5.344-4.79 10.594-7.35 15.801-0.23 3.34-0.55 6.621-0.98 9.914"/><path d="m1023.9 747.17c4.36-7.063 8.5-14.219 12.44-21.527-6.38 7.882-13.02 15.566-19.84 23.035 2.5-0.422 4.94-0.918 7.4-1.508"/><path d="m1047.9 716.89c4.08-7.387 7.91-14.883 11.59-22.493-4.85 7.106-9.9 14.067-15.06 20.899l3.47 1.594"/><path d="m1066.2 689.91c3.69-7.547 7.16-15.14 10.44-22.875-3.68 6.32-7.48 12.516-11.4 18.645 0.39 1.386 0.73 2.8 0.96 4.23"/><path d="m1080.7 665.25c3.28-7.516 6.33-15.109 9.22-22.789-2.76 5.516-5.63 10.977-8.59 16.348-0.11 2.168-0.34 4.312-0.63 6.441"/><path d="m1008.6 770.07c4.14-5.808 8.11-11.73 12-17.746-6.53 7.414-13.25 14.59-20.18 21.61 2.75-1.2 5.48-2.489 8.18-3.864"/><path d="m1033.4 741.42c3.98-6.242 7.81-12.605 11.48-19.043-5.12 6.824-10.4 13.543-15.86 20.109l4.38-1.066"/><path d="m1052.8 715.34c3.71-6.523 7.24-13.133 10.64-19.809-4 6.211-8.15 12.309-12.42 18.34 0.62 0.465 1.25 0.938 1.78 1.469"/><path d="m1068.6 691c3.37-6.621 6.57-13.332 9.67-20.09-3.14 5.559-6.34 11.016-9.64 16.43 0.03 1.215 0.03 2.441-0.03 3.66"/><path d="m853.2 875.59c2.098-3.547 4.063-7.168 5.899-10.84-14.746 7.074-29.778 13.52-45.059 19.344 13.203-2.227 26.25-5.051 39.16-8.504"/><path d="m908.38 845.57c3.418-4.605 6.691-9.324 9.805-14.109-12.735 8.211-25.79 15.926-39.18 23.117 9.933-2.566 19.719-5.558 29.375-9.008"/><path d="m954.47 813.27c4.179-5.641 8.183-11.36 11.992-17.211-10.539 8.644-21.32 16.875-32.441 24.718 6.914-2.226 13.73-4.714 20.449-7.507"/><path d="m993.08 779.67c4.434-6.469 8.658-13.067 12.718-19.754-8.265 8.43-16.859 16.594-25.706 24.48 4.394-1.433 8.719-2.98 12.988-4.726"/><path d="m846.44 885.81c1.856-2.551 3.633-5.137 5.293-7.805-13.293 6.172-26.816 11.816-40.566 16.922 11.855-2.555 23.652-5.571 35.273-9.117"/><path d="m897.12 859.41c3.047-3.476 5.977-7 8.789-10.597-11.758 7.187-23.789 13.984-36.086 20.316 9.238-2.91 18.352-6.156 27.297-9.719"/><path d="m940.52 830.61c3.731-4.339 7.411-8.793 10.879-13.328-9.961 7.696-20.195 15.047-30.703 22.055 6.68-2.668 13.321-5.566 19.824-8.727"/><path d="m977.91 800.17c4.102-5.184 8.074-10.457 11.895-15.824-8.176 7.722-16.563 15.164-25.207 22.375 4.492-2.047 8.937-4.199 13.312-6.551"/><path d="m797.73 897.98c0.418-2.743 0.762-5.547 1.016-8.352-15.898 5.469-32.043 10.223-48.34 14.305 15.879-1.196 31.668-3.164 47.324-5.953"/><path d="m737.72 921.52c-1.395-1.398-2.723-2.851-4.012-4.328-14.512 2.985-29.094 5.403-43.789 7.274 15.977-0.25 31.914-1.211 47.801-2.946"/><path d="m796.29 905.54c0.441-1.898 0.832-3.808 1.164-5.746-14.199 4.824-28.613 9.027-43.144 12.695 14.089-1.699 28.093-4.011 41.98-6.949"/><path d="m179.98 536.18 5.891-8.43 9.824 41.102-15.715-32.672"/><path d="m193.79 591.96 6.574-5.906 9.59 37.773-16.164-31.867"/><path d="m219.16 635-9.59-0.117 22.559 37.648-12.969-37.531"/><path d="m235 688.15 8.086 4.641 19.23 30.348-27.316-34.989"/><path d="m266.7 734.27-8.867-6.137 28.574 33.273-19.707-27.136"/><path d="m299.73 775.2 12.512 15.789-25.351-25.273 12.839 9.484"/><path d="m316.74 800 13.488 9.34 8.543 11.363-22.031-20.703"/><path d="m344.23 828.11 20.645 15.598-11.113-10.664-9.532-4.934"/><path d="m376.64 846.67 19.383 8.395 14.179 11.898-33.562-20.293"/><path d="m378.41 855.74 11.777 6.211 12.422 9.805-24.199-16.016"/><path d="m417.26 867.76c6.172 3.789 23.554 8.652 23.554 8.652l19.852 15.129s-22.02-11.805-43.406-23.781"/><path d="m465.55 894.31 17.812 6.437s10.266 5.086 12.082 6.656c-12.121-4.261-29.894-13.093-29.894-13.093"/><path d="m461.6 900 12.226 3.352s2.656 1.668 12.364 5.894c-11.934-3.637-24.59-9.246-24.59-9.246"/><path d="m503.69 913.06 15.527 2.566s5.82 2.516 13.867 4.43c-13.781-1.719-29.394-6.996-29.394-6.996"/><path d="m414.25 876.8 17.109 7.637c3.262 1.871 7.832 4.043 14.766 9-11.914-3.586-31.875-16.637-31.875-16.637"/><path d="m513.65 908.93 21.758 3.312 16.492 7.824-38.25-11.136"/><path d="m584.57 927.61 34.207 5.051 12.082 2.902-46.289-7.953"/><path d="m631.94 930.12 38.644-1.289 7.305 4.176-45.949-2.887"/><path d="m658.34 917.81-43.156 3.523 49.082 3.09-5.926-6.613"/><path d="m681.79 913.48 45-8.137 4.246 8.082-49.246 0.055"/><path d="m190.33 517.64 10.067-11.977 10.929 51.418-20.996-39.441"/><path d="m207.69 582.7 9.082-5.547 12.02 42.903-21.102-37.356"/><path d="m238.19 637.01-10.692-1.524 24.707 40.469-14.015-38.945"/><path d="m591.66 921.58-31.797-3.687 43.68 9.687-11.883-6"/><path d="m546.34 223.09c26.738-7.266 98.797-24.121 98.797-24.121l27.734 71.797c-35.086-23.282-95.965-40.918-126.53-47.676"/><path d="m879.12 591.46c-1.816-26.402-4.922-52.699-9.101-78.852-15.957 6.758-72.481 25.258-83.02 26.762 21.281 7.887 74.582 37.75 92.121 52.09"/><path d="m770.72 635.48c-1.817-26.433-12.696-61.043-16.895-87.168-15.937 6.747-107.56 32.079-118.09 33.559 21.289 7.898 96.336 32.109 117.16 43.398l17.824 10.211"/><path d="m619.6 681.02c-7.285-19.219-22.207-62.723-29.199-89.625-31.289 10.652-94.004 21.554-104.54 23.054 21.282 7.871 87.883 41.231 108.71 52.52l25.031 14.051"/><path d="m705.04 293.5c40.215-8.203 92.539-16.973 92.539-16.973l26.934 78.887c-28.926-20.859-90.391-50.683-119.47-61.914"/><path d="m594.14 444.06c40.176-8.204 123.01-30.723 123.01-30.723l27.011 99.371c-28.945-20.856-120.98-57.414-150.02-68.648"/><path d="m453.17 489.24c44.934-10.847 96.379-33.035 96.379-33.035l27.031 99.348c-28.937-20.867-94.355-55.071-123.41-66.313"/><path d="m708.3 96.094c-7.461-11.27-15.274-22.344-23.516-33.086-22.832 1.2305-45.566 3.6133-68.144 7.0117 31.093 6.6797 61.699 15.469 91.66 26.074"/><path d="m803.9 97.871c-9.23-11.328-18.867-22.324-29.004-32.871-19.863-1.8945-39.777-2.7734-59.726-2.8125 30.359 9.9023 59.969 21.816 88.73 35.684"/><path d="m747.38 167.4c-9.074-17.5-18.633-34.726-28.848-51.621-25.84 1.68-51.621 4.629-77.207 8.672 36.231 12.07 71.61 26.504 106.06 42.949"/><path d="m639.68 183.42c-5.801-13.418-13.946-35.039-23.985-53.34-23.203 3.867-49.316 10.254-77.656 17.285 49.902 15.684 76.816 25.606 101.64 36.055"/><path d="m849.78 165.57c-10.312-16.738-21.23-33.046-32.91-48.867-21.484-1.738-43.027-2.441-64.59-2.207 33.614 14.844 66.153 31.895 97.5 51.074"/><path d="m923.97 174.36c-10.137-15.839-20.946-31.25-32.43-46.152-16.379-3.711-32.871-6.582-49.484-8.808 28.535 16.445 55.89 34.746 81.914 54.96"/><path d="m787.34 254.43c-9.883-23.946-20.43-47.598-31.848-70.84-28.23 2.656-56.355 6.523-84.344 11.426 39.805 17.695 78.536 37.539 116.19 59.414"/><path d="m892.12 245.14c-10.254-21.973-21.367-43.555-33.437-64.532-22.403-0.82-44.747-0.605-67.11 0.391 34.824 19.258 68.438 40.645 100.55 64.141"/><path d="m963.66 246.37c-9.492-19.863-19.863-39.277-31.121-58.183-16.055-2.754-32.246-4.746-48.469-6.075 27.922 19.629 54.582 40.996 79.59 64.258"/><path d="m1011.7 252.83c-8.28-17.754-17.339-35.098-27.202-52.031-10.899-3.477-21.953-6.387-33.145-8.887 21.465 18.965 41.641 39.238 60.347 60.918"/><path d="m998.12 333.36c-7.551-23.125-16.172-45.898-25.891-68.242-15.281-0.488-30.593-0.449-45.906 0.059 25.371 21.152 49.453 43.828 71.797 68.183"/><path d="m1041 328.5c-6.41-20.058-13.71-39.824-21.97-59.18-9.78-1.464-19.611-2.5-29.533-3.261 18.533 19.707 35.823 40.449 51.503 62.441"/><path d="m1021.2 424.92c-4.59-24.492-10.38-48.731-17.28-72.676-14.286 2.832-28.516 5.82-42.735 8.867 21.242 20.098 41.405 41.231 60.015 63.809"/><path d="m315.39 232.68c2.234-14.434 5.039-28.809 8.426-42.988-13.797 10.292-27.137 21.191-39.93 32.695 10.594 3.086 21.094 6.601 31.504 10.293"/><path d="m395 182.85c0.851-13.555 2.101-27.071 3.887-40.567-18.211 9.824-35.977 20.449-53.192 31.934 16.582 2.051 32.989 5 49.305 8.633"/><path d="m493.94 139.49c-1.66-12.402-3.164-24.804-4.464-37.226-21.883 7.89-43.387 16.816-64.422 26.777 23.172 2.109 46.133 5.742 68.886 10.449"/><path d="m606.74 108.73c-4.832-11.523-9.812-22.988-15.008-34.394-23.652 4.6485-47.011 10.41-70.097 17.344 28.73 3.8476 57.109 9.6873 85.105 17.05"/><path d="m1032.7 516.21c-1.11-23.379-3.42-46.68-6.82-69.824-13.04 6.5-26.205 12.691-39.537 18.668 16.337 16.25 31.957 33.172 46.357 51.156"/><path d="m1031.2 595.43c1.66-20.5 2.34-41.082 2.05-61.649-12.28 9.258-24.94 18-37.873 26.34 12.403 11.289 24.453 22.969 35.823 35.309"/><path d="m1068.5 558.06c1.47-18.52 2.05-37.09 1.8-55.664-7.44 7.078-15.22 13.882-23.15 20.41 7.78 11.34 14.98 23.054 21.35 35.254"/><path d="m1021.1 662.6c3.59-16.731 6.38-33.629 8.43-50.594-11.9 10.73-24.24 20.906-36.974 30.625 9.604 6.508 19.154 13.129 28.544 19.969"/><path d="m1059.4 621.29c3.24-15.863 5.77-31.84 7.61-47.93-7.52 8.793-15.47 17.243-23.64 25.391 5.71 7.25 11.14 14.723 16.03 22.539"/><path d="m879.8 803.81c2.254-11.664 3.972-23.399 5.281-35.196-7.41 3.832-14.871 7.555-22.371 11.129-4.941 7.469-35.469 11.219-40.918 18.352 10.84 1.07 47.109 5.371 58.008 5.715"/><path d="m952.57 758.95c4.063-12.625 7.461-25.453 10.371-38.398-16.347 11.773-33.222 22.75-50.539 32.945 13.313 2.418 26.672 4.348 40.168 5.453"/><path d="m1006.5 714.47c4.53-13.121 8.44-26.446 11.81-39.938-11.62 11.047-23.762 21.555-36.301 31.559 8.105 2.949 16.269 5.781 24.491 8.379"/><path d="m427.19 192.56c20.168-7.5 15.098-10.02 68.575-29.59l8.078 49.785c-19.102-9.844-46.086-13.457-76.653-20.195"/><path d="m333.49 245.41c17.871-6.64 18.543-17.324 59.766-36.777l0.086 50.625c-22.246-6.289-33.797-8.613-59.852-13.848"/><path d="m569.84 796.16c24.902-4.023 78.476-6.976 90.898-11.734l22.305 41.832c-27.559-0.711-81.934-20.809-113.2-30.098"/><path d="m606.99 849.68c27.364-4.438 68.321-9.211 78.828-13.242l16.309 29.773c-27.559-0.703-63.879-7.242-95.137-16.531"/><path d="m719.98 831.25c24.895-4.039 64.621-18.945 77.012-23.695l0.676 32.671c-27.559-0.703-46.438 0.301-77.688-8.976"/><path d="m274.53 290.18 35.215-31.465-5.703 49.434-29.512-17.969"/><path d="m225.88 482.3 25.801-18.301 9.851 58.887-35.652-40.586"/><path d="m416.95 720.77c78.828 48.339 128.67 65.558 128.67 65.558l-38.859-67.414s-32.149 2.582-89.813 1.856"/><path d="m310.02 636.98 79.668 66.586-27.383-70.555-52.285 3.969"/><path d="m243.19 564.83 38.867 44.856-15.059-55.434-23.808 10.578"/><path d="m268.24 638.07 47.637 50.653-22.891-50.196-24.746-0.457"/><path d="m344.88 719.83c55.215 44.512 100.35 67.125 100.35 67.125s-22.734-30.758-42.179-64.457c-12.488-0.703-24.481 0.492-58.172-2.668"/><path d="m466.05 795.65c62.168 32.356 119.65 47.5 119.65 47.5l-30.722-45s-44.102 3.79-88.926-2.5"/><path d="m390.84 783.27 57.929 12.98 28.379 36.406s-49.226-22.515-86.308-49.386"/><path d="m1060.4 407.25c-3.82-21.055-8.68-41.875-14.46-62.48-8.77 1.386-17.52 2.91-26.23 4.492 14.78 18.457 28.46 37.754 40.69 57.988"/><path d="m260.7 699.63 18.067 29.961-27.61-34.891 9.543 4.93"/><path d="m288.75 747.43 19.082 24.906-29.629-30.941 10.547 6.035"/><path d="m320.82 787.28 20.985 24.383-33.504-32.613 12.519 8.23"/><path d="m358.59 825.57 17.168 17.907-32.383-26.082 15.215 8.175"/><path d="m679.16 55.898c-6.055-7.539-12.351-14.883-18.914-21.973-20.441 1.2109-40.773 3.418-60.969 6.5234 26.946 3.4375 53.594 8.6328 79.883 15.449"/><path d="m767.76 57.754c-7.957-7.8516-16.192-15.43-24.754-22.695-18.34-1.5039-36.758-2.1875-55.168-2.0508 27.168 6.5235 53.84 14.805 79.922 24.746"/><path d="m839.74 69.609c-8.801-8.2813-17.929-16.289-27.285-23.926-15.488-3.418-31.125-6.1328-46.855-8.2031 25.41 9.1406 50.117 19.863 74.14 32.129"/><path d="m897.59 87.305c-8.821-8.6133-17.942-16.973-27.336-24.98-12.508-4.4336-25.125-8.3398-37.891-11.777 22.473 10.898 44.25 23.184 65.227 36.758"/><path d="m877.87 110.06c-9.687-11.407-19.844-22.422-30.441-32.989-16.063-3.8281-32.274-6.875-48.582-9.2187 27.273 12.305 53.64 26.387 79.023 42.207"/><path d="m934.31 127.64c-9.329-11.27-19.036-22.188-29.2-32.696-12.343-4.7266-24.863-8.8867-37.539-12.539 23.223 13.633 45.489 28.731 66.739 45.235"/><path d="m974.73 146.31c-8.484-10.977-17.363-21.641-26.648-31.973-9.336-4.863-18.828-9.336-28.516-13.516 19.278 14.024 37.715 29.2 55.164 45.489"/><path d="m1013.1 203.2c-8.1-13.691-16.72-27.031-25.868-40-8.399-4.453-16.953-8.555-25.645-12.324 18.223 16.348 35.43 33.789 51.513 52.324"/><path d="m1038.2 217.56c-6.96-12.579-14.42-24.903-22.33-36.895-5.98-4.141-12.13-8.047-18.394-11.719 14.484 15.43 28.094 31.66 40.724 48.614"/><path d="m1042.9 261.17c-7.11-15.82-14.83-31.328-23.19-46.524-7.34-3.437-14.82-6.582-22.411-9.414 16.341 17.696 31.591 36.329 45.601 55.938"/><path d="m1063.4 269.73c-6.01-14.18-12.58-28.067-19.65-41.719-5.02-3.203-10.15-6.172-15.39-8.965 12.64 16.23 24.32 33.125 35.04 50.684"/><path d="m1067.5 327.32c-5.37-17.48-11.49-34.707-18.42-51.64-6.25-1.758-12.55-3.204-18.91-4.493 13.59 17.95 26.08 36.641 37.33 56.133"/><path d="m1084.2 328.03c-4.55-15.351-9.77-30.507-15.52-45.429-4.08-1.739-8.23-3.301-12.42-4.688 10.26 16.172 19.6 32.891 27.94 50.117"/><path d="m976.89 188.18c-9.231-14.786-19.082-29.18-29.524-43.125-11.804-4.454-23.808-8.36-35.906-11.778 22.969 16.856 44.852 35.157 65.43 54.903"/><path d="m232.05 270.2c3.172-11.855 6.758-23.593 10.723-35.195-7.207 8.809-14.102 17.871-20.665 27.168l9.942 8.027"/><path d="m271.73 226.19c3.379-11.582 7.129-23.066 11.329-34.375-9.981 9.532-19.571 19.414-28.79 29.707 5.879 1.348 11.7 2.911 17.461 4.668"/><path d="m221.01 323.14c2.285-14.317 5.086-28.536 8.437-42.676-6.769 8.75-13.242 17.695-19.336 26.914 3.446 5.39 7.098 10.625 10.899 15.762"/><path d="m259.49 280.1c2.547-14.688 5.711-29.219 9.434-43.672-9.883 9.785-19.356 19.961-28.418 30.508l18.984 13.164"/><path d="m326.33 179.84c2.91-10.84 6.203-21.582 9.934-32.149-13.243 9.668-26.094 19.864-38.457 30.645 9.539 0 19.031 0.566 28.523 1.504"/><path d="m400.2 133.28c1.535-9.648 3.332-19.218 5.508-28.711-16.719 8.887-33.016 18.535-48.875 28.887 14.453-0.898 28.906-0.879 43.367-0.176"/><path d="m488.73 94.199c-0.774-8.3789-1.407-16.758-1.914-25.156-19.493 6.9922-38.672 14.902-57.442 23.711 19.785-0.7422 39.59-0.1758 59.356 1.4453"/><path d="m588.32 66.992c-3.574-7.6172-7.265-15.156-11.125-22.656-20.867 4.1407-41.511 9.2969-61.914 15.352 24.493 0.9375 48.86 3.3984 73.039 7.3047"/><path d="m1045.8 672.68c4.28-13.11 7.97-26.395 11.14-39.797-7.83 9.531-16.03 18.75-24.56 27.64 4.6 3.926 9.1 7.953 13.42 12.157"/><path d="m1091.4 529.02c1.04-16.641 1.39-33.321 0.99-49.969-4.5 5.32-9.23 10.484-14.11 15.496 5.03 11.223 9.45 22.707 13.12 34.473"/><path d="m1105.9 505.81c0.65-14.875 0.69-29.786 0.17-44.696-2.74 3.965-5.6 7.84-8.6 11.629 3.34 10.887 6.22 21.914 8.43 33.067"/><path d="m1084.2 587.54c2.68-14.785 4.68-29.664 6.1-44.555-4.73 6.938-9.75 13.711-14.94 20.309 3.4 7.914 6.39 15.984 8.84 24.246"/><path d="m1100.7 559.43c2.07-13.598 3.55-27.258 4.55-40.953-2.95 5.414-6.09 10.746-9.38 15.992 2.04 8.242 3.64 16.551 4.83 24.961"/><path d="m1072.5 636.99c3.64-12.719 6.84-25.523 9.54-38.492-5.17 7.926-10.65 15.648-16.37 23.188 2.56 4.972 4.85 10.07 6.83 15.304"/><path d="m1091.3 606.15c3.01-12.066 5.6-24.222 7.74-36.461-3.4 6.418-6.97 12.735-10.72 18.957 1.27 5.786 2.32 11.61 2.98 17.504"/><path d="m1055.7 684.94c4.28-10.391 8.18-20.879 11.73-31.532-5.72 8.313-11.77 16.446-17.98 24.375 2.17 2.293 4.28 4.668 6.25 7.157"/><path d="m1076.9 653.04c3.72-10.23 7.08-20.586 10.11-31.023-3.95 7.043-8.15 13.964-12.52 20.781 0.99 3.387 1.8 6.804 2.41 10.242"/><path d="m868.95 840.43c2.434-7.434 4.551-14.973 6.399-22.575-18.477 9.442-37.403 17.969-56.68 25.621 16.805-0.066 33.594-1.031 50.281-3.046"/><path d="m934.92 801.38c4.102-8.699 7.82-17.531 11.191-26.516-15 10.59-30.488 20.496-46.386 29.696 11.797-0.434 23.515-1.454 35.195-3.18"/><path d="m986.44 760.96c4.735-9.645 9.102-19.477 13.067-29.473-11.367 10.5-23.184 20.489-35.391 30.004 7.461 0.137 14.91 0.016 22.324-0.531"/><path d="m1026.4 721.18c4.68-10.223 9-20.567 12.94-31.102-8.2 9.559-16.73 18.809-25.57 27.735 4.18 1.199 8.4 2.343 12.63 3.367"/><path d="m860.88 860.96c2.332-5.094 4.473-10.316 6.367-15.59-16.465 8.196-33.301 15.633-50.429 22.324 14.804-1.484 29.5-3.703 44.062-6.734"/><path d="m921.23 826.62c3.847-6.297 7.421-12.734 10.742-19.293-13.828 9.395-28.086 18.188-42.668 26.387 10.754-1.84 21.398-4.176 31.926-7.094"/><path d="m970.11 790.29c4.571-7.363 8.836-14.879 12.871-22.516-10.996 9.606-22.375 18.766-34.093 27.504 7.179-1.332 14.269-2.976 21.222-4.988"/><path d="m1009.7 753.4c4.67-8.137 9.05-16.434 13.2-24.856-8.33 9.106-16.96 17.914-25.852 26.402 4.232-0.343 8.452-0.836 12.652-1.546"/><path d="m798.98 886.64c0.293-4.188 0.45-8.379 0.528-12.586-14.699 5.097-29.551 9.66-44.57 13.66l-3.868 2.472c16.016-0.371 32.012-1.554 47.91-3.546"/><path d="m641.09 884.52c19.969-1.989 53.926-6.786 66.023-10.082l8.321 15.523c-15.235-0.644-50.848 0.492-74.344-5.441"/><path d="m562.84 887.33c18.769 1.063 50.695 0.25 57.863-1.027l16.621 13.285c-15.234-0.66-49.824-4.594-74.484-12.258"/><path d="m477.31 874.7c18.566 4.176 46.593 11.61 60.304 13.008l25.176 17.09c-18.848-5.121-49.101-13.313-85.48-30.098"/><path d="m737.57 869.56c27.227-4.41 50.438-15.922 61.25-20.067l0.684 17.61c-27.559-0.715-38.828 4.402-61.934 2.457"/><path d="m664.53 902.79 54.102-8.574 6.426 8.527-60.528 0.047"/><path d="m205.37 501.23 12.266-11.531 14.629 57.567-26.895-46.036"/><path d="m495.12 894.98-29.598-8.875s30.293 14.383 47.5 19.907c-5.234-2.711-17.902-11.032-17.902-11.032"/><path d="m646.28 907.41 7.891 6.399-59.649-4.305 51.758-2.094"/><path d="m571.17 910.4 11.766 8.066-61.368-16.816 49.602 8.75"/><path d="m222.58 574.56 26.816 43.312-14.128-49.492-12.688 6.18"/><path d="m255.99 638.31 16.992 43.621-28.554-44.567 11.562 0.946"/><path d="m292.79 709.39 39.051 7.843 26.359 44.129s-29.961-17.16-65.41-51.972"/><path d="m512.75 846.59c27.148 4.23 78.105 5.426 78.105 5.426l22.461 24.672s-51.933-9.805-100.57-30.098"/><path d="m486.28 844.88s-36.015-6.621-64.375-15.317c35.945 22.696 104.2 47.231 104.2 47.231l-39.824-31.914"/><path d="m371.57 780.31-46.765-16.028s21.336 5.5 0 0c37.48 30.871 66.328 48.989 76.914 55.02-17.824-20.106-30.149-38.992-30.149-38.992"/><path d="m365.74 811.65c29.578 20.696 57.332 36.051 67.891 42.082-7.813-6.074-25.695-22.773-25.695-22.773s-20.196-8.863-42.196-19.309"/><path d="m422.12 855.49c29.57 20.688 49.207 26.285 59.773 32.309-6.335-4.402-28.035-20.067-28.035-20.067s-9.726-1.796-31.738-12.242"/><path d="m385.33 840.89s14.207 5.699-7.812-4.731c29.609 20.676 33.464 19.946 44.031 25.996-6.336-4.433-20.75-15.906-20.75-15.906l-15.469-5.359"/><path d="m269.73 702.66 13.547 4.512 22.911 38.922-36.458-43.434"/><path d="m355 807.39 25.652 23.824s-22.82-14.672-44.511-34.082c7.121 3.515 18.859 10.258 18.859 10.258"/><path d="m314.45 758.9 25.508 33.425-38.945-40.015 13.437 6.59"/><path d="m1083.9 395.47c-3.3-18.203-7.36-36.231-12.25-54.063-5.38 0.567-10.76 1.211-16.09 1.953 10.48 16.797 20.01 34.141 28.34 52.11"/><path d="m552.79 923.94 13.113 1.059 10.032 2.898-23.145-3.957"/><path d="m1069.9 486.82c-0.98-20.406-2.93-40.742-5.83-60.918-7.83 4.532-15.74 8.887-23.77 13.086 10.85 15.348 20.82 31.258 29.6 47.832"/><path d="m1091.8 465.27c-1-17.851-2.76-35.664-5.29-53.378-4.73 3.125-9.51 6.191-14.38 9.179 7.41 14.336 14.05 29.059 19.67 44.199"/><path d="m1098.2 387.58c-2.87-15.84-6.37-31.601-10.53-47.226-3.36 0.097-6.73 0.293-10.08 0.527 7.72 15.195 14.63 30.762 20.61 46.699"/><path d="m1105.5 448.92c-0.97-15.719-2.65-31.363-4.96-46.93-2.85 2.168-5.79 4.278-8.72 6.328 5.24 13.321 9.86 26.836 13.68 40.602"/><path d="m1113.8 436.93c-1.05-13.965-2.59-27.891-4.7-41.719l-5.51 4.433c3.97 12.266 7.38 24.707 10.21 37.286"/><path d="m1119.2 427.72c-1.06-12.52-2.53-24.981-4.44-37.402l-3.57 3.144c3.14 11.309 5.79 22.715 8.01 34.258"/><path d="m1107 382.44c-2.56-14.062-5.63-28.007-9.2-41.816-2.19-0.176-4.4-0.273-6.6-0.293 5.95 13.809 11.2 27.852 15.8 42.109"/><path d="m1112.9 378.93c-2.31-12.539-4.98-25-8.11-37.363-1.47-0.293-2.95-0.528-4.41-0.723 4.7 12.519 8.86 25.215 12.52 38.086"/><path d="m973.45 553.5c-1.816-26.391-4.902-52.711-9.121-78.859-15.937 6.758-66.035 26.246-66.035 26.246s57.617 38.258 75.156 52.613"/><path d="m973.88 639.66c1.277-22.226 1.426-44.449 0.625-66.707-16.641 9.805-33.633 19-50.86 27.703l-15.82 5.735c20.039 8.226 52.676 22.621 66.055 33.269"/><path d="m965.37 708.75c3.242-17.129 5.606-34.371 7.207-51.695-17.578 12.121-35.742 23.371-54.336 33.863 15.555 6.289 31.289 12.277 47.129 17.832"/><path d="m817.33 736.39s49.219-20.254 68.215-30.903l0.898 43.539c-18.418-7.3-45.734-12.171-69.113-12.636"/><path d="m806.25 650.44c29.894-10.871 53.976-22.89 75.871-32.961l5.41 60.102c-25.586-13.574-64.66-25.594-81.281-27.141"/><path d="m661.36 691.22c32.207-7.391 90.235-20.43 112.13-30.496l13.27 68.906c-24.696-8.242-75.723-21.789-125.4-38.41"/><path d="m520.14 715.27c35.773-4.258 85.851-6.25 107.76-16.336l25.996 65.461c-24.687-8.239-87.226-28.942-133.76-49.125"/><path d="m418.94 272.81c20.145-7.52 31.641-14.512 85.125-34.122l13.957 71.465c-19.101-9.863-68.535-30.625-99.082-37.343"/><path d="m343.52 526.25 82.003-30.516 29.649 97.637-111.65-67.121"/><path d="m463.4 619.88 37.286 84.25s-43.594-16.855-124.49-72.859c29.7-3.961 87.207-11.391 87.207-11.391"/><path d="m930.86 344.51c-8.633-26.446-18.386-52.52-29.297-78.145-22.558 1.485-45.066 3.711-67.519 6.465 33.574 22.109 65.976 45.898 96.816 71.68"/><path d="m695.47 776.36c24.894-4.039 80.832-24.742 93.234-29.472l6.113 47.589c-27.558-0.714-68.086-8.847-99.347-18.117"/><path d="m284.89 548.37 64.914 61.367-21.301-78.355-43.613 16.988"/><path d="m267.59 454.56 41.687-27.758 13.489 83.558-55.176-55.8"/><path d="m587.98 337.73c-23.086-8.359-13.527-4.336-25.187-8.828 40.187-8.242 120.09-31.308 120.09-31.308l14.304 50.351s-83.914-9.551-109.21-10.215"/><path d="m745.63 406.27c16.457-4.493 20.812-5.997 44.699-11.075 8.887 0 45.899 0.645 45.899 0.645l23.632 83.336c-21.855-20.059-92.461-58.317-114.23-72.906"/><path d="m891.19 395.62c23.007 17.285 45.437 35.313 67.07 54.301-3.399-17.094-7.91-35.844-12.238-52.758-17.5-0.82-41.688-1.328-54.832-1.543"/><path d="m937.69 366.15c-15.586 3.516-25.625 5.86-41.191 9.551 12.031 1.582 35.488 7.52 45.574 8.77-1.629-6.035-2.644-12.305-4.383-18.321"/><path d="m506.57 401.48c6.993-0.039 28.938-1.621 28.938-1.621l4.902 19.082c-6.445-3.32-21.203-11.25-33.84-17.461"/><path d="m336.56 421.8c24.629-5.391 70.195-10.977 70.195-10.977l11.766 60.633s-74.188-45.555-81.961-49.656"/><path d="m366.54 336.56-31.309-18.868 57.93-33.535 2.578 50.078-29.199 2.325"/><path d="m295.25 342.42 9.805-7.617 0.136 6.445-9.941 1.172"/><path d="m241.62 348.85-13.348-13.262 27.227-30.664-4.113 42.695-9.766 1.231"/><path d="m217.44 346.11-0.976 7.149-5.34 0.996 6.316-8.145"/><path d="m190.09 341.5 5.066 15.43 1.348-0.332 6.594-38.204-13.008 23.106"/><path d="m180.88 359.92 2.656-0.664 1.563-7.715-4.219 8.379"/><path d="m207.94 457.66 4.637-1.59 0.715 16.227-5.352-14.637"/><path d="m188.64 466.64 8.625 20.91-1.563-24.207-7.062 3.297"/><path d="m180.6 487.85c-0.469-5.266-0.899-10.559-1.27-15.832-1.633 1-4.277 2.023-5.793 3.324-0.195 0.469-0.359 0.933-0.574 1.402 1.738 6.598 7.058 23.426 9.148 29.922l-1.511-18.816"/><path d="m215.46 685.95c-79.844-18.629-260.82-109.12-204.93-223.57 52.226-106.94 412.53-160.57 899.56-74.516-268.81-5.332-461.22-4.531-614.78 31.035-252.82 58.563-255.51 187.17-79.844 267.05"/></g></g></svg>
