<svg xmlns="http://www.w3.org/2000/svg" viewBox="0 0 104.97 105.88"><defs><style>.a{fill:#d1d3d4;}.b{fill:#18a2dc;}</style></defs><title>X</title><path class="a" d="M92.17,106.8a14.17,14.17,0,0,0,10-24.19L73.43,53.86l28.76-28.75a14.17,14.17,0,0,0-20-20L43.36,43.84a14.15,14.15,0,0,0,0,20l38.78,38.77a14.13,14.13,0,0,0,10,4.15" transform="translate(-1.37 -0.92)"/><path class="b" d="M5.52,5.07a14.18,14.18,0,0,0,0,20L34.29,53.86,5.52,82.61a14.17,14.17,0,0,0,20.05,20L64.36,63.88l10-10L25.57,5.07a14.18,14.18,0,0,0-20,0" transform="translate(-1.37 -0.92)"/></svg>