<?xml version="1.0" encoding="utf-8"?>
<!-- Generator: Adobe Illustrator 28.3.0, SVG Export Plug-In . SVG Version: 6.00 Build 0)  -->
<svg version="1.1"
	 id="svg7131" xmlns:dc="http://purl.org/dc/elements/1.1/" xmlns:cc="http://creativecommons.org/ns#" xmlns:rdf="http://www.w3.org/1999/02/22-rdf-syntax-ns#" xmlns:inkscape="http://www.inkscape.org/namespaces/inkscape" xmlns:sodipodi="http://sodipodi.sourceforge.net/DTD/sodipodi-0.dtd" xmlns:svg="http://www.w3.org/2000/svg"
	 xmlns="http://www.w3.org/2000/svg" xmlns:xlink="http://www.w3.org/1999/xlink" x="0px" y="0px" viewBox="0 0 301 91.9"
	 style="enable-background:new 0 0 301 91.9;" xml:space="preserve">
<style type="text/css">
	.st0{fill:#FFFFFF;}
</style>
<sodipodi:namedview  bordercolor="#666666" borderopacity="1.0" fit-margin-bottom="0" fit-margin-left="0" fit-margin-right="0" fit-margin-top="0" id="base" inkscape:current-layer="layer1" inkscape:cx="150.16574" inkscape:cy="45.58011" inkscape:document-units="px" inkscape:pagecheckerboard="0" inkscape:pageopacity="0.0" inkscape:pageshadow="2" inkscape:window-height="847" inkscape:window-maximized="0" inkscape:window-width="1312" inkscape:window-x="0" inkscape:window-y="25" inkscape:zoom="3.0166667" pagecolor="#ffffff" showgrid="false" units="px">
	</sodipodi:namedview>
<g id="layer1" transform="translate(-312.93684,-555.14853)" inkscape:groupmode="layer" inkscape:label="Layer 1">
	<path id="path6811" inkscape:connector-curvature="0" class="st0" d="M460.6,559.2l-34.2,57.5c-3.6,5.9-5.5,11.9-6.1,17.7h-13.4
		c0.9-7.3,3.8-14.2,9.6-24.1l23.9-40.1c4.8-7.9,9.6-10.8,18.2-10.8L460.6,559.2L460.6,559.2L460.6,559.2z"/>
	<path id="path6815" inkscape:connector-curvature="0" class="st0" d="M470.6,590.1c-17.3,0-28,10.2-37.4,32.3
		c-2.4,5.5-3.7,12.4,4.3,12.3c4.5-0.1,12.2-2.6,17.6-6.3c-0.5,1.8-0.7,4.3-0.5,5.8h12.2c0.5-4.8,2.3-10.7,6.3-17.9l15.2-25.4
		C482.4,590.4,476.5,590.1,470.6,590.1 M457.9,619.5c-2.5,2.4-7.3,5.8-11.4,5.9c-2.8-0.1-3-2.8-1.1-6.4
		c7.2-13.9,14.9-21.2,24.2-21.1h1.7L457.9,619.5z"/>
	<path id="path6819" inkscape:connector-curvature="0" class="st0" d="M595.9,590.1c-17.3,0-28,10.2-37.4,32.3
		c-2.4,5.5-3.7,12.4,4.3,12.3c4.5-0.1,12.2-2.6,17.6-6.3c-0.5,1.8-0.7,4.3-0.5,5.8H592c0.4-4.8,2.3-10.7,6.3-17.9l15.2-25.4
		C607.7,590.4,601.8,590.1,595.9,590.1 M583.2,619.5c-2.5,2.4-7.3,5.8-11.4,5.9c-2.8-0.1-3-2.8-1.1-6.4
		c7.2-13.9,14.8-21.2,24.2-21.1h1.7L583.2,619.5z"/>
	<path id="path6823" inkscape:connector-curvature="0" class="st0" d="M556.2,646.6h-4c-5.1,0-9.7-3.5-11.1-8.4l-6.1-22.9l-11.3,19
		h-13l36.2-61.4c4.7-8,9.5-10.8,18.2-10.8h1.4l-24.1,40.7l18-12.4H575l-30.4,21L556.2,646.6L556.2,646.6z"/>
	<path id="path6827" inkscape:connector-curvature="0" class="st0" d="M436.7,555.6c-12.2,0-18.6,3.3-30.5,11.9l-40.6,29.2h-26
		c-7.5,0-13.6,0.3-18.3,4.8l-6.7,6.2c0,0,19.5-0.8,37.7-1.5l-38.9,28h16.8l39.8-28.7c7.7-0.3,13-0.5,13.1-0.5
		c9.2-0.2,14.4-8.4,14.4-8.4h-15.2l32.1-23.2l-23.9,38.6c-5.1,8.9-7.6,15.2-8.4,22h13.8c0.5-5.8,2.5-11.7,6.1-17.7l32.5-54.2
		c2.3-3.7,4.2-6.7,4.2-6.7L436.7,555.6L436.7,555.6z"/>
	<path id="path6831" inkscape:connector-curvature="0" class="st0" d="M501.4,602.5c-0.2,1.1,0.3,1.9,2.7,3.4l3.7,2.4
		c4,2.7,5.7,6.7,5.2,9.9c-1.4,9.1-8,16.4-22.3,16.4c-6.2,0-9-0.2-16.4-1.4l5.5-9.3c5.2,0.9,8,1.4,11.9,1.4c5.4,0,7.5-2.4,7.8-4.4
		c0.1-1.1-0.4-2.5-3-4.2l-3-2.1c-4.7-3.4-6-6.1-5.4-10.2c1.2-8,10.5-14.2,23.4-14.2c4.1,0,8.5,0.2,13.3,0.8l-5.2,8.8
		c-3.2-0.2-8.3-0.5-12-0.4C504,599.4,501.6,600.6,501.4,602.5"/>
</g>
</svg>
