<?xml version="1.0" encoding="utf-8"?>
<!-- Generator: Adobe Illustrator 28.3.0, SVG Export Plug-In . SVG Version: 6.00 Build 0)  -->
<svg version="1.1" id="Layer_1" xmlns="http://www.w3.org/2000/svg" xmlns:xlink="http://www.w3.org/1999/xlink" x="0px" y="0px"
	 viewBox="0 0 116 20" style="enable-background:new 0 0 116 20;" xml:space="preserve">
<style type="text/css">
	.st0{fill:#FFFFFF;}
</style>
<path class="st0" d="M98.9,14.5l3.3,0c0,0-0.7-0.3-0.8-0.9c0-1.1,0.2-2.5,0.4-3.6l1.3-5.1c-0.9-0.2-2.4-0.4-3.7-0.4
	c-5.8,0-8.7,3.5-8.7,6.8c0,2,1.5,3.3,3.7,3.3c1.6,0,3.2-0.6,4.4-2.4h0.1c-0.1,0.7-0.1,1.4-0.2,1.9C98.6,14.2,98.6,14.5,98.9,14.5z
	 M99.1,9c-0.6,2.5-2.3,3.8-3.7,3.8c-1.3,0-1.8-0.8-1.8-1.8c0-2.2,2.1-4.6,4.9-4.6c0.5,0,0.9,0,1.2,0.1L99.1,9L99.1,9z M92.1,4.7
	C92.1,4.7,92.1,4.7,92.1,4.7c0,0.1-4.5,9.9-4.5,9.9h-3.5c-0.3,0-0.3-0.3-0.3-0.3c-0.1-1.2-0.5-5.8-0.5-6.7h-0.1l-3.7,7h-3.2
	c-0.3,0-0.3-0.3-0.3-0.3l-0.5-7.8c-0.1-1.3-0.2-1.3-0.6-1.6c-0.1,0-0.1-0.1-0.1-0.1c0-0.1,0.1-0.1,0.1-0.1c0.1,0,2.1,0,2.1,0H78
	c0.1,0,0.1,0,0.1,0.1l0.2,7.7L82,4.7c0,0,0.1-0.1,0.3-0.1H85c0,0,0.1,0,0.1,0.1c0.1,1,0.9,7.1,0.9,7.7l2.4-6c0.5-1.1,0-1.5-0.1-1.6
	c0,0-0.1,0-0.1-0.1c0-0.1,0.1-0.1,0.2-0.1l3.7,0C92,4.5,92.1,4.6,92.1,4.7L92.1,4.7z M103.7,4.8c-0.1,0-0.1-0.1-0.1-0.1
	c0-0.1,0.1-0.2,0.2-0.2h3.2c0.1,0,0.1,0.1,0.1,0.1c0,0,0,0,0,0l0.9,4.6c0.2,1.1,0.4,1.8,0.5,2.5h0.1c0.3-0.6,0.6-1.3,1.2-2.4l1.6-3
	c0,0,0,0,0,0c0.5-1.1,0.1-1.6,0.1-1.6c0,0-0.1-0.1-0.1-0.1c0-0.1,0.1-0.2,0.2-0.2h3.5c0.1,0,0.2,0.1,0.2,0.2c0,0,0,0.1,0,0.1
	l-3.9,7.1c-1.5,2.4-2.7,4.1-4.4,5.5c-1.3,1-2.8,1.5-3.6,1.7c0,0,0,0-0.1,0c-0.1,0-0.1,0-0.1-0.1l-0.8-1.8c0,0,0,0,0,0
	c0-0.1,0-0.1,0.1-0.1c0.5-0.2,1.3-0.4,2-0.8c0.8-0.5,1.4-1.2,1.9-2c0.1-0.1,0.1-0.3,0.1-0.4l-1.8-7.3C104,4.9,103.7,4.8,103.7,4.8z
	 M59.1,14.6c-1.7,0-3.1-0.3-3.8-0.7c0,0,0,0,0,0l0.8-2.1c0,0,0,0,0-0.1c0.8,0.3,2.2,0.7,3.4,0.7c1.1,0,1.3-0.4,1.3-0.7
	c0-0.4-0.4-0.7-1.5-1.1c-1.2-0.4-2.7-1.1-2.7-2.6c0-2.1,2.1-3.4,5.4-3.4c1.2,0,2.3,0.2,3.1,0.5c0,0,0,0,0,0.1L64.2,7
	c0,0.1-0.1,0.2-0.1,0.2c0,0,0,0,0,0c-0.7-0.3-1.6-0.4-2.5-0.4c-1.1,0-1.3,0.4-1.3,0.7c0,0.2,0.2,0.6,1.6,1c1,0.3,2.9,1,2.9,2.6
	c0,2.1-2.1,3.5-5.4,3.5C59.2,14.6,59.1,14.6,59.1,14.6z M68.5,14.6c3.4,0,5.4-1.3,5.4-3.5c0-1.7-1.9-2.3-2.9-2.6
	c-1.4-0.5-1.6-0.8-1.6-1c0-0.3,0.2-0.7,1.3-0.7c0.9,0,1.8,0.1,2.5,0.4c0,0,0,0,0,0c0.1,0,0.1-0.1,0.1-0.2l0.7-1.9c0-0.1,0-0.1,0-0.1
	c-0.8-0.3-1.9-0.5-3.1-0.5c-3.3,0-5.4,1.3-5.4,3.4c0,1.4,1.6,2.2,2.7,2.6c1.1,0.4,1.5,0.7,1.5,1.1c0,0.2-0.2,0.7-1.3,0.7
	c-1.2,0-2.6-0.4-3.4-0.7c0,0,0,0,0,0.1l-0.8,2.1c0,0,0,0,0,0c0.8,0.4,2.2,0.7,3.8,0.7C68.3,14.6,68.5,14.6,68.5,14.6z M44.5,7.2
	l1.2-2.6c0,0,0-0.1,0-0.1c0,0,0,0-0.1,0c-0.1,0-0.2,0-0.3,0h-0.1C45.2,4.5,44.5,7.2,44.5,7.2z M45.6,4.5c-0.1,0-0.2,0-0.3,0h-0.1
	c-1.7,0-2.8,0.4-3.6,1.2l-0.2,0.2l0-0.3c0-0.2-0.1-0.5-0.2-0.6c-0.4-0.4-1.3-0.5-1.6-0.5h-1.7c-0.1,0-0.2,0.1-0.2,0.1
	c0,0.1,0,0.1,0.1,0.1c0,0,0,0,0,0c0,0,0,0,0,0c0.1,0,0.4,0.4,0.2,1.6c-0.1,0.4-0.3,1.5-1.1,4.5l-0.9,3.6c0,0,0,0,0,0c0,0,0,0,0.1,0
	h3.3c0,0,0.1,0,0.1-0.1l1-3.6c0.7-3,2.6-3.7,4.1-3.7L45.6,4.5C45.7,4.6,45.7,4.6,45.6,4.5C45.7,4.6,45.7,4.5,45.6,4.5L45.6,4.5z
	 M54.3,13.8c0.1,0,0.1-0.1,0.1-0.1l-0.2-2.1c0-0.1,0-0.1,0-0.1c0,0,0,0,0,0c-1,0.4-2.1,0.6-3.4,0.6c-1,0-1.8-0.2-2.3-0.5
	c-0.2-0.2-0.4-0.4-0.5-0.6l0-0.1l0.2,0c0.3,0,0.5,0,0.8,0c4.7,0,7-1,7-3.1c0-2.3-2.4-3.1-4.5-3.1c-4.6,0-7.1,3-7.1,5.8
	c0,2.8,1.9,4.3,5.4,4.3C50.3,14.6,52.5,14.5,54.3,13.8z M52.1,7.5L52.1,7.5c0,0.7-0.9,0.9-3.7,0.9h-0.1l0-0.1
	c0.1-0.6,0.9-1.6,2.5-1.6C51.7,6.6,52.1,7.1,52.1,7.5L52.1,7.5z M36.5,8.1c0,3.2-2.7,6.4-7.2,6.4c-1.1,0-1.9-0.2-2.3-0.4l0,0h-0.2
	l-0.3,1.2l-1,3.6c0,0.1,0,0.1-0.1,0.1H22c0,0-0.1,0-0.1,0l0.3-1.7h1.8c0.1,0,0.2-0.1,0.2-0.1c0.1-0.1,0-0.2,0-0.3l-1.4-2.3
	c0,0,0-0.1,0-0.1c0,0,0,0,0,0l0.1-0.5c0.6-2.5,1.8-7.5,1.8-7.5c0.3-1.4-0.2-1.6-0.2-1.6c0,0-0.1-0.1-0.1-0.1c0-0.1,0.1-0.1,0.1-0.1
	h1.8c0.5,0,1.3,0.1,1.8,0.6c0.2,0.2,0.2,0.5,0.2,0.9l-0.1,0.4l0.3-0.3c1-1,2.4-1.6,4-1.6C34.9,4.5,36.5,5.9,36.5,8.1L36.5,8.1z
	 M32.8,8.3c0-0.8-0.5-1.7-1.7-1.7c-1.5,0-2.8,1.3-3.2,3.2l-0.4,1.9l0.1,0c0.5,0.3,1,0.5,1.8,0.5C31.3,12.3,32.8,10.3,32.8,8.3
	L32.8,8.3z M18.7,4.5h-0.3c-0.1,0-0.2,0.1-0.2,0.1c0,0.1,0,0.1,0.1,0.1c0,0,0,0,0,0c0,0,0,0,0,0c0.1,0,0.5,0.4,0.2,0.7
	c-0.4,0.5-0.8,0.9-0.8,0.9l1.8,2.7l4.5-4.6L18.7,4.5L18.7,4.5z M23.3,16.4l-0.9-1.5l-5.9-9.3c-0.7-1-1.7-1-1.7-1l-3.2,0
	c-0.1,0-0.1,0.1-0.1,0.1c0,0,0,0,0,0c0,0.1,0,0.1,0.1,0.1l0,0c0.3,0.2,0.5,0.4,1.3,1.6c0.2,0.3,1.6,2.5,1.9,3l-1.9,2l-0.6,0.6H5
	c-0.4,0-0.3-0.3-0.3-0.3l0.7-2.6l3.3,0l0.7-2.5L6,6.6l0.7-2.9C6.8,3.4,7,3.4,7,3.4h4.5l0.7-2.5H0.7C0.6,0.9,0.6,1,0.6,1.1l0,0
	c0,0.1,0,0.1,0.1,0.1c0.6,0.4,2.1,1.2,1.3,5L0,14l0,0.1c-0.1,0.4,0.3,0.4,0.3,0.4h12.5c1,0,1.6-0.5,1.6-0.5c0.2-0.2,0.5-0.5,0.8-0.9
	l1.2-1.2c1.6,2.6,1.6,2.6,2.5,4.1c0.4,0.6,0.4,0.6,1.4,0.6h2.9C23.2,16.7,23.3,16.6,23.3,16.4C23.3,16.5,23.3,16.5,23.3,16.4
	C23.3,16.5,23.3,16.4,23.3,16.4L23.3,16.4z"/>
</svg>
