<?xml version="1.0" encoding="utf-8"?>
<!-- Generator: Adobe Illustrator 28.3.0, SVG Export Plug-In . SVG Version: 6.00 Build 0)  -->
<svg version="1.1" id="Layer_1" xmlns="http://www.w3.org/2000/svg" xmlns:xlink="http://www.w3.org/1999/xlink" x="0px" y="0px"
	 viewBox="0 0 190 30.2" style="enable-background:new 0 0 190 30.2;" xml:space="preserve">
<style type="text/css">
	.st0{fill:#FFFFFF;}
</style>
<g id="Layer_2_00000033337589884378545220000015811069773030567054_">
	<g id="Layer_1-2">
		<path class="st0" d="M187,14.2c-1.7,0-3-1.3-3-3s1.3-3,3-3s3,1.3,3,3S188.7,14.2,187,14.2 M187,8.6c-1.5,0-2.7,1.2-2.7,2.6
			c0,1.5,1.2,2.7,2.6,2.7c1.5,0,2.7-1.2,2.7-2.6c0,0,0,0,0,0C189.6,9.8,188.5,8.6,187,8.6 M187.8,12.8l-0.8-1.3h-0.5v1.3h-0.4V9.6h1
			c0.5,0,1,0.4,1,0.9c0,0.4-0.3,0.8-0.7,0.9l0.8,1.4H187.8z M187.1,9.9h-0.6v1.2h0.6c0.3,0,0.6-0.2,0.7-0.5c0,0,0,0,0-0.1
			C187.7,10.2,187.5,9.9,187.1,9.9C187.1,9.9,187.1,9.9,187.1,9.9 M144.4,8.3c-0.1,0-0.1,0-1,0.1s-2.7,0.1-6.2,0.1H133
			c-3.5,0-5.3,0-6.2-0.1s-0.9-0.1-1-0.1c-0.4,0-0.4,0.3-0.4,1.1v3.1c0,0.2,0,0.6,0.3,0.6s0.4-0.1,1.1-1.4c0.4-0.9,1.2-2.1,5.9-2.2
			c0.5,0,0.7,0.1,0.7,0.9v15.9c0,1.3,0,2.3-1.7,2.4c-0.7,0.1-1.2,0.1-1.2,0.6s0.4,0.5,0.7,0.5c0.6,0,3.4-0.1,4-0.1
			c1.1,0,2.9,0.1,4.1,0.1c0.3,0,0.7,0,0.7-0.5s-0.5-0.5-1.2-0.6c-1.7-0.1-1.7-1-1.7-2.4V10.7c0-0.9,0.1-1.1,1.1-1.1
			c4.3,0.1,5,1.3,5.4,2.2c0.6,1.3,0.7,1.4,1.1,1.4s0.3-0.4,0.3-0.6V9.4C144.9,8.6,144.9,8.3,144.4,8.3 M107.4,24.4
			c-0.3,0-0.4,0.1-1,1.3c-0.9,2-3,3.2-5.1,2.9c-2.9,0-3.6-0.4-3.6-2.8v-5.9c0-1,0.3-1,1.9-1c2.8,0,3.8,0,4.5,2.7
			c0.2,0.6,0.4,0.8,0.6,0.8c0.4,0,0.4-0.5,0.4-0.7S105,20.3,105,20c0-0.8,0.2-4.3,0.2-4.8s-0.2-0.5-0.4-0.5s-0.3,0.1-0.5,0.5
			c-0.6,1.8-0.9,2.6-4.7,2.6c-2,0-2-0.3-2-1.4v-5c0-1.7,0.1-2,1.8-2c4.9,0,5.7,1.3,6.1,2.2c0.6,1.3,0.7,1.4,1.1,1.4s0.3-0.4,0.3-0.6
			V9.4c0-0.8,0-1.1-0.4-1.1c-0.3,0-0.7,0.1-1,0.1c-0.9,0-2.7,0.1-6.2,0.1h-1.7c-2.9,0-4.4,0-5.1-0.1c-0.3,0-0.6,0-0.9-0.1
			c-0.2,0-0.7,0-0.7,0.5s0.5,0.6,1.2,0.6c1.7,0.1,1.7,1,1.7,2.4v14.5c0,1.4,0,2.3-1.7,2.4c-0.7,0.1-1.2,0.1-1.2,0.6s0.4,0.5,0.7,0.5
			s0.5,0,1.1-0.1s1.4-0.1,2.8-0.1h0.4l3.8,0.1c2,0,4.4,0.1,6.1,0.1c1,0,1.3-0.4,1.4-1c0.1-1.3,0.5-3.5,0.5-3.9
			C107.8,24.7,107.7,24.4,107.4,24.4 M163.3,24.4c-0.3,0-0.4,0.1-1,1.3c-0.9,2-3,3.2-5.1,2.9c-2.9,0-3.6-0.4-3.6-2.8v-5.9
			c0-1,0.3-1,1.9-1c2.8,0,3.8,0,4.5,2.7c0.2,0.6,0.4,0.8,0.6,0.8s0.4-0.5,0.4-0.7S161,20.2,161,20c0-0.8,0.2-4.3,0.2-4.8
			s-0.2-0.5-0.4-0.5s-0.4,0.1-0.5,0.5c-0.6,1.8-0.9,2.6-4.7,2.6c-2,0-2-0.3-2-1.4v-5c0-1.7,0.1-2,1.9-2c4.9,0,5.7,1.3,6.1,2.2
			c0.6,1.3,0.7,1.4,1.1,1.4s0.3-0.4,0.3-0.6V9.4c0-0.8,0-1.1-0.4-1.1c-0.3,0-0.7,0.1-1,0.1c-0.9,0-2.7,0.1-6.2,0.1h-1.6
			c-2.9,0-4.4,0-5.1-0.1c-0.3,0-0.6,0-0.9-0.1c-0.2,0-0.7,0-0.7,0.5s0.5,0.6,1.2,0.6c1.7,0.1,1.7,1,1.7,2.4v14.5
			c0,1.4,0,2.3-1.7,2.4c-0.7,0.1-1.2,0.1-1.2,0.6s0.4,0.5,0.7,0.5s0.5,0,1.1-0.1s1.4-0.1,2.8-0.1h0.4l3.8,0.1c2,0,4.4,0.1,6.1,0.1
			c1,0,1.3-0.4,1.4-1c0.1-1.3,0.5-3.5,0.5-3.9C163.8,24.7,163.6,24.4,163.3,24.4 M118.2,16.6c-2.8-1.2-4.8-2-4.8-4.5
			c0.1-1.9,1.7-3.4,3.6-3.3c0.1,0,0.1,0,0.2,0c2.9,0,3.5,2,4,3.3c0.3,1.1,0.5,1.3,0.8,1.3s0.5-0.3,0.5-1.1c0-3.1,0-3.4-0.4-3.6
			c-1.5-0.5-3-0.8-4.6-0.8c-4.4,0-6.9,2.8-6.9,6c0,3.7,2.8,5.1,5.6,6.3c2.5,1.1,4.9,2.5,4.9,5.2s-2.8,3.8-4.2,3.8
			c-2.5,0-4.9-2.1-5.6-5.1c-0.1-0.3-0.1-0.7-0.4-0.7s-0.4,0.5-0.4,0.6c0,1.1,0.1,2.1,0.2,3.2c0.1,0.9,0.2,1.6,0.6,1.9
			c1.6,0.8,3.3,1.2,5.1,1.1c4.7,0,7.5-3.2,7.5-7.1S120.2,17.5,118.2,16.6 M35.9,7.9c-6.7,0-11.8,4.8-11.8,11.1
			c0,6.7,5.6,11.2,11.7,11.2c6.4,0,11.6-5.2,11.6-11.5C47.4,12.7,42.4,7.9,35.9,7.9 M36,29.3c-4.6,0-7.9-5.4-7.9-11
			c0-4.9,3.1-9.4,7.3-9.4c5.4,0,7.9,5.8,7.9,10C43.3,23.9,40.8,29.3,36,29.3 M21.9,0c-0.5,0.1-1,0.1-1.4,0.1c-1.3,0-3.9,0.1-9,0.1
			h-1.1c-4.9,0-6.7,0-8-0.1C1.9,0.1,1.4,0.1,1,0C0.6,0,0,0,0,0.7s0.7,0.8,1.8,0.8C4.3,1.7,4.3,3,4.3,5.1v20.5c0,1.6,0,2.8-2.1,2.9
			c-0.9,0.1-1.5,0.1-1.5,0.7s0.5,0.6,0.9,0.6c0.8,0,4.3-0.2,5-0.2c1.4,0,3.7,0.2,5,0.2c0.3,0,0.9,0,0.9-0.6s-0.6-0.7-1.5-0.7
			c-2.1-0.1-2.1-1.3-2.1-3v-7.6c0-1.4,0-2,0.8-2.2c1.4-0.1,2.9-0.2,4.3-0.1c1.2,0,4.4,0,5.1,2.7c0.1,0.2,0.4,1.5,0.5,1.9
			s0.3,0.8,0.8,0.8s0.6-0.6,0.6-0.9l-0.2-2.3c-0.1-1.1-0.1-2-0.1-2.4c0-0.7,0.1-4.1,0.1-4.8c0-0.5-0.1-0.8-0.6-0.8s-0.7,0.4-0.8,0.8
			c-0.6,2.6-1.4,3.7-5.4,3.7c-0.7,0-3.7,0-4.4-0.1s-0.8-0.1-0.8-2.8V4.2c0-2.3,0.8-2.4,2.5-2.4c7.7,0,8.4,1.1,9.8,4.4
			c0.2,0.4,0.4,1,0.9,1s0.5-0.8,0.5-0.9V0.9C22.7,0.2,22.7,0,21.9,0 M67.4,28.8c-1-0.1-1.4-1-2.1-2.2L62,20.7
			c-0.8-1.4-1.2-1.6-1.7-1.9c1.2-0.2,4.7-1.1,4.7-5.1c0-1.2-0.5-5.4-6.6-5.4c-1,0-5.6,0.1-6.5,0.1c-0.4,0-2.1-0.1-2.4-0.1
			c-1.1,0-1.3,0-1.3,0.5s0.5,0.5,1.2,0.6c1.7,0.1,1.7,1,1.7,2.4v14.5c0,1.4,0,2.3-1.7,2.5c-0.7,0-1.2,0.1-1.2,0.5s0.5,0.5,0.7,0.5
			c0.6,0,3.4-0.1,4-0.1c0.1,0,3.5,0.1,4.1,0.1c0.3,0,0.7,0,0.7-0.5s-0.5-0.5-1.2-0.6c-1.7-0.1-1.7-1-1.7-2.5v-6.2
			c0-0.6,0.1-0.8,0.7-0.8c1.5,0,1.7,0.1,2.5,1.6l4.1,7.8c0.4,0.7,0.5,1,1.1,1h4.5c0.2,0,0.6-0.1,0.6-0.4S68.1,28.9,67.4,28.8
			 M56.5,18.5c-1.7,0-1.7-0.1-1.7-1.3v-5.8c0-1.3,0-2.2,1.6-2.2c4.2,0,4.7,3.7,4.7,4.9C61.1,18.5,57.7,18.5,56.5,18.5 M88.9,28.8
			c-0.9-0.1-1.4-1-2.1-2.2l-3.3-5.9c-0.8-1.4-1.2-1.6-1.7-1.9c1.2-0.2,4.7-1.1,4.7-5.1c0-1.2-0.5-5.4-6.6-5.4c-1,0-5.6,0.1-6.5,0.1
			c-0.4,0-2.1-0.1-2.4-0.1c-1.1,0-1.3,0-1.3,0.5s0.5,0.5,1.2,0.6c1.7,0.1,1.7,1,1.7,2.4v14.5c0,1.4,0,2.3-1.7,2.5
			c-0.7,0-1.2,0.1-1.2,0.5s0.4,0.5,0.7,0.5c0.6,0,3.4-0.1,4-0.1c0.1,0,3.5,0.1,4.1,0.1c0.3,0,0.7,0,0.7-0.5s-0.5-0.5-1.2-0.6
			c-1.7-0.1-1.7-1-1.7-2.5v-6.2c0-0.6,0.1-0.8,0.7-0.8c1.5,0,1.7,0.1,2.5,1.6l4.2,7.8c0.4,0.7,0.5,1,1.1,1h4.5
			c0.2,0,0.6-0.1,0.6-0.4S89.6,28.9,88.9,28.8 M78,18.5c-1.7,0-1.7-0.1-1.7-1.3v-5.8c0-1.3,0-2.2,1.6-2.2c4.2,0,4.7,3.7,4.7,4.9
			C82.6,18.5,79.2,18.5,78,18.5 M184.9,28.8c-1-0.1-1.4-1-2.1-2.2l-3.3-5.9c-0.8-1.4-1.2-1.6-1.6-1.9c1.2-0.2,4.7-1.1,4.7-5.1
			c0-1.2-0.5-5.4-6.6-5.4c-1,0-5.6,0.1-6.5,0.1c-0.4,0-2.1-0.1-2.4-0.1c-1.1,0-1.3,0-1.3,0.5s0.5,0.5,1.2,0.6c1.7,0.1,1.7,1,1.7,2.4
			v14.5c0,1.4,0,2.3-1.7,2.5c-0.7,0-1.2,0.1-1.2,0.5s0.4,0.5,0.7,0.5c0.6,0,3.4-0.1,4-0.1c0.1,0,3.5,0.1,4.1,0.1
			c0.3,0,0.7,0,0.7-0.5s-0.5-0.5-1.2-0.6c-1.7-0.1-1.7-1-1.7-2.5v-6.2c0-0.6,0.1-0.8,0.6-0.8c1.6,0,1.7,0.1,2.5,1.6l4.1,7.8
			c0.4,0.7,0.5,1,1.1,1h4.5c0.2,0,0.6-0.1,0.6-0.4S185.6,28.9,184.9,28.8 M174,18.5c-1.7,0-1.7-0.1-1.7-1.3v-5.8
			c0-1.3,0-2.2,1.6-2.2c4.2,0,4.7,3.7,4.7,4.9C178.6,18.5,175.2,18.5,174,18.5"/>
	</g>
</g>
</svg>
