<?xml version="1.0" encoding="utf-8"?>
<!-- Generator: Adobe Illustrator 28.3.0, SVG Export Plug-In . SVG Version: 6.00 Build 0)  -->
<svg version="1.1" id="Layer_1" xmlns="http://www.w3.org/2000/svg" xmlns:xlink="http://www.w3.org/1999/xlink" x="0px" y="0px"
	 viewBox="0 0 711.3 731.3" style="enable-background:new 0 0 711.3 731.3;" xml:space="preserve">
<style type="text/css">
	.st0{fill:#FFFFFF;}
</style>
<g id="Layer_2_00000054947125063961348370000014875470003928403635_">
	<g id="Layer_1-2">
		<path class="st0" d="M501.2,521c26.9,46.7,53.5,92.8,80.1,138.9c-117.7,90.1-300.8,101-436.4-2.8
			c-156-119.5-181.6-323.4-98.1-470.2C142.9,18.1,322.6-19.2,438.4,8.1c-3.1,6.8-72.5,150.6-72.5,150.6s-5.5,0.4-8.6,0.4
			c-34.2,1.4-59.7,9.4-87,23.5c-60.8,31.7-102,91.6-109.8,159.8c-4,34,0.7,68.6,13.7,100.3c11,26.8,26.6,50.6,47.4,70.8
			c32,30.9,70.1,50,114.2,56.3c41.8,6,82,0.1,119.7-18.9c14.1-7.1,26.1-14.9,40.2-25.7C497.5,524.1,499.1,522.7,501.2,521z"/>
		<path class="st0" d="M501.5,111.6c-6.8-6.7-13.2-12.9-19.5-19.2c-3.8-3.7-7.4-7.6-11.2-11.2c-1.4-1.3-3-3.1-3-3.1s1.3-2.8,1.9-3.9
			c7.4-14.8,18.9-25.6,32.6-34.2c15.1-9.6,32.8-14.5,50.7-14c22.9,0.5,44.2,6.2,62.2,21.5c13.3,11.3,20.1,25.8,21.3,42.9
			c2,29-10,51.2-33.8,66.7c-14,9.1-29.1,16.2-44.2,24.5c-8.3,4.6-15.5,8.7-23.7,17c-7.2,8.4-7.5,16.3-7.5,16.3l108.5-0.1v48.3H468.3
			c0,0,0-3.3,0-4.7c-0.6-23.7,2.1-46.1,13-67.6c10-19.8,25.5-34.3,44.2-45.4c14.4-8.6,29.5-15.9,43.9-24.4
			c8.9-5.3,15.2-13,15.1-24.2c0-9.6-7-18.2-17-20.8c-23.6-6.4-47.6,3.8-60.1,25.4C505.7,104.4,503.8,107.6,501.5,111.6z"/>
		<polygon class="st0" points="711.3,469.6 619.9,311.8 439,311.8 347,471.3 529.2,471.3 619.1,628.4 		"/>
	</g>
</g>
</svg>
