<?xml version="1.0" encoding="utf-8"?>
<!-- Generator: Adobe Illustrator 28.3.0, SVG Export Plug-In . SVG Version: 6.00 Build 0)  -->
<svg version="1.1" id="Layer_1" xmlns="http://www.w3.org/2000/svg" xmlns:xlink="http://www.w3.org/1999/xlink" x="0px" y="0px"
	 viewBox="0 0 200 45.5" style="enable-background:new 0 0 200 45.5;" xml:space="preserve">
<style type="text/css">
	.st0{fill:#FFFFFF;}
</style>
<g id="Layer_2_00000183233382421963206400000014587744257606277774_">
	<g id="Layer_1-2">
		<path class="st0" d="M199,14.8l-0.6,6.9h-2.8c-4.5,0-6.9,3.6-6.9,7.1v15.6h-8V14.8h7.6l0.2,3.7c1.6-2.5,4.4-3.7,7.8-3.7H199z"/>
		<path class="st0" d="M143.6,44.4h-8V28.7c0-3.3-0.3-7.4-4.9-7.4c-4.4,0-6.2,3.2-6.2,6.9v16.1h-8V14.8h7.4l0.2,3.8
			c1.6-2.5,4.5-4.5,8.9-4.5c8.1,0,10.6,5.8,10.6,11.7L143.6,44.4z"/>
		<path class="st0" d="M113,37.5l-0.6,6.7c-1.9,0.5-3.8,0.7-5.7,0.7c-7.5,0-9.7-3.5-9.7-10.4V6.4h8v8.3h8l-0.6,6.9H105v12.2
			c0,2.8,0.8,4.3,3.6,4.3C110.1,38.2,111.6,37.9,113,37.5z"/>
		<path class="st0" d="M94.4,14.8l-0.6,6.9h-2.2c-4.5,0-6.7,3.6-6.7,7.1v15.6h-8V14.8h7.6l0.2,3.7c1.6-2.5,4.4-3.7,7.8-3.7H94.4z"/>
		<path class="st0" d="M40.8,41.1c-5.5,3.1-11.7,4.6-18,4.4C9.6,45.1,0,36.8,0,22.9C0,9.1,9.7,0.2,22.8,0c6.7-0.1,12.7,1.6,17.3,5.7
			l-5.6,5.7c-2.9-2.5-7.1-3.9-12.2-3.7C14,8.1,9,14.2,8.9,22.4c-0.1,9,5.4,15.2,14,15.4c3.2,0.2,6.5-0.3,9.5-1.6v-9.2h-8.9l0.6-7.5
			h16.8V41.1z"/>
		<path class="st0" d="M177.2,32.4h-21.9c0.5,3.6,3.7,6.2,7.3,6.2c3.6,0.1,5.6-1,8.2-3.7l5.2,4c-3.1,4.1-8.1,6.4-13.2,6.2
			c-8.9,0-15.6-6.2-15.6-15.5c0-9.3,6.6-15.5,15.3-15.5c9.5,0,14.7,5.8,14.7,16V32.4z M169.2,26.2c-0.2-3.7-3-6.1-6.9-6
			c-3.5,0-6.5,2.5-7,6H169.2z"/>
		<path class="st0" d="M71.9,25v19.4h-7l-0.2-2.9c-2.2,2.7-5.7,3.6-9.3,3.6c-5.4,0-10.6-2.7-10.7-8.9c-0.2-9.8,11.1-10.5,18.1-10.5
			h1.4v-0.4c0-3.2-2.2-5-6.2-5c-2.9,0-5.8,1.1-7.9,3.2l-4.6-4.7c3.7-3.1,8.4-4.7,13.2-4.7C67.8,14.1,71.9,18.3,71.9,25z M64.2,31.5
			h-1.1c-3.8,0-10.4,0.2-10.4,4.2c0,5.6,11.5,3.8,11.5-2.9L64.2,31.5z"/>
		<path class="st0" d="M192.7,40.9c0.1-1.8,1.5-3.2,3.3-3.1c1.8,0.1,3.2,1.5,3.1,3.3c-0.1,1.7-1.5,3.1-3.2,3.1
			c-1.8,0-3.2-1.4-3.2-3.2C192.7,41,192.7,41,192.7,40.9z M196,44.9c2.2,0,4-1.8,3.9-4s-1.8-4-4-3.9c-2.2,0-3.9,1.8-3.9,4
			C191.9,43.1,193.7,44.9,196,44.9C195.9,44.9,195.9,44.9,196,44.9z M195.1,41.3h0.8l1.2,2h0.8l-1.3-2c0.7,0,1.2-0.5,1.2-1.2
			c0,0,0,0,0-0.1c0-0.9-0.5-1.3-1.6-1.3h-1.7v4.6h0.7L195.1,41.3z M195.1,40.7v-1.4h0.9c0.5,0,1,0.1,1,0.7c0,0.7-0.5,0.7-1.1,0.7
			L195.1,40.7z"/>
	</g>
</g>
</svg>
