<?xml version="1.0" encoding="utf-8"?>
<!-- Generator: Adobe Illustrator 28.3.0, SVG Export Plug-In . SVG Version: 6.00 Build 0)  -->
<svg version="1.1"
	 id="Layer_1" xmlns:inkscape="http://www.inkscape.org/namespaces/inkscape" xmlns:sodipodi="http://sodipodi.sourceforge.net/DTD/sodipodi-0.dtd" xmlns:svg="http://www.w3.org/2000/svg"
	 xmlns="http://www.w3.org/2000/svg" xmlns:xlink="http://www.w3.org/1999/xlink" x="0px" y="0px" viewBox="0 0 226 53.3"
	 style="enable-background:new 0 0 226 53.3;" xml:space="preserve">
<style type="text/css">
	.st0{fill:#FFFFFF;}
</style>
<sodipodi:namedview  bordercolor="#666666" borderopacity="1.0" id="namedview16" inkscape:current-layer="Layer_1" inkscape:cx="113.09526" inkscape:cy="26.569366" inkscape:pagecheckerboard="0" inkscape:pageopacity="0.0" inkscape:pageshadow="2" inkscape:window-height="847" inkscape:window-maximized="0" inkscape:window-width="1296" inkscape:window-x="0" inkscape:window-y="25" inkscape:zoom="4.9869462" pagecolor="#ffffff" showgrid="false">
	</sodipodi:namedview>
<g id="IRWs97">
	<path id="path6" class="st0" d="M68,27c0.1-0.5,0.2-1.1,0.3-1.6c0.9-3.7,3.4-5.9,6.9-7c2.3-0.6,4.7-0.9,7.1-0.6
		c2.4,0.2,4.8,0.7,7.1,1.5c0.3,0.1,0.5,0.3,0.4,0.6c0,0,0,0.1,0,0.1l-0.9,6c-0.9-0.2-1.8-0.5-2.7-0.7c-2.3-0.6-4.8-0.8-7.2-0.6
		c-0.8,0.1-1.6,0.3-2.3,0.7c-1.3,0.8-1.7,2.5-0.9,3.8c0.2,0.3,0.4,0.5,0.6,0.7c0.9,0.6,1.9,1.1,2.9,1.5c2.1,0.6,4.1,1.4,6.1,2.3
		c1.7,0.8,3.2,2,4.3,3.6c0.9,1.5,1.4,3.2,1.4,4.9c0.3,5.1-3.3,9.6-8.3,10.6c-0.9,0.2-1.8,0.4-2.7,0.4c-0.1,0-0.1,0-0.2,0.1h-3.2
		c-0.5-0.1-1.1-0.2-1.6-0.2c-2.4-0.3-4.7-1-6.9-2.1c-0.2-0.4-0.3-0.5-0.2-0.9c0.3-2,0.6-4.1,0.9-6.1c0.2,0,0.4,0.2,0.6,0.3
		c3,1.5,6.3,2.3,9.6,2.2c0.9,0,1.9-0.2,2.7-0.6c1.6-0.7,2.3-2.5,1.7-4.1c0-0.1-0.1-0.2-0.2-0.3c-0.4-0.6-1-1-1.6-1.4
		c-1.4-0.7-2.9-1.3-4.4-1.8c-1.9-0.6-3.7-1.5-5.4-2.5c-1-0.7-1.9-1.6-2.6-2.6c-0.4-0.7-0.7-1.4-0.9-2.1c-0.3-1.1-0.5-2.3-0.4-3.5
		C68.1,27.3,68.1,27.1,68,27z"/>
	<path id="path8" class="st0" d="M31.6,0c0,0.1,0.1,0.1,0.2,0.1c1.5,0.4,2.4,2,2.1,3.5c-0.3,2.1-0.5,4.1-0.7,6.2
		c-0.3,2.3-0.5,4.5-0.8,6.8c-0.2,1.9-0.4,3.9-0.6,5.8c-0.3,2.1-0.6,4.3-0.9,6.4c-0.3,2.3-0.7,4.6-1.4,6.8c-0.8,2.9-2.2,5.6-4.1,7.9
		c-2.4,2.9-6.1,4.4-9.9,4.1c-3.6-0.1-7.2-1.4-10.1-3.5c-2.8-2-4.7-5.1-5.3-8.5c-0.2-0.7-0.1-1.5,0.2-2.2c0.7-1.1,2.1-1.6,3.3-1.2
		c0.7,0.2,1.3,0.9,1.4,1.6c0.2,0.6,0.3,1.2,0.5,1.8c0.9,2.7,3,4.8,5.6,5.7c1.8,0.8,3.7,1,5.6,0.8c2.4-0.3,4.5-1.6,5.7-3.7
		c1.2-2,2.1-4.2,2.4-6.5c0.6-3.7,1-7.4,1.4-11.1c0.2-2.3,0.5-4.6,0.8-7c0.3-2.6,0.5-5.3,0.7-7.9c0.1-1,0.2-2.1,0.3-3.1
		c0.1-1.3,1.1-2.4,2.4-2.7c0.1,0,0.1,0,0.1-0.1c0,0,0,0,0,0H31.6z"/>
	<path id="path10" class="st0" d="M226,18.4c-0.4,1.7-0.9,3.5-1.3,5.2c-0.1,0.4-0.2,0.8-0.3,1.3c0,0.3-0.2,0.3-0.4,0.3h-7.8
		c-0.4,0-0.5,0.1-0.5,0.4v26.2c0,0.5,0,0.5-0.5,0.5h-6.8c-0.3,0-0.4-0.1-0.4-0.4V25.6c0-0.4-0.1-0.5-0.5-0.5h-7.7
		c-0.3,0-0.4-0.1-0.5-0.4c-0.5-2.1-1-4.1-1.5-6.2c-0.1-0.4,0-0.4,0.3-0.4h21.4C221.7,18.3,223.8,18.3,226,18.4z M124.2,31.3
		c-0.2,0.1-0.2,0.2-0.3,0.3c-2.5,6.8-5.4,13.6-8,20.4c-0.1,0.3-0.2,0.4-0.6,0.4h-4.4c-0.2,0-0.3-0.1-0.4-0.3
		c-2.4-6.1-4.8-12.2-7.2-18.2c-0.3-0.8-0.6-1.7-1-2.6c-0.1,0.2-0.1,0.5-0.1,0.7c0.1,6.7,0,13.3,0,20c0,0.3-0.1,0.3-0.3,0.3h-6.1
		c-0.3,0-0.3-0.1-0.3-0.3V18.6c0-0.3,0.1-0.4,0.4-0.4h7.7c0.3,0,0.4,0.1,0.5,0.4c3,7.6,6.1,15.1,8.9,22.7c0,0.1,0,0.3,0.2,0.3
		s0.1-0.2,0.1-0.3c2.6-6.9,5.5-13.8,8.2-20.7c0.3-0.7,0.6-1.4,0.8-2.1c0.1-0.2,0.2-0.3,0.4-0.3h7.8c0.3,0,0.4,0.1,0.4,0.4V52
		c0,0.1-0.1,0.3-0.2,0.3c0,0,0,0-0.1,0h-6.4c-0.3,0-0.3-0.1-0.3-0.3V33.3c0-0.6,0-1.1,0.1-1.7C124.2,31.6,124.2,31.5,124.2,31.3
		L124.2,31.3z M190.4,38.2c2.6,4.7,5.3,9.5,7.9,14.2c-0.1,0.1-0.3,0-0.4,0h-8.2c-0.2,0-0.4-0.1-0.5-0.3c-1.9-4-3.8-8.1-5.7-12.1
		c-0.1-0.2-0.3-0.3-0.5-0.3h-4.1c-0.3,0-0.4,0.1-0.4,0.4V52c0,0.3-0.1,0.4-0.4,0.4h-6.9c-0.3,0-0.4-0.1-0.4-0.4V18.7
		c0-0.4,0.1-0.5,0.4-0.5h13.2c2,0,4,0.3,5.9,1.1c2.8,1,4.8,3.4,5.4,6.3c0.5,2.3,0.5,4.7-0.2,6.9C195,35.2,193.1,37.5,190.4,38.2z
		 M178.6,29.3v4.3c0,0.3,0.1,0.3,0.3,0.3h2.4c1.2,0.1,2.3,0,3.5-0.1c1.5,0,2.8-1.1,3.1-2.6c0.3-1.3,0.3-2.6,0-3.9
		c-0.2-1.2-1.1-2.2-2.3-2.4c-0.6-0.1-1.1-0.2-1.7-0.2H179c-0.3,0-0.4,0.1-0.4,0.3L178.6,29.3L178.6,29.3z M167.4,52.4h-8.2
		c-0.3,0-0.4-0.1-0.5-0.4c-0.6-2-1.1-4-1.7-5.9c-0.1-0.3-0.2-0.4-0.5-0.4h-11.6c-0.3,0-0.4,0.1-0.5,0.4c-0.6,2-1.1,4-1.7,6
		c-0.1,0.2-0.1,0.3-0.3,0.3h-7.9c0.3-0.8,0.5-1.6,0.8-2.4l9.3-27l1.5-4.5c0.1-0.2,0.2-0.3,0.4-0.3h8.6c0.2,0,0.3,0,0.4,0.2
		c1.6,4.7,3.3,9.4,4.9,14.1c2.3,6.5,4.5,12.9,6.8,19.4C167.4,52.2,167.4,52.3,167.4,52.4z M151,24.1h-0.1
		c-1.3,5.1-2.9,10.1-4.3,15.3h7.5c0.4,0,0.9,0.1,1.1-0.1s-0.1-0.7-0.2-1.1c-1.1-3.9-2.2-7.8-3.2-11.7
		C151.4,25.7,151.2,24.9,151,24.1z"/>
	<path id="path12" class="st0" d="M68,27c0.1,0.2,0.1,0.3,0.1,0.5c-0.1,1.2,0.1,2.4,0.4,3.5c0.2,0.7,0.5,1.4,0.9,2.1
		c-1.2,2.3-3,4.3-5.2,5.7c-1.8,1.2-4,1.6-6.1,1.3c-2.1-0.3-3.9-1.7-4.8-3.6c-0.3-0.6-0.5-1.2-0.8-1.8c-0.6,0.6-1.2,1.1-1.8,1.6
		c-1.7,1.5-3.8,2.6-6.1,3.2c-3.9,1-7.9-1.2-9.2-5c-0.3-0.9-0.6-1.8-0.7-2.7c0-0.2-0.1-0.3-0.3-0.4c-1-0.6-1.3-1.9-0.7-2.9
		c0.2-0.3,0.5-0.6,0.9-0.8c0.3-0.1,0.4-0.3,0.4-0.6c0.5-2.4,1.7-4.6,3.4-6.3c1.3-1.4,3.2-2.2,5.1-2.2c2.2-0.1,4,1.5,4.2,3.7
		c0.3,2.6-0.7,5.1-2.6,6.9c-1.5,1.6-3.5,2.7-5.7,3c-0.2,0-0.2,0.1-0.2,0.3c0.6,1.6,1.6,2.8,3.5,2.9c2.1,0.1,4.2-0.7,5.7-2.2
		c1.2-1.1,2.2-2.3,3.1-3.6c0.1-0.1,0.1-0.2,0.1-0.4c0-2.5,0.3-5,0.8-7.5c0.3-2,0.7-4,1.1-6c0.1-0.3,0-0.4-0.3-0.4
		c-2.4,0-4.8-0.1-7.2-0.1h-1.2c-1.1,0-2-0.9-2-2s0.9-2,2-2c2.4,0,4.9-0.1,7.3-0.1h2c0.1,0,0.3-0.1,0.3-0.2c0,0,0,0,0-0.1l1.2-5.1
		c0.3-1.1,1.3-1.9,2.5-1.8c1.1,0.1,2,1,2.1,2.1c0,0.9-0.1,1.9-0.3,2.8l-0.3,1.8c-0.1,0.3,0,0.5,0.4,0.4c3,0,6-0.1,9-0.1
		c0.7,0,1.3,0.1,1.9,0.4c0.7,0.4,1,1.1,1,1.8c-0.1,0.7-0.5,1.4-1.2,1.7c-0.8,0.4-1.6,0.5-2.5,0.5h-8.8c-0.4,0-0.5,0.1-0.6,0.5
		c-0.7,3.8-1.5,7.5-2.1,11.4c-0.3,2.2-0.1,4.5,0.6,6.6c0.1,0.2,0.2,0.4,0.2,0.6c0.4,1.2,1.6,1.8,2.8,1.4c0,0,0.1,0,0.1,0
		c1.3-0.3,2.4-1,3.2-2c1.4-1.5,2.6-3.3,3.5-5.2C67.5,28,67.7,27.5,68,27L68,27z M39.7,28c1.9-0.2,3.4-1.5,4-3.3
		c0.1-0.6,0-1.3-0.3-1.8c-0.1-0.3-0.5-0.4-0.8-0.3c-0.4,0.1-0.8,0.3-1.2,0.6c-1.3,1.1-2.1,2.6-2.3,4.3C39,28,39,28.1,39.7,28z"/>
</g>
</svg>
