<?xml version="1.0" encoding="utf-8"?>
<!-- Generator: Adobe Illustrator 28.3.0, SVG Export Plug-In . SVG Version: 6.00 Build 0)  -->
<svg version="1.1" id="Warstwa_1" xmlns="http://www.w3.org/2000/svg" xmlns:xlink="http://www.w3.org/1999/xlink" x="0px" y="0px"
	 viewBox="0 0 219 86.8" style="enable-background:new 0 0 219 86.8;" xml:space="preserve">
<style type="text/css">
	.st0{fill:#FFFFFF;}
</style>
<path class="st0" d="M41.1,48.4c-1,0-1.9,0.3-2.8,0.8L5.7,68.7c-2.6,1.5-3.4,4.9-1.9,7.5s4.9,3.4,7.5,1.9l32.6-19.6
	c2.6-1.5,3.4-4.9,1.9-7.5C44.7,49.3,42.9,48.4,41.1,48.4"/>
<path class="st0" d="M30.2,22.3c0,3-2.4,5.4-5.4,5.4s-5.4-2.4-5.4-5.4s2.4-5.4,5.4-5.4C27.8,16.8,30.2,19.3,30.2,22.3"/>
<path class="st0" d="M13.9,12.5c0,3-2.4,5.4-5.4,5.4s-5.4-2.4-5.4-5.4s2.4-5.4,5.4-5.4C11.5,7,13.9,9.5,13.9,12.5"/>
<path class="st0" d="M46.5,32.1c0,3-2.4,5.4-5.4,5.4s-5.4-2.4-5.4-5.4s2.4-5.4,5.4-5.4C44.1,26.6,46.5,29.1,46.5,32.1"/>
<polygon class="st0" points="62.8,3.5 69.1,2.2 69.1,37.5 62.8,37.5 62.8,12.5 "/>
<path class="st0" d="M77.4,21.9h10.9c-0.2-3.6-1.8-5.6-5-5.6C80.2,16.4,78.1,18.2,77.4,21.9 M93.7,36.1c-1.6,0.9-4.6,2-8.8,2
	c-8.9,0-13.8-5.1-13.8-13.3c0-7.7,5-13,12.3-13c6.8,0,11.7,4.2,10.9,14.3h-17c0.4,4.9,3.1,7.1,8.1,7.1c3.5,0,5.9-0.9,8-2.2l0.3,0.1
	V36.1z"/>
<path class="st0" d="M116.4,24.9c0-5.4-2.8-8.3-6.9-8.3c-4,0-6.8,2.9-6.8,8.3c0,5.5,2.9,8.4,6.8,8.4
	C113.6,33.3,116.4,30.4,116.4,24.9 M96.3,24.9c0-8.1,5.6-13.1,13.1-13.1s13.2,5,13.2,13.1c0,8-5.7,13.2-13.2,13.2
	C101.9,38.1,96.3,33,96.3,24.9"/>
<path class="st0" d="M67.4,57.9h10.9c-0.2-3.6-1.8-5.5-4.9-5.5C70.2,52.4,68.1,54.2,67.4,57.9 M83.6,72c-1.6,0.9-4.6,2-8.8,2
	c-8.9,0-13.7-5-13.7-13.2c0-7.7,4.9-13,12.2-13c6.8,0,11.7,4.2,10.8,14.3h-17c0.4,4.8,3.1,7,8.1,7c3.5,0,5.9-0.9,8-2.1l0.3,0.1
	L83.6,72L83.6,72z"/>
<polygon class="st0" points="96.7,64.7 91.2,73.4 85.3,73.4 85.3,73.1 93.5,60.4 85.8,48.8 85.8,48.4 92.6,48.4 97.4,56.2 
	102.4,48.4 108.2,48.4 108.2,48.7 100.5,60.5 108.9,73.1 108.9,73.4 102.1,73.4 "/>
<path class="st0" d="M128.1,60.6c0-5.6-2.7-7.9-6.2-7.9c-2.8,0-4.3,0.9-5.7,2.4V67c1.4,1.4,3,2.1,5.6,2.1
	C125.5,69.2,128.1,66.4,128.1,60.6 M116.2,71v11.8H110V48.4h5.5l0.4,3.1c1.8-2.4,4.2-3.7,7.6-3.7c6.4,0,10.9,4.5,10.9,12.8
	c0,8.5-4.6,13.4-11.1,13.4C120.2,74,117.9,72.9,116.2,71"/>
<path class="st0" d="M142.5,56.4v17h-6.2v-25h5.5l0.5,3.9c1.4-2.3,3.6-4.2,6.9-4.2c0.8,0,1.5,0,2,0.2v5.8l-0.3,0.1
	c-0.6-0.1-1.2-0.2-2-0.2C145.9,53.9,144,54.5,142.5,56.4"/>
<path class="st0" d="M157.8,57.9h10.9c-0.2-3.6-1.8-5.5-4.9-5.5C160.6,52.4,158.5,54.2,157.8,57.9 M174,72c-1.6,0.9-4.6,2-8.8,2
	c-8.9,0-13.7-5-13.7-13.2c0-7.7,4.9-13,12.2-13c6.8,0,11.7,4.2,10.8,14.3h-17c0.4,4.8,3.1,7,8.1,7c3.5,0,5.9-0.9,8-2.1l0.3,0.1
	L174,72L174,72z"/>
<path class="st0" d="M176.6,71.7v-5.1l0.2-0.1c2.2,1.7,4.8,2.7,8,2.7c2.8,0,4.2-1,4.2-2.8c0-1.7-0.9-2.2-3.5-2.9l-2.4-0.7
	c-3.9-1.1-6.5-3.3-6.5-7.4c0-4.7,3.7-7.7,9.3-7.7c3.2,0,5.5,0.6,7.4,1.4v4.8l-0.2,0.1c-1.9-1-4.4-1.7-7.1-1.7
	c-2.8,0-3.6,1.1-3.6,2.6c0,1.4,0.9,2.2,2.8,2.7l2.4,0.6c5,1.4,7.5,3,7.5,7.5c0,5.4-4.2,8.2-9.8,8.2C181.1,73.9,178.6,73,176.6,71.7"
	/>
<path class="st0" d="M196.9,71.7v-5.1l0.2-0.1c2.2,1.7,4.8,2.7,8,2.7c2.8,0,4.2-1,4.2-2.8c0-1.7-0.9-2.2-3.5-2.9l-2.4-0.7
	c-3.9-1.1-6.5-3.3-6.5-7.4c0-4.7,3.7-7.7,9.3-7.7c3.2,0,5.5,0.6,7.4,1.4v4.8l-0.2,0.1c-1.9-1-4.4-1.7-7.1-1.7
	c-2.8,0-3.6,1.1-3.6,2.6c0,1.4,0.9,2.2,2.8,2.7l2.4,0.6c5,1.4,7.5,3,7.5,7.5c0,5.4-4.2,8.2-9.8,8.2C201.4,73.9,198.8,73,196.9,71.7"
	/>
</svg>
