<?xml version="1.0" encoding="UTF-8"?><svg id="Layer_2" xmlns="http://www.w3.org/2000/svg" xmlns:xlink="http://www.w3.org/1999/xlink" viewBox="0 0 24 24"><defs><style>.cls-1,.cls-2{fill:none;}.cls-3{clip-path:url(#clippath);}.cls-4{clip-path:url(#clippath-1);}.cls-2{stroke:#ffffff;stroke-linecap:round;stroke-linejoin:round;stroke-width:2px;}</style><clipPath id="clippath"><rect class="cls-1" width="24" height="24"/></clipPath><clipPath id="clippath-1"><rect class="cls-1" width="24" height="24"/></clipPath></defs><g id="Layer_1-2"><g id="Smile__Happy__Face"><g class="cls-3"><g class="cls-4"><path class="cls-2" d="M10,9.64c0-1.1-.9-2-2-2s-2,.89-2,2"/><path class="cls-2" d="M18,9.64c0-1.1-.9-2-2-2s-2,.89-2,2"/><path class="cls-2" d="M1,23V4c0-1.66,1.34-3,3-3H20c1.66,0,3,1.34,3,3V20c0,1.66-1.34,3-3,3H1Z"/><path class="cls-2" d="M7,14.64h0c2.69,2.1,6.4,2.3,9.3,.51l.7-.51"/></g></g></g></g></svg>