<?xml version="1.0" encoding="UTF-8"?><svg id="Layer_2" xmlns="http://www.w3.org/2000/svg" xmlns:xlink="http://www.w3.org/1999/xlink" viewBox="0 0 23.79 23"><defs><style>.cls-1,.cls-2{fill:none;}.cls-3{clip-path:url(#clippath);}.cls-4{clip-path:url(#clippath-1);}.cls-2{stroke:#ffffff;stroke-linecap:round;stroke-linejoin:round;stroke-width:2px;}</style><clipPath id="clippath"><rect class="cls-1" x="0" width="23.79" height="23"/></clipPath><clipPath id="clippath-1"><rect class="cls-1" x="0" width="23.78" height="23"/></clipPath></defs><g id="Layer_1-2"><g id="Speed__Fast__Thunder__Website"><g class="cls-3"><g class="cls-4"><path class="cls-2" d="M19.03,4.66h-5.97l.29,2.81,.74,7.34h2.66l.28,3.92H3.32c-1.28,0-2.32-1.09-2.32-2.42V3.42c0-1.34,1.04-2.42,2.32-2.42h13.38c1.28,0,2.32,1.08,2.32,2.42v1.24Z"/><line class="cls-2" x1="4.09" y1="4.22" x2="9.51" y2="4.22"/><line class="cls-2" x1="13.34" y1="7.46" x2="1" y2="7.52"/><polygon class="cls-2" points="22.79 11.04 17.26 22 17.03 18.73 16.75 14.8 14.09 14.8 13.34 7.46 13.06 4.66 21.55 4.66 19.31 11.04 22.79 11.04"/></g></g></g></g></svg>