<?xml version="1.0" encoding="utf-8"?>
<!-- Generator: Adobe Illustrator 28.3.0, SVG Export Plug-In . SVG Version: 6.00 Build 0)  -->
<svg version="1.1" id="katman_1" xmlns="http://www.w3.org/2000/svg" xmlns:xlink="http://www.w3.org/1999/xlink" x="0px" y="0px"
	 viewBox="0 0 954.4 187.7" style="enable-background:new 0 0 954.4 187.7;" xml:space="preserve">
<style type="text/css">
	.st0{fill:#FFFFFF;}
</style>
<path class="st0" d="M98.3,11.1c-46.1,0-82.6,36.7-82.6,82.8s36.5,82.8,82.6,82.8c46.1,0,82.6-36.7,82.6-82.8S144.4,11.1,98.3,11.1z
	 M141.4,113.1c-2.4,19.2-15.7,32-35.8,32c-21.5,0-35.3-14.9-35.3-36.3V91.8H56.5c-4.6,0-7.3-2.7-7.3-7.3v-2.2c0-4.6,2.7-7.3,7.3-7.3
	h24.4c1.4,0,2.6,0.2,3.6,0.7c-0.3-0.8-0.4-1.8-0.4-2.8V48.4c0-4.6,2.7-7.3,7.3-7.3h3.3c4.6,0,7.3,2.7,7.3,7.3v15h13.8
	c4.7,0,7.3,2.7,7.3,7.3v2.1c0,4.6-2.6,7.3-7.3,7.3H91.4c-1.4,0-2.6-0.2-3.6-0.7c0.2,0.8,0.4,1.7,0.4,2.8v26.5
	c0,11.3,6.8,19.1,17.4,19.1c9.2,0,16.1-6,17.3-14.8c0.7-4.8,2.7-7.3,7.3-7.3h4.6C139,105.8,142.1,108.3,141.4,113.1z"/>
<path class="st0" d="M294.3,137.8h19.4V95.5c0-15.2,8.3-20.6,18.2-20.6c5.8,0,10,1.7,14,5.1l8.8-15.5c-5.3-4.9-12.4-7.3-19.3-7.3
	c-9.2,0-18.2,4.2-22.9,12.6l-1.3-11h-17L294.3,137.8L294.3,137.8L294.3,137.8z M841.5,40.2c0-7.5-5.8-11.3-11.6-11.3
	c-5.7,0-11.4,3.8-11.4,11.3c0,7.6,5.8,11.3,11.4,11.3C835.7,51.5,841.5,47.8,841.5,40.2L841.5,40.2z M258.8,36.2l-19.4,2.1v20.6
	h-14.5v16.7h14.5v35.2c0,18.9,10.9,27.7,27.1,27.7c6.9,0,12.8-1.6,17-3.9l-5.2-15.7c-2.8,1.3-6.2,2.2-9.5,2.2c-6.5,0-10-3.7-10-11.2
	V75.6h21.7V58.9h-21.7V36.2L258.8,36.2z M439.2,58.9h-17.4l-1.3,11c-4.4-7.3-13.1-12.6-26.6-12.6c-21.6,0-40.3,13.5-40.3,41
	s18.7,41,40.3,41c13.5,0,22.2-5.3,26.6-12.6l1.3,11h17.4V58.9L439.2,58.9L439.2,58.9z M820.2,58.9v78.8h19.4V58.9H820.2L820.2,58.9z
	 M396.6,122.4c-13.3,0-23.2-8.9-23.2-24.1c0-15.3,9.9-24.1,23.2-24.1c13.3,0,23.2,8.9,23.2,24.1
	C419.8,113.5,409.9,122.4,396.6,122.4L396.6,122.4z M713.6,58.9h-17.5l-1.3,11c-4.4-7.3-13-12.6-26.5-12.6
	c-21.6,0-40.3,13.5-40.3,41s18.7,41,40.3,41c13.5,0,22.2-5.3,26.5-12.6l1.3,11h17.4L713.6,58.9L713.6,58.9z M671,122.4
	c-13.3,0-23.2-8.9-23.2-24.1c0-15.3,9.9-24.1,23.2-24.1s23.2,8.9,23.2,24.1S684.3,122.4,671,122.4L671,122.4z M938.8,58.9h-17.4
	l-1.4,11c-4.4-7.3-13-12.6-26.5-12.6c-21.6,0-40.3,13.5-40.3,41s18.7,41,40.3,41c13.5,0,22.2-5.3,26.5-12.6l1.3,11h17.4L938.8,58.9
	L938.8,58.9z M896.1,122.4c-13.3,0-23.2-8.9-23.2-24.1c0-15.3,9.9-24.1,23.2-24.1s23.2,8.9,23.2,24.1
	C919.4,113.5,909.4,122.4,896.1,122.4L896.1,122.4z M777.2,137.8l33.6-78.8h-20.2l-23,58.1l-23-58.1h-21.5l33.6,78.8H777.2
	L777.2,137.8z M457.7,137.8h19.4V95.4c0-13.3,8.5-20.8,19.9-20.8c11.3,0,19.1,7.5,19.1,20.8v42.3h19.4V92.5
	c0-23.5-14.6-35.2-33.2-35.2c-12.4,0-21.5,5.2-25.9,12.6l-1.3-11h-17.4V137.8L457.7,137.8L457.7,137.8z M584.5,139.3
	c24.4,0,34.7-11.1,34.7-25c0-17.7-16.6-22.1-30-23.8c-7.7-1-19.6-1.7-19.6-9.4c0-5.7,6.7-8.1,15-8.1c7.5,0,15,2,21.1,7.3l9.8-12.9
	c-8.6-7.5-18.7-10-30-10c-16.8,0-35.6,5.8-35.6,24.7c0,17.4,15.7,22.1,30,23.9c8.2,1,19.6,1.8,19.6,9.4c0,5.5-6.2,8.1-14.3,8.1
	c-9.1,0-21.1-3.3-28.4-11l-9.8,12.9C556.8,136.2,571.7,139.2,584.5,139.3L584.5,139.3L584.5,139.3z"/>
</svg>
