<?xml version="1.0" encoding="utf-8"?>
<!-- Generator: Adobe Illustrator 27.0.1, SVG Export Plug-In . SVG Version: 6.00 Build 0)  -->
<svg version="1.1" id="Layer_1" xmlns="http://www.w3.org/2000/svg" xmlns:xlink="http://www.w3.org/1999/xlink" x="0px" y="0px"
	 viewBox="0 0 595.3 257.1" style="enable-background:new 0 0 595.3 257.1;" xml:space="preserve">
<style type="text/css">
	.st0{fill:none;}
	.st1{enable-background:new    ;}
	.st2{fill:#FFFFFF;}
</style>
<g>
	<rect x="209.6" y="136" class="st0" width="382.8" height="65"/>
	<g class="st1">
		<path class="st2" d="M215.3,135.9h12.1l22,38.6v-38.6h10.8v55.4h-11.6L226,152v39.3h-10.8v-55.4H215.3z"/>
		<path class="st2" d="M297,151.2c2.9,1.3,5.2,3.3,7.1,6.1c1.7,2.4,2.8,5.3,3.3,8.5c0.3,1.9,0.4,4.6,0.4,8.1H278
			c0.2,4.1,1.6,7,4.3,8.6c1.6,1,3.6,1.5,5.9,1.5c2.4,0,4.4-0.6,5.9-1.9c0.8-0.7,1.6-1.6,2.2-2.8h10.9c-0.3,2.4-1.6,4.9-4,7.4
			c-3.7,4-8.8,6-15.4,6c-5.5,0-10.3-1.7-14.4-5c-4.2-3.4-6.3-8.8-6.3-16.4c0-7.1,1.9-12.5,5.6-16.3c3.8-3.8,8.6-5.7,14.7-5.7
			C290.9,149.2,294.1,149.9,297,151.2z M280.9,160.4c-1.5,1.6-2.5,3.7-2.9,6.3h18.5c-0.2-2.8-1.1-5-2.9-6.5
			c-1.7-1.5-3.8-2.2-6.4-2.2C284.6,158.1,282.4,158.9,280.9,160.4z"/>
		<path class="st2" d="M332.4,150.3h10.9l6.2,29.5l6.4-29.5h11.2l-11.9,41h-11l-6.4-29.9l-6.5,29.9h-11.1l-11.5-41h11.5l6.4,29.4
			L332.4,150.3z"/>
		<path class="st2" d="M397.5,165c-0.2-1.5-0.7-2.9-1.5-4.1c-1.2-1.7-3.1-2.5-5.6-2.5c-3.6,0-6.1,1.8-7.4,5.4
			c-0.7,1.9-1.1,4.4-1.1,7.6c0,3,0.4,5.4,1.1,7.2c1.3,3.4,3.7,5.1,7.2,5.1c2.5,0,4.3-0.7,5.4-2c1.1-1.4,1.7-3.1,1.9-5.3h10.9
			c-0.3,3.3-1.4,6.3-3.5,9.2c-3.4,4.7-8.3,7-14.9,7s-11.5-2-14.6-5.9s-4.7-9-4.7-15.2c0-7,1.7-12.5,5.2-16.4s8.2-5.9,14.2-5.9
			c5.1,0,9.4,1.2,12.6,3.5c3.3,2.3,5.2,6.4,5.8,12.2L397.5,165L397.5,165z"/>
		<path class="st2" d="M432,166.4c2-0.2,3.4-0.6,4.3-0.9c1.5-0.7,2.3-1.7,2.3-3c0-1.7-0.6-2.8-1.8-3.5c-1.2-0.6-2.9-1-5.2-1
			c-2.6,0-4.4,0.6-5.5,1.9c-0.8,0.9-1.3,2.2-1.5,3.8h-10.3c0.2-3.6,1.2-6.5,3-8.8c2.8-3.6,7.7-5.4,14.7-5.4c4.5,0,8.5,0.9,12,2.7
			s5.2,5.1,5.2,10.1v18.8c0,1.3,0,2.9,0.1,4.7c0.1,1.4,0.3,2.4,0.6,2.9c0.4,0.5,0.9,0.9,1.6,1.2v1.6h-11.6c-0.3-0.8-0.6-1.6-0.7-2.3
			s-0.2-1.6-0.3-2.5c-1.5,1.6-3.2,3-5.1,4.1c-2.3,1.3-4.9,2-7.9,2c-3.7,0-6.8-1.1-9.2-3.2c-2.4-2.1-3.6-5.1-3.6-9
			c0-5,2-8.7,5.9-10.9c2.1-1.2,5.3-2.1,9.5-2.6L432,166.4z M438.6,171.4c-0.7,0.4-1.4,0.8-2.1,1c-0.7,0.3-1.7,0.5-2.9,0.7l-2.4,0.5
			c-2.3,0.4-3.9,0.9-4.9,1.5c-1.7,1-2.5,2.5-2.5,4.5c0,1.8,0.5,3.2,1.5,4s2.3,1.2,3.8,1.2c2.3,0,4.5-0.7,6.5-2s3-3.8,3.1-7.4v-4
			H438.6z"/>
		<path class="st2" d="M466.9,178.2c0.2,1.9,0.7,3.3,1.5,4.1c1.3,1.4,3.8,2.1,7.4,2.1c2.1,0,3.8-0.3,5-0.9c1.2-0.6,1.9-1.6,1.9-2.8
			s-0.5-2.1-1.5-2.7c-1-0.6-4.7-1.7-11.2-3.2c-4.7-1.2-7.9-2.6-9.8-4.3s-2.9-4.2-2.9-7.4c0-3.8,1.5-7,4.5-9.8s7.2-4.1,12.6-4.1
			c5.1,0,9.3,1,12.5,3.1c3.2,2,5.1,5.6,5.6,10.6h-10.7c-0.2-1.4-0.5-2.5-1.2-3.3c-1.2-1.5-3.2-2.2-6-2.2c-2.3,0-4,0.4-5,1.1
			c-1,0.7-1.5,1.6-1.5,2.6c0,1.2,0.5,2.1,1.6,2.7c1.1,0.6,4.8,1.6,11.2,3c4.3,1,7.5,2.5,9.6,4.5c2.1,2.1,3.2,4.6,3.2,7.7
			c0,4.1-1.5,7.4-4.5,9.9c-3,2.6-7.7,3.9-14,3.9c-6.5,0-11.2-1.4-14.3-4.1c-3.1-2.7-4.6-6.2-4.6-10.4h10.6V178.2z"/>
		<path class="st2" d="M497.2,158.3v-7.6h5.7v-11.4h10.6v11.4h6.7v7.6h-6.7V180c0,1.7,0.2,2.7,0.6,3.1c0.4,0.4,1.7,0.6,3.9,0.6
			c0.3,0,0.7,0,1,0c0.4,0,0.7,0,1.1-0.1v8l-5.1,0.2c-5.1,0.2-8.5-0.7-10.4-2.6c-1.2-1.2-1.8-3.1-1.8-5.7v-25.2H497.2z"/>
		<path class="st2" d="M538,191.3h-10.7v-55.4H538V191.3z"/>
		<path class="st2" d="M575.2,151.2c2.9,1.3,5.2,3.3,7.1,6.1c1.7,2.4,2.8,5.3,3.3,8.5c0.3,1.9,0.4,4.6,0.4,8.1h-29.8
			c0.2,4.1,1.6,7,4.3,8.6c1.6,1,3.6,1.5,5.9,1.5c2.4,0,4.4-0.6,6-1.9c0.8-0.7,1.6-1.6,2.2-2.8h10.9c-0.3,2.4-1.6,4.9-4,7.4
			c-3.7,4-8.8,6-15.4,6c-5.5,0-10.3-1.7-14.4-5s-6.3-8.8-6.3-16.4c0-7.1,1.9-12.5,5.6-16.3c3.8-3.8,8.6-5.7,14.7-5.7
			C569.1,149.2,572.3,149.9,575.2,151.2z M559.2,160.4c-1.5,1.6-2.5,3.7-2.9,6.3h18.5c-0.2-2.8-1.1-5-2.9-6.5
			c-1.7-1.5-3.8-2.2-6.4-2.2C562.8,158.1,560.7,158.9,559.2,160.4z"/>
	</g>
	<rect x="211.6" y="209.1" class="st0" width="385.3" height="41.6"/>
	<g class="st1">
		<path class="st2" d="M215.1,209.2h14.4c3.9,0,6.7,1.2,8.4,3.5c1,1.4,1.5,3,1.5,4.8c0,2.1-0.6,3.8-1.8,5.2c-0.6,0.7-1.5,1.4-2.7,2
			c1.7,0.7,3,1.4,3.8,2.2c1.5,1.5,2.2,3.5,2.2,6c0,2.1-0.7,4.1-2,5.8c-2,2.6-5.2,3.9-9.7,3.9H215v-33.4H215.1z M227.8,223.3
			c1.9,0,3.4-0.3,4.5-0.8c1.7-0.8,2.5-2.3,2.5-4.5s-0.9-3.6-2.7-4.4c-1-0.4-2.5-0.6-4.5-0.6h-8.1v10.3H227.8z M229.3,238.7
			c2.8,0,4.8-0.8,6-2.4c0.7-1,1.1-2.2,1.1-3.7c0-2.4-1.1-4.1-3.3-4.9c-1.2-0.5-2.7-0.7-4.6-0.7h-9.1v11.7L229.3,238.7L229.3,238.7z"
			/>
		<path class="st2" d="M249.7,218.3v16.1c0,1.2,0.2,2.3,0.6,3c0.7,1.5,2,2.2,4,2.2c2.8,0,4.7-1.3,5.7-3.8c0.5-1.4,0.8-3.2,0.8-5.6
			v-11.9h4.1v24.3H261V239c-0.5,0.9-1.2,1.7-1.9,2.3c-1.5,1.3-3.4,1.9-5.6,1.9c-3.4,0-5.7-1.2-7-3.5c-0.7-1.2-1-2.9-1-5v-16.5h4.2
			V218.3z"/>
		<path class="st2" d="M271.5,209.2h4.2v4.6h-4.2V209.2z M271.5,218.4h4.2v24.2h-4.2V218.4z"/>
		<path class="st2" d="M282,209.2h4.1v33.4H282V209.2z"/>
		<path class="st2" d="M305.5,219c0.7,0.5,1.5,1.2,2.5,2.4v-12.3h3.9v33.5h-3.7v-3.4c-1,1.5-2.1,2.6-3.4,3.2c-1.3,0.7-2.8,1-4.5,1
			c-2.7,0-5-1.1-7-3.4c-2-2.3-3-5.3-3-9.1c0-3.5,0.9-6.6,2.7-9.2s4.4-3.9,7.7-3.9C302.7,217.8,304.3,218.2,305.5,219z M296.4,237.2
			c1.1,1.8,2.9,2.6,5.3,2.6c1.9,0,3.4-0.8,4.6-2.4c1.2-1.6,1.8-4,1.8-7c0-3.1-0.6-5.3-1.9-6.8c-1.2-1.5-2.8-2.2-4.6-2.2
			c-2,0-3.7,0.8-5,2.4s-1.9,3.9-1.9,6.9C294.8,233.3,295.3,235.5,296.4,237.2z"/>
		<path class="st2" d="M318,209.2h4.2v4.6H318V209.2z M318,218.4h4.2v24.2H318V218.4z"/>
		<path class="st2" d="M328.4,218.3h3.9v3.5c1.1-1.4,2.4-2.4,3.7-3.1c1.3-0.6,2.7-0.9,4.3-0.9c3.5,0,5.8,1.2,7,3.6
			c0.7,1.3,1,3.2,1,5.7v15.6h-4.2v-15.5c0-1.5-0.2-2.7-0.7-3.6c-0.7-1.5-2-2.3-4-2.3c-1,0-1.8,0.1-2.4,0.3c-1.1,0.3-2.1,1-3,2
			c-0.7,0.8-1.1,1.6-1.3,2.5c-0.2,0.9-0.3,2.1-0.3,3.7v12.7h-4.1v-24.2H328.4z"/>
		<path class="st2" d="M367.8,219.2c0.8,0.5,1.6,1.3,2.4,2.3v-3.1h3.8v22.1c0,3.1-0.5,5.5-1.4,7.3c-1.7,3.3-4.9,4.9-9.6,4.9
			c-2.6,0-4.8-0.6-6.6-1.8s-2.8-3-3-5.5h4.2c0.2,1.1,0.6,1.9,1.2,2.5c0.9,0.9,2.4,1.4,4.3,1.4c3.1,0,5.2-1.1,6.1-3.3
			c0.6-1.3,0.8-3.6,0.8-7c-0.8,1.2-1.8,2.2-2.9,2.8s-2.7,0.9-4.5,0.9c-2.6,0-4.9-0.9-6.9-2.8s-3-5-3-9.3c0-4.1,1-7.2,3-9.5
			s4.4-3.4,7.2-3.4C364.7,217.8,366.3,218.3,367.8,219.2z M368.3,223.6c-1.2-1.5-2.8-2.2-4.7-2.2c-2.9,0-4.8,1.3-5.9,4
			c-0.6,1.4-0.8,3.3-0.8,5.7c0,2.7,0.6,4.8,1.7,6.3c1.1,1.4,2.6,2.1,4.5,2.1c2.9,0,5-1.3,6.2-4c0.7-1.5,1-3.2,1-5.2
			C370.1,227.3,369.5,225.1,368.3,223.6z"/>
		<path class="st2" d="M396.5,231.8c0.1,1.9,0.5,3.4,1.3,4.6c1.4,2.2,4,3.3,7.6,3.3c1.6,0,3.1-0.2,4.5-0.7c2.6-0.9,3.9-2.6,3.9-5
			c0-1.8-0.6-3.1-1.7-3.9c-1.1-0.8-2.9-1.4-5.2-2l-4.4-1c-2.9-0.7-4.9-1.4-6.1-2.2c-2.1-1.4-3.1-3.5-3.1-6.2c0-3,1-5.5,3-7.4
			s4.9-2.9,8.6-2.9c3.4,0,6.3,0.8,8.7,2.5s3.6,4.4,3.6,8.1H413c-0.2-1.8-0.7-3.2-1.4-4.1c-1.3-1.7-3.6-2.6-6.7-2.6
			c-2.6,0-4.4,0.6-5.5,1.7s-1.7,2.4-1.7,3.9c0,1.6,0.7,2.8,2,3.6c0.9,0.5,2.8,1.1,5.9,1.8l4.5,1.1c2.2,0.5,3.9,1.2,5.1,2.1
			c2.1,1.6,3.1,3.8,3.1,6.8c0,3.7-1.3,6.3-3.9,7.9c-2.6,1.6-5.7,2.4-9.1,2.4c-4,0-7.2-1.1-9.5-3.2c-2.3-2.1-3.4-5-3.4-8.6
			L396.5,231.8L396.5,231.8z"/>
		<path class="st2" d="M441.6,220.7c2.1,2.1,3.2,5.2,3.2,9.2c0,3.9-0.9,7.2-2.8,9.7c-1.9,2.6-4.8,3.8-8.8,3.8c-3.3,0-6-1.1-7.9-3.4
			s-2.9-5.3-2.9-9.1c0-4.1,1-7.3,3.1-9.8c2.1-2.4,4.8-3.6,8.3-3.6C436.9,217.6,439.5,218.6,441.6,220.7z M439.1,236.8
			c1-2,1.5-4.3,1.5-6.8c0-2.3-0.4-4.1-1.1-5.5c-1.1-2.2-3.1-3.4-5.9-3.4c-2.5,0-4.3,1-5.4,2.9s-1.7,4.2-1.7,6.9
			c0,2.6,0.6,4.7,1.7,6.5c1.1,1.7,2.9,2.6,5.3,2.6C436.3,239.9,438.1,238.9,439.1,236.8z"/>
		<path class="st2" d="M466,219.6c1.7,1.3,2.8,3.6,3.1,6.9h-4c-0.2-1.5-0.8-2.7-1.7-3.7c-0.9-1-2.2-1.5-4.2-1.5
			c-2.6,0-4.5,1.3-5.6,3.8c-0.7,1.6-1.1,3.7-1.1,6.1c0,2.4,0.5,4.5,1.5,6.1c1,1.7,2.6,2.5,4.9,2.5c1.7,0,3-0.5,4-1.5
			s1.7-2.4,2.1-4.2h4c-0.5,3.2-1.6,5.6-3.4,7.1s-4.1,2.2-7,2.2c-3.2,0-5.7-1.2-7.6-3.5s-2.8-5.2-2.8-8.7c0-4.3,1-7.6,3.1-10
			s4.7-3.6,7.9-3.6C462,217.6,464.2,218.2,466,219.6z"/>
		<path class="st2" d="M473.1,209.2h4.2v4.6h-4.2V209.2z M473.1,218.4h4.2v24.2h-4.2V218.4z"/>
		<path class="st2" d="M498.5,218.9c1.6,0.8,2.8,1.9,3.7,3.1c0.8,1.2,1.4,2.7,1.6,4.3c0.2,1.1,0.4,2.9,0.4,5.4h-17.7
			c0.1,2.5,0.7,4.5,1.7,6c1.1,1.5,2.8,2.2,5,2.2c2.1,0,3.8-0.7,5.1-2.1c0.7-0.8,1.2-1.8,1.5-2.9h4c-0.1,0.9-0.5,1.9-1.1,3
			s-1.3,2-2,2.7c-1.2,1.2-2.8,2-4.6,2.5c-1,0.2-2.1,0.4-3.3,0.4c-3,0-5.6-1.1-7.6-3.3c-2.1-2.2-3.1-5.3-3.1-9.3
			c0-3.9,1.1-7.1,3.2-9.5s4.9-3.7,8.3-3.7C495.2,217.7,496.9,218.1,498.5,218.9z M500,228.5c-0.2-1.8-0.5-3.2-1.1-4.2
			c-1.1-2-3-3-5.6-3c-1.9,0-3.4,0.7-4.7,2c-1.3,1.4-1.9,3.1-2,5.2H500z"/>
		<path class="st2" d="M510.1,211.5h4.1v6.8h3.9v3.3h-3.9v15.9c0,0.8,0.3,1.4,0.9,1.7c0.3,0.2,0.8,0.2,1.6,0.2c0.2,0,0.4,0,0.6,0
			c0.2,0,0.5,0,0.8-0.1v3.2c-0.5,0.1-1,0.2-1.5,0.3s-1.1,0.1-1.6,0.1c-1.9,0-3.2-0.5-3.9-1.5c-0.7-1-1-2.2-1-3.8v-16.1h-3.2v-3.3
			h3.3L510.1,211.5L510.1,211.5z"/>
		<path class="st2" d="M537.5,218.3h4.5c-0.6,1.6-1.9,5.1-3.8,10.7c-1.5,4.2-2.7,7.6-3.7,10.2c-2.4,6.2-4,10-5,11.3
			c-1,1.4-2.6,2-5,2c-0.6,0-1,0-1.3-0.1c-0.3,0-0.7-0.1-1.1-0.2v-3.7c0.7,0.2,1.2,0.3,1.5,0.4c0.3,0,0.6,0.1,0.8,0.1
			c0.8,0,1.3-0.1,1.7-0.4c0.4-0.2,0.7-0.6,0.9-0.9c0.1-0.1,0.3-0.7,0.8-1.9c0.5-1.1,0.8-1.9,1-2.5l-9-25h4.6l6.5,19.8L537.5,218.3z"
			/>
	</g>
	<g>
		<polygon class="st2" points="175.6,108.2 175.6,249.3 6.1,249.3 6.1,79.8 158.5,79.8 158.5,108.2 		"/>
		<polygon class="st2" points="262.3,4.4 262.3,108.2 242.8,108.2 242.8,79.8 214.4,79.8 214.4,108.2 186.9,108.2 186.9,79.8 
			158.5,79.8 158.5,4.4 		"/>
		<g>
			<rect x="272.1" y="79.8" class="st2" width="28.4" height="28.4"/>
		</g>
	</g>
</g>
</svg>
