<?xml version="1.0" encoding="utf-8"?>
<!-- Generator: Adobe Illustrator 28.3.0, SVG Export Plug-In . SVG Version: 6.00 Build 0)  -->
<svg version="1.1" id="Layer_1" xmlns="http://www.w3.org/2000/svg" xmlns:xlink="http://www.w3.org/1999/xlink" x="0px" y="0px"
	 viewBox="0 0 1996.1 710.4" style="enable-background:new 0 0 1996.1 710.4;" xml:space="preserve">
<style type="text/css">
	.st0{fill:#FFFFFF;}
</style>
<g id="surface1">
	<g>
		<g>
			<g id="surface5">
				<path class="st0" d="M353.4,187l-0.1,0L353.4,187L353.4,187L353.4,187"/>
			</g>
		</g>
	</g>
	<g>
		<g>
			<g id="surface7">
				<path class="st0" d="M228.6,463.3L228.6,463.3L228.6,463.3C228.7,463.4,228.6,463.3,228.6,463.3L228.6,463.3z"/>
			</g>
		</g>
	</g>
	<g>
		<g>
			<g id="surface9">
				<path class="st0" d="M223.4,253.6l-0.1,0.1C223.4,253.6,223.5,253.6,223.4,253.6L223.4,253.6L223.4,253.6z"/>
			</g>
		</g>
	</g>
	<g>
		<g>
			<g id="surface11">
				<path class="st0" d="M486.6,247.1l-0.1-0.1C486.5,247.1,486.6,247.2,486.6,247.1L486.6,247.1L486.6,247.1"/>
			</g>
		</g>
	</g>
	<g>
		<g>
			<g id="surface13">
				<path class="st0" d="M712.2,312.5l-127.7-9.3l110.9-63.9c0,0-9.8-35.6-36.9-76.5l-119,47l72.2-105.7c0,0-24.3-27.9-66.5-52.9
					l-86.8,94l19.2-126.6c0,0-34-14.5-82.8-18.8l-37.4,122.4L319.7,0.1c0,0-36.9,1.7-82.8,19l19.4,126.5l-87-93.9
					c0,0-32.5,17.5-66.3,53.1l72.4,105.5L56.2,163.5c0,0-21.7,29.9-36.8,76.6L130,303.4L3,312.7c0,0-6.7,36.4,0,85l127.6,9.4
					L19.6,470.8c0,0,9.8,35.6,36.9,76.5l119.1-47L103.3,606c0,0,24.3,27.9,66.4,53l86.9-94l-19.3,126.5c0,0,34,14.6,82.8,18.9
					L357.7,588l37.6,122.3c0,0,36.9-1.6,82.8-18.9l-19.3-126.5l86.9,93.9c0,0,32.6-17.5,66.4-53l-72.3-105.6l119.1,46.9
					c0,0,21.8-29.9,36.8-76.5l-111-63.7l127.6-9.5C712.2,397.4,718.8,361.1,712.2,312.5 M522.5,388.7c40.9,27.7,62,81.1,104.3,87
					c-41.9,19-87.7-19.1-135.2-18.7c24.8,42.7,20.7,99.9,56.2,123.6c-46-1.1-70.7-55.3-113.6-75.6c3.8,49.2-24.7,99-3,135.8
					c-41-20.9-39.8-80.5-69.6-117.4c-17.9,46-65.2,78.5-61.6,121.1c-27.9-36.7-0.9-89.8-11.8-136c-36.1,33.7-92.8,42.4-108,82.4
					c-9.2-45.1,38.1-81.3,48.3-127.6c-47.1,14.7-102-2.1-133.1,27.4c11.3-44.6,69.6-56.7,98.9-94c-48.8-7.2-91-46.1-131.8-33.1
					c29.5-35.3,87.3-20.9,129.9-41.8c-40.9-27.7-62-81-104.4-87c41.9-19,87.8,19.1,135.2,18.7c-24.8-42.7-20.7-99.9-56.3-123.6
					c46,1.1,70.8,55.3,113.7,75.5c-3.8-49.2,24.7-99,2.9-135.8c41,20.9,39.8,80.5,69.7,117.3c17.9-46,65.2-78.5,61.5-121.1
					c27.9,36.6,0.9,89.8,11.9,135.9c0,0,0.1,0.1,0.2,0.1c36.1-33.6,92.8-42.3,108.1-82.3c9.2,45.1-38.2,81.3-48.4,127.6
					c47.1-14.7,102,2.1,133.1-27.3c-11.3,44.6-69.6,56.7-98.9,93.9c48.8,7.3,91,46.2,131.7,33.2
					C622.9,382.3,565.1,367.8,522.5,388.7"/>
			</g>
		</g>
	</g>
	<g>
		<g>
			<g id="surface15">
				<path class="st0" d="M491.7,456.9L491.7,456.9l0.1-0.1C491.7,456.8,491.6,456.9,491.7,456.9L491.7,456.9z"/>
			</g>
		</g>
	</g>
	<g>
		<g>
			<g id="surface17">
				<path class="st0" d="M403.3,383.5c0,44.7-16.2,65.6-45.7,65.8c-29.5-0.2-45.7-21.1-45.7-65.8V260h-56.5v120.2
					c0,76.8,38.1,113.8,102.2,114.7c64-0.8,102.2-37.8,102.2-114.7V260h-56.5L403.3,383.5z"/>
			</g>
		</g>
	</g>
	<g>
		<g>
			<g id="surface19">
				<path class="st0" d="M887.8,289v79c0,23.9,9.2,35.9,24.9,35.9c16.3,0,25.3-11.4,25.3-35.9v-79h31v77.2
					c0,42.5-21.4,62.7-57.4,62.7c-34.7,0-54.9-19.4-54.9-63.2V289H887.8z"/>
			</g>
		</g>
	</g>
	<g>
		<g>
			<g id="surface21">
				<path class="st0" d="M1112.5,374c-0.6-16.5-1.2-36.3-1.2-56.6h-0.4c-4.5,17.6-10.2,37.2-15.5,53.3l-16.7,53.7h-24.3l-14.7-53.3
					c-4.5-16.1-9-35.6-12.5-53.7h-0.4c-0.6,19-1.4,38-2.2,57l-2.7,52.3H993l8.8-137.7h41.5l13.5,46c4.5,15.9,8.6,33.1,11.6,49.2h0.8
					c3.7-15.9,8.4-34.1,13.1-49.4l14.5-45.7h40.9l7.3,137.7h-30.2L1112.5,374z"/>
			</g>
		</g>
	</g>
	<g>
		<g>
			<g id="surface23">
				<path class="st0" d="M1269.7,422.8c-5.5,2.7-18.6,5.9-35.1,5.9c-47.6,0-72.1-29.8-72.1-69c0-46.8,33.5-72.7,75.2-72.7
					c16.1,0,28.4,3.3,33.9,5.9l-6.5,24.7c-6.1-2.6-14.9-5.1-26.1-5.1c-24.5,0-43.7,14.9-43.7,45.6c0,27.4,16.4,44.7,43.9,44.7
					c9.6,0,19.8-1.8,26.1-4.5L1269.7,422.8z"/>
			</g>
		</g>
	</g>
	<g>
		<g>
			<g id="surface25">
				<path class="st0" d="M1362.6,289v79c0,23.9,9.2,35.9,24.9,35.9c16.3,0,25.3-11.4,25.3-35.9v-79h31v77.2
					c0,42.5-21.4,62.7-57.4,62.7c-34.7,0-54.9-19.4-54.9-63.2V289H1362.6z"/>
			</g>
		</g>
	</g>
	<g>
		<g>
			<g id="surface27">
				<path class="st0" d="M1504.6,299.6v27.2h22.3v22.9h-22.3v36.1c0,12.1,3,17.6,12.2,17.6c4.3,0,6.3-0.2,9.2-0.8l0.2,23.5
					c-3.9,1.4-11.4,2.6-20,2.6c-10,0-18.4-3.5-23.5-8.6c-5.7-5.9-8.6-15.6-8.6-29.6v-40.8h-13.3v-22.9h13.3V308L1504.6,299.6z"/>
			</g>
		</g>
	</g>
	<g>
		<g>
			<g id="surface29">
				<path class="st0" d="M1544.8,359.7c0-14.7-0.2-24.3-0.8-32.9h26.6l1.2,18.6h0.8c5.1-14.7,17.2-20.8,27-20.8
					c2.9,0,4.3,0.2,6.5,0.6v29.2c-2.5-0.4-4.9-0.8-8.4-0.8c-11.4,0-19.2,5.9-21.3,15.7c-0.4,2-0.6,4.3-0.6,7v50.4h-31L1544.8,359.7z
					"/>
			</g>
		</g>
	</g>
	<g>
		<g>
			<g id="surface31">
				<path class="st0" d="M1644.7,386.7c1,12.8,13.7,19,28.2,19c10.6,0,19.2-1.5,27.6-4.3l4.1,21.1c-10.2,4.3-22.7,6.3-36.1,6.3
					c-33.9,0-53.3-19.6-53.3-50.9c0-25.3,15.9-53.3,50.4-53.3c32.3,0,44.5,25.1,44.5,49.9c0,5.3-0.6,10-1,12.2L1644.7,386.7z
					 M1681.2,365.4c0-7.5-3.3-20.2-17.4-20.2c-13.3,0-18.6,12-19.4,20.2H1681.2z"/>
			</g>
		</g>
	</g>
	<g>
		<g>
			<g id="surface33">
				<path class="st0" d="M1803.6,424c-5.5,2.6-15.9,4.7-27.8,4.7c-32.3,0-52.9-19.8-52.9-51.1c0-29,20-52.9,57.2-52.9
					c8.2,0,17.2,1.4,23.7,3.9l-4.9,23.1c-3.7-1.6-9.2-3.1-17.4-3.1c-16.3,0-26.9,11.6-26.7,27.8c0,18.4,12.2,28,27.4,28
					c7.3,0,13.1-1.2,17.8-3.3L1803.6,424z"/>
			</g>
		</g>
	</g>
	<g>
		<g>
			<g id="surface35">
				<path class="st0" d="M1820.7,281.5h31v57.4h0.4c3.3-4.5,7.4-8,12.3-10.4c4.7-2.5,10.4-3.9,16.1-3.9c19.8,0,34.9,13.7,34.9,43.9
					v58.2h-31v-54.9c0-13.1-4.5-22-16.1-22c-8.2,0-13.3,5.3-15.5,11c-0.8,1.8-1,4.5-1,6.7v59.2h-31L1820.7,281.5z"/>
			</g>
		</g>
	</g>
	<g>
		<g>
			<g id="surface37">
				<path class="st0" d="M1973.9,299.6v27.2h22.3v22.9h-22.3v36.1c0,12.1,3.1,17.6,12.3,17.6c4.3,0,6.3-0.2,9.2-0.8l0.2,23.5
					c-3.9,1.4-11.4,2.6-20,2.6c-10,0-18.4-3.5-23.5-8.6c-5.7-5.9-8.6-15.6-8.6-29.6v-40.8h-13.3v-22.9h13.3V308L1973.9,299.6z"/>
			</g>
		</g>
	</g>
</g>
</svg>
