<?xml version="1.0" encoding="utf-8"?>
<!-- Generator: Adobe Illustrator 28.3.0, SVG Export Plug-In . SVG Version: 6.00 Build 0)  -->
<svg version="1.1" id="Layer_1" xmlns="http://www.w3.org/2000/svg" xmlns:xlink="http://www.w3.org/1999/xlink" x="0px" y="0px"
	 viewBox="0 0 261.8 191.6" style="enable-background:new 0 0 261.8 191.6;" xml:space="preserve">
<style type="text/css">
	.st0{fill:#FFFFFF;}
</style>
<path class="st0" d="M21.7,146.7v6.1h9.9c-1,2-2.2,3.4-3.8,4.4c-1.5,0.9-3.5,1.4-5.7,1.4c-3.5,0-6.4-1.1-8.8-3.4
	c-0.4-0.4-0.8-0.8-1.1-1.3l-0.6-0.9v-0.1c-0.2-0.3-0.3-0.6-0.5-0.9l-0.1-0.1c-0.1-0.3-0.3-0.5-0.4-0.8c0-0.1-0.1-0.2-0.1-0.2
	c-0.1-0.3-0.2-0.5-0.3-0.8c0-0.1-0.1-0.2-0.1-0.4c-0.1-0.2-0.1-0.5-0.2-0.7c0-0.2,0-0.4-0.1-0.6c0-0.2-0.1-0.3-0.1-0.5
	c0-0.4-0.1-0.8-0.1-1.2c0-3.2,1.1-5.9,3.4-8.1c2.3-2.2,5.1-3.3,8.5-3.3c3.9,0,7.3,1.5,10.2,4.6l4.6-4.5c-2.1-2.2-4.3-3.8-6.4-4.7
	c-2.6-1.1-5.4-1.6-8.4-1.6c-5.7,0-10.3,2-13.9,5.9c-3,3.3-4.5,7.2-4.5,11.7c0,3.3,0.8,6.3,2.4,9.2c0.3,0.5,0.6,0.9,0.9,1.3
	c0,0.1,0.1,0.2,0.2,0.3l0.9,1.2c1.3,1.5,2.9,2.8,4.6,3.8c2.8,1.5,6,2.3,9.5,2.3c3.3,0,6.2-0.7,8.7-2.1c2.5-1.4,4.5-3.4,6-6.1
	c1.6-2.7,2.3-5.5,2.3-8.4v-1.5L21.7,146.7L21.7,146.7z M54.9,138.3c-3.8,0-6.9,1.3-9.4,3.8s-3.8,5.7-3.8,9.5c0,3.7,1.3,6.8,3.8,9.3
	s5.8,3.7,9.7,3.7c2.6,0,4.8-0.5,6.6-1.3c1.9-0.9,3.5-2.3,4.8-4.2l-5.4-2.5c-1.7,1.7-3.8,2.5-6.1,2.5c-2,0-3.6-0.5-4.9-1.6
	c-1.3-1.1-2.1-2.5-2.4-4.3h20.6V152c0-4.1-1.3-7.5-3.8-10C62.2,139.5,58.9,138.3,54.9,138.3 M48.2,148.3c0.7-1.5,1.5-2.6,2.3-3.2
	c1.4-1,2.9-1.5,4.7-1.5c1.6,0,3.1,0.4,4.3,1.3c1.2,0.9,2.1,2,2.5,3.4C62,148.3,48.2,148.3,48.2,148.3z M86.2,138.3
	c-1.2,0-2.4,0.2-3.6,0.7s-2.5,1.3-3.9,2.5v-2.6h-6.4V164h6.4v-10.1c0-2.6,0.1-4.3,0.3-5.1c0.4-1.5,1-2.7,1.9-3.5
	c0.9-0.9,2-1.3,3.3-1.3c1,0,1.8,0.3,2.5,0.8s1.1,1.3,1.4,2.2c0.3,1,0.4,3,0.4,6v11h6.4v-16.6c0-2.9-0.7-5.1-2.2-6.5
	C90.9,139.1,88.7,138.3,86.2,138.3 M111.7,138.3c-3.8,0-6.9,1.3-9.4,3.8s-3.7,5.7-3.7,9.5c0,3.7,1.3,6.8,3.8,9.3s5.7,3.7,9.7,3.7
	c2.6,0,4.8-0.5,6.6-1.3c1.9-0.9,3.5-2.3,4.8-4.2l-5.4-2.5c-1.7,1.7-3.8,2.5-6.1,2.5c-2,0-3.6-0.5-4.9-1.6s-2.1-2.5-2.4-4.3h20.5V152
	c0-4.1-1.3-7.5-3.8-10S115.7,138.3,111.7,138.3 M105,148.3c0.7-1.5,1.5-2.6,2.3-3.2c1.3-1,2.9-1.5,4.7-1.5c1.6,0,3.1,0.4,4.3,1.3
	c1.2,0.9,2.1,2,2.5,3.4H105z M135.5,139.2c-1,0.6-1.7,1.6-2.3,2.8v-3.2h-5.6V164h6.4v-11.3c0-3.5,0.3-5.9,1-7
	c0.7-1.2,1.5-1.8,2.4-1.8c0.5,0,1.1,0.2,1.8,0.5l1.9-5.4c-0.9-0.4-1.7-0.6-2.5-0.6C137.5,138.3,136.5,138.6,135.5,139.2 M162,141.6
	c-1.1-1.1-2.4-2-3.7-2.5c-1.3-0.6-2.8-0.8-4.3-0.8c-3.3,0-6.2,1.2-8.5,3.7s-3.5,5.6-3.5,9.5c0,3.7,1.2,6.9,3.6,9.4
	c2.4,2.5,5.3,3.8,8.6,3.8c1.5,0,2.8-0.3,4.1-0.8s2.5-1.4,3.8-2.5v2.7h6.4V139h-6.4v2.6L162,141.6L162,141.6z M160.3,156.8
	c-1.3,1.4-3,2.1-5,2.1s-3.6-0.7-4.9-2.1c-1.3-1.4-2-3.2-2-5.4s0.6-3.9,2-5.3c1.3-1.4,3-2.1,4.9-2.1c2,0,3.7,0.7,5,2
	c1.3,1.4,2,3.1,2,5.3C162.3,153.6,161.7,155.4,160.3,156.8 M172.8,164h6.4v-34.8h-6.4V164L172.8,164z M190.8,103.4
	c-1.1-1.1-2.3-1.9-3.7-2.5c-1.3-0.6-2.7-0.8-4.2-0.8c-3.3,0-6,1.2-8.3,3.6s-3.4,5.6-3.4,9.4c0,3.7,1.2,6.7,3.5,9.2
	c2.4,2.5,5.2,3.7,8.4,3.7c1.4,0,2.8-0.3,4-0.8s2.5-1.3,3.7-2.5v2.6h6.2v-24.7h-6.2C190.8,100.6,190.8,103.4,190.8,103.4z
	 M189.1,118.3c-1.3,1.3-2.9,2-4.9,2c-1.9,0-3.5-0.7-4.8-2.1s-2-3.1-2-5.3c0-2.1,0.6-3.9,1.9-5.2c1.3-1.4,2.9-2,4.9-2s3.6,0.7,4.9,2
	c1.3,1.3,2,3.1,2,5.2C191.1,115.2,190.5,116.9,189.1,118.3 M221.8,103.4c-1.3-1.2-2.6-2-3.9-2.6c-1.3-0.5-2.6-0.8-4.1-0.8
	c-3.1,0-5.7,1.1-8,3.2c-2.5,2.4-3.7,5.5-3.7,9.4c0,3.7,1.2,6.7,3.5,9.1s5.1,3.6,8.5,3.6c1.5,0,2.9-0.2,4.1-0.7
	c1.2-0.5,2.4-1.3,3.5-2.4c0,2-0.2,3.5-0.6,4.3c-0.4,0.8-1.1,1.5-2.2,2c-1,0.5-2.4,0.8-4.1,0.8c-1.3,0-2.5-0.2-3.4-0.6
	c-1-0.4-1.8-0.9-2.4-1.6h-6.9c0.5,1.7,1.4,3.1,2.5,4.3s2.5,2.1,4.2,2.7c1.7,0.6,3.7,0.9,6.2,0.9c4.6,0,8-1.3,10.3-4
	c1.7-2,2.5-5,2.5-9.2v-21.1h-6.2v2.7L221.8,103.4L221.8,103.4z M220.2,117.8c-1.3,1.3-2.9,1.9-4.8,1.9c-2,0-3.6-0.7-5-2
	c-1.3-1.3-2-3-2-5s0.6-3.6,1.9-4.9c1.3-1.3,2.9-2,4.9-2s3.6,0.6,4.9,1.9c1.3,1.3,1.9,2.9,1.9,5C222.1,114.8,221.5,116.5,220.2,117.8
	 M259.2,113.6c0-4.1-1.2-7.3-3.7-9.8c-2.5-2.5-5.6-3.7-9.6-3.7c-3.7,0-6.8,1.2-9.2,3.7c-2.5,2.5-3.7,5.6-3.7,9.4
	c0,3.7,1.2,6.7,3.7,9.2c2.5,2.4,5.6,3.7,9.5,3.7c2.5,0,4.7-0.5,6.5-1.3c1.8-0.9,3.4-2.3,4.7-4.1l-5.3-2.4c-1.7,1.6-3.7,2.4-6,2.4
	c-1.9,0-3.6-0.5-4.8-1.6c-1.3-1-2-2.4-2.3-4.2h20.1L259.2,113.6L259.2,113.6z M239.3,110c0.7-1.5,1.5-2.6,2.3-3.2
	c1.3-1,2.9-1.5,4.6-1.5c1.6,0,3,0.4,4.2,1.3s2,2,2.4,3.4C252.8,110,239.3,110,239.3,110z M14.8,117.4h13.3l3.1,7.9h6.7L25,92h-6.5
	l-13,33.4h6L14.8,117.4L14.8,117.4z M21.8,100.9l4.1,10.6h-8.5L21.8,100.9L21.8,100.9z M52.9,126c1.5,0,2.8-0.3,4-0.8
	s2.5-1.3,3.7-2.5v2.6h6.2V91.1h-6.2v12.3c-0.4-0.4-0.8-0.8-1.3-1.1c-0.7-0.6-1.5-1-2.4-1.4c-1.3-0.6-2.7-0.8-4.2-0.8
	c-3.3,0-6,1.2-8.3,3.6s-3.4,5.5-3.4,9.4c0,3.7,1.2,6.7,3.5,9.2C46.9,124.8,49.7,126,52.9,126 M49.1,107.8c1.3-1.4,2.9-2,4.9-2
	s3.7,0.7,4.9,2c1.3,1.3,2,3.1,2,5.2c0,2.2-0.7,4-2,5.3c-1.3,1.4-2.9,2-4.9,2c-1.9,0-3.5-0.7-4.9-2.1c-1.3-1.4-2-3.1-2-5.3
	C47.2,110.9,47.9,109.1,49.1,107.8 M83.1,115.2l-6.3-14.6h-6.4L81,125.3h4l10.7-24.7h-6.3L83.1,115.2z M110.1,126
	c1.4,0,2.8-0.3,4-0.8s2.5-1.3,3.7-2.5v2.6h6.2v-24.7h-6.2v2.7c-1.1-1.1-2.3-1.9-3.7-2.5c-1.3-0.6-2.7-0.8-4.2-0.8
	c-3.3,0-6,1.2-8.3,3.6c-0.7,0.8-1.3,1.6-1.8,2.5c-1.1,2-1.6,4.2-1.6,6.8c0,3.7,1.2,6.7,3.5,9.2C104,124.8,106.8,126,110.1,126
	 M106.3,107.8c0.6-0.7,1.4-1.2,2.2-1.5c0.8-0.3,1.7-0.5,2.7-0.5s1.9,0.2,2.8,0.5c0.8,0.3,1.5,0.8,2.2,1.5c1.3,1.3,2,3.1,2,5.2
	c0,2.2-0.7,4-2,5.3c-1.3,1.4-2.9,2-4.9,2c-1.9,0-3.5-0.7-4.8-2.1s-2-3.1-2-5.3C104.4,110.9,105,109.1,106.3,107.8 M144.3,106.5
	c0.7,0.5,1.1,1.2,1.4,2.2c0.3,1,0.4,2.9,0.4,5.9v10.8h6.2v-16.3c0-1-0.1-2-0.3-2.8c-0.3-1.5-1-2.7-1.9-3.6c-1.7-1.7-3.8-2.6-6.3-2.6
	c-1.2,0-2.4,0.2-3.5,0.7s-2.4,1.3-3.9,2.5v-2.5h-6.2v24.7h6.2v-9.9c0-2.6,0.1-4.2,0.3-5c0.4-1.5,1-2.6,1.9-3.5
	c0.3-0.3,0.7-0.6,1.1-0.7c0.7-0.3,1.4-0.5,2.2-0.5s1.5,0.2,2.1,0.5C144.1,106.3,144.2,106.4,144.3,106.5 M165.3,91.6h-6.2v9.1h-3.2
	v5.3h3.2v19.4h6.2V106h3.7v-5.3h-3.7V91.6L165.3,91.6z"/>
<path class="st0" d="M9.3,177.2h1.5v9H9.3V177.2z M14.8,177.2h1.5l3.5,5.9v-5.9h1.6v8.9h-1.5l-3.5-5.9v5.9h-1.6V177.2z"/>
<g>
	<path class="st0" d="M29.8,178.4l-1.2,1.1c-0.4-0.6-0.8-0.9-1.2-0.9c-0.2,0-0.4,0.1-0.5,0.2c-0.1,0.1-0.2,0.3-0.2,0.4
		c0,0.1,0,0.3,0.1,0.4c0.1,0.2,0.5,0.6,1.1,1.2c0.6,0.5,1,0.9,1.1,1c0.3,0.3,0.5,0.7,0.7,1c0.1,0.3,0.2,0.7,0.2,1
		c0,0.7-0.2,1.3-0.7,1.8s-1.1,0.7-1.8,0.7c-0.6,0-1.1-0.1-1.5-0.5c-0.4-0.3-0.8-0.8-1.1-1.5l1.3-0.9c0.4,0.8,0.8,1.2,1.4,1.2
		c0.3,0,0.5-0.1,0.7-0.2c0.2-0.2,0.3-0.4,0.3-0.6c0-0.2-0.1-0.4-0.2-0.6c-0.1-0.2-0.4-0.5-0.9-0.9c-0.9-0.8-1.5-1.4-1.7-1.8
		c-0.3-0.4-0.4-0.9-0.4-1.3c0-0.6,0.2-1.2,0.6-1.6c0.4-0.4,1-0.7,1.6-0.7c0.4,0,0.8,0.1,1.2,0.3C28.9,177.5,29.3,177.8,29.8,178.4"
		/>
</g>
<g>
	<path class="st0" d="M33.6,177.2h1.5v5.8c0,0.5,0,0.9,0.1,1.1c0.1,0.2,0.2,0.4,0.4,0.5s0.4,0.2,0.7,0.2s0.5-0.1,0.7-0.2
		c0.2-0.1,0.3-0.3,0.4-0.5c0.1-0.2,0.1-0.6,0.1-1.2v-5.6H39v5.3c0,0.9,0,1.5-0.1,1.9s-0.3,0.7-0.5,1c-0.3,0.3-0.6,0.6-0.9,0.7
		c-0.3,0.1-0.7,0.2-1.2,0.2c-0.6,0-1.1-0.1-1.5-0.4c-0.4-0.3-0.7-0.7-0.9-1.1c-0.2-0.4-0.3-1.2-0.3-2.3V177.2z"/>
</g>
<g>
	<path class="st0" d="M43.3,177.2h1.6c0.9,0,1.5,0.1,1.9,0.3s0.7,0.5,0.9,0.9s0.3,0.9,0.3,1.4c0,0.6-0.1,1.1-0.4,1.5
		c-0.3,0.4-0.7,0.7-1.2,0.9l1.9,4h-1.7l-1.8-3.8h-0.2v3.8h-1.5v-9L43.3,177.2L43.3,177.2z M44.8,180.7h0.5c0.5,0,0.9-0.1,1-0.2
		c0.2-0.1,0.3-0.4,0.3-0.7c0-0.2,0-0.4-0.1-0.5s-0.2-0.2-0.4-0.3s-0.5-0.1-0.9-0.1h-0.4C44.8,178.9,44.8,180.7,44.8,180.7z"/>
</g>
<path class="st0" d="M54.5,177.2h1.6l3.1,9h-1.6l-0.6-1.9h-3.3l-0.7,1.9h-1.6L54.5,177.2z M55.3,179.5l-1.1,3.1h2.2
	C56.4,182.6,55.3,179.5,55.3,179.5z M62.7,177.2h1.4l3.6,5.9v-5.9h1.5v8.9h-1.5l-3.5-5.9v5.9h-1.5V177.2z"/>
<g>
	<path class="st0" d="M80.8,178.7l-1.1,1.1c-0.7-0.9-1.6-1.3-2.5-1.3c-0.8,0-1.4,0.3-2,0.9c-0.5,0.6-0.8,1.3-0.8,2.2
		c0,0.6,0.1,1.1,0.4,1.6c0.2,0.5,0.6,0.8,1,1.1s0.9,0.4,1.4,0.4c0.4,0,0.9-0.1,1.2-0.3c0.4-0.2,0.8-0.5,1.2-1l1.1,1.2
		c-0.6,0.6-1.2,1.1-1.7,1.4c-0.5,0.3-1.2,0.4-1.8,0.4c-1.3,0-2.3-0.4-3.1-1.3c-0.8-0.9-1.2-2-1.2-3.4c0-0.9,0.2-1.7,0.6-2.4
		s0.9-1.2,1.6-1.7c0.7-0.4,1.4-0.6,2.2-0.6c0.7,0,1.3,0.2,1.9,0.5C79.9,177.7,80.4,178.2,80.8,178.7"/>
</g>
<path class="st0" d="M84.4,177.2h4.5v1.6H86v1.6h2.9v1.7H86v2.4h2.9v1.6h-4.5V177.2z"/>
<g>
	<path class="st0" d="M105.6,178.7l-1.1,1.1c-0.7-0.9-1.6-1.3-2.5-1.3c-0.8,0-1.4,0.3-2,0.9c-0.5,0.6-0.8,1.3-0.8,2.2
		c0,0.6,0.1,1.1,0.4,1.6c0.2,0.5,0.6,0.8,1,1.1s0.9,0.4,1.4,0.4s0.9-0.1,1.2-0.3c0.4-0.2,0.8-0.5,1.2-1l1.1,1.2
		c-0.6,0.6-1.2,1.1-1.7,1.4c-0.5,0.3-1.1,0.4-1.8,0.4c-1.3,0-2.3-0.4-3.1-1.3c-0.8-0.9-1.2-2-1.2-3.4c0-0.9,0.2-1.7,0.6-2.4
		s0.9-1.2,1.6-1.7c0.7-0.4,1.4-0.6,2.2-0.6c0.7,0,1.3,0.2,1.9,0.5C104.6,177.7,105.1,178.2,105.6,178.7"/>
</g>
<g>
	<path class="st0" d="M113,176.9c1.2,0,2.1,0.5,3,1.4c0.8,0.9,1.2,2,1.2,3.4c0,1.3-0.4,2.4-1.2,3.3c-0.8,0.9-1.8,1.4-3,1.4
		s-2.2-0.5-3-1.4s-1.2-2-1.2-3.3c0-0.9,0.2-1.6,0.6-2.4c0.4-0.7,0.9-1.3,1.6-1.7C111.5,177.1,112.3,176.9,113,176.9 M113,178.6
		c-0.8,0-1.4,0.3-1.9,0.9c-0.5,0.6-0.8,1.3-0.8,2.2c0,1,0.3,1.8,1,2.4c0.5,0.4,1.1,0.7,1.7,0.7c0.7,0,1.4-0.3,1.9-0.9
		c0.5-0.6,0.8-1.3,0.8-2.2s-0.3-1.6-0.8-2.2C114.4,178.9,113.7,178.6,113,178.6"/>
</g>
<path class="st0" d="M121.8,177.2h1.5l1.9,6.2l1.9-6.2h1.5l1.3,8.9h-1.5l-0.8-5.6l-1.8,5.6h-1.3l-1.7-5.6l-0.9,5.6h-1.5L121.8,177.2
	z"/>
<g>
	<g>
		<path class="st0" d="M133.4,177.2h1.7c0.9,0,1.5,0.1,1.9,0.3s0.7,0.5,0.9,0.9s0.3,0.9,0.3,1.4c0,0.6-0.2,1.1-0.5,1.6
			c-0.3,0.4-0.7,0.7-1.2,0.9c-0.3,0.1-0.9,0.1-1.6,0.1v3.8h-1.5V177.2z M135,180.7h0.5c0.4,0,0.7,0,0.8-0.1c0.2-0.1,0.3-0.2,0.4-0.3
			c0.1-0.1,0.1-0.3,0.1-0.5c0-0.3-0.1-0.6-0.4-0.8c-0.2-0.1-0.5-0.2-1-0.2H135L135,180.7L135,180.7z"/>
	</g>
</g>
<path class="st0" d="M144.5,177.2h1.6l3.1,9h-1.6l-0.6-1.9h-3.3l-0.7,1.9h-1.6L144.5,177.2z M145.3,179.5l-1.1,3.1h2.2L145.3,179.5
	L145.3,179.5z M152.7,177.2h1.4l3.6,5.9v-5.9h1.5v8.9h-1.4l-3.6-5.9v5.9h-1.5V177.2z M162.8,177.2h1.6l1.5,3.1l1.5-3.1h1.7l-2.4,5
	v3.9h-1.5v-3.9L162.8,177.2z M178.1,177.2h0.8v8.1h3.2v0.8h-4V177.2z M185.8,176.8c0.2,0,0.3,0.1,0.5,0.2c0.1,0.1,0.2,0.3,0.2,0.5
	s-0.1,0.3-0.2,0.5c-0.1,0.1-0.3,0.2-0.5,0.2s-0.3-0.1-0.5-0.2c-0.1-0.1-0.2-0.3-0.2-0.5s0.1-0.4,0.2-0.5
	C185.5,176.8,185.6,176.8,185.8,176.8 M185.4,179.5h0.8v6.6h-0.8V179.5z M190,179.5h0.8v1.2c0.3-0.4,0.5-0.7,0.8-0.9
	c0.4-0.3,0.8-0.4,1.2-0.4c0.3,0,0.6,0.1,0.8,0.2c0.3,0.1,0.5,0.3,0.6,0.5c0.2,0.2,0.3,0.5,0.4,0.9c0.3-0.5,0.6-0.9,1-1.2
	s0.8-0.4,1.2-0.4s0.8,0.1,1.1,0.3s0.6,0.6,0.7,1c0.1,0.4,0.2,1,0.2,1.9v3.6H198v-3.6c0-0.7,0-1.2-0.1-1.5s-0.3-0.5-0.5-0.7
	s-0.5-0.2-0.8-0.2c-0.4,0-0.7,0.1-1,0.4c-0.3,0.2-0.5,0.6-0.7,1s-0.2,1.1-0.2,2v2.6h-0.8v-3.4c0-0.8,0-1.3-0.1-1.6s-0.2-0.5-0.5-0.7
	c-0.2-0.2-0.5-0.3-0.8-0.3c-0.4,0-0.7,0.1-1,0.4c-0.3,0.2-0.5,0.5-0.7,1c-0.2,0.4-0.2,1-0.2,1.9v2.8h-0.8v-6.8H190L190,179.5z
	 M203.3,176.8c0.2,0,0.3,0.1,0.5,0.2c0.1,0.1,0.2,0.3,0.2,0.5s-0.1,0.3-0.2,0.5c-0.1,0.1-0.3,0.2-0.5,0.2s-0.3-0.1-0.5-0.2
	c-0.1-0.1-0.2-0.3-0.2-0.5s0.1-0.4,0.2-0.5C202.9,176.8,203.1,176.8,203.3,176.8 M202.9,179.5h0.8v6.6h-0.8V179.5z"/>
<path class="st0" d="M208.2,177h0.8v2.5h1.2v0.7H209v5.9h-0.8v-5.9h-1.1v-0.7h1.1V177z M218.7,184l0.7,0.4c-0.2,0.5-0.5,0.8-0.7,1.1
	c-0.3,0.3-0.6,0.5-0.9,0.6c-0.3,0.2-0.8,0.2-1.2,0.2c-1,0-1.8-0.3-2.3-1.1c-0.6-0.7-0.8-1.5-0.8-2.4c0-0.8,0.2-1.6,0.7-2.3
	c0.6-0.8,1.4-1.2,2.4-1.2s1.9,0.4,2.5,1.3c0.4,0.6,0.7,1.4,0.7,2.3h-5.5c0,0.8,0.2,1.4,0.7,1.9c0.4,0.5,1,0.7,1.6,0.7
	c0.3,0,0.6-0.1,0.9-0.2c0.3-0.1,0.5-0.3,0.8-0.5C218.2,184.7,218.5,184.4,218.7,184 M218.7,182.1c-0.1-0.4-0.3-0.8-0.5-1.1
	s-0.5-0.5-0.8-0.7s-0.7-0.3-1-0.3c-0.6,0-1.1,0.2-1.5,0.6c-0.3,0.3-0.6,0.8-0.7,1.4h4.5V182.1z M229.2,176.9v9.2h-0.8V185
	c-0.3,0.4-0.7,0.8-1.1,1c-0.4,0.2-0.9,0.3-1.3,0.3c-0.8,0-1.6-0.3-2.2-1c-0.6-0.7-0.9-1.5-0.9-2.5s0.3-1.8,0.9-2.4
	c0.6-0.7,1.3-1,2.2-1c0.5,0,0.9,0.1,1.3,0.3c0.4,0.2,0.7,0.6,1.1,1v-3.8L229.2,176.9L229.2,176.9z M226.1,180.1
	c-0.4,0-0.8,0.1-1.2,0.4c-0.4,0.2-0.6,0.6-0.9,1c-0.2,0.4-0.3,0.9-0.3,1.3s0.1,0.9,0.3,1.3c0.2,0.4,0.5,0.8,0.9,1s0.8,0.4,1.2,0.4
	s0.8-0.1,1.2-0.4c0.4-0.2,0.7-0.6,0.9-1s0.3-0.9,0.3-1.4c0-0.8-0.2-1.4-0.7-1.9C227.4,180.4,226.8,180.1,226.1,180.1"/>
<g>
	<path class="st0" d="M101.8,60.3l0.6-0.9l-1,0.6c-0.9-0.5-1.9-1.1-3-1.7l2.6-2l-4.9,0.8c-1.2-0.6-2.4-1.1-3.7-1.7l8-2.5l-26-5.1
		l26.3,1.7l-12.2-9.9l13.5,6.7l-28.1-35L104,43.9L91.4,9.7l15.3,32.6l-0.4-10.7l3.3,10l6.8-36.3L112.6,42l9.4-18.7l-6.6,20.1
		l18.9-23.7l-16.7,26l18.8-11.8l-17.3,14.7l0.9-0.2c-3.1,3.3-6.1,6.9-9,10.8c-0.4-0.1-0.9-0.1-1.4-0.1c-2.2,0-4.1,1-5.4,2.6
		C103.5,61.3,102.7,60.8,101.8,60.3"/>
	<path class="st0" d="M107.7,67.2c-5-0.8-8.3-5.9-8.9-11.8c-0.7-7,4.1-13.7,10.4-14.6c5.2-0.7,10.1,2.6,12.1,7.7
		C116.9,54,111.5,60.8,107.7,67.2"/>
	<path class="st0" d="M207.2,82.7h1.9c0,0-1-0.2-2.7-0.6c-5-3.4-16.8-11.8-22.2-18.8l-0.9-0.9c-2.4-2.6-8.8-0.2-8.8-0.2l-7.1-6.5
		l-4.2-0.3l-6-10.1l-15.7-15.5l-20.3,18.3l-3.6,5.2l-3.6,0.8c0,0-3.4,4.5-4.5,5s-3.8-0.3-3.8-0.3l-6.5,1.1l-6.3-9.6
		c0,0-10.1-6.8-14-8.9c-4.1-2.1-8.5,6.9-11.5,11.4s-11,6.5-14,8.8s-9.8,9.1-13.2,11.5c-2.6,1.8-12.5,6.7-16.9,8.8
		c1.5-0.2,3.2-0.5,4.9-0.7c-3.4,0.9-5.5,1.4-5.5,1.4h181c1.8,0.3,3.5,0.6,5.1,1C208.7,83.7,208.1,83.3,207.2,82.7"/>
	<path class="st0" d="M124.2,42.4c1.3-1.4,15.6-13.4,16.5-14.1"/>
	<path class="st0" d="M209.1,84c-1.3,0.4-7.7-4.4-8.8-4.8c-1.1-0.5-2.9-1.6-4.1-2.5c-1.1-0.7-5.5-5.6-7-7.1c-1.5-1.3-6.7-6.4-8.4-7
		c-1.8-0.8-4.2,1.3-5.5,1.9c-1.2,0.4-3.5-2.5-4.1-3.3c-0.6-1-2.2-4.1-4.9-4c-1.4,0-14,8.7-14,8.7s3.9-6.3,7-9.5
		c2.5-2.5,1.3-4.2,0.5-4.9c-0.6-0.7-6.3-9.2-6.9-9.8c-0.6-0.7-2.1-1.1-2.6-2.3s-2-1.3-2-1.3s-2-2.5-3.1-3c-1.1-0.3-3.1-2.9-4.4-3.5
		c-1.2-0.7-8.1,7.1-9.7,8.4c-1.8,1.3-9.6,9.1-10.3,10c-0.6,1.1-1,3.3-1.2,4.7c-0.4,1.6-3,1.6-4.3,1.3c-1.2-0.1-1.5,1.6-1.7,2.8
		c-0.4,1.2-1,1.4-2.2,1.8c-1,0.2-2.7,1.8-2.8,2.5c-0.3,0.7-17.6,11.2-16.1,9.6c3.1-3.4,11.9-11.1,12.2-12.4c0.4-1.7-4,0.6-4.8,1.3
		c-0.9,0.7-4.7-4.4-5.7-5.9C93.3,54,91.6,52,91,50.8s-2.1-1.1-3.2-1.3c-1.1-0.3-3.1-2.7-4.1-2.8s-2.9-2.9-5.2-4
		c-2.4-1.1-5,3.3-6.5,5c-1.5,1.8-5,6.5-6,8.3s-4.7,3.3-6.2,4c-1.5,0.9-2.5,0.6-3.1,1.3c-0.7,0.9-2.8,2.3-4.3,2.9
		c-1.3,0.5-3.1,3-3.1,4.2s-1.6,0.7-3,1.8c-1.2,1.1-3.5,2.5-5.3,4.3c-1.2,1.1-2.5,2.5-3.8,2.7c-1.5,0.4-4,0.5-5.7,1.2
		c-1.6,0.7-3.1,2.3-4.7,3.2c-1.8,1.1-5.1,1-4.1-0.2s4.2-1.7,5.5-3.6c1.2-1.9,5.8-2.6,8.2-3.2c2.2-0.6,1.7-2.5,4.6-3.6
		c2.7-1.1,3.7-2.2,4.7-3.2c1.6-1.8,2.5-3.7,2.5-3.7s2.5-0.6,4-1.8c1.5-1.3,2.5-3,6.5-4.7c4-1.5,6.2-3.1,7.1-4.9
		c0.7-1.6,4.1-6.7,5.4-7.9c1.2-1.2,6.2-4.8,7.1-5.6c0.7-0.7,5.3,3.5,6.8,5c1.5,1.3,5.3,4,6.8,4.5c1.5,0.3,5.3,8.3,6.8,9.8
		c1.5,1.3,3-1.6,6.1-1.7s3.3,1.1,4.4,1.1s2.3-2.5,2.8-3.7c0.4-1.2,5.7-0.7,5.7-0.7s1.1-3.1,1.4-4.7c0.1-1.4,4.1-4.8,5.3-6.2
		c1.3-1.4,15.6-13.4,16.5-14.1c0.9-0.7,4,3.4,5.6,5c1.8,1.7,1.4,1.2,2.6,2c1.2,0.8,1.5,1.3,2.6,2c1.2,0.5,1.7,2.4,1.7,2.4l10.6,13
		c0,0,0.5,2.4,1.7,1.7c1.3-0.7,2.3,0.3,2.3,0.3s2.1,2.5,4.9,4.7c2.7,2.2,4.7,2.3,7.1,1.2c2.2-0.9,4.4,1.6,4.4,1.6l15.1,14.4
		c0,0,2.6,1.5,3.6,2.1c1.1,0.7,3.5,0.6,4.1,2.1C207.6,82.3,211.6,83.4,209.1,84"/>
	<path class="st0" d="M111.2,56.4l20.5-10.5l-20.8,9.8l-1.2-0.3l-0.8,0.2l-1.6,0.7v0.2l-20.9-2.9l21.5,3.5l-21.4,4.7l20.3-3.7
		L88.9,69.6l18.4-10.8l-14,17.3l14.4-16.6l-9.9,20.4l10.6-20.1l-2.2,23.3l3-23.7l4.2,23.5l-3.7-24.4l10.5,21.7L110,58.3l15.9,16.9
		l-15.6-17.3L130,68.4l-19.5-10.9l21.6,3.1l-21-3.6l20.8-4.7L111.2,56.4z"/>
</g>
</svg>
