<?xml version="1.0" encoding="UTF-8"?><svg id="Layer_2" xmlns="http://www.w3.org/2000/svg" xmlns:xlink="http://www.w3.org/1999/xlink" viewBox="0 0 18 24"><defs><style>.cls-1,.cls-2{fill:none;}.cls-3{clip-path:url(#clippath);}.cls-4{clip-path:url(#clippath-1);}.cls-2{stroke:#ffffff;stroke-linecap:round;stroke-linejoin:round;stroke-width:2px;}</style><clipPath id="clippath"><rect class="cls-1" width="18" height="24"/></clipPath><clipPath id="clippath-1"><rect class="cls-1" width="18" height="24"/></clipPath></defs><g id="Layer_1-2"><g id="Bulb__Lightbulb__Idea"><g class="cls-3"><g class="cls-4"><path class="cls-2" d="M5,20.02l8-.02m-5.6-3.94l-2.4-7.71,2.4,.65,1.6-2.52,1.6,2.52,2.4-.65-2.4,7.71M9,1c4.42,0,8,3,8,7,0,1.89-1,4-2,6-1.15,2.3-.98,3-2,3H5c-1.14,0-1-1-2-3S1,10,1,8C1,4,4.58,1,9,1ZM5,23H13"/></g></g></g></g></svg>