<svg id="Group_5480" data-name="Group 5480" xmlns="http://www.w3.org/2000/svg" xmlns:xlink="http://www.w3.org/1999/xlink" width="153.999" height="163.985" viewBox="0 0 153.999 163.985">
  <defs>
    <clipPath id="clip-path">
      <rect id="Rectangle_20" data-name="Rectangle 20" width="153.999" height="163.985" fill="#fff"/>
    </clipPath>
  </defs>
  <g id="Group_5479" data-name="Group 5479" clip-path="url(#clip-path)">
    <path id="Path_252" data-name="Path 252" d="M29.261,52.646a43.744,43.744,0,0,1-8.86-4.625c-1.432-1.024-2.063-.18-1.59.906a30.38,30.38,0,0,0,5.056,7.2,28.142,28.142,0,0,0,4.445,3.877c.942.656.333.777-.518.934A20.723,20.723,0,0,1,21.3,60.9c-.8-.121-1.281.507-.467,1.246a23.8,23.8,0,0,0,5.548,3.536,49.1,49.1,0,0,0,8.746,3.112c.438.092.926-.147.4-.546a36.356,36.356,0,0,1-3.846-2.972c-.588-.545.077-.656.857-.627a18.1,18.1,0,0,0,5.5-.7c1.368-.366,1.387-.579.706-1.024A23.41,23.41,0,0,1,33.11,57.8a30.634,30.634,0,0,1-3.278-4.676.908.908,0,0,0-.571-.479" transform="translate(-5.651 -14.407)" fill="#fff"/>
    <path id="Path_253" data-name="Path 253" d="M93.759,55.256c-.82-1.125-3.338-.724-4-.864s-.884-.653-1.306-1.209c-.6-.8-1.437-1.654-5.738-1.727a34.882,34.882,0,0,1-13.178-2.217c-5.743-2.063-8.3-6.384-11.069-10.413-3.823-5.56-6.421-7.121-10.923-9.753-5.136-2.99-9.588-9.8-12.5-15.026C31.927,8.471,29.466,3.239,28.65,1.458c-.9-1.949-2.149-1.967-2.5.085a39.354,39.354,0,0,0,.286,11.192,58.867,58.867,0,0,0,2.306,9.659c.421,1.316-.087,1.137-1.395-.087a110.781,110.781,0,0,1-8.068-8.663c-1.556-2.052-2.131-.425-1.964.887a32.282,32.282,0,0,0,2.761,9.2,67.478,67.478,0,0,0,6.173,10.7c1.209,1.749,2.077,2,1.419.723a24.644,24.644,0,0,1-2.07-6.792c-.032-.805.4-.487.892.026A43.944,43.944,0,0,0,35.9,35.938c2.055,1.136,1.82.583,1.288-.777a48.02,48.02,0,0,1-2.66-9.483,32.949,32.949,0,0,1-.163-8.334c.125-1.033.649-.694,1.023.036C38.7,23.82,42.148,28.255,45.2,30.84c4.232,3.591,5.476,3.351,9.684,9.336,1.684,2.393,3.126,5.186,5.861,9.208,2.813,4.119,7.485,7.066,8.9,7.954,1.566,1,2.015.809,1.272.162a35.872,35.872,0,0,1-3.32-3.687,28.5,28.5,0,0,1-1.844-2.738c-.1-.188-.079-.242.091-.123a16.2,16.2,0,0,0,4.131,1.864c3.513,1.1,7.2.295,12.334.043s4.905,1.207,5.37,1.891.825.822,2.473.816,2.2.81,2.39,1.61c.2.847.16,1.255-.441,1.239a14.893,14.893,0,0,0-5.051.546c-3.255.754-6.629,2.905-7.937,3.657s-1.255,1.191-.2.545c5.717-3.241,10.618-3.424,13.223-2.927,2.012.381,1.966.25,2.156-.547a5.339,5.339,0,0,0-.528-4.432" transform="translate(-5.237 0)" fill="#fff"/>
    <path id="Path_254" data-name="Path 254" d="M33.1,80.665a42.5,42.5,0,0,0,5.172,2.721c6.987,3.131,11.456,2.006,14.519,1.2a2.073,2.073,0,0,0-.827-.454c-1.114-.4-2.52-.886-4.213-1.671-1.379-.639-2.593-1.3-3.432-1.793-.477-.273-1.058-.63-2.281-1.4a1.671,1.671,0,0,0-1-.239,53.236,53.236,0,0,1-7.649.432c-1.248-.037-1.064.728-.291,1.206" transform="translate(-9.842 -23.938)" fill="#fff"/>
    <path id="Path_255" data-name="Path 255" d="M0,139.17c0,29.3,36.428,53.052,81.379,53.052,25.074,0,47.5-7.405,62.434-19.026-14.553,10.051-35.456,16.356-58.689,16.356-43.96,0-79.589-22.556-79.589-50.383,0-23.787,25.192-37.922,34.634-39.549,1.717-.233,2.684-.709,1.03-.917-3.6-.43-9.553.015-11.645.743-1.589.551-2.134.457-.664-1a17.039,17.039,0,0,1,4.824-3.72c3.382-1.719,2.6-1.688-.247-1.269a38.587,38.587,0,0,0-15.966,6.9c-5.866,4.486-10.186,5.8-12.459,6.189-2.15.369-4.815.89-2.192,1.171a36.713,36.713,0,0,0,10.736.062l.007.008C4.806,116.491,0,128,0,139.17" transform="translate(0 -28.238)" fill="#fff"/>
    <path id="Path_256" data-name="Path 256" d="M51.93,124.73H46.079v-4.713H64.107v4.713H58.252v19.116H51.93Z" transform="translate(-13.958 -36.356)" fill="#fff"/>
    <path id="Path_257" data-name="Path 257" d="M83.232,133.423a6.95,6.95,0,0,0-2.072-.206c-2.859,0-4.456,2.082-4.456,5.565v7.51H70.583V128.506h5.578v3.28h.071c1.057-2.256,2.582-3.691,5.234-3.691a12.441,12.441,0,0,1,2.077.211Z" transform="translate(-21.381 -38.803)" fill="#fff"/>
    <path id="Path_258" data-name="Path 258" d="M110.007,146.471h-5.58v-3.278h-.072c-1.22,2.56-3.669,3.686-6.449,3.686-4.835,0-6.773-3.411-6.773-7.1v-11.1h6.121v8.6c0,3.351,1.157,4.477,2.824,4.477,2.519,0,3.81-1.742,3.81-5.566v-7.512h6.12Z" transform="translate(-27.606 -38.981)" fill="#fff"/>
    <path id="Path_259" data-name="Path 259" d="M121.47,141.38a15.271,15.271,0,0,0,5.745,1.223c1.261,0,2.488-.2,2.488-1.435,0-3-8.7-.888-8.7-7.3,0-4.1,4.014-5.771,7.546-5.771a16.8,16.8,0,0,1,6.221,1.03l-.473,4.263a9.995,9.995,0,0,0-4.764-1.2c-1.329,0-2.82.24-2.82,1.235,0,2.766,9.113.578,9.113,7.333,0,4.755-4.252,5.945-8.262,5.945a20.01,20.01,0,0,1-6.431-.85Z" transform="translate(-36.653 -38.803)" fill="#fff"/>
    <path id="Path_260" data-name="Path 260" d="M142.907,126.131h3.6v-3.992l6.026-1.881v5.874h4.278v4.307h-4.278v6.553c0,2.147.5,3.239,2.444,3.239a11.785,11.785,0,0,0,1.871-.237l.2,3.995a28.788,28.788,0,0,1-3.835.339c-5.476,0-6.8-2.425-6.8-6.655v-7.234h-3.5Z" transform="translate(-43.29 -36.429)" fill="#fff"/>
    <path id="Path_261" data-name="Path 261" d="M170.258,135.711c.13-2.043,1.183-3.724,3.392-3.724,2.452,0,3.4,1.681,3.4,3.724Zm12.306,3.482v-1.13c0-5.291-2.385-9.969-8.942-9.969-5.514,0-9.49,3.418-9.49,9.293s4.455,9.313,10.307,9.313a17.647,17.647,0,0,0,6.494-1.126v-4.333a11.454,11.454,0,0,1-5.411,1.362c-2.995,0-4.857-.954-5.2-3.411Z" transform="translate(-49.719 -38.803)" fill="#fff"/>
    <path id="Path_262" data-name="Path 262" d="M198.7,134.764c0-2.358,1.329-4.4,3.7-4.4,2.249,0,3.738,1.939,3.738,4.639,0,2.594-1.688,4.536-3.738,4.536-2.309,0-3.7-1.942-3.7-4.777m13.576-14.747h-6.159v8.329h-.067a7.053,7.053,0,0,0-6.088-2.7c-4.9,0-7.586,4.608-7.586,8.983,0,5.255,2.819,9.623,8.1,9.623,2.818,0,5.3-1.6,6.088-3.585h.059v3.177h5.655Z" transform="translate(-58.274 -36.356)" fill="#fff"/>
    <path id="Path_263" data-name="Path 263" d="M78.849,163.8h6.13v8.656h.071a6.946,6.946,0,0,1,5.907-3.04c4.827,0,6.763,3.418,6.763,7.106v11.094H91.6v-8.6c0-3.347-1.154-4.474-2.823-4.474-2.517,0-3.8,1.744-3.8,5.563v7.515h-6.13Z" transform="translate(-23.885 -49.618)" fill="#fff"/>
    <path id="Path_264" data-name="Path 264" d="M118.225,186.158c-2.82,0-3.976-2.357-3.976-4.983,0-2.661,1.156-5.017,3.976-5.017s3.973,2.355,3.973,5.017c0,2.625-1.156,4.983-3.973,4.983m0,4.3c5.851,0,10.3-3.413,10.3-9.282,0-5.9-4.452-9.321-10.3-9.321s-10.306,3.419-10.306,9.321c0,5.869,4.456,9.282,10.306,9.282" transform="translate(-32.691 -52.059)" fill="#fff"/>
    <path id="Path_265" data-name="Path 265" d="M139.645,169.819h6.122v17.788h-6.122Zm6.122-2.346h-6.122v-3.7h6.122Z" transform="translate(-42.302 -49.61)" fill="#fff"/>
    <path id="Path_266" data-name="Path 266" d="M165.569,177.353a6.715,6.715,0,0,0-3.7-.988,4.558,4.558,0,0,0-4.693,4.913,4.779,4.779,0,0,0,5.028,4.679,8.347,8.347,0,0,0,3.812-.859l.139,4.581a16.707,16.707,0,0,1-5,.779c-5.851,0-10.3-3.413-10.3-9.283,0-5.9,4.451-9.32,10.3-9.32a10.915,10.915,0,0,1,4.865,1Z" transform="translate(-45.695 -52.059)" fill="#fff"/>
    <path id="Path_267" data-name="Path 267" d="M179.8,179.468c.138-2.048,1.186-3.713,3.4-3.713,2.446,0,3.4,1.665,3.4,3.713Zm12.3,3.486v-1.13c0-5.294-2.374-9.969-8.932-9.969-5.512,0-9.489,3.418-9.489,9.286s4.454,9.316,10.3,9.316a17.51,17.51,0,0,0,6.492-1.123V185a11.364,11.364,0,0,1-5.4,1.368c-2.99,0-4.859-.949-5.2-3.411Z" transform="translate(-52.613 -52.059)" fill="#fff"/>
    <path id="Path_268" data-name="Path 268" d="M66.908,186.887a26.29,26.29,0,0,1-7.042.946c-6.329,0-13.635-3.2-13.635-12.214,0-8.3,5.777-12.43,13.594-12.43a24.544,24.544,0,0,1,7.049,1.232l-.509,5.148a12.408,12.408,0,0,0-6.191-1.665c-4.493,0-7.419,3.271-7.419,7.714,0,4.673,3.3,7.51,7.923,7.51a16.429,16.429,0,0,0,5.92-1.235Z" transform="translate(-14.004 -49.434)" fill="#fff"/>
    <path id="Path_269" data-name="Path 269" d="M207.192,170.789h1.352c1.092,0,2.148.181,2.148,1.5a1.293,1.293,0,0,1-1.137,1.258v.013a.95.95,0,0,1,.535.551l1.046,2.206h-.9l-.848-1.913c-.243-.542-.509-.542-.925-.542h-.48v2.456h-.788Zm.788,2.383h.676c.751,0,1.193-.335,1.193-.859,0-.5-.374-.822-1.107-.822h-.763Z" transform="translate(-62.763 -51.736)" fill="#fff"/>
    <path id="Path_270" data-name="Path 270" d="M207.8,168.135a4.732,4.732,0,1,0,4.732,4.729,4.731,4.731,0,0,0-4.732-4.729m0,8.915a4.184,4.184,0,1,1,4.182-4.186,4.188,4.188,0,0,1-4.182,4.186" transform="translate(-61.515 -50.932)" fill="#fff"/>
  </g>
</svg>
