<?xml version="1.0" encoding="utf-8"?>
<!-- Generator: Adobe Illustrator 28.3.0, SVG Export Plug-In . SVG Version: 6.00 Build 0)  -->
<svg version="1.1" id="Layer_1" xmlns="http://www.w3.org/2000/svg" xmlns:xlink="http://www.w3.org/1999/xlink" x="0px" y="0px"
	 viewBox="0 0 644 152" style="enable-background:new 0 0 644 152;" xml:space="preserve">
<style type="text/css">
	.st0{fill:#FFFFFF;}
</style>
<g id="surface1">
	<path class="st0" d="M77.2,2.4C36.5,2.4,3.5,35.3,3.5,76v0c0,16.8,5.6,32.3,15.1,44.6l61.2-80.5l-6.6,0l-6.5,0
		c-7,0-13.5,0.5-18.3,1.4c-2.9,0.6-5.4,1.6-7.5,3.1c-2.4,1.7-5.5,5.3-7.5,8.9c-0.2,0.4-0.6,1-1,1.9l-3.6-0.8l6-23.1h76.7l-61,81.5
		c4-0.3,5.6-0.4,8.8-0.4c2.5,0,6.2,0.2,11.2,0.5l10.8,0.7c3.9,0.2,7.2,0.3,9.7,0.3c5.6,0,9.2-0.4,12.8-1.5c2.8-0.9,5.4-2.1,7.9-3.8
		c4.3-3,8.4-7.7,10.9-12.5c0.2-0.5,0.6-1.2,1.1-2.2l3.3,0.8c-1.1,4-1.6,5.6-3.2,9.2c-3.3,7.3-7,12.2-12.1,16
		c-5.2,3.9-11,5.8-17.8,5.9l-1,0c-5.1,0-9-0.4-21.1-2.3c-12.3-1.9-18.6-2.6-24.8-2.6c-4.1,0-8,0.3-12,1c-5.3,0.8-7.4,1.5-12.2,3.6
		c13.5,14.7,32.8,23.9,54.3,23.9c40.7,0,73.7-33,73.7-73.7C150.9,35.3,117.9,2.4,77.2,2.4"/>
	<path class="st0" d="M456.5,53.5c0-4.8,0.1-6.1,0.8-8.1c0.2-0.8,0.6-1.5,1-2.2c0.7-1.2,1.3-1.8,2.7-3h-23c1.5,1.3,2,1.8,2.7,2.8
		c0.5,0.8,0.9,1.5,1.1,2.3c0.5,1.7,0.7,3.5,0.8,7.7c0,2.2,0,3.6,0,4.3v43c0,2.5-0.4,5.2-1.1,7c-0.3,0.7-0.7,1.4-1.1,2.1
		c-0.5,0.8-0.9,1.2-2.2,2.5h22.8c-1.1-1-1.5-1.4-2.2-2.5c-0.5-0.7-0.9-1.5-1.1-2.2c-0.6-1.6-1-4-1-6.3V57.7L456.5,53.5"/>
	<path class="st0" d="M609.8,53.5c0-3.2,0.2-5.6,0.8-7.6c0.3-0.9,0.6-1.8,1.1-2.6c0.8-1.2,1.3-1.8,2.8-3h-23.4
		c1.4,1.1,1.8,1.6,2.6,2.9c0.5,0.8,0.9,1.7,1.2,2.5c0.6,1.7,0.8,3.8,0.8,7.5v17.4h-32.2V57.5c0-4,0-6.6,0.2-8.5
		c0.1-1.2,0.3-2.2,0.6-3.1c0.5-1.5,1.8-3.7,3-4.9c0.2-0.2,0.5-0.4,0.8-0.8h-23c1.4,1.4,1.8,1.9,2.4,2.8c0.5,0.7,0.9,1.6,1.2,2.4
		c0.6,1.8,0.7,2.8,0.8,7.6l0.1,4.5v39.3c0,4-0.1,5.7-0.3,7.6c-0.1,0.9-0.4,1.9-0.7,2.8c-0.6,1.5-1.4,2.8-2.8,4
		c-0.2,0.2-0.4,0.4-0.8,0.7h22.7c-1-1-1.3-1.5-1.9-2.4c-0.4-0.7-0.8-1.4-1.2-2.2c-0.7-1.9-0.9-3.2-1-6.3c0-1.5,0-2.9,0-4.3V79.4
		h32.2v17.5c0,3.9,0,5.3-0.3,7.3c-0.1,1.1-0.4,2.1-0.8,3.1c-0.5,1.3-1.3,2.6-2.6,3.8c-0.2,0.2-0.5,0.5-1,0.9H614
		c-0.9-0.9-1.3-1.3-1.9-2.2c-0.6-0.8-1-1.6-1.3-2.4c-0.7-1.7-0.9-2.9-0.9-6.5c0-2.1-0.1-3.3-0.1-3.7l0.1-39.5L609.8,53.5"/>
	<path class="st0" d="M399.1,71.8c-2.6,1.5-5.2,2.4-9,2.9c-1.5,0.2-2.7,0.3-3.8,0.3c-0.4,0-0.6,0-1.2-0.1V48.5c0.9,0,1.3,0,1.9,0
		c3.5,0,7,0.4,9.7,1.2c1.8,0.5,3.5,1.4,4.9,2.6c2.4,2.1,3.7,5.1,3.7,8.8c0,3.3-0.9,6-2.8,8.1C401.5,70.1,400.4,71,399.1,71.8z
		 M426.5,107c-2.5-2.4-4.8-4.7-8.1-8.3c-2.1-2.3-3.9-4.3-5.2-5.8L402,79.7c1.4-0.4,1.9-0.6,3.2-1.1c3.6-1.4,6.4-3,8.9-5.1
		c2.8-2.4,4.6-4.9,5.6-8.2c0.6-1.8,0.9-3.7,0.9-5.5c0-4.4-1.6-8.4-4.8-11.8c-3-3.1-7.1-5.4-11.7-6.5c-3.2-0.7-6.6-1.1-12.3-1.2
		c-2.2-0.1-4.4-0.1-6.7-0.1h-18.5c1.2,1.2,1.7,1.7,2.4,2.7c0.5,0.8,1,1.7,1.3,2.6c0.5,1.6,0.7,3.8,0.7,7.6v47.1
		c0,3.4-0.2,5.4-0.8,6.9c-0.3,0.8-0.7,1.6-1.2,2.3c-0.7,0.8-1.1,1.3-2.4,2.5h22.8c-1-1.1-1.4-1.5-2-2.3c-0.5-0.7-0.9-1.4-1.2-2.2
		c-0.6-1.6-0.9-3.3-0.9-6.6c0-1.1-0.1-2.3-0.1-3.6V81.1L398.4,97c0.6,0.8,1.6,1.9,3,3.5c1.6,1.7,2.7,3,3.5,3.9
		c2.6,2.6,5,4.6,7.4,5.9c2.1,1.1,4,1.6,7.1,1.7c1.2,0,2.4,0,3.7,0h9c-1.2-0.9-1.7-1.4-2.6-2.2C428.6,109,427.5,108.1,426.5,107"/>
	<path class="st0" d="M525.3,101.6c-4.3,1.8-8.3,2.7-12.5,2.7c-7.4,0-13.8-2.6-18.5-7.7c-4.7-5-7.1-12-7.1-19.9
		c0-7.5,2.3-14.5,6.5-19.4c1.8-2.1,4-3.9,6.5-5.3c4.1-2.3,8.8-3.5,13.9-3.5c4.4,0,8.6,0.9,12.9,2.6c2.7,1.1,3.6,1.6,5.9,3.2V40.9
		c-1.8-0.6-2.5-0.8-4.4-1.2c-4.2-0.9-8.1-1.3-12.6-1.3c-7.7,0-14.4,1.2-20.4,3.8c-3.6,1.5-6.9,3.5-9.9,5.8
		c-8.8,7.1-13.7,17.4-13.7,29.3c0,11.5,4.6,21.5,13.1,28.2c7,5.5,16,8.3,26.8,8.3c6.8,0,13.1-1,20.1-3.2c0.3-0.1,0.7-0.2,1.2-0.4
		v-13c-1.7,1.1-2.3,1.5-3.3,2.1C528.4,100.2,526.9,101,525.3,101.6"/>
	<path class="st0" d="M334.5,43c0.4,0.8,0.8,1.6,1.1,2.4c0.5,1.7,0.6,3.5,0.6,7.5v27.3c0,5.9-0.2,9.3-0.6,12.2
		c-0.3,1.9-0.9,3.7-1.8,5.3c-1.7,2.9-5,5.2-8.8,6.1c-1.6,0.4-3.3,0.6-5.1,0.6c-6.2,0-11.4-2.3-14-6.1c-2-2.9-2.5-5.7-2.6-13.1l0-5.9
		V57.7c0-4.2,0-6.2,0.2-8.3c0.1-1.3,0.3-2.4,0.5-3.3c0.5-1.6,1.7-3.8,2.9-5.2c0.2-0.1,0.3-0.3,0.6-0.6H284c1.4,1.2,1.9,1.7,2.6,2.9
		c0.5,0.8,0.8,1.6,1,2.5c0.3,1.1,0.5,2.2,0.5,3.3c0,0.7,0,2.2,0,4.5l0,4.2v20.6c0,7.6,0,9.6,0.3,12.6c0.4,5.2,2,9.4,5,13.2
		c5.4,6.8,14.2,10.4,25.3,10.4c5.3,0,10.5-0.8,14.4-2.3c4.1-1.5,8-4.1,10.7-7.1c3.3-3.7,5.2-8.3,5.8-13.9c0.4-3.3,0.5-7.2,0.5-12.8
		V57.6l-0.1-4.1v-0.8c0-3.1,0.2-4.9,0.6-6.6c0.3-1,0.7-2,1.2-2.9c0.8-1.2,1.3-1.8,2.8-3h-22.9C333.3,41.3,333.8,41.9,334.5,43"/>
	<path class="st0" d="M255.8,101.9c-3.2,0.6-6.8,0.9-11.3,1c-1.5,0-3.4,0-5.7,0h-11l43.5-62.7h-56.4l-6.9,15.3
		c2.3-1.2,3.2-1.7,5.2-2.5c3.2-1.3,6.8-2.3,10.2-2.9c3-0.5,5.7-0.7,10.1-0.9c2-0.1,3.9-0.1,5.6-0.1h8.3L203.5,112h62.1l7.2-16.4
		c-2.5,1.4-3.4,1.9-5.3,2.8C263.8,100,259.9,101.2,255.8,101.9"/>
	<path class="st0" d="M633.5,28.2c-3.8,0-6.8-2.8-6.8-6.9c0-4.2,3-7,6.8-7c3.9,0,6.8,2.8,6.8,7C640.3,25.4,637.4,28.2,633.5,28.2z
		 M633.5,13.2c-4.5,0-8.1,3.3-8.1,8.1c0,4.8,3.6,8.1,8.1,8.1c4.5,0,8.1-3.3,8.1-8.1C641.6,16.5,638,13.2,633.5,13.2"/>
	<path class="st0" d="M633.7,20.8h-1.9V18h1.8c1.3,0,2.2,0.3,2.2,1.4C635.8,20.3,635.1,20.8,633.7,20.8z M637.1,19.3
		c0-2.2-1.5-2.6-4-2.6h-2.6v8.6h1.3V22h2.2c0.1,0,0.2,0,0.2,0l1.8,3.4h1.4l-2-3.7C636.6,21.2,637.1,20.3,637.1,19.3"/>
</g>
</svg>
