<?xml version="1.0" encoding="UTF-8" standalone="no"?>
<!DOCTYPE svg PUBLIC "-//W3C//DTD SVG 1.1//EN" "http://www.w3.org/Graphics/SVG/1.1/DTD/svg11.dtd">
<svg version="1.1" xmlns="http://www.w3.org/2000/svg" xmlns:xlink="http://www.w3.org/1999/xlink" preserveAspectRatio="xMidYMid meet" viewBox="26.487451463206742 255.8084098872999 76.14319537835023 86.74647220380723" width="72.14" height="82.75"><defs><path d="M27.49 321.9C27.49 322.58 27.88 323.19 28.49 323.48C31.85 325.05 58.76 337.66 62.13 339.24C62.58 339.45 63.07 339.55 63.55 339.55C63.55 336.04 63.55 307.92 63.55 304.4C63.05 304.4 62.55 304.51 62.08 304.72C59.84 305.76 48.64 310.96 28.49 320.33C27.82 320.92 27.49 321.45 27.49 321.9Z" id="c18SgvVte8"/><path d="M63.55 339.54C64.07 339.55 64.6 339.43 65.08 339.22C68.44 337.65 95.28 325.09 98.63 323.52C99.24 323.24 99.63 322.63 99.63 321.95C99.63 321.28 99.24 320.66 98.63 320.37C95.27 318.81 68.38 306.28 65.02 304.72C64.55 304.51 64.05 304.38 63.55 304.38C63.55 311.42 63.55 336.02 63.55 339.54Z" id="g1HoprcVdW"/><path d="M28.49 275.9C31.85 277.47 58.76 290.07 62.13 291.64C62.58 291.85 63.07 291.96 63.55 291.97C63.98 291.97 64.4 291.91 64.81 291.76C65.13 291.61 65.07 291.64 65.75 291.32C69.22 289.72 66.92 290.78 98.62 275.94C99.22 275.65 99.62 275.05 99.62 274.37C99.62 273.7 99.22 273.08 98.62 272.79C95.26 271.23 68.38 258.7 65.02 257.14C64.1 256.7 63.02 256.7 62.1 257.14C58.74 258.7 31.85 271.18 28.49 272.75C27.88 273.03 27.49 273.65 27.49 274.32C27.49 275 27.88 275.61 28.49 275.9Z" id="b1lJywpNdD"/><path d="M63.55 304.38C63.05 304.38 62.55 304.49 62.08 304.7C58.72 306.27 31.85 318.76 28.49 320.33C27.88 320.61 27.49 321.22 27.49 321.9C27.49 317.26 27.49 280.13 27.49 275.49C27.49 275.49 27.49 274.15 27.49 274.32C27.49 275 27.88 275.61 28.49 275.9C31.85 277.47 58.76 290.07 62.13 291.64C62.58 291.85 63.07 291.96 63.55 291.97C63.98 291.97 64.4 291.91 64.81 291.76C64.8 291.77 64.75 291.79 64.75 291.79C63.7 292.26 63.55 292.75 63.55 293.94C63.55 296.03 63.55 303.34 63.55 304.38Z" id="a45Zj9kiBS"/></defs><g><g><use xlink:href="#c18SgvVte8" opacity="1" fill="#f27923" fill-opacity="1"/><g><use xlink:href="#c18SgvVte8" opacity="1" fill-opacity="0" stroke="#000000" stroke-width="1" stroke-opacity="0"/></g></g><g><use xlink:href="#g1HoprcVdW" opacity="1" fill="#f5a730" fill-opacity="1"/><g><use xlink:href="#g1HoprcVdW" opacity="1" fill-opacity="0" stroke="#000000" stroke-width="1" stroke-opacity="0"/></g></g><g><use xlink:href="#b1lJywpNdD" opacity="1" fill="#20ad92" fill-opacity="1"/><g><use xlink:href="#b1lJywpNdD" opacity="1" fill-opacity="0" stroke="#000000" stroke-width="1" stroke-opacity="0"/></g></g><g><use xlink:href="#a45Zj9kiBS" opacity="1" fill="#d0d1d1" fill-opacity="1"/><g><use xlink:href="#a45Zj9kiBS" opacity="1" fill-opacity="0" stroke="#000000" stroke-width="1" stroke-opacity="0"/></g></g></g></svg>