<?xml version="1.0" encoding="utf-8"?>
<!-- Generator: Adobe Illustrator 28.3.0, SVG Export Plug-In . SVG Version: 6.00 Build 0)  -->
<svg version="1.1"
	 id="Layer_1" xmlns:inkscape="http://www.inkscape.org/namespaces/inkscape" xmlns:sodipodi="http://sodipodi.sourceforge.net/DTD/sodipodi-0.dtd" xmlns:svg="http://www.w3.org/2000/svg"
	 xmlns="http://www.w3.org/2000/svg" xmlns:xlink="http://www.w3.org/1999/xlink" x="0px" y="0px" viewBox="0 0 191.2 63.8"
	 style="enable-background:new 0 0 191.2 63.8;" xml:space="preserve">
<style type="text/css">
	.st0{fill:#FFFFFF;}
</style>
<sodipodi:namedview  bordercolor="#666666" borderopacity="1.0" id="namedview23" inkscape:current-layer="Layer_1" inkscape:cx="95.684825" inkscape:cy="31.979769" inkscape:pagecheckerboard="0" inkscape:pageopacity="0.0" inkscape:pageshadow="2" inkscape:window-height="847" inkscape:window-maximized="0" inkscape:window-width="1296" inkscape:window-x="0" inkscape:window-y="25" inkscape:zoom="5.8943516" pagecolor="#ffffff" showgrid="false">
	</sodipodi:namedview>
<path id="path6" class="st0" d="M115.3,21.8c3.7-2,4.2-5.2,4.2-9.5c0-3.3-1.3-6.4-3.7-8.7C113.5,1.3,110.3,0,107,0H70.3v25.6L57.3,0
	H39.5v32.7H14.8c-2.1,0-3.8-1.7-3.8-3.8l0,0V14.7c0-1,0.4-2,1.1-2.7c0.7-0.7,1.7-1.1,2.7-1.1H29c6.2,0,7.9-10.9,7.9-10.9H13.7
	C6.1,0,0,6.1,0,13.6V30c0,7.5,6.1,13.7,13.6,13.7l0,0h36.7V10.9L68,43.6h13.1V10.9h24.3c1.8,0.1,3.2,1.5,3.3,3.3
	c0,0.9-0.4,1.7-1,2.3s-1.4,1-2.3,1h-5c-4.9,0-5.5,8.7-5.5,8.7h11.9c1.8,0.1,3.2,1.5,3.3,3.3c0,0.9-0.4,1.7-1,2.3s-1.4,1-2.3,1H93.6
	V12.1c0,0-9.7,0.6-9.7,7.9v23.6h24.5c3.3,0,6.5-1.3,8.8-3.6c2.4-2.2,3.8-5.4,3.7-8.7C121.1,27.3,118.9,23.5,115.3,21.8"/>
<path id="path8" class="st0" d="M123.8,26.2h6.8c2.6,0,5.3,1.2,5.3,4.4c0,1.8-1.2,3.4-3,3.8v0.1c2.2,0.2,3.8,2,3.8,4.2
	c0,3.8-3.3,5-6.6,5h-6.3V26.2z M126.9,33.3h2.8c2.1,0,3.1-0.9,3.1-2.2c0-1.5-1-2.2-3.4-2.2h-2.6L126.9,33.3z M126.9,41h2.9
	c1.6,0,3.8-0.3,3.8-2.5c0-1.8-1.2-2.5-3.7-2.5h-3L126.9,41z"/>
<path id="path10" class="st0" d="M143.9,26.2h2.7l7.5,17.4h-3.5l-1.6-4h-7.5l-1.6,4h-3.5L143.9,26.2z M147.8,37l-2.7-7.1l-2.7,7.1
	H147.8z"/>
<polygon id="polygon12" class="st0" points="155,26.2 159.1,26.2 165.9,39.1 165.9,39.2 165.9,39.1 165.9,26.2 169.1,26.2 
	169.1,43.6 165.1,43.6 157.9,30.3 158.1,30.3 158.1,43.6 155,43.6 "/>
<polygon id="polygon14" class="st0" points="171.3,26.2 174.4,26.2 174.4,33.6 174.5,33.6 181.7,26.2 185.9,26.2 177.8,34.2 
	186.5,43.6 182.1,43.6 174.6,35.1 174.4,35.1 174.4,43.6 171.3,43.6 "/>
<path id="path16" class="st0" d="M17.2,62.8c13-5.2,26.3-6.6,38.7-8c13-1.4,26.1-2.1,39.2-2.1c24.9-0.2,49.8,2,74.4,6.4
	c3.3,0.6,6.7-0.2,9.5-2c3.4-2.4,4-4.6,4-4.6s-50-6.5-76.5-6.4C93,46.2,79.6,47,66.2,48.5c-13.7,1.6-27.7,4.1-42,9.8
	c-3.3,1.3-6.5,2.8-9.6,4.6C11.9,64.7,16.7,63,17.2,62.8"/>
<g id="g20">
	<path id="path18" class="st0" d="M191.2,27.3c0,1.1-0.9,2-2,2s-2-0.9-2-2s0.9-2,2-2C190.3,25.4,191.2,26.3,191.2,27.3z M187.7,27.3
		c0,0.9,0.6,1.6,1.5,1.6s1.5-0.7,1.5-1.6s-0.6-1.6-1.5-1.6C188.3,25.8,187.7,26.5,187.7,27.3z M188.9,28.4h-0.5v-2
		c0.2,0,0.4-0.1,0.8-0.1c0.4,0,0.5,0.1,0.7,0.1c0.1,0.1,0.2,0.2,0.2,0.4c0,0.2-0.2,0.4-0.4,0.5l0,0c0.2,0.1,0.3,0.2,0.4,0.5
		c0.1,0.3,0.1,0.4,0.1,0.5h-0.5c-0.1-0.1-0.1-0.3-0.2-0.5c0-0.2-0.2-0.3-0.4-0.3h-0.2L188.9,28.4L188.9,28.4z M188.9,27.3h0.2
		c0.3,0,0.5-0.1,0.5-0.3c0-0.2-0.1-0.3-0.4-0.3c-0.1,0-0.2,0-0.3,0V27.3z"/>
</g>
</svg>
