<?xml version="1.0" encoding="utf-8"?>
<!-- Generator: Adobe Illustrator 28.3.0, SVG Export Plug-In . SVG Version: 6.00 Build 0)  -->
<svg version="1.1"
	 id="svg834" xmlns:dc="http://purl.org/dc/elements/1.1/" xmlns:cc="http://creativecommons.org/ns#" xmlns:rdf="http://www.w3.org/1999/02/22-rdf-syntax-ns#" xmlns:inkscape="http://www.inkscape.org/namespaces/inkscape" xmlns:sodipodi="http://sodipodi.sourceforge.net/DTD/sodipodi-0.dtd" xmlns:svg="http://www.w3.org/2000/svg"
	 xmlns="http://www.w3.org/2000/svg" xmlns:xlink="http://www.w3.org/1999/xlink" x="0px" y="0px" viewBox="0 0 816.2 170.5"
	 style="enable-background:new 0 0 816.2 170.5;" xml:space="preserve">
<style type="text/css">
	.st0{fill:#FFFFFF;}
</style>
<sodipodi:namedview  bordercolor="#666666" borderopacity="1.0" id="namedview292" inkscape:current-layer="svg834" inkscape:cx="277.36858" inkscape:cy="85.093494" inkscape:pagecheckerboard="0" inkscape:pageopacity="0.0" inkscape:pageshadow="2" inkscape:window-height="847" inkscape:window-maximized="0" inkscape:window-width="1296" inkscape:window-x="0" inkscape:window-y="25" inkscape:zoom="1.3808341" pagecolor="#ffffff" showgrid="false">
	</sodipodi:namedview>
<g id="g842" transform="matrix(1.3333333,0,0,-1.3333333,0,170.53333)">
	<g id="g844" transform="scale(0.1)">
		<path id="path846" class="st0" d="M6060.2,525.6c10.4,0.3,12.8,4.6,12.8,10.1c0,5.3-2.4,8-11.2,8h-13.3v-18.1H6060.2z
			 M6048.5,514.6V484h-11v70.7h22.9c13,0,26.4-3.5,26.4-19.5c0-8.2-5-14.6-14.4-16.5v-0.3c9.8-1.9,10.9-6.2,12-13.9
			c1-6.7,1.8-14.1,4.2-20.5h-14.1c-0.8,4-1.9,8.5-2.4,12.6c-0.8,6.1-0.8,11.7-4,15c-2.7,2.9-6.4,2.6-10.2,2.9H6048.5z M6110.8,518.6
			c0,27.2-22.1,49.5-49.5,49.5c-27.5,0-49.8-22.2-49.8-49.5c0-27.5,22.2-49.8,49.8-49.8C6088.7,468.8,6110.8,491.1,6110.8,518.6z
			 M6001,518.6c0,33.1,26.9,60,60.4,60c33.3,0,60-26.9,60-60c0-33.4-26.7-60.3-60-60.3C6027.9,458.3,6001,485.1,6001,518.6"/>
		<path id="path848" class="st0" d="M1848.6,1030.3l24.6,119.3h232.3l24.3,117.8h-391.9l-116.6-565.9h159.6l43.5,211h215.9
			l24.3,117.8L1848.6,1030.3"/>
		<path id="path850" class="st0" d="M2230.4,701.6l116.6,565.9h-159.6l-116.6-565.9H2230.4"/>
		<path id="path852" class="st0" d="M2620.5,1149.7c27.5,0,57.4-2.2,70.5-18.2c7.4-9.1,9.2-22,5.6-39.6
			c-10.2-49.7-48.4-59.9-102.4-59.9H2542l24.3,117.8L2620.5,1149.7z M2473.9,701.6l43.8,212.5h51.9c30.2,0,47.5-4.3,56.1-14
			c11.8-13.2,8.7-39.2,4.5-75.1c-4.3-38.4-8.1-79.3-7.9-118.4l0-5h172.4l-0.4,5.4c-3.5,45.1-2.5,88.9,3.1,133.9
			c5,53.6,3.8,91.7-17.9,116.1c-12,13.5-29.4,21.9-53.8,25.7c76.2,17.1,128.9,66.5,143.1,135.7c8,38.9,2,70.9-17.8,95.3
			c-36.3,44.6-110.7,53.9-166.7,53.9H2431l-116.6-565.9H2473.9"/>
		<path id="path854" class="st0" d="M2982.1,966.2c39.1-19.5,78.5-29.6,113.3-38.6c64.1-16.4,97.2-26.9,88.7-68.4
			c-7.2-35.1-55-51.4-85-51.4c-27.8,0-48.7,7.7-60.5,22.3c-10.4,12.9-13.2,30.6-8.4,52.4l1.3,6.1h-159.7l-0.8-4.1
			c-11.2-58.4-3.4-104.3,23.1-136.3c32.4-39.2,91.7-58.3,181.2-58.3c177.8,0,260.4,95.1,277.2,176.5
			c28.1,136.3-73.1,160.9-154.5,180.7c-11.4,2.8-22.6,5.5-33.1,8.4c-44.2,12.8-77.5,25.2-70.6,58.9c5.1,24.9,37.8,46.8,69.8,46.8
			c23.4,0,40.8-5.6,50.2-16.2c10.1-10.5,12.7-25.1,8-44.7l-1.5-6.2h159.6l1,3.7c13.6,49.9,8.8,90.7-14.5,121.1
			c-37.9,49.6-113.8,60-170.9,60c-187.7,0-250.6-93.3-270.3-171.8C2912.6,1042,2933,990.6,2982.1,966.2"/>
		<path id="path856" class="st0" d="M3501.9,701.6h159.6l92.4,448.1h168.8l24.3,117.8h-493.4l-24.3-117.8h165.1L3501.9,701.6"/>
		<path id="path858" class="st0" d="M1809.3,589c-172-1.6-283.7-102.8-322.8-292.7c-20.9-101.7-10.6-179,30.8-229.9
			C1553.3,22.4,1611.4,0,1690,0c51,0,125.3,7.4,190.2,42.8c61.9,33.8,99.6,84.5,112.2,150.7l1.1,5.9h-166.8l-1-3.7
			c-13.4-51-52.6-77.9-113.6-77.9c-22.2,0-39.3,7.1-50.7,21.1c-21.4,26.3-24.7,76.5-9.7,149.2c25.1,121.5,70.6,183.1,135.2,183.1
			c31.6,0,55.3-7.9,68.5-23c10.7-12.2,14.7-29,12-49.9l-0.8-5.7h166.6l0.9,3.9c11.2,50.3,3.9,91.9-21.7,123.7
			C1977.1,564.6,1904.9,589,1809.3,589"/>
		<path id="path860" class="st0" d="M2464.3,293.2c-16.5-80-56.7-175.4-154.6-175.4c-30.3,0-53.1,9.1-67.8,27.1
			c-22.8,27.9-27.1,77.2-12.8,146.4c24.6,119.5,77,180,155.5,180c30.2,0,52.9-9.1,67.5-26.9C2475.1,416.2,2479.2,365.3,2464.3,293.2
			L2464.3,293.2z M2597.9,515.9c-39.5,48.5-103.8,73.1-191.1,73.1c-180.1,0-305.5-107-343.9-293.5c-19.5-94.7-7.9-171.6,33.5-222.4
			C2136,24.6,2200.3,0,2287.5,0c180.1,0,305.5,107,343.9,293.5C2650.9,388.2,2639.4,465.1,2597.9,515.9"/>
		<path id="path862" class="st0" d="M3167.5,577.5l-156.5-362l-10.1,362h-245.7L2638.5,11.6h140.9l91,441.3l20.2-436.6l0.2-4.8
			h142.4l208.7,437.7l-90.2-437.7h140.9l116.6,565.9H3167.5"/>
		<path id="path864" class="st0" d="M3910.7,577.5l-156.5-362l-10.1,362h-245.7L3381.7,11.6h140.9l90.9,441.3l20.2-436.6l0.2-4.8
			h142.4L3985,449.3l-90.2-437.7h140.9l116.6,565.9H3910.7"/>
		<path id="path866" class="st0" d="M4496.5,237.9h-130.4l111,212.3L4496.5,237.9z M4415.2,577.5L4081.9,11.6H4243l57.5,108.6H4512
			l13.5-108.6h179.2l-100.1,565.9H4415.2"/>
		<path id="path868" class="st0" d="M5252.1,577.5l-82.3-399.2l-91.9,399.2h-217.2L4744,11.6h144.6l84.6,410.5l90.9-406.6l0.9-3.9
			h215l116.6,565.9H5252.1"/>
		<path id="path870" class="st0" d="M5615.9,459.7h66.1c41.5,0,76.4-14.7,98-41.3c23.8-29.3,30.9-71.8,20.4-122.9
			c-23.7-114.8-111.7-166.2-188.5-166.2h-64.1L5615.9,459.7z M5937.7,501.5c-41.7,51.1-115.4,76-225.3,76h-231.9L5364,11.6h234
			c209.3,0,330.1,92.2,369.2,282C5985.8,384.6,5976,454.6,5937.7,501.5"/>
		<path id="path872" class="st0" d="M742.5,1266.6l-324-263.2c-8-6.8-13.1-16.9-13.1-28.2c0-20.5,16.6-37,37-37c0,0,0,0,0.1,0
			c71.8,0,216.2,0,224.3,0L452.9,11.8h329.3l289.8,1254.8H742.5"/>
		<path id="path874" class="st0" d="M742.5,1266.6l-324-263.2c-8-6.8-13.1-16.9-13.1-28.2c0-20.5,16.6-37,37-37c0,0,0,0,0.1,0
			c71.8,0,216.2,0,224.3,0L452.9,11.8h329.3l289.8,1254.8H742.5"/>
		<path id="path876" class="st0" d="M1072.1,1266.7L1072.1,1266.7L913.4,579.4L782.3,11.8h233.6c121.1,0,242,98.2,270,219.3
			l239.2,1035.5l0,0.1H1072.1"/>
		<path id="path878" class="st0" d="M442.4,938.1c-20.5,0-37,16.6-37,37c0,11.3,5.1,21.5,13.1,28.2l324,263.2H509.1
			c-121.1,0-241.9-97.5-269.9-218.6L0,11.8h452.9l213.9,926.3C658.8,938.1,514.3,938.1,442.4,938.1
			C442.5,938.1,442.4,938.1,442.4,938.1"/>
	</g>
</g>
</svg>
