<?xml version="1.0" encoding="utf-8"?>
<!-- Generator: Adobe Illustrator 28.3.0, SVG Export Plug-In . SVG Version: 6.00 Build 0)  -->
<svg version="1.1" id="Layer_1" xmlns="http://www.w3.org/2000/svg" xmlns:xlink="http://www.w3.org/1999/xlink" x="0px" y="0px"
	 viewBox="0 0 279.6 91.1" style="enable-background:new 0 0 279.6 91.1;" xml:space="preserve">
<style type="text/css">
	.st0{fill:#FFFFFF;}
</style>
<path class="st0" d="M106.4,24.2c-9.1,0-14.9,4.7-18.4,10.3h-0.3l0.1-9.1H70.2c-1.6,0-3,2-3,3.8v56c0,1.8,1.5,3.7,3.1,3.7h17.5V57.5
	c0-9.1,2.5-16.3,11.3-16.3c8.5,0,9.8,6.3,9.8,14.7v29.3c0,2,1.5,3.7,3,3.7h17.6V51.4C129.6,36,124.8,24.2,106.4,24.2z"/>
<path class="st0" d="M242.2,24.2c-8.3,0-14,3-17.4,6.1c0.1-2.3,0.1-5.6,0.1-8.9V0h-17.5c-1.6,0-3,2-3,3.7v81.4c0,2,1.5,3.7,3.1,3.7
	H224l-0.1-5.2c4.7,4.5,11.1,6.6,18.2,6.6c18.4,0,30.1-14.4,30.1-33.1C272.1,38.5,260.5,24.2,242.2,24.2z M237.8,73.1
	c-8.6,0-14.6-6.7-14.6-16.5s5.9-16.5,14.6-16.5c8.6,0,14.4,6.7,14.4,16.5C252.2,66.4,246.5,73.1,237.8,73.1z"/>
<path class="st0" d="M63.6,25.3H42.4c-1.6,0-3.3,0.9-4.3,2.1L20.6,46.3V-0.1H3c-1.6,0-3,2-3,3.7v81.5c0,1.8,1.2,3.7,3,3.7h17.6V69.6
	l5.7-5.5l14.1,22.3c1.3,1.8,3.1,2.4,5.2,2.4h19.9L40.4,49.1L63.6,25.3z"/>
<path class="st0" d="M189,31.6c-5-4.7-11.9-7.4-23.7-7.4c-10.1,0-18.8,2.8-24.5,5.2c-1.5,0.7-2.1,2.7-1.5,4.2l4.2,10.5
	c3.3-2.1,11.3-5.7,19.4-5.7c8.3,0,13,3.5,13,10.2V50l-16,0.6c-11.7,0.5-24.7,5.3-24.7,19.4s11.9,20.2,23.1,20.2
	c10.3,0,15.5-5.4,18.2-8.1l0.3,4.3c0.1,1.2,1.2,2.3,2.8,2.3h17V53.1C196.5,42.4,193.9,36.2,189,31.6z M176.1,71.4
	c-1.3,2.2-5,5.8-10.5,5.8c-5.7,0-9.7-3-9.7-7.8c0-4.7,3.7-7.5,10-7.7l10.2-0.6V71.4z"/>
<g>
	<path class="st0" d="M274.3,91c-3,0-5.3-2.3-5.3-5.3s2.3-5.3,5.3-5.3s5.3,2.3,5.3,5.3C279.6,88.7,277.2,91,274.3,91z M274.3,81.2
		c-2.5,0-4.5,2-4.5,4.5s2,4.5,4.5,4.5s4.5-2,4.5-4.5S276.8,81.2,274.3,81.2z M276.9,88.8h-1.5l-1.3-2.5h-0.6v2.5h-1.3v-6.2h2.2
		c1.3,0,2.2,0.7,2.2,1.9s-0.8,1.6-1.3,1.8L276.9,88.8z M274.2,83.7h-0.7v1.7h0.7c0.6,0,1.1-0.1,1.1-0.8
		C275.3,83.8,274.8,83.7,274.2,83.7z"/>
</g>
</svg>
