<?xml version="1.0" encoding="utf-8"?>
<!-- Generator: Adobe Illustrator 27.0.1, SVG Export Plug-In . SVG Version: 6.00 Build 0)  -->
<svg version="1.1" id="Layer_1" xmlns="http://www.w3.org/2000/svg" xmlns:xlink="http://www.w3.org/1999/xlink" x="0px" y="0px"
	 viewBox="0 0 1061.8 197.8" style="enable-background:new 0 0 1061.8 197.8;" xml:space="preserve">
<style type="text/css">
	.st0{fill:#FFFFFF;}
</style>
<path class="st0" d="M75.9,0C34,0,0,34,0,75.9s34,75.9,75.9,75.9c41.9,0,75.9-34,75.9-75.9c0,0,0,0,0,0C151.9,34,117.9,0,75.9,0
	 M132.8,75.9c0,31.4-25.5,56.9-56.9,56.9c-31.4,0-56.8-25.5-56.9-56.9h0c0-31.4,25.4-56.9,56.8-56.9S132.8,44.5,132.8,75.9
	C132.8,75.9,132.8,75.9,132.8,75.9"/>
<polygon class="st0" points="100.9,45.6 38.6,80.2 71.6,113.3 106.3,51 "/>
<path id="Bancontact" class="st0" d="M238.7,48.4c11.6,0,18.4,7.4,18.4,17.3c0,6.4-3,11.2-7.7,13.5c4.7,2.4,7.7,7.1,7.7,13.5
	c0,9.9-6.8,17.3-18.4,17.3h-26.2V48.4H238.7z M238.4,60.7h-13.6v12.3h13.6c3.3,0.2,6.2-2.4,6.3-5.7c0-0.2,0-0.4,0-0.6
	C244.7,63.2,242.3,60.7,238.4,60.7z M238.4,85.4h-13.6v12.3h13.6c4,0,6.3-2.4,6.3-6c0.2-3.3-2.3-6.1-5.6-6.3
	C238.8,85.4,238.6,85.4,238.4,85.4z M284.4,65.1c12.8,0,19.3,5.6,19.3,17.8v27.2H292v-6c-2.3,3.5-6.7,6.9-13.5,6.9
	c-8.7,0-14.9-5.6-14.9-13.7c0-8,6-13,14.1-13.8l12-1.1c1.7-0.2,2.3-0.7,2.3-1.8v-0.7c0-2.5-2.5-4.4-7.7-4.4c-4.6,0-9.3,1.4-11,5.6
	l-8.6-6.2C267.7,68.4,274.8,65.1,284.4,65.1z M292,90.5l-10.9,1.3c-3.6,0.5-5.5,2.4-5.5,4.8c0,2.8,2.2,4.7,6.2,4.7
	c6.2,0,10.1-4.2,10.1-9.1V90.5z M339,65c10.3,0,15.6,6.7,15.6,17.8V110h-11.9V85.6c0-6.6-3.1-9.5-8-9.5c-6.8,0-9.6,5-9.6,12.8v21
	h-11.6V66h11.3v6.3C328,67.7,333.3,64.9,339,65z M385.7,65c7,0,12.7,2.5,16.7,6.4l-6.6,9.3c-2.6-2.8-6.3-4.4-10.1-4.4
	c-6.6,0-11.5,4.7-11.5,11.7s5,11.7,11.5,11.7c3.9,0,7.7-1.6,10.4-4.5l6.4,9.3c-3.8,3.8-9.6,6.5-17,6.5c-13.5,0-23.3-9.1-23.3-23
	C362.2,74.1,372.2,65,385.7,65L385.7,65z M430,65c13.5,0,23.7,9.3,23.7,23c0,13.7-10.1,23-23.7,23s-23.7-9.3-23.7-23
	C406.4,74.3,416.5,65,430,65L430,65z M430,76.3c-6.5,0-11.7,5.2-11.7,11.7s5.2,11.7,11.7,11.7c6.5,0,11.7-5.2,11.7-11.7
	c0.2-6.2-4.6-11.5-10.8-11.7C430.6,76.3,430.3,76.3,430,76.3L430,76.3z M486.7,65c10.3,0,15.6,6.7,15.6,17.8V110h-11.9V85.6
	c0-6.6-3.1-9.5-8-9.5c-6.8,0-9.6,5-9.6,12.8v21h-11.6V66h11.3v6.3C475.6,67.7,481,64.9,486.7,65z M528.5,110.4
	c-8.2,0-12.9-3.9-12.9-13.9V75.8h-8V66h8V54.2h11.6V66h11.2v9.8h-11.2v19.1c0,2.8,1.4,4,4.4,4c2.2,0,4.3-0.3,6.4-0.7v11
	C534.9,109.9,531.7,110.4,528.5,110.4z M566.5,65.1c12.8,0,19.3,5.6,19.3,17.8v27.2h-11.6v-6c-2.3,3.5-6.7,6.9-13.5,6.9
	c-8.7,0-14.9-5.6-14.9-13.7c0-8,6-13,14.1-13.8l12-1.1c1.7-0.2,2.3-0.7,2.3-1.8v-0.7c0-2.5-2.5-4.4-7.6-4.4c-4.6,0-9.3,1.4-11,5.6
	l-8.6-6.2C549.8,68.4,556.9,65.1,566.5,65.1z M574.1,90.5l-10.9,1.3c-3.6,0.5-5.5,2.4-5.5,4.8c0,2.8,2.2,4.7,6.2,4.7
	c6.2,0,10.1-4.2,10.1-9.1V90.5z M616.3,65c7,0,12.7,2.5,16.7,6.4l-6.6,9.3c-2.6-2.8-6.3-4.4-10.1-4.4c-6.6,0-11.5,4.7-11.5,11.7
	s5,11.7,11.5,11.7c3.9,0,7.7-1.6,10.4-4.5l6.4,9.3c-3.8,3.8-9.6,6.5-17,6.5c-13.5,0-23.3-9.1-23.3-23C592.9,74.1,602.8,65,616.3,65z
	 M657.6,110.4c-8.2,0-12.9-3.9-12.9-13.9V75.8h-8V66h8V54.2h11.6V66h11.2v9.8h-11.2v19.1c0,2.8,1.4,4,4.4,4c2.2,0,4.3-0.3,6.4-0.7
	v11C664,109.9,660.8,110.4,657.6,110.4z"/>
<path id="Payconiq" class="st0" d="M727.1,48.4c12.6,0,21.6,9.1,21.6,21.5c0,12.4-9.1,21.5-21.6,21.5h-11.8V110H703V48.4H727.1z
	 M727.1,60.8h-11.8v18.4h11.8c5.9,0,9.3-3.9,9.3-9.1C736.4,64.6,732.9,60.8,727.1,60.8L727.1,60.8z M774.1,65.1
	c12.8,0,19.3,5.6,19.3,17.8v27.2h-11.6v-6c-2.3,3.5-6.7,6.9-13.5,6.9c-8.7,0-14.9-5.6-14.9-13.7c0-8,6-13,14.1-13.8l12-1.1
	c1.7-0.2,2.3-0.7,2.3-1.8v-0.7c0-2.5-2.5-4.4-7.7-4.4c-4.6,0-9.3,1.4-11,5.6l-8.6-6.2C757.4,68.4,764.5,65.1,774.1,65.1L774.1,65.1z
	 M781.8,90.5l-10.9,1.3c-3.6,0.5-5.5,2.4-5.5,4.8c0,2.8,2.2,4.7,6.2,4.7c6.2,0,10.1-4.2,10.1-9.1L781.8,90.5z M804.8,127.6
	l10.7-23.9L796.9,66h13.5l11.3,24.1L832.5,66h12.3l-27.7,61.6L804.8,127.6z M869.3,65c7,0,12.7,2.5,16.7,6.4l-6.6,9.3
	c-2.6-2.8-6.3-4.4-10.1-4.4c-6.6,0-11.5,4.7-11.5,11.7s5,11.7,11.5,11.7c3.9,0,7.7-1.6,10.4-4.5l6.4,9.3c-3.8,3.8-9.6,6.5-17,6.5
	c-13.5,0-23.3-9.1-23.3-23C845.8,74.1,855.7,65,869.3,65L869.3,65z M913.6,65c13.5,0,23.7,9.3,23.7,23c0,13.7-10.1,23-23.7,23
	S890,101.7,890,88C890,74.3,900.1,65,913.6,65L913.6,65z M913.6,76.3c-6.5,0-11.7,5.2-11.7,11.7s5.2,11.7,11.7,11.7
	c6.5,0,11.7-5.2,11.7-11.7c0.2-6.2-4.6-11.5-10.8-11.7C914.2,76.3,913.9,76.3,913.6,76.3L913.6,76.3z M970.2,65
	c10.3,0,15.6,6.7,15.6,17.8V110h-11.9V85.6c0-6.6-3.1-9.5-8-9.5c-6.8,0-9.6,5-9.6,12.8v21h-11.6V66H956v6.3
	C959.2,67.7,964.6,64.9,970.2,65L970.2,65z M1002.6,46c4.2,0,6.5,3.3,6.5,7.5c0.1,4-3.2,7.3-7.2,7.4c-0.1,0-0.2,0-0.3,0
	c-4,0.1-7.3-3.1-7.4-7c0-0.1,0-0.2,0-0.4C994.2,49.2,998.4,46,1002.6,46L1002.6,46z M1007.4,66v44h-11.6V66L1007.4,66z
	 M1050.2,127.6v-23.9c-3.4,4.8-8.9,7.6-14.8,7.5c-10.7,0-19.9-8.3-19.9-23.1c0-14.9,9.1-23.1,20-23.1c5.8-0.2,11.3,2.6,14.6,7.3V66
	h11.6v61.6L1050.2,127.6z M1039,99.8c6.5,0,11.5-4.5,11.5-11.8c0-7.2-5-11.8-11.5-11.8c-6.6,0-11.5,4.7-11.5,11.8
	S1032.4,99.8,1039,99.8L1039,99.8z"/>
<path id="Company" class="st0" d="M230.1,142.5c5.8-1,11.7,0.3,16.6,3.5l-2.9,8.6c-3.5-2.8-8-4.1-12.4-3.4
	c-7.5,1.2-12.1,7.3-10.9,15c1.2,7.7,7.5,12.1,14.9,11c2.9-0.5,5.7-1.6,8.1-3.4l3.2,8.2c-3,1.9-6.4,3.2-9.9,3.8
	c-12,1.8-23.1-6.4-24.9-18.4C210,155.5,218.2,144.4,230.1,142.5 M267.2,153.2c-9.6,0-16.8,6.6-16.8,16.4c0,9.8,7.2,16.4,16.8,16.4
	s16.8-6.6,16.8-16.4C284.1,159.8,276.9,153.2,267.2,153.2 M267.2,161.3c4.6,0,8.3,3.7,8.3,8.3c0,4.6-3.7,8.3-8.3,8.3
	c-4.6,0-8.3-3.7-8.3-8.3v0c-0.2-4.4,3.3-8.2,7.7-8.3C266.8,161.3,267,161.3,267.2,161.3 M328.4,153.2c-5.2,0-8.6,2.4-10.5,5.8
	c-1.8-3.8-5.1-5.8-9.7-5.8c-4-0.2-7.7,1.9-9.8,5.3v-4.6h-8v31.3h8.3v-15c0-5.3,1.8-9.1,6.8-9.1c3.8,0,5.7,2.3,5.7,6.8v17.3h8.3v-15
	c0-5.3,1.8-9.1,6.9-9.1c3.7,0,5.6,2.3,5.6,6.8v17.3h8.3v-19C340.2,158.1,335.7,153.2,328.4,153.2 M355.8,197.8v-17
	c2.4,3.4,6.3,5.4,10.5,5.3c7.6,0,14.1-5.9,14.1-16.5s-6.5-16.5-14.3-16.5c-4.1-0.1-8,1.8-10.4,5.2v-4.4h-8.3v43.8H355.8z M372,169.6
	c0,5.1-3.5,8.4-8.2,8.4c-4.6,0-8.2-3.2-8.2-8.4c0-5.1,3.6-8.4,8.2-8.4C368.5,161.2,372,164.5,372,169.6 M398.8,153.3
	c-6.8,0-11.9,2.4-14,7.1l6.1,4.4c1.2-3,4.6-4,7.8-4c3.7,0,5.5,1.3,5.5,3.1v0.5c0,0.8-0.4,1.1-1.6,1.2l-8.6,0.8
	c-5.8,0.6-10,4.1-10,9.8c0,5.8,4.4,9.8,10.6,9.8c3.8,0.2,7.5-1.7,9.6-4.9v4.3h8.3V166C412.5,157.3,407.9,153.3,398.8,153.3
	 M404.2,172.6c0,3.4-2.8,6.4-7.2,6.4c-2.9,0-4.4-1.3-4.4-3.3c0-1.8,1.3-3.1,3.9-3.4l7.8-0.9V172.6z M437.6,153.2
	c-4-0.1-7.9,1.9-10.1,5.3v-4.5h-8v31.3h8.3v-15c0-5.6,2-9.1,6.8-9.1c3.5,0,5.7,2.1,5.7,6.8v17.3h8.5v-19.4
	C448.7,158,444.9,153.2,437.6,153.2 M465.7,197.8l19.7-43.8h-8.8l-7.7,17.1l-8-17.1h-9.6l13.3,26.8l-7.6,17L465.7,197.8z"/>
</svg>
