<?xml version="1.0" encoding="UTF-8"?>
<svg id="svg37145" xmlns="http://www.w3.org/2000/svg" xmlns:svg="http://www.w3.org/2000/svg" xmlns:sodipodi="http://sodipodi.sourceforge.net/DTD/sodipodi-0.dtd" xmlns:rdf="http://www.w3.org/1999/02/22-rdf-syntax-ns#" xmlns:inkscape="http://www.inkscape.org/namespaces/inkscape" xmlns:dc="http://purl.org/dc/elements/1.1/" xmlns:cc="http://creativecommons.org/ns#" version="1.1" viewBox="0 0 179.6 45.5">
  <!-- Generator: Adobe Illustrator 29.1.0, SVG Export Plug-In . SVG Version: 2.1.0 Build 142)  -->
  <defs>
    <style>
      .st0 {
        fill: #fff;
      }
    </style>
  </defs>
  <sodipodi:namedview id="base" bordercolor="#666666" borderopacity="1.0" fit-margin-bottom="0" fit-margin-left="0" fit-margin-right="0" fit-margin-top="0" inkscape:current-layer="layer1" inkscape:cx="89.291473" inkscape:cy="22.252449" inkscape:document-units="mm" inkscape:pageopacity="0.0" inkscape:pageshadow="2" inkscape:window-height="744" inkscape:window-maximized="1" inkscape:window-width="1280" inkscape:window-x="-4" inkscape:window-y="-4" inkscape:zoom="5.0228746" pagecolor="#ffffff" showgrid="false" units="px"/>
  <g id="layer1" inkscape:groupmode="layer" inkscape:label="Layer 1">
    <path id="path36916" class="st0" d="M15.9,22.8c2.4-3.3,5.1-2.7,8.3-2.3-.9-.9-1.3-2.1-1.3-3.3,0-2.9,2.4-5.2,5.3-5.2,6.1,0,5.4,6.9,2.7,6.9s-1.1-.4-1.2-.9c-.1-.4,0-.9-.1-1.3-.2-.5-.7-.9-1.4-.9s-.8.2-1,.4c-.8.8-.3,2.4.2,3.2.7,1.1,2.1,1.9,3.6,1.8h.2c4.2-.5,5.4-4.1,4.4-7.3-.5-1.4-2.1-3.5-3.9-4.3,3.3-1.9,4.4-6.4,4.3-9.1L0,22.8l36,22.3c.1-2.7-.9-7.1-4.3-9.1,1.8-.9,3.4-2.9,3.9-4.3,1.1-3.2-.2-6.8-4.4-7.3h-.2c-1.5,0-2.8.7-3.6,1.8-.5.8-1.1,2.4-.2,3.2.3.3.6.4,1,.4.6,0,1.2-.4,1.4-.9.1-.4,0-.9.1-1.3.1-.5.6-.9,1.2-.9,2.7,0,3.4,6.9-2.7,6.9s-5.3-2.3-5.3-5.2.4-2.4,1.3-3.3c-3.2.4-6,1-8.3-2.3" inkscape:connector-curvature="0"/>
    <path id="path36920" class="st0" d="M60,34v-11.4c0-.1,0-.3,0-.4h0s0-.2,0-.2h0s0,0,0,0h0c-.3-4-3-5.4-6.4-5.4s-4.8.9-5.9,1.9v2.1c1.4-.8,3.5-1.5,5.2-1.5s3.4.6,3.4,2.8h0v1.3c-5.3.5-9.7,1.5-9.7,6s2.3,5.7,7.1,5.7,4.9-.3,6.3-1M56.4,32.3c-1,.4-2.9.5-3.9.2-.6-.2-1-.4-1.4-.8-.5-.5-.7-1.2-.7-2.2,0-3.1,2.6-3.8,6-3.8v6.7Z" inkscape:connector-curvature="0"/>
    <path id="path36924" class="st0" d="M128.6,34.6v-2.8c-.3,0-.6.2-.9.2-1.3,0-1.9-.9-1.9-2.2v-10.7h2.8v-2.4h-2.8v-4.3l-3.8,2.4v1.9s-2,0-2,0v2.4h2v11.3c0,2.4,1.3,4.6,4.7,4.6s1.6-.2,2-.3" inkscape:connector-curvature="0"/>
    <path id="path36928" class="st0" d="M117.9,29.6c0-2.1-.8-3.8-4.3-5.2-1.6-.6-2.7-1.3-2.7-2.8s.9-2.3,2.6-2.3,2.7.8,3.4,1.5v-2.2c-2.3-3.4-9.9-2.4-9.9,3.2s.7,3.7,4.1,5c1.8.7,2.9,1.4,2.9,2.9,0,3.2-5.2,2.9-7,1.5v2.8c1.1.5,2.4,1,4.5,1,3.9,0,6.4-2.5,6.4-5.4" inkscape:connector-curvature="0"/>
    <path id="path36932" class="st0" d="M162.1,34.5v-12.5c0-2.8-1.7-5.3-6.9-5.3s-5.2.5-6.8,1.3v16.6h4v-14.9c.7-.3,1.4-.5,2.7-.5,2.5,0,3.1,1.5,3.1,2.9v12.5h4Z" inkscape:connector-curvature="0"/>
    <path id="path36936" class="st0" d="M80.9,16.7c-4.4-.2-6.8.4-8.6,1.2v16.6h3.9v-14.8c.9-.5,3.1-.8,4.6-.2v-2.8Z" inkscape:connector-curvature="0"/>
    <path id="path36938" class="st0" d="M68.1,16.7h-3.8v17.8h3.8v-17.8Z" inkscape:connector-curvature="0"/>
    <path id="path36950" class="st0" d="M103.8,34v-11.4c0-.1,0-.3,0-.4h0s0-.2,0-.2h0s0,0,0,0h0c-.3-4-3-5.4-6.4-5.4s-4.8.9-5.9,1.9v2.1c1.5-.8,3.5-1.5,5.2-1.5s3.4.6,3.4,2.8h0v1.3c-5.3.5-9.7,1.5-9.7,6s2.3,5.7,7.1,5.7,4.9-.3,6.3-1M100.1,32.3c-1,.4-2.9.5-3.9.2-.6-.2-1-.4-1.4-.8-.5-.5-.7-1.2-.7-2.2,0-3.1,2.6-3.8,6-3.8v6.7Z" inkscape:connector-curvature="0"/>
    <path id="path36954" class="st0" d="M144.1,34v-11.4c0-.1,0-.3,0-.4h0s0-.2,0-.2h0s0,0,0,0h0c-.3-4-3-5.4-6.4-5.4s-4.8.9-5.9,1.9v2.1c1.5-.8,3.5-1.5,5.2-1.5s3.4.6,3.4,2.8h0v1.3c-5.3.5-9.7,1.5-9.7,6s2.3,5.7,7.1,5.7,4.9-.3,6.3-1M140.4,32.3c-1,.4-2.9.5-3.9.2-.6-.2-1-.4-1.4-.8-.5-.5-.7-1.2-.7-2.2,0-3.1,2.6-3.8,6-3.8v6.7Z" inkscape:connector-curvature="0"/>
    <path id="path36958" class="st0" d="M178.6,34v-11.4c0-.1,0-.3,0-.4h0s0-.2,0-.2h0s0,0,0,0h0c-.3-4-3-5.4-6.4-5.4s-4.8.9-5.9,1.9v2.1c1.5-.8,3.5-1.5,5.2-1.5s3.4.6,3.4,2.8h0v1.3c-5.3.5-9.7,1.5-9.7,6s2.3,5.7,7.1,5.7,4.9-.3,6.3-1M174.9,32.3c-1,.4-2.9.5-3.9.2-.6-.2-1-.4-1.4-.8-.5-.5-.7-1.2-.7-2.2,0-3.1,2.6-3.8,6-3.8v6.7Z" inkscape:connector-curvature="0"/>
    <path id="path36962" class="st0" d="M68.2,12.4c0-1.1-.9-1.9-2-1.9s-2,.9-2,1.9.9,1.9,2,1.9,2-.8,2-1.9" inkscape:connector-curvature="0"/>
  </g>
</svg>