<svg width="25" height="24" viewBox="0 0 25 24" fill="none" xmlns="http://www.w3.org/2000/svg">
<mask id="mask0_2_2061" style="mask-type:luminance" maskUnits="userSpaceOnUse" x="1" y="0" width="23" height="24">
<path d="M23.9523 0.0195312H1.10742V23.1126H23.9523V0.0195312Z" fill="white"/>
</mask>
<g mask="url(#mask0_2_2061)">
<mask id="mask1_2_2061" style="mask-type:luminance" maskUnits="userSpaceOnUse" x="1" y="0" width="23" height="24">
<path d="M23.9523 0.0195312H1.10742V23.1126H23.9523V0.0195312Z" fill="white"/>
</mask>
<g mask="url(#mask1_2_2061)">
<path d="M4.51025 11.4157C4.47923 12.2637 4.58265 13.1221 4.83085 13.9598L2.82456 16.0488L2.94866 16.2556L3.97249 17.9517L4.09659 18.1585L6.81646 17.2795C7.42662 17.8896 8.1402 18.3757 8.89515 18.7377V21.5403L9.14335 21.592L11.0772 22.0367L11.3151 22.0884L12.6906 19.4926C13.4972 19.4512 14.3039 19.2858 15.0898 18.9962L17.0237 20.8784L17.2306 20.744L18.937 19.6684L19.1438 19.5443L18.3164 16.7624C18.8232 16.1936 19.2369 15.5524 19.5678 14.8802L22.3394 14.8078L22.4014 14.57L22.8875 12.6154L22.9495 12.3775L20.3848 11.0434C20.3641 10.3816 20.2503 9.71968 20.0642 9.06815L22.1325 6.92741L22.0084 6.72056L20.9846 5.02454L20.8605 4.81769L18.0476 5.72776C17.5615 5.25205 17.0134 4.84874 16.4239 4.5178V1.59108L16.1757 1.53938L14.2418 1.0947L14.0039 1.04297L12.6802 3.54568C11.9563 3.54568 11.2324 3.6284 10.5188 3.82489L8.46079 1.8186L8.25396 1.95304L6.54757 3.01824L6.34074 3.14234L7.11637 5.73812C6.50621 6.30691 6.0098 6.95842 5.61682 7.66166L2.76251 7.73406L2.70045 7.97193L2.21439 9.9265L2.15234 10.1644L4.54128 11.4054L4.51025 11.4157Z" stroke="white" stroke-width="2.06834" stroke-linecap="round" stroke-linejoin="round"/>
<path d="M13.8595 8.22069C15.6693 8.94461 16.507 11.013 15.7417 12.8434C14.9661 14.6636 12.877 15.553 11.0776 14.8291C9.26778 14.1051 8.43009 12.0368 9.19538 10.2063C9.96067 8.38617 12.0497 7.49677 13.8595 8.22069Z" stroke="white" stroke-width="2.06834" stroke-linecap="round" stroke-linejoin="round"/>
</g>
</g>
</svg>
