<?xml version="1.0" encoding="utf-8"?>
<!-- Generator: Adobe Illustrator 28.3.0, SVG Export Plug-In . SVG Version: 6.00 Build 0)  -->
<svg version="1.1"
	 id="svg244" xmlns:inkscape="http://www.inkscape.org/namespaces/inkscape" xmlns:sodipodi="http://sodipodi.sourceforge.net/DTD/sodipodi-0.dtd" xmlns:svg="http://www.w3.org/2000/svg"
	 xmlns="http://www.w3.org/2000/svg" xmlns:xlink="http://www.w3.org/1999/xlink" x="0px" y="0px" viewBox="0 0 182.8 53"
	 style="enable-background:new 0 0 182.8 53;" xml:space="preserve">
<style type="text/css">
	.st0{fill:#FFFFFF;}
</style>
<sodipodi:namedview  bordercolor="#666666" borderopacity="1.0" id="namedview246" inkscape:current-layer="svg244" inkscape:cx="99.087844" inkscape:cy="26.440994" inkscape:pagecheckerboard="0" inkscape:pageopacity="0.0" inkscape:pageshadow="2" inkscape:window-height="847" inkscape:window-maximized="0" inkscape:window-width="1296" inkscape:window-x="0" inkscape:window-y="25" inkscape:zoom="5.6919192" pagecolor="#ffffff" showgrid="false">
	</sodipodi:namedview>
<g id="Layer_1">
	<g id="g240">
		<g id="g204">
			<path id="path2" class="st0" d="M7.8,24.7l2-0.8l-0.3,1.9l0.1,0.1l0.3-2.2l-2.2,1H7.8L7.8,24.7z M6.9,24.7L7.6,25
				c0-2.4,0.9-3.9,2.5-4.4C8.3,20.7,7.3,22.1,6.9,24.7L6.9,24.7z M9,19.7c0.1,0.1,0.1,0.2,0.2,0.2c-1.5,0.4-2.5,1.8-3,4.3l0.5,0.2
				c0.4-2.9,1.9-4.4,4.3-4.5c-0.6-0.1-1.1-0.1-1.6,0l0.1-0.3c0.3-0.1,0.5-0.1,0.7-0.1v-0.1c0.1-0.7-0.3-1.1-0.8-0.8
				c-0.1-0.4,0.1-0.7,0.6-0.8c0.4,0.1,0.6,0.4,0.5,0.8c0.3,0,0.5,0.2,0.6,0.6c0.4,0,0.6,0.2,0.7,0.7c0.6,0.4,0.9,1,1,1.9l-0.1,1.5
				c0.2,1-0.2,2-1,3.1c-1.5,1.7-3.7,1.5-4.4-0.9l-0.8,0.3l-0.8-0.4V25L5,24.7v-0.3L5.8,24C6.1,21.9,7,20.6,9,19.7L9,19.7z"/>
			<path id="path4" class="st0" d="M15.8,0.2v4.4c0,0.2-0.4,0.2-0.4,0V0.2C15.4-0.1,15.8-0.1,15.8,0.2L15.8,0.2z"/>
			<path id="path6" class="st0" d="M11.9,35.1v0.3l0.8,0.1v-0.3L11.9,35.1L11.9,35.1z M8.4,36.3v0.3l0.8,0.1v-0.3L8.4,36.3L8.4,36.3
				z M4.9,37.4v0.3l0.8,0.1v-0.3L4.9,37.4L4.9,37.4z M13.2,41.5v-4c0-0.5-0.1-0.9,0.2-1.1c0.3-0.2,0.7-0.3,0.8,0
				c-0.1-0.3-0.4-0.4-0.5-0.4c-0.6-0.1-1.1,0.3-1.1,1.3v4l-0.4-0.2v-5h-0.3V41c-1.1-0.6-2.3-1-2.3-1v-1.2c0-0.6,0-0.9,0.3-1.2
				c0.3-0.2,0.5-0.1,0.7,0.1c-0.1-0.4-0.4-0.5-0.7-0.5c-0.4,0-0.8,0.4-0.8,1.3v1.3l-0.3-0.1v-1.9v-0.4H8.5v0.4v1.7
				C7.2,39.1,6.4,39,6.4,39c0-0.5,0.2-0.8,0.7-0.7c-0.6-0.3-1,0-1.1,0.6l-0.5-0.1v-0.6H5.2v0.6c0,0-0.3,0-0.9-0.1v-0.3l-0.6-0.3
				v-0.5l0.4-0.1L15.5,34v0.1l0.2-0.1v0.2v0.6v0.4l-0.1,0.2l0.1,0.2v7.5C14.2,42,13.2,41.5,13.2,41.5z"/>
			<path id="path8" class="st0" d="M17.2,31.9l-0.5,0.3V32l-0.3-0.1v0.2l-0.2,0.2v0.2L16,32.6c-0.2-0.1-0.2-0.1-0.2-0.1v0.2v0.1V33
				L4,36.7l-0.2-0.1v-0.1L4,36.4v-0.6l-1.2-0.2l13.3-4.3L17.2,31.9L17.2,31.9z"/>
			<polygon id="polygon10" class="st0" points="8.6,13.7 16.4,10.5 16.2,11.2 16.2,11.9 10.2,14.4 8.8,13.9 			"/>
			<polygon id="polygon12" class="st0" points="21.1,23.9 21.1,23.7 23.2,24 22.8,25.9 22.6,26 22.8,24.2 			"/>
			<polygon id="polygon14" class="st0" points="18.2,23.6 19.8,23.1 21,23.4 20.2,23.9 19.6,23.7 18.8,24 			"/>
			<path id="path16" class="st0" d="M25,25.2c-0.3-3.3-1.6-4.3-3.4-4.3c1.6-0.8,3.7,0.9,3.9,3.9l1.4,0.4l-0.5,0.4L25,25.2L25,25.2z"
				/>
			<polygon id="polygon18" class="st0" points="17.8,22.4 19.6,21.8 19.8,22.2 20.7,22.5 20.7,22.9 19.8,22.6 18.2,23.2 18.1,22.8 
							"/>
			<path id="path20" class="st0" d="M26.3,24.3l1.2,0.4l-0.6,0.2l-1.1-0.3c-0.6-3.9-3.6-5.1-5-3.3C21.7,19.3,25.5,19.8,26.3,24.3
				L26.3,24.3z"/>
			<path id="path22" class="st0" d="M24,21.6l-0.3,0.6c-0.1-0.1-0.1-0.2-0.2-0.2l0.3-0.5L24,21.6L24,21.6z"/>
			<path id="path24" class="st0" d="M24.7,23l-0.4,0.3c0-0.1-0.1-0.2-0.1-0.3l0.4-0.2L24.7,23L24.7,23z"/>
			<path id="path26" class="st0" d="M25,24.8l-0.9-0.2c0-0.1,0-0.2,0-0.3l1,0.3L25,24.8L25,24.8z"/>
			<path id="path28" class="st0" d="M21.4,22.6L21,22.2l0.1-0.3l0.4,0.4C21.4,22.4,21.4,22.5,21.4,22.6L21.4,22.6z"/>
			<path id="path30" class="st0" d="M24.1,27l-0.3-0.6l0.2-0.1l0.3,0.6C24.3,27,24.3,27,24.1,27L24.1,27z"/>
			<path id="path32" class="st0" d="M23.1,27.2v-1.3c0.1,0,0.1,0,0.2,0l0.1,1.3C23.3,27.3,23.2,27.3,23.1,27.2L23.1,27.2z"/>
			<path id="path34" class="st0" d="M21.6,24.9L21,25.3c-0.1-0.1-0.1-0.2-0.1-0.3l0.6-0.4C21.6,24.7,21.6,24.8,21.6,24.9L21.6,24.9z
				"/>
			<path id="path36" class="st0" d="M21.8,23.8L21,23.5v-0.3l0.8,0.3C21.8,23.6,21.8,23.7,21.8,23.8L21.8,23.8z"/>
			<path id="path38" class="st0" d="M24.8,26.2l-0.5-0.5c0-0.1,0.1-0.2,0.1-0.3l0.5,0.5C25,26,24.9,26.1,24.8,26.2L24.8,26.2z"/>
			<path id="path40" class="st0" d="M21.7,21.9l-0.4-0.8l0.2-0.2l0.4,0.8C21.8,21.7,21.8,21.8,21.7,21.9L21.7,21.9z"/>
			<path id="path42" class="st0" d="M22.4,22.1l-0.2-1.3h0.3l0.2,1.4c-0.1,0-0.1,0-0.2,0C22.5,22.1,22.5,22.1,22.4,22.1L22.4,22.1z"
				/>
			<path id="path44" class="st0" d="M22.3,25.9L22,26.6l-0.2-0.2l0.4-0.7C22.2,25.7,22.3,25.8,22.3,25.9L22.3,25.9z"/>
			<polygon id="polygon46" class="st0" points="16.1,30.1 16.1,27.8 17,27.6 17,29.6 17.7,29.9 17.8,27.9 18.5,27.7 18.5,29.7 
				19.2,30 19.2,29.1 20.3,28.7 20.2,31.1 18.6,30.6 18.6,30.1 17.2,30.6 			"/>
			<polygon id="polygon48" class="st0" points="17.3,31.3 15.4,30.5 15.7,30.3 17.3,30.9 17.5,31 18.6,30.6 18.6,31.3 17.3,31.7 			
				"/>
			<polygon id="polygon50" class="st0" points="18.7,30.2 18.6,30.6 20.4,31.2 24.7,29.8 28.8,34.3 29.9,34.7 30.2,34.3 29.1,33.9 
				28.9,34.1 24.8,29.6 24.8,29.3 20.3,30.8 			"/>
			<path id="path52" class="st0" d="M24.4,30.7l0.1-0.4l3.9,4.2l-0.9-0.4L24.4,30.7L24.4,30.7z"/>
			<path id="path54" class="st0" d="M19.1,20.7c-0.4,0.4-0.7,1.1-0.8,1.6l1.3-0.5l0.7,0.2c-0.1-1,0.5-1.8,1.3-2.2L19.1,20.7
				L19.1,20.7z"/>
			<polygon id="polygon56" class="st0" points="17.4,34.6 17.4,34.4 18.5,34.1 18.5,34.3 19.7,34.7 19.6,34.9 19.3,35.4 18.6,35.1 
				18.6,44.8 18,44.5 18,36 18,35.9 18.1,35.7 18.1,35.3 			"/>
			<path id="path58" class="st0" d="M19.9,35.9c0.6-0.3,1.1,0.1,1.2,1.2v8.8l-0.5-0.2v-8.6C20.5,36.2,20.3,35.9,19.9,35.9L19.9,35.9
				z"/>
			<path id="path60" class="st0" d="M23.5,19.7L23.5,19.7c1.6,0.5,2.9,2.2,3.2,4.1l0.9,0.3l-0.2,0.1L26.5,24
				c-0.2-1.5-1.4-3.5-3.1-4.1C23.5,19.8,23.5,19.8,23.5,19.7L23.5,19.7z M19.1,20.5l2.4-0.9c0.5-0.2,1-0.2,1.5-0.1v0.1v0.1
				c-0.5-0.1-0.9-0.1-1.4,0.1l-2.7,1.1L19.1,20.5L19.1,20.5z"/>
			<path id="path62" class="st0" d="M22.4,18.8c-0.2,0.6,0,0.8,0.7,0.7c-0.1,0.2,0,0.4,0.2,0.6c-0.3,0-0.5-0.1-0.5-0.3
				C22.1,19.8,21.8,19.3,22.4,18.8L22.4,18.8z"/>
			<path id="path64" class="st0" d="M23.6,17.2c-0.2,0.1-0.4,0.2-0.4,0.4c-0.3,0-0.4,0.2-0.4,0.4c-0.5,0.1-0.7,0.2-0.6,0.4
				c-0.4,0.2-0.5,0.5-0.5,0.8c-0.4-0.1-0.6,0-0.6,0.5L20.6,20c-0.1-0.5,0.2-0.8,0.8-1c0.1-0.5,0.4-0.9,0.9-1.1
				C22.5,17.4,23.2,17.1,23.6,17.2L23.6,17.2z"/>
			<path id="path66" class="st0" d="M20.6,26v-0.4l-0.2-0.4L20.2,25v-0.6l-0.1-0.7h0.2c0.4,2.5,2.7,4.6,4.3,3.5
				C23.7,28.5,21.8,28,20.6,26L20.6,26z"/>
			<path id="path68" class="st0" d="M21.3,14.3v0.3c0.8,0.9,1.4,1.7,2,2.6l-0.4,0.1c-0.6-1-1.4-1.8-2.1-2.7l0.2-0.5L21.3,14.3
				L21.3,14.3z"/>
			<path id="path70" class="st0" d="M24.2,18.3c0.8,1.1,1.6,2.7,2.1,4.2l-0.8-1.2c-0.4-1-0.6-1.1-1.1-2c-0.2-0.3,0.1-0.5-0.1-0.7
				L24.2,18.3L24.2,18.3z"/>
			<path id="path72" class="st0" d="M20,29l-0.7,0.1c-0.1-0.3-0.2-0.5-0.1-0.8c0.1-0.2,0.2-0.4,0.6-0.6c0-0.3-0.1-0.5-0.4-0.7
				c-0.5,0-0.8-0.6-0.4-1.1l-0.2-0.2l0.2-0.2l-0.2-0.2l0.1-0.2L18.8,24l0.7-0.2v1.1L19.4,25l0.2,0.2l-0.2,0.2l0.2,0.3
				c-0.4,0.3-0.4,1.3,0.6,1.1c0.1,0-0.3,0.1-0.2,0.2c0.2,0.1,0.2,0.4,0.3,0.7c-0.5,0-0.7,0.8-0.3,1V29L20,29z"/>
			<path id="path74" class="st0" d="M23.5,29.8c-0.1-0.3-0.2-0.6-0.1-1c-0.7,0-1.6-0.2-1.9-0.7c0-0.1,0-0.4,0-0.4
				c0.6,0.6,1.9,0.8,2.4,0.7c-0.2,0.5-0.2,1,0,1.4H23.5L23.5,29.8z"/>
			<polygon id="polygon76" class="st0" points="26.3,27.8 25.4,27.4 25.6,27.1 25.3,26.9 25.5,26.7 25.4,26.4 25.5,25.3 26,25.4 			
				"/>
			<path id="path78" class="st0" d="M24.9,29.4c-0.1-0.5,0-1,0.2-1.2c-0.2,0.5,0.8,0.7,0.9,0.3c0.1-0.5-0.1-0.8-0.6-1.1l0.3-0.1
				c0.5,0.3,0.5,0.8,0.4,1.4c-0.1,0.4-0.4,0.6-0.9,0.6c-0.1,0-0.1,0.2,0,0.4C25.2,29.7,24.9,29.4,24.9,29.4L24.9,29.4z"/>
			<polygon id="polygon80" class="st0" points="26.9,31.4 26.6,31.1 28.5,31.8 28.4,32.3 29,32.5 28.5,33.2 			"/>
			<path id="path82" class="st0" d="M26.9,25.3c0.2,0.8,0.3,2.7,0.3,3.3l0.1,2.8H27l-0.1-2.8c0-0.6-0.2-2.4-0.3-3.2L26.9,25.3
				L26.9,25.3z"/>
			<path id="path84" class="st0" d="M25.9,25.3l0.5,0.2c0.2,1.6,0.4,3.6,0.3,5.8l-0.6-0.7C26.3,28.4,26.1,26.4,25.9,25.3L25.9,25.3z
				"/>
			<polygon id="polygon86" class="st0" points="17.9,32.5 18.3,32.4 18.5,32.4 18.6,32.7 18.3,32.7 17.9,32.8 			"/>
			<polygon id="polygon88" class="st0" points="18.5,33.3 18.5,33.5 29.2,37.3 29,37.4 18.6,33.7 18.6,34.1 18.5,34.1 17.7,34.3 
				17.7,33.9 17.5,33.8 17.5,33.6 			"/>
			<polygon id="polygon90" class="st0" points="18.8,32.8 17.4,33 17.4,33.2 17.7,33.3 17.7,33.6 18.5,33.6 29.2,37.3 29.1,36.9 
				29.3,36.8 18.7,33 			"/>
			<polygon id="polygon92" class="st0" points="21.6,35.7 21.9,35.4 19.8,34.7 19.8,34.8 19.6,34.7 19.6,34.9 			"/>
			<path id="path94" class="st0" d="M23,37c0.6-0.3,1.1,0.1,1.2,1.2V47l-0.6-0.2v-8.5C23.5,37.3,23.4,37,23,37L23,37z"/>
			<polygon id="polygon96" class="st0" points="24.4,36.7 24.8,36.4 23.2,35.9 23.2,36.1 22.9,36 22.9,36.1 			"/>
			<path id="path98" class="st0" d="M25.9,38c0.6-0.3,1.1,0.1,1.2,1.2V47h-0.5l-0.1-7.7C26.5,38.3,26.3,38,25.9,38L25.9,38z"/>
			<polygon id="polygon100" class="st0" points="27.5,37.7 27.9,37.5 26.2,36.9 26.1,37.1 25.8,37 25.8,37.2 			"/>
			<polygon id="polygon102" class="st0" points="21.3,35.9 21.3,35.8 21.9,35.4 21.9,35.6 23,36 22.9,36.1 22.5,36.5 22.1,36.4 
				22.1,46.3 21.7,46.2 21.7,36.5 			"/>
			<polygon id="polygon104" class="st0" points="24.2,37 24.2,36.8 24.8,36.4 24.8,36.6 25.8,37 25.8,37.2 25.3,37.5 25,37.4 25,47 
				24.5,47 24.6,37.5 			"/>
			<polygon id="polygon106" class="st0" points="27.3,38 27.3,37.9 27.9,37.5 27.9,37.7 28.9,38 28.9,38.2 28.4,38.6 28,38.5 28,39 
				27.9,39.1 28,39.3 28,47 27.6,47 27.6,38.6 			"/>
			<path id="path108" class="st0" d="M19.4,14.9c1.6,0.8,2.6,1.9,3.2,2.7L22.1,18c-0.8-1.2-2-2.3-3-2.6c-1.1,0.4-1.6,1.3-1.7,2.2
				C17.4,16.2,18.2,15.1,19.4,14.9L19.4,14.9z"/>
			<polygon id="polygon110" class="st0" points="16.4,9.3 23.6,12.4 23.7,12.7 16.4,9.7 16.5,10.1 8.5,13.5 8,13.1 8,12.9 			"/>
			<polygon id="polygon112" class="st0" points="17,11.2 16.8,11.3 16.6,11.8 16.4,11.8 16.4,11.2 17.1,10.9 			"/>
			<polygon id="polygon114" class="st0" points="16.3,12.2 21.1,14.2 21.3,15 16.2,13 			"/>
			<path id="path116" class="st0" d="M16.4,7.3l2.1,0.9v2.1L18,10l-0.2-1.3c-0.7-0.4-1.2-0.1-1.4,0V7.3L16.4,7.3z"/>
			<polygon id="polygon118" class="st0" points="15.9,9.7 15.8,6.5 18.8,7.9 18.8,10.4 19.1,10.5 19.1,8 20.1,7.5 15.7,5.5 15.7,5 
				15.6,4.8 20.6,7.1 20.6,6.7 15.6,4.5 10.5,6.8 10.6,7 11,7.1 11.2,7.4 12.4,8.1 12.4,11.2 			"/>
			<polygon id="polygon120" class="st0" points="12.5,4 12.5,6.2 12.3,6.2 12.3,4 			"/>
			<polygon id="polygon122" class="st0" points="13.5,3.4 13.5,5.7 13.3,5.7 13.3,3.4 			"/>
			<polygon id="polygon124" class="st0" points="14.6,2.9 14.6,5.1 14.4,5.1 14.4,2.9 			"/>
			<path id="path126" class="st0" d="M15.5,4.6V2.5l-4.1,2.1v2.2h-0.2V4.5c0,0,0-0.1,0.1-0.1l4.3-2.2c0.1,0,0.1,0,0.1,0.1v2.2
				L15.5,4.6L15.5,4.6L15.5,4.6z"/>
			<polygon id="polygon128" class="st0" points="18.9,3.8 18.9,6 18.7,6 18.7,3.8 			"/>
			<polygon id="polygon130" class="st0" points="17.8,3.3 17.8,5.5 17.6,5.5 17.6,3.3 			"/>
			<polygon id="polygon132" class="st0" points="16.7,2.8 16.7,5 16.5,5 16.5,2.8 			"/>
			<path id="path134" class="st0" d="M15.5,4.6V2.3c0-0.1,0.1-0.1,0.1-0.1l4.3,1.9L20,4.2v2.2h-0.2V4.3l-4.1-1.8v2.1L15.5,4.6
				L15.5,4.6z"/>
			<path id="path136" class="st0" d="M15.6,4.5l2,0.9l2.2-1.2c0.1,0,0.1,0,0.1,0.1v2.2h-0.2V4.4l-2.1,1.2h-0.1l-2.1-0.9L15.6,4.5
				L15.6,4.5z"/>
			<path id="path138" class="st0" d="M15.6,4.6l-1.9,1h-0.1l-2.3-0.9v2.1h-0.1V4.5c0-0.1,0.1-0.1,0.1-0.1l2.3,1l1.8-0.9L15.6,4.6
				L15.6,4.6z"/>
			<path id="path140" class="st0" d="M16.5,8.8C17,8,18.1,8.5,18,9.4v0.7l-0.6-0.2V9.2C17.2,8.7,16.9,8.6,16.5,8.8L16.5,8.8z"/>
			<path id="path142" class="st0" d="M15.8,7.5l7,3.1l0.1,0.1v1.5h-0.2v-1.5l-6.9-3V7.5L15.8,7.5z"/>
			<path id="path144" class="st0" d="M15.8,7.5l7,3.1c0.1,0,0.1,0.1,0,0.2l-2.1,0.7l-0.1-0.2l1.8-0.6l-6.8-3L15.8,7.5L15.8,7.5z"/>
			<polygon id="polygon146" class="st0" points="17.6,8.3 17.6,10 17.4,10 17.4,8.3 			"/>
			<polygon id="polygon148" class="st0" points="19.7,9.2 19.7,10.8 19.5,10.8 19.5,9.2 			"/>
			<polygon id="polygon150" class="st0" points="20.7,9.7 20.7,11.3 20.5,11.3 20.5,9.7 			"/>
			<polygon id="polygon152" class="st0" points="21.8,10.1 21.8,11.7 21.6,11.7 21.6,10.1 			"/>
			<path id="path154" class="st0" d="M15.8,7.6l-6.9,3v1.9H8.7v-1.9c0,0,0-0.1,0.1-0.1l6.9-3L15.8,7.6L15.8,7.6z"/>
			<path id="path156" class="st0" d="M15.8,7.6l-6.7,3l2.2,1l-0.1,0.2l-2.4-1.1c-0.1,0-0.1-0.1,0-0.2l6.9-3L15.8,7.6L15.8,7.6z"/>
			<polygon id="polygon158" class="st0" points="10,10.2 10,12.3 9.8,12.3 9.8,10.2 			"/>
			<polygon id="polygon160" class="st0" points="11,9.7 11,11.8 10.9,11.8 10.9,9.7 			"/>
			<polygon id="polygon162" class="st0" points="12.1,9.3 12.1,11.4 11.9,11.4 11.9,9.3 			"/>
			<polygon id="polygon164" class="st0" points="15.5,27.5 14.3,27.8 14.3,28.1 14.3,30.4 15.5,30.2 15.5,27.7 			"/>
			<polygon id="polygon166" class="st0" points="15.6,30.5 15.7,30.3 15.7,29.9 13.9,30.5 8.6,29.1 3.8,33.8 2.2,34.3 2.2,34.6 
				2.4,34.7 2.4,35.4 15.5,31.2 			"/>
			<polygon id="polygon168" class="st0" points="9.7,29.1 13.4,28.1 13.4,28.7 13.4,30.1 			"/>
			<polygon id="polygon170" class="st0" points="4.2,32.6 3.6,32.6 3.6,32.4 3.9,32.1 3.9,31.8 5.2,31.4 5.3,32 4.3,33 4.3,32.7 			
				"/>
			<polygon id="polygon172" class="st0" points="13.8,21.7 15.5,22.4 15.1,22.8 13.8,22.2 13.8,22.6 15.3,23.2 14.8,23.6 13.5,23.1 
				12.1,23.3 12.4,22.7 12.6,21.7 13.8,21.3 			"/>
			<path id="path174" class="st0" d="M15.4,22.4l-0.3,0.4v0.3l-0.6,0.4v0.4l-0.1,0.2l-0.2,0.2c0,0,0.2,0.1,0.2,0.2
				c0,0-0.1,0.1-0.1,0.2s0.2,0.1,0.2,0.1c0,0.1-0.1,0.2-0.1,0.2c0.3,0.2,0.4,0.5,0.1,0.9c0.1,0.7-0.3,1-1,1
				c-0.1,0.1-0.1,0.3-0.1,0.4c0.5-0.1,0.8,0.3,0.9,0.6l1.1-0.3l0.5,0.2l-0.1-7.4c-0.1-1.9-0.3-2.7-0.5-3.1c-0.4-0.9-1.2-1.5-2.2-1.8
				c-0.8,0.3-2.1,1.1-2.9,2.4c0.1,0.1,0.1,0.1,0.1,0.1c0.3,0.1,0.5,0.3,0.6,0.6c0.2,0.1,0.3,0.2,0.4,0.4c0.5,0.1,0.8,0.4,0.9,1
				c0.9,0.1,1.7,0.4,1.9,1.5l1.2,0.5L15.4,22.4L15.4,22.4z"/>
			<path id="path176" class="st0" d="M5.9,31.3c-0.1-2.2,0-4,0.3-5.5l0.2,0.1h0.1l0.1,0.3l-0.1,0.2l0.2,0.2l-0.2,0.2l0.1,0.3
				c-0.2,0.2-0.2,0.5,0,0.9c-0.2,0.3-0.2,1.2,0.6,1.1v0.2c-0.9,0.1-0.7,1-0.4,1.2L5.9,31.3L5.9,31.3z"/>
			<path id="path178" class="st0" d="M5.1,24.9l0.4,0.2v0.3l0.1,0.1c-0.4,2-0.5,4.1-0.3,6l-0.5,0.2C4.5,29.5,4.6,27,5.1,24.9
				L5.1,24.9z"/>
			<path id="path180" class="st0" d="M7.2,21l-1.4,2.7l-0.5,0.2c0.6-1.9,1.5-3.6,2.5-5.5c-0.1,0.4-0.1,0.6,0,0.8
				c-0.1,0.1-0.2,0.3-0.2,0.7C7.2,20,7,20.3,7.1,20.8L7.2,21L7.2,21z"/>
			<path id="path182" class="st0" d="M8.8,16.9l1.5-2.1v-0.1l5.9-2.5l0.1,0.1v0.4v0.4c0.5,5,0.7,10.1,0.7,14.6l-0.7,0.2
				c0.1-2.5-0.1-5.7-0.2-8.7c-0.1-2.7-1.5-4.2-3.5-4.4c-1.1,0.5-1.8,1.3-3.1,2.5l-0.3-0.2L8.8,16.9L8.8,16.9z"/>
			<path id="path184" class="st0" d="M9,18.9c0,0.3-0.1,0.7,0,0.8L8.5,20c-0.4-0.3-0.6-0.9-0.5-1.7c0-0.3,0.1-0.5,0.4-0.7
				c0-0.3,0.1-0.5,0.2-0.6c0,0.6,0.1,1.1,0.3,1.6c0,0.1-0.6,0.1-0.5,0.8C8.4,19.1,8.7,18.9,9,18.9L9,18.9z"/>
			<path id="path186" class="st0" d="M6.8,25.9L7,26.2l-0.1,0.2L7,26.6l-0.1,0.3L7,27.2c-0.3,0.3-0.3,0.5,0,0.8
				c-0.2,0.5-0.2,1.2,0.6,1l0.1-0.1v0.5c-0.7,0.1-1,0.5-0.8,0.9l1.5-1.5l-0.1-0.7l0.3-0.4c-0.9-0.4-1.4-1-1.7-1.9L6.8,25.9L6.8,25.9
				z"/>
			<path id="path188" class="st0" d="M11.7,28.6L10,29.1l-0.9-0.2v-0.8c0.2,0,0.3-0.2,0.4-0.4c0.7,0.1,1.4-0.1,2.2-0.7
				C11.6,27.4,11.5,28.3,11.7,28.6L11.7,28.6z"/>
			<path id="path190" class="st0" d="M12.4,26c-0.5,0.7-0.6,1.5-0.3,2.5l1.3-0.4c0.3-0.5-0.3-0.8-0.7-0.4c-0.1-0.3-0.2-0.9,0.3-1.5
				v0.5c0.6,0.2,1.1-0.6,0.7-1.1l0.1-0.6l-0.2-0.2l0.2-0.2l-0.2-0.1l0.1-0.2V23l-0.9,0.2l0.1,1.4l-0.1,0.3v0.4L12.4,26L12.4,26z"/>
			<polygon id="polygon192" class="st0" points="4,37.3 3.7,37.3 3.7,37.2 3.7,37.1 3.7,36.7 15.7,33.1 15.7,33.5 15.7,33.7 			"/>
			<polygon id="polygon194" class="st0" points="15.7,34.3 16.7,34.5 16.3,35 15.7,35 			"/>
			<path id="path196" class="st0" d="M15.6,35.5v0.1V35.5z"/>
			<path id="path198" class="st0" d="M15.6,35.4l0.1-0.1L15.6,35.4z"/>
			<polygon id="polygon200" class="st0" points="19.7,31.9 19.7,32 19.3,32.3 19.2,32.8 19,32.9 19,32.1 18.8,32 18.8,32.8 18.3,33 
				18.3,32.5 17.9,32.5 17.6,32.2 17.5,32 17.3,31.7 18.6,31.2 29.8,35.3 29.9,35.4 29.7,35.6 29.4,35.5 29.4,35.6 29,35.7 
				28.8,36.3 28.5,36.3 28.7,35.4 28.9,35.3 			"/>
			<polygon id="polygon202" class="st0" points="17.1,10.9 16.4,11.8 16.2,11.9 16.1,11.2 16.4,10.5 16.5,10.2 23.2,13.1 21.3,14.1 
				21.3,14 21.4,14 21.6,13.6 22,13.4 22.1,13.2 			"/>
		</g>
		<g id="g238">
			<path id="path206" class="st0" d="M42.9,27.7v-2.8c0-2.1-0.2-2.3-1.7-2.5v-0.3h5v0.3c-1.6,0.2-1.8,0.4-1.8,2.5v6.9
				c0,2.1,0.2,2.3,1.7,2.5v0.3H41v-0.3c1.7-0.2,1.9-0.4,1.9-2.5v-3.5h-6.8v3.5c0,2.1,0.2,2.3,1.7,2.5v0.3h-5v-0.3
				c1.6-0.2,1.7-0.4,1.7-2.5v-6.9c0-2.1-0.2-2.3-1.8-2.5v-0.3h5v0.3c-1.5,0.2-1.7,0.4-1.7,2.5v2.8C36,27.7,42.9,27.7,42.9,27.7z"/>
			<path id="path208" class="st0" d="M50,32.6c0,1.4,0.1,1.5,1.3,1.8v0.3h-4.1v-0.3c1.2-0.2,1.3-0.3,1.3-1.8v-4.5
				c0-1.5-0.1-1.5-1.3-1.8V26h4.1v0.3c-1.2,0.2-1.3,0.3-1.3,1.8C50,28.1,50,32.6,50,32.6z"/>
			<path id="path210" class="st0" d="M52.4,34.6v-0.3c1.3-0.2,1.4-0.3,1.4-1.8V28c0-1.5-0.1-1.5-1.3-1.8V26h4.2v0.3
				c-1.3,0.2-1.4,0.3-1.4,1.8v4.7c0,0.8,0.1,1.1,0.4,1.3c0.3,0.1,0.7,0.2,1.3,0.2c0.8,0,1.4-0.3,1.8-0.6c0.3-0.3,0.5-0.7,0.9-1.3
				l0.3,0.1c-0.1,0.5-0.4,1.9-0.5,2.3h-7.1L52.4,34.6L52.4,34.6z"/>
			<path id="path212" class="st0" d="M60.5,34.6v-0.3c1.3-0.2,1.4-0.3,1.4-1.8V28c0-1.5-0.1-1.5-1.3-1.8V26h4.2v0.3
				c-1.3,0.2-1.4,0.3-1.4,1.8v4.7c0,0.8,0.1,1.1,0.4,1.3c0.3,0.1,0.7,0.2,1.3,0.2c0.8,0,1.4-0.3,1.8-0.6c0.3-0.3,0.5-0.7,0.9-1.3
				l0.3,0.1c-0.1,0.5-0.4,1.9-0.5,2.3h-7.1L60.5,34.6L60.5,34.6z"/>
			<path id="path214" class="st0" d="M69,31.9c0.5,1,1.4,2.5,2.8,2.5c0.9,0,1.6-0.6,1.6-1.6c0-1.2-1.1-1.7-1.9-2
				c-0.9-0.4-2.4-1-2.4-2.4c0-1.5,1.2-2.6,3-2.6c0.8,0,1.5,0.3,1.9,0.3c0.1,0.6,0.2,1.2,0.3,2.1H74c-0.4-1.1-1.1-2.1-2.3-2.1
				c-0.9,0-1.5,0.6-1.5,1.4c0,1.1,1,1.5,1.9,1.8c1.2,0.4,2.6,1.1,2.6,2.7s-1.4,2.7-3.2,2.7c-1.2,0-2.1-0.5-2.4-0.7
				c-0.1-0.3-0.3-1.4-0.4-2.2L69,31.9z"/>
			<path id="path216" class="st0" d="M80.1,26c1.6,0,3,0.3,4,1.2c0.7,0.6,1.2,1.6,1.2,2.8c0,3.2-2.6,4.6-5.6,4.6H76v-0.3
				c1.3-0.2,1.4-0.3,1.4-1.8V28c0-1.5-0.1-1.5-1.3-1.8V26H80.1z M78.7,32.6c0,1.3,0.2,1.6,1.4,1.6c2.4,0,3.5-1.5,3.5-3.8
				c0-2.9-1.4-4-3.7-4c-0.5,0-0.9,0.1-1,0.2s-0.1,0.3-0.1,0.6L78.7,32.6L78.7,32.6L78.7,32.6z"/>
			<path id="path218" class="st0" d="M91,34.4l0.4-0.1c0.5-0.1,0.7-0.3,0.3-1.2L91,31.5h-2.8c-0.1,0.4-0.4,1.3-0.6,1.9
				c-0.2,0.7,0,0.8,0.5,1l0.5,0.1v0.3h-3.3v-0.3c0.9-0.2,1.2-0.3,1.8-1.7l2.9-6.9l0.3-0.1l2.9,7.2c0.5,1.1,0.8,1.3,1.6,1.4v0.3H91
				L91,34.4L91,34.4z M88.4,30.9h2.4l-1.2-3.1l0,0L88.4,30.9z"/>
			<path id="path220" class="st0" d="M95.4,34.6v-0.3c1.3-0.2,1.4-0.3,1.4-1.8V28c0-1.5-0.1-1.5-1.3-1.8V26h4.2v0.3
				c-1.3,0.2-1.4,0.3-1.4,1.8v4.7c0,0.8,0.1,1.1,0.4,1.3c0.3,0.1,0.7,0.2,1.3,0.2c0.8,0,1.4-0.3,1.8-0.6c0.2-0.3,0.5-0.7,0.9-1.3
				l0.3,0.1c-0.1,0.5-0.4,1.9-0.5,2.3h-7.1L95.4,34.6L95.4,34.6z"/>
			<path id="path222" class="st0" d="M104.8,28.1c0-1.5-0.1-1.6-1.3-1.8V26h6.7c0,0.4,0.1,1.3,0.2,2.2h-0.3c-0.3-0.7-0.5-1-0.7-1.3
				c-0.2-0.2-0.6-0.5-1.7-0.5h-1c-0.5,0-0.6,0-0.6,0.5v2.9h1.5c1.2,0,1.3-0.2,1.6-1.1h0.3v2.8h-0.3c-0.3-1-0.4-1.2-1.6-1.2h-1.4v2.3
				c0,0.8,0.1,1.2,0.4,1.3c0.3,0.1,0.7,0.2,1.6,0.2c0.8,0,1.4-0.3,1.8-0.6c0.2-0.3,0.5-0.7,0.9-1.3l0.3,0.1
				c-0.1,0.5-0.4,1.9-0.5,2.3h-7.2v-0.3c1.3-0.2,1.4-0.3,1.4-1.8L104.8,28.1L104.8,28.1z"/>
			<path id="path224" class="st0" d="M126.5,25.3c-0.8-2.2-2-3-4-3c-3.4,0-4.9,2.8-4.9,5.9c0,3.7,1.9,6.4,5,6.4
				c2.2,0,3.2-1.3,4.4-3.3l0.3,0.1c-0.3,0.8-0.7,2.4-1,3.1c-0.5,0.1-2.3,0.5-3.6,0.5c-4.9,0-6.9-3.3-6.9-6.4c0-4,3.1-6.7,7.2-6.7
				c1.7,0,2.9,0.4,3.5,0.5c0.2,1.1,0.2,1.9,0.3,2.9H126.5z"/>
			<path id="path226" class="st0" d="M127.9,30.5c0-3.3,2.5-4.7,4.6-4.7c2.7,0,4.5,2,4.5,4.5c0,3-2.3,4.6-4.5,4.6
				C129.5,34.9,127.9,32.6,127.9,30.5z M132.7,34.4c1.5,0,2.7-1,2.7-3.8c0-2.4-1.1-4.4-3-4.4c-1.6,0-2.7,1.3-2.7,3.8
				C129.6,32.7,130.7,34.4,132.7,34.4z"/>
			<path id="path228" class="st0" d="M138,34.6v-0.3c1.3-0.2,1.4-0.3,1.4-1.8V28c0-1.5-0.1-1.5-1.3-1.8V26h4.2v0.3
				c-1.3,0.2-1.4,0.3-1.4,1.8v4.7c0,0.8,0.1,1.1,0.4,1.3c0.3,0.1,0.7,0.2,1.3,0.2c0.8,0,1.4-0.3,1.8-0.6c0.3-0.3,0.5-0.7,0.9-1.3
				l0.3,0.1c-0.1,0.5-0.4,1.9-0.5,2.3H138L138,34.6L138,34.6z"/>
			<path id="path230" class="st0" d="M146.1,34.6v-0.3c1.3-0.2,1.4-0.3,1.4-1.8V28c0-1.5-0.1-1.5-1.3-1.8V26h4.2v0.3
				c-1.3,0.2-1.4,0.3-1.4,1.8v4.7c0,0.8,0.1,1.1,0.4,1.3c0.3,0.1,0.7,0.2,1.3,0.2c0.8,0,1.4-0.3,1.8-0.6c0.3-0.3,0.5-0.7,0.9-1.3
				l0.3,0.1c-0.1,0.5-0.4,1.9-0.5,2.3h-7.1L146.1,34.6L146.1,34.6z"/>
			<path id="path232" class="st0" d="M155.5,28.1c0-1.5-0.1-1.6-1.3-1.8V26h6.7c0,0.4,0.1,1.3,0.2,2.2h-0.3c-0.3-0.7-0.5-1-0.7-1.3
				c-0.2-0.2-0.6-0.5-1.7-0.5h-1c-0.5,0-0.6,0-0.6,0.5v2.9h1.5c1.2,0,1.3-0.2,1.6-1.1h0.3v2.8h-0.3c-0.3-1-0.4-1.2-1.6-1.2h-1.5v2.3
				c0,0.8,0.1,1.2,0.4,1.3c0.3,0.1,0.7,0.2,1.6,0.2c0.8,0,1.4-0.3,1.8-0.6c0.2-0.3,0.5-0.7,0.9-1.3l0.3,0.1
				c-0.1,0.5-0.4,1.9-0.5,2.3h-7.2v-0.3c1.3-0.2,1.4-0.3,1.4-1.8L155.5,28.1L155.5,28.1z"/>
			<path id="path234" class="st0" d="M170.7,28.5c-0.6-1.8-1.7-2.3-3-2.3c-1.9,0-3.3,1.5-3.3,4c0,2.1,1,4.3,3.7,4.3
				c0.7,0,1.4-0.1,1.4-0.9v-1.4c0-0.9-0.1-1-1.7-1.3v-0.3h4v0.3c-0.8,0.2-0.9,0.3-0.9,1.3v1c0,0.5,0,0.9,0.1,1.2
				c-0.9,0.2-2.1,0.5-3.1,0.5c-3.1,0-5.3-1.8-5.3-4.4c0-3,2.6-4.6,5.4-4.6c1.2,0,2.2,0.2,2.7,0.3c0.1,0.4,0.1,1.2,0.2,2.4
				L170.7,28.5z"/>
			<path id="path236" class="st0" d="M174,28.1c0-1.5-0.1-1.6-1.3-1.8V26h6.7c0,0.4,0.1,1.3,0.2,2.2h-0.3c-0.3-0.7-0.5-1-0.7-1.3
				c-0.2-0.2-0.6-0.5-1.7-0.5h-1c-0.5,0-0.6,0-0.6,0.5v2.9h1.5c1.2,0,1.3-0.2,1.6-1.1h0.3v2.8h-0.3c-0.3-1-0.4-1.2-1.6-1.2h-1.5v2.3
				c0,0.8,0.1,1.2,0.4,1.3c0.3,0.1,0.7,0.2,1.6,0.2c0.8,0,1.4-0.3,1.8-0.6c0.3-0.3,0.5-0.7,0.9-1.3l0.3,0.1
				c-0.1,0.5-0.4,1.9-0.5,2.3h-7.2v-0.3c1.3-0.2,1.4-0.3,1.4-1.8L174,28.1L174,28.1z"/>
		</g>
	</g>
</g>
<g id="Layer_2_00000100353417156131333290000007772748432088369815_">
</g>
</svg>
