<?xml version="1.0" encoding="utf-8"?>
<!-- Generator: Adobe Illustrator 28.3.0, SVG Export Plug-In . SVG Version: 6.00 Build 0)  -->
<svg version="1.1" id="Layer_1" xmlns="http://www.w3.org/2000/svg" xmlns:xlink="http://www.w3.org/1999/xlink" x="0px" y="0px"
	 viewBox="0 0 2597 662" style="enable-background:new 0 0 2597 662;" xml:space="preserve">
<style type="text/css">
	.st0{fill:#FFFFFF;}
</style>
<path class="st0" d="M177.8,209.8l177.9,286L0,209.8H177.8z M139.9,68.1L283.3,299l145.7-0.2L288.2,68.1H139.9z M444.5,0H297.7
	l73,124.2L444.5,0z"/>
<path class="st0" d="M744.7,431.4c-68.8,0-118.9,45.1-118.9,115.8s50.1,115.8,118.9,115.8s118.9-45.1,118.9-115.8
	S813.5,431.4,744.7,431.4L744.7,431.4z M744.7,618.1c-41.4,0-68.5-29.9-68.5-71s27.1-70.9,68.5-70.9s68.5,29.9,68.5,70.9
	S786.1,618.1,744.7,618.1z M1080.7,542.2v-0.6c22.7-7.2,38-24,38-48.5c0-47.9-42-56-80.6-56H956v220.3h90.2
	c39.2,0,82.8-15.2,82.8-61.3C1129,567.4,1109.7,545.9,1080.7,542.2L1080.7,542.2z M1004.5,478h33c15.3,0,32.7,4.7,32.7,23
	c0,17.7-15.6,24-30.5,24h-35.2L1004.5,478z M1048.1,616.2h-43.6v-50.1h36.7c15.9,0,39.2,3.4,39.2,24.3
	C1080.4,609.7,1063.3,616.2,1048.1,616.2L1048.1,616.2z M1512,612.5h106.7v44.8h-155.3V437h149.7v44.8H1512v41.1h95.6v44.8H1512
	V612.5z M2107.1,590.4c0,49.2-39.5,72.5-84.9,72.5c-28.3,0-53.2-8.4-74.1-27.7l34.5-38c10.2,13.1,25.8,20.8,42.4,20.9
	c15.9,0,33.6-7.5,33.6-23c0-40.5-103.3-18.7-103.3-92.1c0-47,40.8-71.6,84-71.6c24.9,0,48.9,6.5,67.5,23l-33.3,36.4
	c-7.8-10-23.3-14.6-35.2-14.6c-13.7,0-32.7,6.2-32.7,22.7C2005.6,539,2107.1,513.2,2107.1,590.4L2107.1,590.4z M2248.8,612.5h106.7
	v44.8h-155.3V437h149.7v44.8h-101.1v41.1h95.6v44.8h-95.6L2248.8,612.5z M1214.7,437h171.8v42.9h-60.3v177.4H1275V479.9h-60.3
	L1214.7,437z M2597.5,657.3h-58.2L2472,528.2h25.8c17.8,0,40.8-0.6,40.8-24.6c0-22.1-19.9-25.5-37.6-25.5h-31.7v0.5h-22l-20.8-41.6
	h79.6c45.1,0,83.1,15.6,83.1,66.9c0,30.8-16.5,54.8-47.6,60.4L2597.5,657.3z M491,436.8h47.4v143.1c0,39.8-10.3,77.5-68.6,77.5
	c-34,0-58.9-15.8-66-50.1l43.5-10.6c1.2,10.3,10.9,18.8,21.2,18.8c22.2,0,22.5-24.6,22.5-40.7L491,436.8z M1787.1,436.4l114.3,220.9
	h-59.5l-22.7-44.4h-104.3v-43.4h81.6l-67.8-133.1L1787.1,436.4z"/>
</svg>
