<?xml version="1.0" encoding="utf-8"?>
<!-- Generator: Adobe Illustrator 28.3.0, SVG Export Plug-In . SVG Version: 6.00 Build 0)  -->
<svg version="1.1"
	 id="svg14" xmlns:inkscape="http://www.inkscape.org/namespaces/inkscape" xmlns:sodipodi="http://sodipodi.sourceforge.net/DTD/sodipodi-0.dtd" xmlns:svg="http://www.w3.org/2000/svg"
	 xmlns="http://www.w3.org/2000/svg" xmlns:xlink="http://www.w3.org/1999/xlink" x="0px" y="0px" viewBox="0 0 193 55.4"
	 style="enable-background:new 0 0 193 55.4;" xml:space="preserve">
<style type="text/css">
	.st0{fill:#FFFFFF;}
</style>
<sodipodi:namedview  bordercolor="#666666" borderopacity="1.0" id="namedview16" inkscape:current-layer="svg14" inkscape:cx="96.600142" inkscape:cy="27.661211" inkscape:pagecheckerboard="0" inkscape:pageopacity="0.0" inkscape:pageshadow="2" inkscape:window-height="847" inkscape:window-maximized="0" inkscape:window-width="1296" inkscape:window-x="0" inkscape:window-y="25" inkscape:zoom="5.8385007" pagecolor="#ffffff" showgrid="false">
	</sodipodi:namedview>
<g id="g12">
	<g id="g4">
		<path id="path2" class="st0" d="M3.7,32l-0.5,2.4c0,0.2-0.1,0.3-0.3,0.3c-0.1,0-0.3-0.1-0.3-0.2c0,0,0,0,0,0v-0.1L3.2,32
			c0-0.2,0-0.3,0-0.5c0-0.4-0.2-0.8-0.7-0.8c-0.5,0-0.9,0.2-1.3,0.6l-0.6,3.1c0,0.2-0.1,0.3-0.3,0.3c-0.1,0-0.3-0.1-0.3-0.2
			c0,0,0,0,0,0v-0.1l0.6-3.1c0.1-0.4,0-0.5-0.1-0.6c-0.1,0-0.1-0.1-0.1-0.2c0-0.2,0.1-0.2,0.3-0.2c0.1,0,0.3,0.1,0.4,0.2
			c0.1,0.1,0.2,0.2,0.2,0.3c0.4-0.3,0.9-0.5,1.4-0.5c0.6-0.1,1.1,0.4,1.2,1c0,0.1,0,0.2,0,0.2C3.8,31.6,3.8,31.8,3.7,32z M8,32.1
			l0,0.3c0,0.1-0.2,0.2-0.3,0.2H5.3l0,0.2c0,0.1,0,0.2,0,0.4c-0.1,0.5,0.3,1,0.8,1c0.1,0,0.1,0,0.2,0c0.3,0,0.6-0.1,0.8-0.1
			c0.1,0,0.2-0.1,0.3-0.1c0.1,0,0.2,0.1,0.2,0.3c0,0.1-0.1,0.2-0.2,0.2c-0.4,0.2-0.8,0.2-1.2,0.2c-0.8,0-1.4-0.6-1.4-1.3
			c0-0.1,0-0.2,0-0.2c0-0.1,0-0.3,0-0.4L4.8,32c0-1,0.9-1.8,1.9-1.8c0.7-0.1,1.3,0.4,1.4,1.1c0,0.1,0,0.2,0,0.3
			C8.1,31.8,8.1,31.9,8,32.1z M6.7,30.6c-0.8,0-1.2,0.6-1.4,1.3v0.1h2.2V32c0-0.1,0-0.3,0-0.4C7.5,31,7.3,30.6,6.7,30.6L6.7,30.6z
			 M12.8,28.5l-1,5.1c-0.1,0.4,0,0.5,0.1,0.6c0.1,0,0.1,0.1,0.1,0.2c0,0.2-0.1,0.2-0.3,0.2c-0.2,0-0.4-0.1-0.4-0.3c0,0,0-0.1,0-0.1
			c-0.3,0.2-0.8,0.4-1.2,0.4c-0.7,0-1.3-0.5-1.3-1.2c0-0.1,0-0.1,0-0.2c0-0.2,0-0.4,0.1-0.6L9,32c0.2-1,0.6-1.9,1.8-1.9
			c0.4,0,0.8,0.2,1.1,0.4l0.4-2.1c0-0.2,0.1-0.3,0.3-0.3c0.1,0,0.2,0.1,0.3,0.2C12.8,28.4,12.8,28.4,12.8,28.5
			C12.8,28.5,12.8,28.5,12.8,28.5z M10.8,30.7c-0.9,0-1.1,0.7-1.3,1.4l-0.1,0.8c0,0.1,0,0.2,0,0.4c0,0.6,0.3,0.9,0.8,0.9
			c0.4,0,0.7-0.2,1-0.4l0.5-2.6C11.4,30.8,11.1,30.7,10.8,30.7L10.8,30.7z M16.6,32.1l0,0.3c0,0.1-0.2,0.2-0.3,0.2h-2.5l0,0.2
			c0,0.1,0,0.2,0,0.4c-0.1,0.5,0.3,1,0.8,1c0.1,0,0.1,0,0.2,0c0.3,0,0.6-0.1,0.8-0.1c0.1,0,0.2-0.1,0.3-0.1c0.1,0,0.2,0.1,0.2,0.3
			c0,0.1-0.1,0.2-0.2,0.2c-0.4,0.2-0.8,0.2-1.2,0.2c-0.8,0-1.4-0.6-1.4-1.3c0-0.1,0-0.2,0-0.2c0-0.1,0-0.3,0-0.4l0.1-0.7
			c0-1,0.9-1.8,1.9-1.8c0.7-0.1,1.3,0.4,1.4,1.1c0,0.1,0,0.2,0,0.3C16.6,31.8,16.6,31.9,16.6,32.1z M15.2,30.6
			c-0.8,0-1.2,0.6-1.4,1.3v0.1h2.2V32c0-0.1,0-0.3,0-0.4C16.1,31,15.8,30.6,15.2,30.6L15.2,30.6z M20.1,30.8c-0.2,0-0.3-0.1-0.5-0.1
			c-0.6,0-1,0.4-1.2,0.9l-0.6,2.8c0,0.2-0.1,0.3-0.3,0.3c-0.1,0-0.3-0.1-0.3-0.2c0,0,0,0,0,0v-0.1l0.6-3.1c0.1-0.4,0-0.5-0.1-0.6
			c-0.1,0-0.1-0.1-0.1-0.2c0-0.2,0.1-0.2,0.3-0.2c0.1,0,0.3,0.1,0.4,0.2c0.1,0.1,0.1,0.2,0.1,0.4c0.3-0.4,0.8-0.6,1.3-0.6
			c0.5,0,0.7,0.1,0.7,0.4C20.4,30.7,20.3,30.8,20.1,30.8z M22.1,28.5l-1,5.1c-0.1,0.4,0,0.5,0.1,0.6c0.1,0.1,0.1,0.1,0.1,0.2
			c0,0.1-0.2,0.2-0.3,0.2c-0.1,0-0.3-0.1-0.4-0.2c-0.2-0.2-0.2-0.5-0.1-1l1-5c0-0.2,0.1-0.3,0.3-0.3c0.1,0,0.2,0.1,0.3,0.2
			C22.1,28.4,22.1,28.4,22.1,28.5C22.1,28.5,22.1,28.5,22.1,28.5z M26,30.5l-0.6,3.1c-0.1,0.4,0,0.5,0.1,0.6c0.1,0,0.1,0.1,0.1,0.2
			c0,0.2-0.1,0.2-0.3,0.2c-0.2,0-0.4-0.1-0.4-0.3c0,0,0-0.1,0-0.1c-0.3,0.2-0.7,0.4-1.1,0.4c-0.7,0.1-1.3-0.4-1.3-1.1
			c0-0.1,0-0.2,0-0.2c0-0.2,0-0.4,0.1-0.7l0.1-0.6c0.2-1,0.6-1.9,1.8-1.9c0.4,0,0.8,0.1,1.1,0.4v-0.1c0-0.2,0.1-0.3,0.3-0.3
			C25.9,30.2,26,30.3,26,30.5C26.1,30.4,26.1,30.4,26,30.5C26,30.4,26,30.5,26,30.5z M24.4,30.7c-0.9,0-1.1,0.7-1.3,1.4L23,32.8
			c0,0.1,0,0.2,0,0.4c0,0.6,0.3,0.9,0.8,0.9c0.4,0,0.7-0.2,1-0.4l0.5-2.7C25.1,30.8,24.8,30.7,24.4,30.7z M30.5,32L30,34.4
			c0,0.2-0.1,0.3-0.3,0.3c-0.1,0-0.3-0.1-0.3-0.2c0,0,0,0,0,0v-0.1l0.5-2.4c0-0.2,0-0.3,0-0.5c0-0.4-0.2-0.8-0.7-0.8
			c-0.5,0-0.9,0.2-1.3,0.6l-0.6,3.1c0,0.2-0.1,0.3-0.3,0.3c-0.1,0-0.3-0.1-0.3-0.2c0,0,0,0,0,0v-0.1l0.6-3.1c0.1-0.4,0-0.5-0.1-0.6
			c-0.1,0-0.1-0.1-0.1-0.2c0-0.2,0.1-0.2,0.3-0.2c0.1,0,0.3,0.1,0.4,0.2c0.1,0.1,0.1,0.2,0.1,0.3c0.4-0.3,0.9-0.5,1.4-0.5
			c0.6-0.1,1.1,0.4,1.2,1c0,0.1,0,0.2,0,0.2C30.6,31.6,30.6,31.8,30.5,32z M35.4,28.5l-1,5.1c-0.1,0.4,0,0.5,0.1,0.6
			c0.1,0,0.1,0.1,0.1,0.2c0,0.2-0.1,0.2-0.3,0.2c-0.2,0-0.4-0.1-0.4-0.3c0,0,0-0.1,0-0.1c-0.3,0.2-0.8,0.4-1.2,0.4
			c-0.7,0-1.3-0.5-1.3-1.2c0-0.1,0-0.1,0-0.2c0-0.2,0-0.4,0.1-0.6l0.1-0.6c0.2-1,0.6-1.9,1.8-1.9c0.4,0,0.8,0.2,1.1,0.4l0.4-2.1
			c0-0.2,0.1-0.3,0.3-0.3c0.1,0,0.2,0.1,0.3,0.2C35.4,28.4,35.4,28.4,35.4,28.5C35.4,28.5,35.4,28.5,35.4,28.5z M33.4,30.7
			c-0.9,0-1.1,0.7-1.3,1.4L32,32.8c0,0.1,0,0.2,0,0.4c0,0.6,0.3,0.9,0.8,0.9c0.4,0,0.7-0.2,1-0.4l0.5-2.6
			C34.1,30.8,33.8,30.7,33.4,30.7L33.4,30.7z M38.5,30.8c-0.1,0-0.2-0.1-0.4-0.1c-0.1,0-0.3,0-0.4,0c-0.7,0-1.1,0.3-1.1,0.7
			c0,0.4,0.5,0.6,1,0.8c0.5,0.2,1.1,0.4,1.1,1.2c0,0.9-0.8,1.3-1.8,1.3c-0.2,0-0.5,0-0.7-0.1c-0.4-0.1-0.6-0.2-0.6-0.4
			c0-0.1,0.1-0.3,0.2-0.3c0,0,0,0,0,0c0.1,0,0.1,0.1,0.4,0.1c0.2,0,0.4,0.1,0.6,0.1c0.8,0,1.3-0.3,1.3-0.8c0-0.5-0.5-0.6-1.1-0.8
			c-0.5-0.2-1-0.5-1-1.1c0-0.8,0.8-1.2,1.7-1.2c0.2,0,0.4,0,0.6,0.1c0.4,0.1,0.4,0.2,0.4,0.3C38.7,30.8,38.6,30.8,38.5,30.8z
			 M42.8,32.1l0,0.3c0,0.1-0.2,0.2-0.3,0.2h-2.5l0,0.2c0,0.1,0,0.2,0,0.4c-0.1,0.5,0.3,1,0.8,1c0.1,0,0.1,0,0.2,0
			c0.3,0,0.6-0.1,0.8-0.1c0.1,0,0.2-0.1,0.3-0.1c0.1,0,0.2,0.1,0.2,0.3c0,0.1-0.1,0.2-0.2,0.2c-0.4,0.2-0.8,0.2-1.2,0.2
			c-0.8,0-1.4-0.6-1.4-1.3c0-0.1,0-0.2,0-0.2c0-0.1,0-0.3,0-0.4l0.1-0.7c0-1,0.9-1.8,1.9-1.8c0.7-0.1,1.3,0.4,1.4,1.1
			c0,0.1,0,0.2,0,0.3C42.9,31.8,42.9,31.9,42.8,32.1z M41.5,30.6c-0.8,0-1.2,0.6-1.4,1.3v0.1h2.2V32c0-0.1,0-0.3,0-0.4
			C42.4,31,42.1,30.6,41.5,30.6L41.5,30.6z M47.6,34.4c-0.1,0.2-0.3,0.3-0.4,0.3c-0.2,0-0.3-0.1-0.3-0.4c-0.2-1.2-0.4-2.5-0.6-3.7
			c0-0.2,0.1-0.4,0.3-0.4c0.1,0,0.2,0.1,0.3,0.2c0,0,0,0,0,0.1c0.1,1.1,0.3,2.3,0.5,3.5c0.7-1.2,1.3-2.4,1.9-3.5
			c0.1-0.1,0.1-0.2,0.3-0.2c0.2,0,0.3,0.2,0.2,0.4C49.1,31.8,48.4,33.1,47.6,34.4z M53.4,32.1l0,0.3c0,0.1-0.2,0.2-0.3,0.2h-2.5
			l0,0.2c0,0.1,0,0.2,0,0.4c-0.1,0.5,0.3,1,0.8,1c0.1,0,0.1,0,0.2,0c0.3,0,0.6-0.1,0.8-0.1c0.1,0,0.2-0.1,0.3-0.1
			c0.1,0,0.2,0.1,0.2,0.3c0,0.1-0.1,0.2-0.2,0.2c-0.4,0.2-0.8,0.2-1.2,0.2c-0.8,0-1.4-0.6-1.4-1.3c0-0.1,0-0.2,0-0.2
			c0-0.1,0-0.3,0-0.4l0.1-0.7c0-1,0.9-1.8,1.9-1.8c0.7-0.1,1.3,0.4,1.4,1.1c0,0.1,0,0.2,0,0.3C53.4,31.8,53.4,31.9,53.4,32.1
			L53.4,32.1z M52,30.6c-0.8,0-1.2,0.6-1.4,1.3v0.1h2.2V32c0-0.1,0-0.3,0-0.4C52.9,31,52.6,30.6,52,30.6L52,30.6z M56.9,30.8
			c-0.2,0-0.3-0.1-0.5-0.1c-0.6,0-1,0.4-1.2,0.9l-0.6,2.8c0,0.2-0.1,0.3-0.3,0.3c-0.1,0-0.3-0.1-0.3-0.2c0,0,0,0,0,0v-0.1l0.6-3.1
			c0.1-0.4,0-0.5-0.1-0.6c-0.1,0-0.1-0.1-0.1-0.2c0-0.2,0.1-0.2,0.3-0.2c0.1,0,0.3,0.1,0.4,0.2c0.1,0.1,0.1,0.2,0.1,0.4
			c0.3-0.4,0.8-0.6,1.3-0.6c0.5,0,0.7,0.1,0.7,0.4C57.1,30.7,57,30.8,56.9,30.8z M60.7,32.1l0,0.3c0,0.1-0.2,0.2-0.3,0.2h-2.5l0,0.2
			c0,0.1,0,0.2,0,0.4c-0.1,0.5,0.3,1,0.8,1c0.1,0,0.1,0,0.2,0c0.3,0,0.6-0.1,0.8-0.1c0.1,0,0.2-0.1,0.3-0.1c0.1,0,0.2,0.1,0.2,0.3
			c0,0.1-0.1,0.2-0.2,0.2c-0.4,0.2-0.8,0.2-1.2,0.2c-0.8,0-1.4-0.6-1.4-1.3c0-0.1,0-0.2,0-0.2c0-0.1,0-0.3,0-0.4l0.1-0.7
			c0-1,0.9-1.8,1.9-1.8c0.7-0.1,1.3,0.4,1.4,1.1c0,0.1,0,0.2,0,0.3C60.8,31.8,60.8,31.9,60.7,32.1L60.7,32.1z M59.4,30.6
			c-0.8,0-1.2,0.6-1.4,1.3v0.1h2.2V32c0-0.1,0-0.3,0-0.4C60.3,31,60,30.6,59.4,30.6L59.4,30.6z M65.2,32l-0.5,2.4
			c0,0.2-0.1,0.3-0.3,0.3c-0.1,0-0.3-0.1-0.3-0.2c0,0,0,0,0,0v-0.1l0.5-2.4c0-0.2,0-0.3,0-0.5c0-0.4-0.2-0.8-0.7-0.8
			c-0.5,0-0.9,0.2-1.3,0.6L62,34.4c0,0.2-0.1,0.3-0.3,0.3c-0.1,0-0.3-0.1-0.3-0.2c0,0,0,0,0,0v-0.1l0.6-3.1c0.1-0.4,0-0.5-0.1-0.6
			c-0.1,0-0.1-0.1-0.1-0.2c0-0.2,0.1-0.2,0.3-0.2c0.1,0,0.3,0.1,0.4,0.2c0.1,0.1,0.1,0.2,0.1,0.3c0.4-0.3,0.9-0.5,1.4-0.5
			c0.6-0.1,1.1,0.4,1.2,1c0,0.1,0,0.2,0,0.2C65.2,31.6,65.2,31.8,65.2,32z M67.2,30.5l-0.7,3.9c0,0.2-0.1,0.3-0.3,0.3
			c-0.1,0-0.3-0.1-0.3-0.2c0,0,0,0,0,0v-0.1l0.7-3.9c0-0.2,0.1-0.3,0.3-0.3C67.1,30.1,67.2,30.3,67.2,30.5
			C67.2,30.4,67.2,30.4,67.2,30.5L67.2,30.5z M67.3,29c-0.2,0-0.3-0.1-0.3-0.3c0,0,0,0,0,0c0-0.2,0.1-0.4,0.3-0.4
			c0.2,0,0.4,0.2,0.4,0.4C67.7,28.9,67.5,29,67.3,29L67.3,29z M71.5,30.5l-0.7,3.8c-0.2,1.1-0.7,1.9-2,1.9c-0.4,0-0.7-0.1-1.1-0.2
			c-0.1,0-0.2-0.1-0.2-0.2c0-0.1,0.1-0.3,0.2-0.3c0,0,0,0,0,0c0.1,0,0.1,0,0.1,0c0.3,0.1,0.6,0.2,0.8,0.2c0.9,0,1.2-0.6,1.4-1.5
			v-0.1c-0.3,0.2-0.6,0.3-1,0.3c-0.7,0-1.3-0.5-1.3-1.2c0-0.1,0-0.1,0-0.2c0-0.2,0-0.4,0.1-0.7l0.1-0.4c0.2-1,0.6-1.9,1.8-1.9
			c0.4,0,0.8,0.1,1.1,0.4v-0.1c0-0.2,0.1-0.3,0.3-0.3c0.1,0,0.3,0.1,0.3,0.2c0,0,0,0,0,0C71.5,30.4,71.5,30.5,71.5,30.5L71.5,30.5z
			 M69.9,30.7c-0.9,0-1.2,0.7-1.3,1.4l-0.1,0.6c0,0.1,0,0.3,0,0.4c0,0.6,0.3,0.9,0.8,0.9c0.4,0,0.7-0.2,1-0.4l0.5-2.5
			C70.6,30.8,70.3,30.7,69.9,30.7z M73.3,30.5l-0.7,3.9c0,0.2-0.1,0.3-0.3,0.3c-0.1,0-0.3-0.1-0.3-0.2c0,0,0,0,0,0v-0.1l0.7-3.9
			c0-0.2,0.1-0.3,0.3-0.3C73.2,30.1,73.3,30.3,73.3,30.5C73.3,30.4,73.3,30.4,73.3,30.5C73.4,30.4,73.4,30.5,73.3,30.5
			C73.4,30.5,73.3,30.5,73.3,30.5z M73.4,29c-0.2,0-0.3-0.1-0.3-0.3c0,0,0,0,0,0c0-0.2,0.1-0.4,0.3-0.4c0.2,0,0.4,0.2,0.4,0.4
			C73.8,28.9,73.6,29,73.4,29L73.4,29z M77.7,32l-0.5,2.4c0,0.2-0.1,0.3-0.3,0.3c-0.1,0-0.3-0.1-0.3-0.2c0,0,0,0,0,0v-0.1l0.5-2.4
			c0-0.2,0-0.3,0-0.5c0-0.4-0.2-0.8-0.7-0.8c-0.5,0-0.9,0.2-1.3,0.6l-0.6,3.1c0,0.2-0.1,0.3-0.3,0.3c-0.1,0-0.3-0.1-0.3-0.2
			c0,0,0,0,0,0v-0.1l0.6-3.1c0.1-0.4,0-0.5-0.1-0.6c-0.1,0-0.1-0.1-0.1-0.2c0-0.2,0.1-0.2,0.3-0.2c0.1,0,0.3,0.1,0.4,0.2
			c0.1,0.1,0.1,0.2,0.1,0.3c0.4-0.3,0.9-0.5,1.4-0.5c0.6-0.1,1.1,0.4,1.2,1c0,0.1,0,0.2,0,0.2C77.7,31.6,77.7,31.8,77.7,32L77.7,32z
			 M82.2,30.5l-0.7,3.8c-0.2,1.1-0.7,1.9-2,1.9c-0.4,0-0.7-0.1-1.1-0.2c-0.1,0-0.2-0.1-0.2-0.2c0-0.1,0.1-0.3,0.2-0.3c0,0,0,0,0,0
			c0.1,0,0.1,0,0.1,0c0.3,0.1,0.6,0.2,0.8,0.2c0.9,0,1.2-0.6,1.4-1.5v-0.1c-0.3,0.2-0.6,0.3-1,0.3c-0.7,0-1.3-0.5-1.3-1.2
			c0-0.1,0-0.1,0-0.2c0-0.2,0-0.4,0.1-0.7l0.1-0.4c0.2-1,0.6-1.9,1.8-1.9c0.4,0,0.8,0.1,1.1,0.4v-0.1c0-0.2,0.1-0.3,0.3-0.3
			c0.1,0,0.3,0.1,0.3,0.2c0,0,0,0,0,0C82.2,30.4,82.2,30.4,82.2,30.5L82.2,30.5z M80.6,30.7c-0.9,0-1.2,0.7-1.3,1.4l-0.1,0.6
			c0,0.1,0,0.3,0,0.4c0,0.6,0.3,0.9,0.8,0.9c0.4,0,0.7-0.2,1-0.4l0.5-2.5C81.3,30.8,81,30.7,80.6,30.7z M18.9,43.9
			c-0.1,0.2-0.3,0.3-0.4,0.3c-0.2,0-0.3-0.1-0.3-0.4c-0.2-1.2-0.4-2.5-0.6-3.7c0-0.2,0.1-0.4,0.3-0.4c0.1,0,0.2,0.1,0.3,0.2
			c0,0,0,0,0,0.1c0.1,1.1,0.3,2.3,0.5,3.5c0.7-1.2,1.3-2.4,1.9-3.5c0.1-0.1,0.1-0.2,0.3-0.2c0.2,0,0.3,0.2,0.2,0.4
			C20.4,41.4,19.7,42.6,18.9,43.9z M24.8,40l-0.6,3.1c-0.1,0.4,0,0.5,0.1,0.6c0.1,0,0.1,0.1,0.1,0.2c0,0.2-0.1,0.2-0.3,0.2
			c-0.2,0-0.4-0.1-0.4-0.3c0,0,0-0.1,0-0.1c-0.3,0.2-0.7,0.4-1.1,0.4c-0.7,0.1-1.3-0.4-1.3-1.1c0-0.1,0-0.2,0-0.2
			c0-0.2,0-0.4,0.1-0.7l0.1-0.6c0.2-1,0.6-1.9,1.8-1.9c0.4,0,0.8,0.1,1.1,0.4V40c0-0.2,0.1-0.3,0.3-0.3C24.8,39.7,24.9,39.8,24.8,40
			C24.9,40,24.9,40,24.8,40C24.9,40,24.9,40,24.8,40z M23.3,40.2c-0.9,0-1.1,0.7-1.3,1.4l-0.1,0.8c0,0.1,0,0.2,0,0.4
			c0,0.6,0.3,0.9,0.8,0.9c0.4,0,0.7-0.2,1-0.4l0.5-2.7C23.9,40.4,23.6,40.2,23.3,40.2z M29.3,41.6L28.8,44c0,0.2-0.1,0.3-0.3,0.3
			c-0.1,0-0.3-0.1-0.3-0.2c0,0,0,0,0,0v-0.1l0.5-2.4c0-0.2,0-0.3,0-0.5c0-0.4-0.2-0.8-0.7-0.8c-0.5,0-0.9,0.2-1.3,0.6l-0.6,3.1
			c0,0.2-0.1,0.3-0.3,0.3c-0.1,0-0.3-0.1-0.3-0.2c0,0,0,0,0,0v-0.1l0.6-3.1c0.1-0.4,0-0.5-0.1-0.6c-0.1,0-0.1-0.1-0.1-0.2
			c0-0.2,0.1-0.2,0.3-0.2c0.1,0,0.3,0.1,0.4,0.2c0.1,0.1,0.1,0.2,0.1,0.3c0.4-0.3,0.9-0.5,1.4-0.5c0.6-0.1,1.1,0.4,1.2,1
			c0,0.1,0,0.2,0,0.2C29.4,41.1,29.4,41.4,29.3,41.6z M36.3,41.8l-0.1,0.7c-0.2,1-0.6,1.8-1.9,1.8c-0.4,0-0.7-0.1-1-0.3L33,45.5
			c0,0.2-0.1,0.3-0.3,0.3c-0.1,0-0.3-0.1-0.3-0.2c0,0,0,0,0,0v-0.1l0.9-4.7c0.1-0.4,0-0.5-0.1-0.6c-0.1,0-0.1-0.1-0.1-0.2
			c0-0.1,0.2-0.2,0.3-0.2c0.1,0,0.3,0.1,0.4,0.2c0.1,0.1,0.1,0.2,0.1,0.3c0.3-0.3,0.7-0.4,1.2-0.4c0.6-0.1,1.2,0.4,1.3,1
			c0,0.1,0,0.2,0,0.3C36.4,41.3,36.3,41.5,36.3,41.8z M35,40.2c-0.4,0-0.8,0.2-1.1,0.5l-0.5,2.7c0.2,0.2,0.6,0.3,0.9,0.3
			c1,0,1.2-0.7,1.4-1.4l0.1-0.8c0-0.1,0-0.3,0-0.4C35.8,40.6,35.6,40.2,35,40.2z M40.6,41.7l0,0.3c0,0.1-0.2,0.2-0.3,0.2h-2.5l0,0.2
			c0,0.1,0,0.2,0,0.4c-0.1,0.5,0.3,1,0.8,1c0.1,0,0.1,0,0.2,0c0.3,0,0.6-0.1,0.8-0.1c0.1,0,0.2-0.1,0.3-0.1c0.1,0,0.2,0.1,0.2,0.3
			c0,0.1-0.1,0.2-0.2,0.2c-0.4,0.2-0.8,0.2-1.2,0.2c-0.8,0-1.4-0.6-1.4-1.3c0-0.1,0-0.2,0-0.2c0-0.1,0-0.3,0-0.4l0.1-0.7
			c0-1,0.9-1.8,1.9-1.8c0.7-0.1,1.3,0.4,1.4,1.1c0,0.1,0,0.2,0,0.3C40.6,41.3,40.6,41.5,40.6,41.7z M39.2,40.2
			c-0.8,0-1.2,0.6-1.4,1.3v0.1h2.2v-0.1c0-0.1,0-0.3,0-0.4C40.1,40.6,39.8,40.2,39.2,40.2L39.2,40.2z M45.2,38.1l-1,5.1
			c-0.1,0.4,0,0.5,0.1,0.6c0.1,0,0.1,0.1,0.1,0.2c0,0.2-0.1,0.2-0.3,0.2c-0.2,0-0.4-0.1-0.4-0.3c0,0,0-0.1,0-0.1
			c-0.3,0.2-0.8,0.4-1.2,0.4c-0.7,0-1.3-0.5-1.3-1.2c0-0.1,0-0.1,0-0.2c0-0.2,0-0.4,0.1-0.6l0.1-0.6c0.2-1,0.6-1.9,1.8-1.9
			c0.4,0,0.8,0.2,1.1,0.4l0.4-2.1c0-0.2,0.1-0.3,0.3-0.3c0.1,0,0.2,0.1,0.3,0.2C45.3,38,45.3,38,45.2,38.1
			C45.3,38.1,45.3,38.1,45.2,38.1z M43.3,40.2c-0.9,0-1.1,0.7-1.3,1.4l-0.1,0.8c0,0.1,0,0.2,0,0.4c0,0.6,0.3,0.9,0.8,0.9
			c0.4,0,0.7-0.2,1-0.4l0.5-2.6C44,40.4,43.6,40.2,43.3,40.2z M49.3,40l-0.6,3.1c-0.1,0.4,0,0.5,0.1,0.6c0.1,0,0.1,0.1,0.1,0.2
			c0,0.2-0.1,0.2-0.3,0.2c-0.2,0-0.4-0.1-0.4-0.3c0,0,0-0.1,0-0.1c-0.3,0.2-0.7,0.4-1.1,0.4c-0.7,0.1-1.3-0.4-1.3-1.1
			c0-0.1,0-0.2,0-0.2c0-0.2,0-0.4,0.1-0.7l0.1-0.6c0.2-1,0.6-1.9,1.8-1.9c0.4,0,0.8,0.1,1.1,0.4V40c0-0.2,0.1-0.3,0.3-0.3
			C49.2,39.7,49.3,39.8,49.3,40C49.3,40,49.3,40,49.3,40C49.3,40,49.3,40,49.3,40z M47.7,40.2c-0.9,0-1.1,0.7-1.3,1.4l-0.1,0.8
			c0,0.1,0,0.2,0,0.4c0,0.6,0.3,0.9,0.8,0.9c0.4,0,0.7-0.2,1-0.4l0.5-2.7C48.3,40.4,48,40.2,47.7,40.2L47.7,40.2z M53.7,40L53,43.9
			c-0.2,1.1-0.7,1.9-2,1.9c-0.4,0-0.7-0.1-1.1-0.2c-0.1,0-0.2-0.1-0.2-0.2c0-0.1,0.1-0.3,0.2-0.3c0,0,0,0,0,0c0.1,0,0.1,0,0.1,0
			c0.3,0.1,0.6,0.2,0.8,0.2c0.9,0,1.2-0.6,1.4-1.5v-0.1c-0.3,0.2-0.6,0.3-1,0.3c-0.7,0-1.3-0.5-1.3-1.2c0-0.1,0-0.1,0-0.2
			c0-0.2,0-0.4,0.1-0.7l0.1-0.4c0.2-1,0.6-1.9,1.8-1.9c0.4,0,0.8,0.1,1.1,0.4v-0.1c0-0.2,0.1-0.3,0.3-0.3c0.1,0,0.3,0.1,0.3,0.2
			c0,0,0,0,0,0C53.7,40,53.7,40,53.7,40L53.7,40z M52.1,40.2c-0.9,0-1.2,0.7-1.3,1.4l-0.1,0.6c0,0.1,0,0.3,0,0.4
			c0,0.6,0.3,0.9,0.8,0.9c0.4,0,0.7-0.2,1-0.4l0.5-2.5C52.7,40.4,52.4,40.2,52.1,40.2z M57.8,41.7l-0.2,0.9c-0.1,1-0.9,1.7-1.9,1.6
			c-1.1,0-1.4-0.7-1.4-1.5c0-0.1,0-0.4,0-0.5l0.1-0.8c0.1-1,0.9-1.7,1.9-1.6c0.7,0,1.3,0.5,1.4,1.2c0,0.1,0,0.2,0,0.3
			C57.8,41.4,57.8,41.5,57.8,41.7z M56.4,40.3c-0.7-0.1-1.3,0.4-1.3,1.1c0,0,0,0,0,0.1l-0.2,0.9c0,0.1,0,0.3,0,0.4
			c0,0.6,0.2,1,0.9,1c0.7,0.1,1.3-0.4,1.3-1.1c0,0,0,0,0-0.1l0.2-0.9c0-0.1,0-0.3,0-0.4C57.3,40.7,57.1,40.3,56.4,40.3z M62.2,40
			l-0.7,3.8c-0.2,1.1-0.7,1.9-2,1.9c-0.4,0-0.7-0.1-1.1-0.2c-0.1,0-0.2-0.1-0.2-0.2c0-0.1,0.1-0.3,0.2-0.3c0,0,0,0,0,0
			c0.1,0,0.1,0,0.1,0c0.3,0.1,0.6,0.2,0.8,0.2c0.9,0,1.2-0.6,1.4-1.5v-0.1c-0.3,0.2-0.6,0.3-1,0.3c-0.7,0-1.3-0.5-1.3-1.2
			c0-0.1,0-0.1,0-0.2c0-0.2,0-0.4,0.1-0.7l0.1-0.4c0.2-1,0.6-1.9,1.8-1.9c0.4,0,0.8,0.1,1.1,0.4v-0.1c0-0.2,0.1-0.3,0.3-0.3
			c0.1,0,0.3,0.1,0.3,0.2c0,0,0,0,0,0C62.2,40,62.2,40,62.2,40L62.2,40z M60.6,40.2c-0.9,0-1.2,0.7-1.3,1.4l-0.1,0.6
			c0,0.1,0,0.3,0,0.4c0,0.6,0.3,0.9,0.8,0.9c0.4,0,0.7-0.2,1-0.4l0.5-2.5C61.3,40.4,61,40.2,60.6,40.2z M66.3,41.7l0,0.3
			c0,0.1-0.2,0.2-0.3,0.2h-2.5l0,0.2c0,0.1,0,0.2,0,0.4c-0.1,0.5,0.3,1,0.8,1c0.1,0,0.1,0,0.2,0c0.3,0,0.6-0.1,0.8-0.1
			c0.1,0,0.2-0.1,0.3-0.1c0.1,0,0.2,0.1,0.2,0.3c0,0.1-0.1,0.2-0.2,0.2c-0.4,0.2-0.8,0.2-1.2,0.2c-0.8,0-1.4-0.6-1.4-1.3
			c0-0.1,0-0.2,0-0.2c0-0.1,0-0.3,0-0.4l0.1-0.7c0-1,0.9-1.8,1.9-1.8c0.7-0.1,1.3,0.4,1.4,1.1c0,0.1,0,0.2,0,0.3
			C66.3,41.3,66.3,41.5,66.3,41.7L66.3,41.7z M65,40.2c-0.8,0-1.2,0.6-1.4,1.3v0.1h2.2v-0.1c0-0.1,0-0.3,0-0.4
			C65.8,40.6,65.5,40.2,65,40.2L65,40.2z M70.7,41.6L70.2,44c0,0.2-0.1,0.3-0.3,0.3c-0.1,0-0.3-0.1-0.3-0.2c0,0,0,0,0,0v-0.1
			l0.5-2.4c0-0.2,0-0.3,0-0.5c0-0.4-0.2-0.8-0.7-0.8c-0.5,0-0.9,0.2-1.3,0.6l-0.6,3.1c0,0.2-0.1,0.3-0.3,0.3c-0.1,0-0.3-0.1-0.3-0.2
			c0,0,0,0,0,0v-0.1l0.6-3.1c0.1-0.4,0-0.5-0.1-0.6c-0.1,0-0.1-0.1-0.1-0.2c0-0.2,0.1-0.2,0.3-0.2c0.1,0,0.3,0.1,0.4,0.2
			c0.1,0.1,0.1,0.2,0.1,0.3c0.4-0.3,0.9-0.5,1.4-0.5c0.6-0.1,1.1,0.4,1.2,1c0,0.1,0,0.2,0,0.2C70.8,41.1,70.8,41.4,70.7,41.6
			L70.7,41.6z M77.6,41.7l0,0.3c0,0.1-0.2,0.2-0.3,0.2h-2.5l0,0.2c0,0.1,0,0.2,0,0.4c-0.1,0.5,0.3,1,0.8,1c0.1,0,0.1,0,0.2,0
			c0.3,0,0.6-0.1,0.8-0.1c0.1,0,0.2-0.1,0.3-0.1c0.1,0,0.2,0.1,0.2,0.3c0,0.1-0.1,0.2-0.2,0.2c-0.4,0.2-0.8,0.2-1.2,0.2
			c-0.8,0-1.4-0.6-1.4-1.3c0-0.1,0-0.2,0-0.2c0-0.1,0-0.3,0-0.4l0.1-0.7c0-1,0.9-1.8,1.9-1.8c0.7-0.1,1.3,0.4,1.4,1.1
			c0,0.1,0,0.2,0,0.3C77.6,41.3,77.6,41.5,77.6,41.7L77.6,41.7z M76.2,40.2c-0.8,0-1.2,0.6-1.4,1.3v0.1h2.2v-0.1c0-0.1,0-0.3,0-0.4
			C77.1,40.6,76.8,40.2,76.2,40.2L76.2,40.2z M81.9,41.6L81.5,44c0,0.2-0.1,0.3-0.3,0.3c-0.1,0-0.3-0.1-0.3-0.2c0,0,0,0,0,0v-0.1
			l0.5-2.4c0-0.2,0-0.3,0-0.5c0-0.4-0.2-0.8-0.7-0.8c-0.5,0-0.9,0.2-1.3,0.6l-0.6,3.1c0,0.2-0.1,0.3-0.3,0.3c-0.1,0-0.3-0.1-0.3-0.2
			c0,0,0,0,0,0v-0.1l0.6-3.1c0.1-0.4,0-0.5-0.1-0.6c-0.1,0-0.1-0.1-0.1-0.2c0-0.2,0.1-0.2,0.3-0.2c0.1,0,0.3,0.1,0.4,0.2
			c0.1,0.1,0.1,0.2,0.1,0.3c0.4-0.3,0.9-0.5,1.4-0.5c0.6-0.1,1.1,0.4,1.2,1c0,0.1,0,0.2,0,0.2C82,41.1,82,41.4,81.9,41.6L81.9,41.6z
			 M20,51.2l-0.2,0.9c-0.1,1-0.9,1.7-1.9,1.6c-1.1,0-1.4-0.7-1.4-1.5c0-0.1,0-0.4,0-0.5l0.1-0.8c0.1-1,0.9-1.7,1.9-1.6
			c0.7,0,1.3,0.5,1.4,1.2c0,0.1,0,0.2,0,0.3C20,50.9,20,51.1,20,51.2z M18.6,49.8c-0.7-0.1-1.3,0.4-1.3,1.1c0,0,0,0,0,0.1l-0.2,0.9
			c0,0.1,0,0.3,0,0.4c0,0.6,0.2,1,0.9,1c0.7,0.1,1.3-0.4,1.3-1.1c0,0,0,0,0-0.1l0.2-0.9c0-0.1,0-0.3,0-0.4
			C19.5,50.3,19.3,49.8,18.6,49.8z M24.5,51.1L24,53.5c0,0.2-0.1,0.3-0.3,0.3c-0.1,0-0.3-0.1-0.3-0.2c0,0,0,0,0,0v-0.1l0.5-2.4
			c0-0.2,0-0.3,0-0.5c0-0.4-0.2-0.8-0.7-0.8c-0.5,0-0.9,0.2-1.3,0.6l-0.6,3.1c0,0.2-0.1,0.3-0.3,0.3c-0.1,0-0.3-0.1-0.3-0.2
			c0,0,0,0,0,0v-0.1l0.6-3.1c0.1-0.4,0-0.5-0.1-0.6c-0.1,0-0.1-0.1-0.1-0.2c0-0.2,0.1-0.2,0.3-0.2c0.1,0,0.3,0.1,0.4,0.2
			c0.1,0.1,0.1,0.2,0.1,0.3c0.4-0.3,0.9-0.5,1.4-0.5c0.6-0.1,1.1,0.4,1.2,1c0,0.1,0,0.2,0,0.2C24.6,50.7,24.6,50.9,24.5,51.1z
			 M29.4,47.6l-1,5.1c-0.1,0.4,0,0.5,0.1,0.6c0.1,0,0.1,0.1,0.1,0.2c0,0.2-0.1,0.2-0.3,0.2c-0.2,0-0.4-0.1-0.4-0.3c0,0,0-0.1,0-0.1
			c-0.3,0.2-0.8,0.4-1.2,0.4c-0.7,0-1.3-0.5-1.3-1.2c0-0.1,0-0.1,0-0.2c0-0.2,0-0.4,0.1-0.6l0.1-0.6c0.2-1,0.6-1.9,1.8-1.9
			c0.4,0,0.8,0.2,1.1,0.4l0.4-2.1c0-0.2,0.1-0.3,0.3-0.3c0.1,0,0.2,0.1,0.3,0.2C29.4,47.5,29.4,47.5,29.4,47.6
			C29.4,47.6,29.4,47.6,29.4,47.6z M27.4,49.8c-0.9,0-1.1,0.7-1.3,1.4L26,51.9c0,0.1,0,0.2,0,0.4c0,0.6,0.3,0.9,0.8,0.9
			c0.4,0,0.7-0.2,1-0.4l0.5-2.6C28.1,49.9,27.8,49.8,27.4,49.8L27.4,49.8z M33.2,51.2l0,0.3c0,0.1-0.2,0.2-0.3,0.2h-2.5l0,0.2
			c0,0.1,0,0.2,0,0.4c-0.1,0.5,0.3,1,0.8,1c0.1,0,0.1,0,0.2,0c0.3,0,0.6-0.1,0.8-0.1c0.1,0,0.2-0.1,0.3-0.1c0.1,0,0.2,0.1,0.2,0.3
			c0,0.1-0.1,0.2-0.2,0.2c-0.4,0.2-0.8,0.2-1.2,0.2c-0.8,0-1.4-0.6-1.4-1.3c0-0.1,0-0.2,0-0.2c0-0.1,0-0.3,0-0.4l0.1-0.7
			c0-1,0.9-1.8,1.9-1.8c0.7-0.1,1.3,0.4,1.4,1.1c0,0.1,0,0.2,0,0.3C33.3,50.9,33.3,51,33.2,51.2z M31.9,49.7c-0.8,0-1.2,0.6-1.4,1.3
			v0.1h2.2v-0.1c0-0.1,0-0.3,0-0.4C32.7,50.1,32.5,49.7,31.9,49.7L31.9,49.7z M36.8,49.9c-0.2,0-0.3-0.1-0.5-0.1
			c-0.6,0-1,0.4-1.2,0.9l-0.6,2.8c0,0.2-0.1,0.3-0.3,0.3c-0.1,0-0.3-0.1-0.3-0.2c0,0,0,0,0,0v-0.1l0.6-3.1c0.1-0.4,0-0.5-0.1-0.6
			c-0.1,0-0.1-0.1-0.1-0.2c0-0.2,0.1-0.2,0.3-0.2c0.1,0,0.3,0.1,0.4,0.2c0.1,0.1,0.1,0.2,0.1,0.4c0.3-0.4,0.8-0.6,1.3-0.6
			c0.5,0,0.7,0.1,0.7,0.4C37,49.8,36.9,49.9,36.8,49.9z M41,53.5c-0.1,0.2-0.2,0.3-0.4,0.3s-0.3-0.1-0.3-0.4
			c-0.1-1.1-0.2-2.1-0.3-3.2c-0.5,1.1-1,2.2-1.6,3.3c-0.1,0.2-0.2,0.3-0.4,0.3c-0.2,0-0.3-0.2-0.3-0.5c-0.1-1.2-0.3-2.4-0.3-3.7
			c0-0.2,0.1-0.3,0.3-0.3c0.2,0,0.3,0.1,0.3,0.3c0.1,1.1,0.2,2.2,0.3,3.3c0.6-1.1,1.1-2.3,1.6-3.4c0-0.2,0.2-0.3,0.4-0.3
			c0.2,0,0.3,0.1,0.3,0.3c0.1,1.1,0.2,2.2,0.3,3.3c0.6-1.1,1.1-2.3,1.7-3.5c0.1-0.1,0.1-0.2,0.3-0.2c0.2,0,0.3,0.2,0.2,0.4
			C42.3,51,41.7,52.2,41,53.5z M44.3,49.6l-0.7,3.9c0,0.2-0.1,0.3-0.3,0.3c-0.1,0-0.3-0.1-0.3-0.2c0,0,0,0,0,0v-0.1l0.7-3.9
			c0-0.2,0.1-0.3,0.3-0.3C44.2,49.3,44.3,49.4,44.3,49.6C44.3,49.5,44.3,49.5,44.3,49.6L44.3,49.6z M44.4,48.1
			c-0.2,0-0.3-0.1-0.3-0.3c0,0,0,0,0,0c0-0.2,0.1-0.4,0.3-0.4c0.2,0,0.4,0.2,0.4,0.4C44.7,48,44.6,48.1,44.4,48.1L44.4,48.1z
			 M46.2,49.6l-0.8,4.2c-0.2,1.1-0.7,1.5-1.6,1.5c-0.1,0-0.3-0.1-0.3-0.3c0-0.1,0.2-0.2,0.3-0.2c0.6,0,0.9-0.3,1-1.1l0.8-4.2
			c0-0.2,0.1-0.3,0.3-0.3C46,49.3,46.1,49.4,46.2,49.6C46.1,49.5,46.1,49.6,46.2,49.6C46.2,49.6,46.2,49.6,46.2,49.6z M46.2,48.1
			c-0.2,0-0.3-0.1-0.3-0.3c0,0,0,0,0,0c0-0.2,0.1-0.4,0.3-0.4c0.2,0,0.4,0.2,0.4,0.4C46.6,48,46.4,48.1,46.2,48.1L46.2,48.1z
			 M49.5,49.9c-0.1,0-0.2-0.1-0.4-0.1c-0.1,0-0.3,0-0.4,0c-0.7,0-1.1,0.3-1.1,0.7c0,0.4,0.5,0.6,1,0.8c0.5,0.2,1.1,0.4,1.1,1.2
			c0,0.9-0.8,1.3-1.8,1.3c-0.2,0-0.5,0-0.7-0.1c-0.4-0.1-0.6-0.2-0.6-0.4c0-0.1,0.1-0.3,0.2-0.3c0,0,0,0,0,0c0.1,0,0.1,0.1,0.4,0.1
			c0.2,0,0.4,0.1,0.6,0.1c0.8,0,1.3-0.3,1.3-0.8c0-0.5-0.5-0.6-1.1-0.8c-0.5-0.2-1-0.5-1-1.1c0-0.8,0.8-1.2,1.7-1.2
			c0.2,0,0.4,0,0.6,0.1c0.4,0.1,0.4,0.2,0.4,0.3C49.8,49.8,49.6,49.9,49.5,49.9z M54,49.7l-1.5,1.4c0.4,0.8,0.7,1.5,1,2.3
			c0.1,0.1,0,0.3-0.1,0.3c0,0-0.1,0-0.1,0c-0.1,0-0.2-0.1-0.3-0.2c-0.2-0.7-0.5-1.4-0.9-2.1l-0.9,0.8l-0.2,1.2
			c0,0.2-0.1,0.3-0.3,0.3c-0.1,0-0.3-0.1-0.3-0.2c0,0,0,0,0,0v-0.1l1.1-5.8c0-0.2,0.1-0.3,0.3-0.3c0.1,0,0.2,0.1,0.3,0.2
			c0,0,0,0,0,0.1v0.1l-0.7,3.8l2.3-2.1c0.1-0.1,0.3-0.1,0.4,0c0.1,0.1,0.1,0.2,0.1,0.3C54,49.6,54,49.6,54,49.7
			C54,49.7,54,49.7,54,49.7z M58.2,49.6l-0.6,3.1c-0.1,0.4,0,0.5,0.1,0.6c0.1,0,0.1,0.1,0.1,0.2c0,0.2-0.1,0.2-0.3,0.2
			c-0.1,0-0.3-0.1-0.4-0.2c-0.1-0.1-0.1-0.2-0.1-0.3c-0.4,0.3-0.8,0.5-1.3,0.5c-0.6,0.1-1.2-0.3-1.2-0.9c0-0.1,0-0.2,0-0.3
			c0-0.2,0-0.4,0.1-0.6l0.4-2.4c0-0.2,0.1-0.3,0.3-0.3c0.1,0,0.3,0.1,0.3,0.2c0,0,0,0,0,0v0.1l-0.4,2.3c0,0.2-0.1,0.4-0.1,0.6
			c0,0.5,0.2,0.8,0.8,0.8c0.5,0,0.9-0.2,1.2-0.6l0.6-3.1c0-0.2,0.1-0.3,0.3-0.3C58.1,49.3,58.2,49.4,58.2,49.6
			C58.2,49.5,58.2,49.5,58.2,49.6L58.2,49.6z M62.7,51.1l-0.5,2.4c0,0.2-0.1,0.3-0.3,0.3c-0.1,0-0.3-0.1-0.3-0.2c0,0,0,0,0,0v-0.1
			l0.5-2.4c0-0.2,0-0.3,0-0.5c0-0.4-0.2-0.8-0.7-0.8c-0.5,0-0.9,0.2-1.3,0.6l-0.6,3.1c0,0.2-0.1,0.3-0.3,0.3c-0.1,0-0.3-0.1-0.3-0.2
			c0,0,0,0,0,0v-0.1l0.6-3.1c0.1-0.4,0-0.5-0.1-0.6c-0.1,0-0.1-0.1-0.1-0.2c0-0.2,0.1-0.2,0.3-0.2c0.1,0,0.3,0.1,0.4,0.2
			c0.1,0.1,0.1,0.2,0.1,0.3c0.4-0.3,0.9-0.5,1.4-0.5c0.6-0.1,1.1,0.4,1.2,1c0,0.1,0,0.2,0,0.2C62.8,50.7,62.8,50.9,62.7,51.1z
			 M67.6,47.6l-1,5.1c-0.1,0.4,0,0.5,0.1,0.6c0.1,0,0.1,0.1,0.1,0.2c0,0.2-0.1,0.2-0.3,0.2c-0.2,0-0.4-0.1-0.4-0.3c0,0,0-0.1,0-0.1
			c-0.3,0.2-0.8,0.4-1.2,0.4c-0.7,0-1.3-0.5-1.3-1.2c0-0.1,0-0.1,0-0.2c0-0.2,0-0.4,0.1-0.6l0.1-0.6c0.2-1,0.6-1.9,1.8-1.9
			c0.4,0,0.8,0.2,1.1,0.4l0.4-2.1c0-0.2,0.1-0.3,0.3-0.3c0.1,0,0.2,0.1,0.3,0.2C67.6,47.5,67.6,47.5,67.6,47.6
			C67.6,47.6,67.6,47.6,67.6,47.6z M65.6,49.8c-0.9,0-1.1,0.7-1.3,1.4l-0.1,0.8c0,0.1,0,0.2,0,0.4c0,0.6,0.3,0.9,0.8,0.9
			c0.4,0,0.7-0.2,1-0.4l0.5-2.6C66.3,49.9,66,49.8,65.6,49.8L65.6,49.8z M69.2,49.6l-0.7,3.9c0,0.2-0.1,0.3-0.3,0.3
			c-0.1,0-0.3-0.1-0.3-0.2c0,0,0,0,0,0v-0.1l0.7-3.9c0-0.2,0.1-0.3,0.3-0.3C69.1,49.3,69.2,49.4,69.2,49.6
			C69.2,49.5,69.2,49.5,69.2,49.6L69.2,49.6z M69.3,48.1c-0.2,0-0.3-0.1-0.3-0.3c0,0,0,0,0,0c0-0.2,0.1-0.4,0.3-0.4
			c0.2,0,0.4,0.2,0.4,0.4C69.6,48,69.5,48.1,69.3,48.1L69.3,48.1z M73.5,49.6l-0.7,3.8c-0.2,1.1-0.7,1.9-2,1.9
			c-0.4,0-0.7-0.1-1.1-0.2c-0.1,0-0.2-0.1-0.2-0.2c0-0.1,0.1-0.3,0.2-0.3c0,0,0,0,0,0c0.1,0,0.1,0,0.1,0c0.3,0.1,0.6,0.2,0.8,0.2
			c0.9,0,1.2-0.6,1.4-1.5v-0.1c-0.3,0.2-0.6,0.3-1,0.3c-0.7,0-1.3-0.5-1.3-1.2c0-0.1,0-0.1,0-0.2c0-0.2,0-0.4,0.1-0.7l0.1-0.4
			c0.2-1,0.6-1.9,1.8-1.9c0.4,0,0.8,0.1,1.1,0.4v-0.1c0-0.2,0.1-0.3,0.3-0.3c0.1,0,0.3,0.1,0.3,0.2c0,0,0,0,0,0
			C73.5,49.5,73.5,49.6,73.5,49.6L73.5,49.6z M71.9,49.8c-0.9,0-1.2,0.7-1.3,1.4l-0.1,0.6c0,0.1,0,0.3,0,0.4c0,0.6,0.3,0.9,0.8,0.9
			c0.4,0,0.7-0.2,1-0.4l0.5-2.5C72.6,49.9,72.2,49.8,71.9,49.8z M77.6,51.2l0,0.3c0,0.1-0.2,0.2-0.3,0.2h-2.5l0,0.2
			c0,0.1,0,0.2,0,0.4c-0.1,0.5,0.3,1,0.8,1c0.1,0,0.1,0,0.2,0c0.3,0,0.6-0.1,0.8-0.1c0.1,0,0.2-0.1,0.3-0.1c0.1,0,0.2,0.1,0.2,0.3
			c0,0.1-0.1,0.2-0.2,0.2c-0.4,0.2-0.8,0.2-1.2,0.2c-0.8,0-1.4-0.6-1.4-1.3c0-0.1,0-0.2,0-0.2c0-0.1,0-0.3,0-0.4l0.1-0.7
			c0-1,0.9-1.8,1.9-1.8c0.7-0.1,1.3,0.4,1.4,1.1c0,0.1,0,0.2,0,0.3C77.6,50.9,77.6,51,77.6,51.2L77.6,51.2z M76.2,49.7
			c-0.8,0-1.2,0.6-1.4,1.3v0.1h2.2v-0.1c0-0.1,0-0.3,0-0.4C77.1,50.1,76.8,49.7,76.2,49.7L76.2,49.7z M81.9,51.1l-0.5,2.4
			c0,0.2-0.1,0.3-0.3,0.3c-0.1,0-0.3-0.1-0.3-0.2c0,0,0,0,0,0v-0.1l0.5-2.4c0-0.2,0-0.3,0-0.5c0-0.4-0.2-0.8-0.7-0.8
			c-0.5,0-0.9,0.2-1.3,0.6l-0.6,3.1c0,0.2-0.1,0.3-0.3,0.3c-0.1,0-0.3-0.1-0.3-0.2c0,0,0,0,0,0v-0.1l0.6-3.1c0.1-0.4,0-0.5-0.1-0.6
			c-0.1,0-0.1-0.1-0.1-0.2c0-0.2,0.1-0.2,0.3-0.2c0.1,0,0.3,0.1,0.4,0.2c0.1,0.1,0.1,0.2,0.1,0.3c0.4-0.3,0.9-0.5,1.4-0.5
			c0.6-0.1,1.1,0.4,1.2,1c0,0.1,0,0.2,0,0.2C82,50.7,82,50.9,81.9,51.1L81.9,51.1z"/>
	</g>
	<path id="path6" class="st0" d="M172.3,41.6c-11.4,0-20.7-9.3-20.7-20.7s9.3-20.7,20.7-20.7c11.4,0,20.7,9.3,20.7,20.7
		C193,32.3,183.7,41.6,172.3,41.6z M172.3,9.1c-6.5,0-11.8,5.3-11.8,11.8s5.3,11.8,11.8,11.8s11.8-5.3,11.8-11.8
		C184.1,14.4,178.8,9.1,172.3,9.1z"/>
	<path id="path8" class="st0" d="M172.3,41.7c-11.4,0-20.7-9.3-20.7-20.7c0-2.5,2.1-4.4,4.5-4.4c2.4,0,4.3,2,4.4,4.4
		c0,6.5,5.3,11.8,11.8,11.8s11.8-5.3,11.8-11.8s-5.3-11.8-11.8-11.8c-2.5,0-4.5-1.9-4.5-4.4c0-2.5,1.9-4.5,4.4-4.5c0,0,0.1,0,0.1,0
		c11.4,0,20.7,9.3,20.7,20.7C193,32.4,183.7,41.7,172.3,41.7z M104.9,41.6c-2.3,0-4.1-1.9-4.2-4.1c0,0,0,0,0,0V17.7
		c-0.1-5.1-4.2-9.2-9.3-9.2c-4,0-9.2,4.8-9.5,8.8v0.4c0.1,2.3-1.7,4.2-4,4.3c-2.3,0.1-4.2-1.7-4.3-4c0-0.1,0-0.2,0-0.3V9.8L71,7
		c-1.6-1.7-1.5-4.3,0.2-5.8c1.7-1.6,4.3-1.5,5.8,0.2l3.3,3.5c6.9-6.4,17.7-6.1,24.1,0.8c3,3.3,4.7,7.6,4.6,12v19.8
		c0,2.2-1.7,4.1-4,4.2C105,41.6,105,41.6,104.9,41.6z M131.7,41.7c-1.7,0-3.3-1-4-2.6L113,6.5c-1-2.2,0-4.8,2.3-5.8
		c2.2-1,4.7,0,5.8,2.2l10.6,23.6l10.5-23.5c1-2.2,3.6-3.3,5.8-2.3c2.2,1,3.3,3.6,2.3,5.8c0,0,0,0.1,0,0.1L135.7,39
		C135,40.6,133.4,41.7,131.7,41.7L131.7,41.7z"/>
	<path id="path10" class="st0" d="M80.3,4.8L77,1.3c-1.6-1.7-4.2-1.7-5.8-0.2C69.5,2.7,69.4,5.3,71,7l2.7,2.9l9.7,3.6L80.3,4.8z
		 M127.7,39c0.7,1.6,2.3,2.6,4,2.6c1.7,0,3.3-1,4-2.6l-4.1-12.6L127.7,39z"/>
</g>
</svg>
