<?xml version="1.0" encoding="utf-8"?>
<!-- Generator: Adobe Illustrator 28.3.0, SVG Export Plug-In . SVG Version: 6.00 Build 0)  -->
<svg version="1.1"
	 id="layer" xmlns:inkscape="http://www.inkscape.org/namespaces/inkscape" xmlns:sodipodi="http://sodipodi.sourceforge.net/DTD/sodipodi-0.dtd" xmlns:svg="http://www.w3.org/2000/svg"
	 xmlns="http://www.w3.org/2000/svg" xmlns:xlink="http://www.w3.org/1999/xlink" x="0px" y="0px" viewBox="0 0 652 652"
	 style="enable-background:new 0 0 652 652;" xml:space="preserve">
<style type="text/css">
	.st0{fill:#FFFFFF;}
</style>
<sodipodi:namedview  bordercolor="#666666" borderopacity="1.0" id="namedview2622" inkscape:current-layer="layer" inkscape:cx="326.5216" inkscape:cy="326" inkscape:pagecheckerboard="0" inkscape:pageopacity="0.0" inkscape:pageshadow="2" inkscape:window-height="847" inkscape:window-maximized="0" inkscape:window-width="1296" inkscape:window-x="0" inkscape:window-y="25" inkscape:zoom="0.95858896" pagecolor="#ffffff" showgrid="false">
	</sodipodi:namedview>
<path id="path2619" class="st0" d="M462.5,288l2.9-1.1c-2.6-4.8-4.3-10.5-4.3-15.8c0-18.4,11-22.8,27.4-22.8
	c16.4,0,27.4,5.2,27.4,23.6c0,4.4-1,8-2.9,12.3H531v11.1h-68.4L462.5,288z M488.5,259.8c-9.4,0-17.5,1.6-17.5,12.3
	c0,5.4,1,9.1,2.5,12.3h30.1c0.6-1.3,2.3-6.2,2.3-12.3C506,261.4,497.9,259.8,488.5,259.8 M454.6,543.4v-20.2h-10V575h10v-20.2h59.8
	v-11.5H454.6z M514.3,479.6l0.2-11.1h-36.6c-10.5,0-16.8,5.4-16.8,18.9c0,4.3,1.5,10.3,3.3,14.2h-19.9v11.1h69.9v-11.1h-40.9
	c-1.3-3-2.5-7.4-2.5-12.9c0-5,1.6-9,6.5-9L514.3,479.6L514.3,479.6z M479.6,366.3c-19,0-36.4-5.7-36.4-29.5
	c0-24.5,17.4-29.4,36.4-29.4c19,0,36.4,5.6,36.4,29.4C515.9,361.3,498.4,366.3,479.6,366.3 M479.6,354.4c14.5,0,26.3-2.5,26.3-17.6
	c0-15.1-11.7-17.4-26.3-17.4c-14.6,0-26.3,2.4-26.3,17.5C453.2,352,464.9,354.4,479.6,354.4 M471,156c0-1.3-0.2-8.8,6.7-8.8h36.9
	V136h-36.7c-10.5,0-16.7,5.6-16.7,18.9c0,5.2,1.5,11.6,4.3,16.3l-2.9,1.1v7.4h52v-11.1h-41.1C472.2,165.7,471,161.4,471,156
	 M493.1,227c9.1-0.8,12.7-4.9,12.7-15.8c0-5-1-10.1-3-16.5h9.5c2.6,6.6,3.5,13.1,3.5,19.2c0,18.5-11,24.5-27.4,24.5
	c-16.1,0-27.4-6.5-27.4-24.5c0-19,13.4-21.8,27.8-21.9h4.2L493.1,227L493.1,227z M484.3,227v-23.5c-7,0-14.2,1.8-14.2,10.8
	C470.1,223.8,476,226.4,484.3,227 M493.1,446.7c9-0.8,12.7-5,12.7-15.8c0-5-1-10.1-2.9-16.4h9.5c2.6,6.6,3.5,13.1,3.5,19.2
	c0,18.5-11,24.5-27.4,24.5c-16.1,0-27.4-6.5-27.4-24.5c0-19,13.4-21.9,27.8-21.9h4.2V446.7z M484.7,446.5v-23.4
	c-7,0-14.2,1.9-14.2,10.8C470.5,443.4,476.4,446.1,484.7,446.5 M557.1,530.8h44.4c15.7,0,16.9,9.7,16.9,15.7s-1.2,15.7-16.9,15.7
	h-44.3v11h45.7c22.4,0,26-16.7,26-26.8s-3.5-26.8-26-26.8h-45.7L557.1,530.8L557.1,530.8z M560.1,442.8c-4,0-7.1,3.2-7.1,7.3
	c0,4,3.1,7.3,7.1,7.3c3.9,0,7-3.2,7-7.3S564,442.8,560.1,442.8 M617.2,455.6c8.3,0,11.4-4.4,11.4-10.8c0-2.6-0.1-3.9-0.2-5.1H619
	v1.9c0,3-0.9,3-2.7,3h-41.1v11H617.2 M617.2,241.2c8.3,0,11.4-4.4,11.4-10.8c0-2.6-0.1-3.9-0.3-5.1H619v1.9c0,3-0.9,3-2.7,3h-41.1
	v11.1L617.2,241.2 M615.8,409l-40.5,13.4v12.1l53.4-21v-9l-53.3-21v12L615.8,409z M605.9,368.7c9-0.8,12.7-4.8,12.7-15.4
	c0-4.9-0.9-9.9-2.9-16h9.5c2.6,6.5,3.5,12.7,3.5,18.7c0,18.1-11,23.9-27.3,23.9c-16.1,0-27.4-6.4-27.4-23.9
	c0-18.5,13.4-21.3,27.8-21.3h4.2L605.9,368.7L605.9,368.7z M597.1,345.6c-7,0-14.2,1.8-14.2,10.7c0,9.4,5.9,12,14.2,12.4V345.6z
	 M574.4,295.8c-0.4,2-0.4,4.8-0.4,7.2c0,3.9,1.7,9.9,4.1,13.3l-2.9,1.1v7.4h52.2v-11h-41.1c-1.3-2.8-2.2-6.4-2.2-10.5
	c0-2.8,0.1-5.2,0.5-7.4H574.4z M611.6,250.2c-9.2,0-14.4,3.6-15.9,19.1c-0.7,8.2-2.3,9.7-5.3,9.7c-3.7,0-6.7-1.7-6.7-9.9
	c0-6.3,1.4-11.2,3-16.4h-9.8c-2.3,5.6-3,11.4-3,16.3c0,15.4,8.7,20.4,16.5,20.4c7.7,0,13.5-3.2,14.8-19c0.7-8.3,3-9.6,6.5-9.6
	c3.5,0,7,2.5,7,11.1c0,6.7-1.7,12.7-3.1,16.9h10.1c1.6-3.9,2.9-11.7,2.9-16.8C628.6,255.5,619.9,250.2,611.6,250.2 M618.4,185.7
	c0.2,1,0.3,4.7,0.3,6.8c0,5.6-1.7,8-6,8h-28.4v-14.8h-9.1v14.8h-14.6l1.5,10.8h13.1l0.5,9.3h8.6v-9.3h29.7
	c10.2,0,14.5-6.8,14.5-15.5c0-4.1-0.2-7.7-0.7-10.2L618.4,185.7L618.4,185.7z M575.3,129.2v11.5l37.6,13.3l-37.6,11.6v12.3
	l49.6-18.6l18.9,7.5v-10.4L575.3,129.2z M583.8,485.4c0-1.3-0.2-8.6,6.6-8.6h36.9v-10.9h-36.6c-10.5,0-16.8,5.4-16.8,18.5
	c0,5.1,1.5,11.3,4.3,15.9l-2.9,1.1v7.3h52v-10.8h-41C585.1,494.8,583.8,490.7,583.8,485.4 M560.1,227.6c-4,0-7.1,3.2-7.1,7.3
	s3.1,7.3,7.1,7.3c3.9,0,7-3.2,7-7.3C567.1,230.8,564,227.6,560.1,227.6 M169.6,351c-44.8,12-90.3-15-101.6-60.5
	c-11.4-45.4,15.7-91.9,60.4-103.9s90.2,15.1,101.6,60.5C241.3,292.4,214.2,339.1,169.6,351 M355.5,132.2H32
	c-10.1,0-21.9,10.2-21.9,20.8v242.4C10.1,501.9,92,577,193.1,577s183.1-75.1,183.1-181.6V154.1C376.1,143.5,365.6,132.2,355.5,132.2
	"/>
</svg>
