<?xml version="1.0" encoding="utf-8"?>
<!-- Generator: Adobe Illustrator 28.3.0, SVG Export Plug-In . SVG Version: 6.00 Build 0)  -->
<svg version="1.1" id="Layer_1" xmlns="http://www.w3.org/2000/svg" xmlns:xlink="http://www.w3.org/1999/xlink" x="0px" y="0px"
	 viewBox="0 0 79 95" style="enable-background:new 0 0 79 95;" xml:space="preserve">
<style type="text/css">
	.st0{fill-rule:evenodd;clip-rule:evenodd;fill:#FFFFFF;}
	.st1{filter:url(#Adobe_OpacityMaskFilter);}
	.st2{mask:url(#mask-2_00000088834050849960210170000018135834614751696516_);fill-rule:evenodd;clip-rule:evenodd;fill:#FFFFFF;}
	.st3{filter:url(#Adobe_OpacityMaskFilter_00000034080284599949398820000014175445110596703375_);}
	.st4{mask:url(#mask-4_00000011716157574120710890000007517003849992792723_);fill-rule:evenodd;clip-rule:evenodd;fill:#FFFFFF;}
	.st5{filter:url(#Adobe_OpacityMaskFilter_00000147916489515434428940000012917671671491571382_);}
	.st6{mask:url(#mask-6_00000170266907262244255020000007853524307995383715_);fill-rule:evenodd;clip-rule:evenodd;fill:#FFFFFF;}
</style>
<g id="Desktop">
	<g id="D-home-v8" transform="translate(-61.000000, -78.000000)">
		<g id="Group-45" transform="translate(61.000000, 78.000000)">
			<polygon id="Fill-1" class="st0" points="58.6,0 39.1,46.1 19.5,0 0,0 29.3,69.1 48.8,69.1 78.1,0 			"/>
			<polygon id="Fill-2" class="st0" points="57.1,16.9 58,15 60.8,16.2 59,12.6 60,10.2 61.9,14.2 67,13.1 66,15.5 62.7,16.1 
				63.2,17.2 65,17.9 64.2,19.9 			"/>
			<polygon id="Fill-3" class="st0" points="44,47.8 44.9,45.9 50.2,48.1 51.6,44.7 53.3,45.5 51.1,50.8 			"/>
			<polygon id="Fill-4" class="st0" points="46.6,41.7 49,36.1 50.7,36.8 49.1,40.5 50.2,41 51.6,37.6 53.1,38.2 51.7,41.6 
				52.8,42.1 54.4,38.3 56.1,39 53.6,44.7 			"/>
			<g id="Group-44" transform="translate(9.000000, 18.128900)">
				<path id="Fill-5" class="st0" d="M45.3,14.9c0.3-0.7,0.1-1.2-0.4-1.4l0,0c-0.6-0.2-1,0-1.3,0.7L43,15.5l1.7,0.7L45.3,14.9z
					 M40.5,16.7l1.4-3.3c0.5-1.1,1.1-1.7,1.7-2c0.6-0.2,1.2-0.2,1.9,0.1l0,0c1.1,0.5,1.5,1.3,1.5,2.4l3.2-0.6l-1,2.2L46.6,16l0,0
					l-0.4,0.8l2.1,0.9l-0.8,1.9L40.5,16.7z"/>
				<polygon id="Fill-7" class="st0" points="43.6,9.4 44.5,7.4 51.5,10.4 50.7,12.4 				"/>
				<path id="Fill-9" class="st0" d="M48.5,7.8L48.5,7.8c-2.1-0.9-3-3.1-2.1-5.3C47,1.2,48,0.5,49.1,0.2l0.5,1.9
					c-0.7,0.2-1.2,0.5-1.5,1.2c-0.4,1,0.1,2,1.1,2.5l0,0c1.1,0.4,2.2,0.1,2.6-0.9C52.2,4.2,52,3.6,51.7,3l1.7-1
					c0.6,1,0.9,2.2,0.3,3.8C52.8,7.8,50.6,8.7,48.5,7.8"/>
				<polygon id="Fill-11" class="st0" points="34.7,30.3 33.8,32.5 37.1,35.9 32.4,35.9 31.4,38.1 39.7,38.1 40.1,37.1 40.5,36.2 
									"/>
				<path id="Fill-13" class="st0" d="M4.4,64.5c0.6,0,1-0.3,1-0.7v0c0-0.4-0.3-0.7-1-0.7H2.7v1.4H4.4z M4.1,61.6c0.6,0,1-0.2,1-0.7
					v0c0-0.4-0.3-0.7-1-0.7H2.7v1.3H4.1z M0.7,58.6h3.9c1,0,1.6,0.2,2.1,0.7C7,59.6,7.2,60,7.2,60.5v0c0,0.9-0.5,1.4-1.2,1.7
					c0.9,0.3,1.5,0.8,1.5,1.9v0c0,1.3-1.1,2.1-2.9,2.1H0.7V58.6z"/>
				<path id="Fill-15" class="st0" d="M8.8,62.9v-4.3H11v4.2c0,1.1,0.6,1.6,1.4,1.6s1.4-0.5,1.4-1.6v-4.3h2.2v4.2
					c0,2.5-1.4,3.6-3.6,3.6S8.8,65.3,8.8,62.9"/>
				<path id="Fill-17" class="st0" d="M17,65.1l1.2-1.4c0.8,0.6,1.6,0.9,2.5,0.9c0.6,0,0.9-0.2,0.9-0.5v0c0-0.3-0.3-0.5-1.3-0.7
					c-1.6-0.4-2.9-0.8-2.9-2.4v0c0-1.4,1.1-2.4,3-2.4c1.3,0,2.3,0.3,3.1,1L22.5,61c-0.7-0.5-1.5-0.8-2.1-0.8c-0.5,0-0.8,0.2-0.8,0.5
					v0c0,0.3,0.3,0.5,1.3,0.7c1.8,0.4,2.9,0.9,2.9,2.4v0c0,1.6-1.2,2.5-3.1,2.5C19.3,66.4,18,65.9,17,65.1"/>
				<polygon id="Fill-19" class="st0" points="25.2,61.4 25.2,58.6 27.4,58.6 27.4,66.2 25.2,66.2 				"/>
				<polygon id="Fill-21" class="st0" points="29.2,58.6 31.2,58.6 34.3,62.6 34.3,58.6 36.4,58.6 36.4,66.2 34.6,66.2 31.3,62 
					31.3,66.2 29.2,66.2 				"/>
				<polygon id="Fill-23" class="st0" points="38.2,58.6 44.4,58.6 44.4,60.4 40.3,60.4 40.3,61.5 44,61.5 44,63.2 40.3,63.2 
					40.3,64.4 44.4,64.4 44.4,66.2 38.2,66.2 				"/>
				<path id="Fill-25" class="st0" d="M45.4,65.1l1.2-1.4c0.8,0.6,1.6,0.9,2.5,0.9c0.6,0,0.9-0.2,0.9-0.5v0c0-0.3-0.3-0.5-1.3-0.7
					c-1.6-0.4-2.9-0.8-2.9-2.4v0c0-1.4,1.1-2.4,3-2.4c1.3,0,2.3,0.3,3.1,1L50.8,61c-0.7-0.5-1.5-0.8-2.1-0.8c-0.5,0-0.8,0.2-0.8,0.5
					v0c0,0.3,0.3,0.5,1.3,0.7c1.8,0.4,2.9,0.9,2.9,2.4v0c0,1.6-1.2,2.5-3.1,2.5C47.6,66.4,46.3,65.9,45.4,65.1"/>
				<path id="Fill-27" class="st0" d="M52.8,65.1l1.2-1.4c0.8,0.6,1.6,0.9,2.5,0.9c0.6,0,0.9-0.2,0.9-0.5v0c0-0.3-0.2-0.5-1.3-0.7
					c-1.6-0.4-2.9-0.8-2.9-2.4v0c0-1.4,1.1-2.4,3-2.4c1.3,0,2.3,0.3,3.1,1L58.2,61c-0.7-0.5-1.5-0.8-2.1-0.8c-0.5,0-0.8,0.2-0.8,0.5
					v0c0,0.3,0.3,0.5,1.3,0.7c1.8,0.4,2.9,0.9,2.9,2.4v0c0,1.6-1.2,2.5-3.1,2.5C55,66.4,53.7,65.9,52.8,65.1"/>
				<path id="Fill-29" class="st0" d="M4.8,74.7l1.2-1.4c0.8,0.6,1.6,0.9,2.5,0.9c0.6,0,0.9-0.2,0.9-0.5v0c0-0.3-0.3-0.5-1.3-0.7
					c-1.6-0.4-2.9-0.8-2.9-2.4v0c0-1.4,1.1-2.4,3-2.4c1.3,0,2.3,0.4,3.1,1l-1.1,1.5c-0.7-0.5-1.5-0.8-2.1-0.8
					c-0.5,0-0.8,0.2-0.8,0.5v0c0,0.3,0.3,0.5,1.3,0.7c1.8,0.4,2.9,0.9,2.9,2.4v0c0,1.6-1.2,2.5-3.1,2.5C7,76,5.7,75.6,4.8,74.7"/>
				<g id="Group-33" transform="translate(12.000000, 68.000000)">
					<g id="Clip-32">
					</g>
					<defs>
						<filter id="Adobe_OpacityMaskFilter" filterUnits="userSpaceOnUse" x="0.6" y="0" width="7.3" height="8">
							<feColorMatrix  type="matrix" values="1 0 0 0 0  0 1 0 0 0  0 0 1 0 0  0 0 0 1 0"/>
						</filter>
					</defs>
					
						<mask maskUnits="userSpaceOnUse" x="0.6" y="0" width="7.3" height="8" id="mask-2_00000088834050849960210170000018135834614751696516_">
						<g class="st1">
							<polygon id="path-1_00000016777518495928396620000001289855238703202460_" class="st0" points="0.6,0 8,0 8,8 0.6,8 							
								"/>
						</g>
					</mask>
					<path id="Fill-31" class="st2" d="M0.6,4L0.6,4c0-2.3,1.7-4,4-4c1.6,0,2.6,0.7,3.2,1.6L6.3,2.9C5.9,2.3,5.4,2,4.6,2
						C3.6,2,2.8,2.9,2.8,4v0c0,1.1,0.8,2,1.8,2c0.8,0,1.3-0.4,1.7-0.9L8,6.3C7.2,7.3,6.3,8,4.6,8C2.4,8,0.6,6.3,0.6,4"/>
				</g>
				<polygon id="Fill-34" class="st0" points="21.3,68.2 23.4,68.2 23.4,71.1 26.2,71.1 26.2,68.2 28.3,68.2 28.3,75.8 26.2,75.8 
					26.2,72.9 23.4,72.9 23.4,75.8 21.3,75.8 				"/>
				<g id="Group-38" transform="translate(29.000000, 68.000000)">
					<g id="Clip-37">
					</g>
					<defs>
						
							<filter id="Adobe_OpacityMaskFilter_00000154409151800043998510000005151989321290451085_" filterUnits="userSpaceOnUse" x="0.8" y="0" width="8.2" height="8">
							<feColorMatrix  type="matrix" values="1 0 0 0 0  0 1 0 0 0  0 0 1 0 0  0 0 0 1 0"/>
						</filter>
					</defs>
					
						<mask maskUnits="userSpaceOnUse" x="0.8" y="0" width="8.2" height="8" id="mask-4_00000011716157574120710890000007517003849992792723_">
						<g style="filter:url(#Adobe_OpacityMaskFilter_00000154409151800043998510000005151989321290451085_);">
							<polygon id="path-3_00000171716695347382331660000010097981684435322013_" class="st0" points="0.8,0 9,0 9,8 0.8,8 							
								"/>
						</g>
					</mask>
					<path id="Fill-36" class="st4" d="M6.9,4L6.9,4c0-1.1-0.8-2.1-2-2.1C3.7,2,3,2.9,3,4v0c0,1.1,0.8,2.1,2,2.1
						C6.1,6.1,6.9,5.1,6.9,4 M0.8,4L0.8,4c0-2.2,1.8-4,4.1-4C7.3,0,9,1.8,9,4v0c0,2.2-1.8,4-4.1,4S0.8,6.2,0.8,4"/>
				</g>
				<g id="Group-41" transform="translate(39.000000, 68.000000)">
					<g id="Clip-40">
					</g>
					<defs>
						
							<filter id="Adobe_OpacityMaskFilter_00000150808088769564985040000015438232809375083179_" filterUnits="userSpaceOnUse" x="0.3" y="0" width="8.2" height="8">
							<feColorMatrix  type="matrix" values="1 0 0 0 0  0 1 0 0 0  0 0 1 0 0  0 0 0 1 0"/>
						</filter>
					</defs>
					
						<mask maskUnits="userSpaceOnUse" x="0.3" y="0" width="8.2" height="8" id="mask-6_00000170266907262244255020000007853524307995383715_">
						<g style="filter:url(#Adobe_OpacityMaskFilter_00000150808088769564985040000015438232809375083179_);">
							<polygon id="path-5_00000179613382390491097370000010600419361763612844_" class="st0" points="0.3,0 8.6,0 8.6,8 0.3,8 
															"/>
						</g>
					</mask>
					<path id="Fill-39" class="st6" d="M6.4,4L6.4,4c0-1.1-0.8-2.1-2-2.1C3.3,2,2.5,2.9,2.5,4v0c0,1.1,0.8,2.1,2,2.1
						C5.6,6.1,6.4,5.1,6.4,4 M0.3,4L0.3,4c0-2.2,1.8-4,4.1-4c2.4,0,4.1,1.8,4.1,4v0c0,2.2-1.8,4-4.1,4C2.1,8,0.3,6.2,0.3,4"/>
				</g>
				<polygon id="Fill-42" class="st0" points="49.1,68.2 51.2,68.2 51.2,74 54.9,74 54.9,75.8 49.1,75.8 				"/>
			</g>
		</g>
	</g>
</g>
</svg>
