<?xml version="1.0" encoding="utf-8"?>
<!-- Generator: Adobe Illustrator 28.3.0, SVG Export Plug-In . SVG Version: 6.00 Build 0)  -->
<svg version="1.1"
	 id="layer" xmlns:inkscape="http://www.inkscape.org/namespaces/inkscape" xmlns:sodipodi="http://sodipodi.sourceforge.net/DTD/sodipodi-0.dtd" xmlns:svg="http://www.w3.org/2000/svg"
	 xmlns="http://www.w3.org/2000/svg" xmlns:xlink="http://www.w3.org/1999/xlink" x="0px" y="0px" viewBox="0 0 600.1 145"
	 style="enable-background:new 0 0 600.1 145;" xml:space="preserve">
<style type="text/css">
	.st0{fill:#FFFFFF;}
</style>
<sodipodi:namedview  bordercolor="#666666" borderopacity="1.0" id="namedview115" inkscape:current-layer="layer" inkscape:cx="194.2351" inkscape:cy="62.470209" inkscape:pagecheckerboard="0" inkscape:pageopacity="0.0" inkscape:pageshadow="2" inkscape:window-height="847" inkscape:window-maximized="1" inkscape:window-width="1440" inkscape:window-x="0" inkscape:window-y="25" inkscape:zoom="0.95245399" pagecolor="#ffffff" showgrid="false">
	</sodipodi:namedview>
<path id="path108" class="st0" d="M40.2,142.2L0,33.1h24.2l31.4,84.3L86,33.1h16L63.1,142.2H40.2z M115.3,33.1h22.6v67
	c0,12.1,2,19.9,6.2,24.2c4.2,3.9,9.5,5.9,16,5.9s11.4-2,15.4-5.9c3.9-3.9,5.6-11.4,5.6-22.5V33.2h19.6v67c0,12.7-1.6,21.6-4.9,27.1
	c-3.3,5.6-7.8,9.8-13.7,13.1s-13.7,4.6-22.9,4.6c-9.1,0-16.7-1.3-23.2-4.2s-11.8-7.2-15.4-13.1c-3.9-5.9-5.6-15-5.6-27.4v-67h0.3
	L115.3,33.1z"/>
<path id="path110" class="st0" d="M246.3,83.4c0-0.3,0.3-1,1-1c0.3,0,1,0.3,1,1c0,0.3-0.3,1-1,1S246.3,84,246.3,83.4 M300.2,109.8
	c-1.3-3.6-4.9-5.9-9.5-5.6c-2.6-4.9-6.9-2.6-8.2-1.3c1.3,1.3,2.3,1.6,3.9,2v1c-2.9,0-3.9-1.3-5.9-3.6c-1,7.2,7.5,9.8,10.1,3.9
	c3.9,0,6.5,1.6,7.2,4.2c1,2.6,0,5.2-1.3,6.5c-2.3,2.9-6.2,2.9-9.8,1c-2.3-1-4.6-3.3-6.5-5.6c-2.9-3.3-4.6-4.9-6.9-5.9
	c-1.3-0.7-2.6-1-3.6-1c-0.7,0-1.3-0.3-2.3-0.3c-0.7,0-1.3,0-2,0.3c-5.2,0.7-10.5,2.9-16.7,3.6h-3c-2,2-3.9,3.6-5.6,4.9l-3.9,3.3l0,0
	c-1.6,1.6-2.6,2.3-2.6,2.3c0.3,3.6,0.7,5.6,0.7,8.8c0,2.9,0,4.2,0,5.2c0,1.3-0.3,2.3-0.7,3.3s-1,1.6-2.3,1.6c-1,0.3-3.6-1.6-4.6-0.3
	c-0.7,1,0,3.3,1,3.9h7.2c1-1.6,1.3-2.9,1.6-3.9c0.7-1,1-2.3,1.6-2.9c0.7-1,1-2,1.3-2.9c0-1,0.3-1.6,0.7-2.3c0.7-1.3,1.3-2.6,1.6-3.3
	c0-0.3,0.3-0.3,0.3-0.7c0.3,0.3,0.7,1,0.7,1.3c1.6,2.6,3.3,4.6,5.6,5.6c1,0.3,1.6,1,2,1.3c0.3,0.3,0.3,1.3,0.3,2.3s-0.3,2-1.3,2.3
	c-1.6,0.7-3.9-1.6-4.9-0.3c-1,1,0,2.6,1,3.9h6.5c1.6-2.6,2.3-5.9,2.3-8.8c0-2.9,0-3.6-2-4.6c-0.7-0.3-1.3-2-1.6-3.3c0-0.3,0-0.3,0-1
	c2.9-1,6.5-2.9,10.1-5.6c0,0.7,0,1,0,1.6c0.7,4.2,1,7.8,4.2,10.8c1,1,1.6,1.6,1.6,2.3c0,0.3-0.3,1.6-1,2.3c-0.7,1.6-2.3,2.9-3.6,2.9
	c-1.6,0.3-3.3-2-4.6-0.7c-1,1,0.3,3.3,1,3.9h6.5c2.3-3.9,5.2-7.2,6.2-9.5c0.7-1.6,0.7-2.3-0.7-2.6c-2.3-1.3-2-3.9-1.3-6.9
	c0-0.7,0.3-1,0.7-1.6c1.6,4.6,3.9,8.8,8.8,10.1c1,0,2,0.7,2.3,1c0,0.3,0,1.3,0,2c-0.3,1.3-1,3.3-2.3,3.9c-1.3,1-4.2-2.3-5.2-0.3
	c-0.7,1.3,0.7,3.3,1,3.9h6.5c1.6-3.9,3.3-7.5,3.9-10.1c0.3-2.9,0.3-4.2-2-4.6c-1.3,0-2.3-0.7-2.6-2.3c-1-2.9-0.7-8.2-2.9-11.4
	c2.6,2.9,5.2,5.2,7.8,6.5c5.6,2.9,11.4,2,14-2C300.9,115.4,300.9,112.1,300.2,109.8 M355.4,33.7c-4.9-0.7-16,0.7-25.8,2.6
	c5.9-2.9,7.8-3.6,9.8-4.9c0.7-0.3,1-1.3,1-2.6c0-1.3-1.3-1.6-2.9-1.3c-1.6,0-4.9,1.3-9.1,2.6c-8.2,3.3-19.9,8.8-34,18.3
	C282,56.9,273.8,64.1,265,72.9c-2.3,2.3-4.9,5.2-7.8,8.5c-0.3-0.7-0.7-1-1.6-0.7c3.3-7.2,3.6-7.5,5.2-11.4c0.7-2,0.3-3.3-0.3-4.2
	c-1-1.6-2.3-0.7-3.3,0c-1.3,1.6-1.6,2-4.6,5.6c3.6-12.1,5.6-13.1,8.8-19.9c0.3-1,0.3-2.3,0-3.3s-1-1.3-1.6-1
	c-1.3,0.7-1.6,1.3-4.2,4.2c3.6-6.9,8.5-15,9.1-16.3c0.7-1.3,1.3-1.6,0-3.9c-1.3-2-2.3-0.3-3.3,0.3c-0.7,0.3-2.3,2-4.6,4.9
	c5.2-9.8,10.1-14.4,11.1-16c1.3-2,1.3-2.3,0.3-4.6c-1-2-2.6-1-3.3,0c-3.6,3.6-3.6,2.6-9.8,10.1c3.3-8.5,8.8-15,10.8-18.3
	c1-1.3,1-2,0-4.9c-0.3-1.3-1.6-2-2.9-2c-1.6,0.7-3.3,1.6-6.5,4.6c-6.9,6.2-16,15-23.5,31c-7.2,15-8.8,29.1-8.8,38.9
	c0,15,3.9,28.1,7.5,36.6c0-0.3,0-0.7,0-1c-0.3-3.9,0.3-8.8,1.3-11.1c1.6-5.9,3.6-9.1,5.2-11.8l-2.9-3.9l3.9,1.3l-2.3-5.2
	c0,0,2.9,0.3,5.2,3.3c1.3-1.3,4.2-2.3,6.9-0.3c2,0,2.9,0.3,3.9,0.7c2,1.3,1.6,3.3,1.6,3.9c-1-1-4.2-2.9-7.2-0.3l5.9,2l-7.5,0.7v7.8
	l-9.1,8.2v2.9l6.2-5.6v2.9l-10.8,9.8v2.9l13.7-12.4l0,0l3.6-2.9l0,0c2-1.6,2.9-2.6,4.2-3.3c1.3-1,1.6,0,2,1.6c0.3,1.3,2,2.6,5.2-0.3
	c9.5-8.8,19.6-13.4,30.4-18.6c-5.9,3.9-16.3,9.8-19.9,13.7c-1.6,2,0,6.2,2.6,4.2c4.6-2.9,10.5-3.6,13.7-3.3c1.3,0,2.9-1,3.9-2.3
	c1-1,1-2.3-1-2.3c9.8-2.9,12.4-3.9,20.6-4.6c2.3,0,3.6-1.3,3.9-3.3c0.3-1.6-0.3-2.3-2.6-2.3c-2.3-0.3-6.5,0.3-10.8,1
	c9.5-3.9,20.9-6.2,30-8.8c2.9-1,3.3-1.6,3.3-3.3c0.3-2-1-2-4.2-2c-6.5,0.3-16.3,1-31.4,5.2c14-7.2,22.2-10.5,34.9-13.7
	c3.6-1,3.9-2,4.2-3.6c0.7-2-1-2-2.3-2c-2,0-6.2,0-15,2.6c8.5-3.6,18-8.2,24.5-10.1c1.3-0.7,2.3-1.3,2.3-2.9c0-1.3-0.3-1.3-1.6-1.3
	c-2.9,0-7.5,1-13.1,2.6c11.4-4.9,15-6.5,22.9-7.8c2.6-0.7,2.9-1.3,3.3-2.9C358.4,33.7,357,33.7,355.4,33.7 M240.8,72.9
	c0-1-0.7-1.6-1.3-2c1.6-4.2,3.3-7.2,6.5-11.8C243.1,65.1,241.7,70.3,240.8,72.9 M230.3,69.3c2.3-24.5,13.4-42.5,20.9-51
	C240.4,34.7,234.2,57.3,230.3,69.3 M271.1,76.5c14.4-13.7,34-28.1,58.8-34C309,49.7,280.3,69.3,271.1,76.5"/>
<path id="path112" class="st0" d="M587,99.4V79.5h-8.5v-3.3h21.6v3.3h-8.2v19.9H587z M386.8,56.9l-8.5-23.5h5.2l6.5,18.3l6.5-18.3
	h3.6l-8.5,23.5H386.8z M407.7,44.2h1c2,0,3.3-0.3,4.2-1.3c0.7-1,1.3-2,1.3-2.9s-0.3-1.6-1-2.3s-2-1-3.9-1h-1.6V44.2z M403.1,56.9
	V33.7h8.8c1.6,0,3.3,0.3,3.9,0.7c1,0.3,1.6,1,2.3,2c0.7,1,0.7,2,0.7,2.9c0,1.3-0.3,2.6-1.3,3.9c-0.7,1.3-2,2.3-3.3,2.9l7.5,10.8
	h-5.9l-5.9-9.5h-2.6v9.5L403.1,56.9L403.1,56.9z M425.3,33.4h4.9v23.2h-4.9V33.4z M432.2,60.9v-3.6c1.3,0.7,2.6,0.7,3.9,0.7
	c0.7,0,1,0,1.6-0.3c0.3-0.3,0.7-0.7,1-1s0.3-1.3,0.3-2.9V33.2h4.9V53c0,2.3-0.3,3.9-0.7,4.9c-0.7,1-1.3,2-2.3,2.3
	c-1,0.7-2.6,1-4.2,1C434.8,61.5,433.5,61.5,432.2,60.9 M449.5,56.9V33.4h15v3.3h-10.1v6.5h8.5v3.3h-8.5v7.2h10.8V57L449.5,56.9
	L449.5,56.9z M380.6,76.2h4.9v14.4c0,2.6,0.3,4.2,1.3,5.2s2,1.3,3.3,1.3s2.6-0.3,3.3-1.3c0.7-1,1.3-2.3,1.3-4.9V76.2h4.2v14.4
	c0,2.6-0.3,4.6-1,5.9s-1.6,2-2.9,2.6c-1.3,0.7-2.9,1-4.9,1s-3.6-0.3-4.9-1s-2.6-1.6-3.3-2.9c-0.7-1.3-1.3-3.3-1.3-5.9V76.2z
	 M404.7,99.4V76.2h4.2l10.8,16v-16h3.9v23.2h-4.2l-10.7-15.7v15.7C408.7,99.4,404.7,99.4,404.7,99.4z M429.9,76.2h4.9v23.2h-4.9
	V76.2z M446.5,99.4L438,76.2h5.2l6.5,18l6.5-18h3.6l-8.5,23.2C451.3,99.4,446.5,99.4,446.5,99.4z M462.5,99.4V76.2h14.7v3.3h-9.8V86
	h8.2v2.9h-8.2v7.2h10.8v3.3H462.5z M486.7,86.7h1c2,0,3.3-0.3,4.2-1.3c0.7-1,1.3-2,1.3-2.9s-0.3-1.6-1-2.3c-0.7-0.7-2-1-3.9-1h-1.6
	V86.7z M482.1,99.4V76.2h8.8c1.6,0,3.3,0.3,3.9,0.7c1,0.3,1.6,1,2.3,2c0.7,1,0.7,2,0.7,2.9c0,1.3-0.3,2.6-1.3,3.9
	c-0.7,1.3-2,2.3-3.3,2.6l7.5,10.8h-5.9l-5.9-9.5h-2.6v9.5h-4.2V99.4z M502.4,99.4v-3.9c2,0.7,3.3,1.3,4.2,1.3c1,0,1.6,0.3,2.6,0.3
	c1.3,0,2.3-0.3,2.9-1c0.6-0.7,1-1.3,1-2.3c0-0.7-0.3-1.3-0.7-1.6c-0.3-0.7-1.3-1.3-2.6-2l-1.6-1c-2.3-1.3-3.9-2.3-4.6-3.6
	c-0.7-1-1.3-2.3-1.3-3.6c0-1.6,0.7-3.3,2-4.6c1.3-1.3,3.3-2,5.9-2c2,0,3.9,0.3,6.2,0.7v3.6c-2.3-1-4.2-1.3-5.9-1.3
	c-1.3,0-2,0.3-2.6,0.7c-0.7,0.7-1,1-1,2c0,0.7,0.3,1,0.7,1.6c0.3,0.3,1.3,1,2.6,2l1.6,1c2.6,1.3,4.2,2.6,4.9,3.6s1,2.3,1,3.6
	c0,2-0.7,3.6-2.3,4.9c-1.3,1.3-3.9,2-6.9,2C507.3,100,505,99.7,502.4,99.4 M522.3,76.2h4.9v23.2h-4.9V76.2z M537.3,99.4V79.5h-8.5
	v-3.3h21.6v3.3h-8.5v19.9H537.3z M552.4,99.4V76.2h14.7v3.3H557V86h8.5v2.9H557v7.2h11.1v3.3H552.4z M572,76.2h4.9v23.2H572V76.2z
	 M385.5,132.7h7.2l-3.6-9.1L385.5,132.7z M378.3,142.2l9.1-23.2h4.9l9.1,23.2h-4.9l-2.3-6.2h-9.8l-2.3,6.2H378.3z M404.4,142.2
	v-23.5h6.2l5.9,16.7l5.6-16.7h5.9v23.5h-4.6v-17.6l-5.9,16h-3.9l-5.6-16.3v18h-3.6V142.2z M432.5,141.9V138c2,0.7,3.3,1.3,3.9,1.3
	c1,0,1.6,0.3,2.6,0.3c1.3,0,2.3-0.3,2.9-1c0.7-0.7,1-1.3,1-2.3c0-0.7-0.3-1.3-0.7-1.6c-0.3-0.7-1.3-1.3-2.6-2l-1.6-1
	c-2.3-1.3-3.9-2.3-4.6-3.6c-0.7-1-1.3-2.3-1.3-3.6c0-1.6,0.7-3.3,2-4.6c1.3-1.3,3.3-2,5.9-2c2,0,3.9,0.3,6.2,0.7v3.6
	c-2.3-1-4.2-1.3-5.9-1.3c-1.3,0-2,0.3-2.6,0.7c-0.7,0.7-1,1-1,2c0,0.7,0.3,1,0.7,1.6c0.3,0.3,1.3,1,2.6,2l1.6,1
	c2.6,1.3,4.2,2.6,4.9,3.9c0.7,1,1,2.3,1,3.6c0,2-0.7,3.6-2.3,4.9c-1.3,1.3-3.9,2-6.9,2C437.4,142.5,435.1,142.5,432.5,141.9
	 M456.3,142.2v-20.3h-8.2v-3.3h21.6v3.3h-8.5v20.3H456.3z M471.7,142.2v-23.5h14.7v3.3h-9.8v6.5h8.2v3.3h-8.2v7.2h10.8v3.3h-15.7
	V142.2z M495.5,129.4h1c2,0,3.3-0.3,4.2-1.3c0.7-1,1-2,1-2.9s-0.3-1.6-1-2.3c-0.7-0.7-2-1-3.9-1h-1.6v7.5H495.5z M491,142.2V119h8.8
	c1.6,0,3.3,0.3,4.2,0.7c0.9,0.4,1.6,1,2.3,2c0.7,1,1,2,1,2.9c0,1.3-0.3,2.6-1.3,3.9c-0.7,1.3-2,2.3-3.3,2.9l7.5,10.8h-5.9l-5.9-9.5
	h-2.6v9.5C495.9,142.2,491,142.2,491,142.2L491,142.2z M517.4,138.9h3.6c2,0,3.3-0.3,4.2-1c1-0.7,1.6-1.6,2.3-2.9
	c0.7-1.3,1-2.9,1-4.6c0-1.6-0.3-3.3-1-4.2c-0.7-1.3-1.3-2.3-2.3-2.9c-1-0.7-2.6-1-5.2-1h-2.9V139h0.3L517.4,138.9L517.4,138.9z
	 M512.5,142.2V119h10.1c2.6,0,4.9,0.3,6.2,1.3c1.6,1,2.6,2.3,3.6,3.9s1.3,3.6,1.3,6.2c0,2.3-0.3,4.2-1.3,6.2s-2,3.3-3.6,4.2
	s-3.9,1.6-6.5,1.6h-9.8V142.2z M541.3,132.7h7.2l-3.6-9.1L541.3,132.7z M534.1,142.2l9.1-23.2h4.9l9.1,23.2h-4.9L550,136h-9.8
	l-2.3,6.2H534.1z M559.5,142.2v-23.5h6.5l5.6,16.7l5.9-16.7h5.6v23.5h-4.6v-17.6l-5.6,16H569l-5.6-16.3v18h-3.9V142.2z"/>
</svg>
